<?xml version="1.0" encoding="UTF-8" standalone="no"?>
<!-- Created with Inkscape (http://www.inkscape.org/) -->
<svg
   xmlns:dc="http://purl.org/dc/elements/1.1/"
   xmlns:cc="http://creativecommons.org/ns#"
   xmlns:rdf="http://www.w3.org/1999/02/22-rdf-syntax-ns#"
   xmlns:svg="http://www.w3.org/2000/svg"
   xmlns="http://www.w3.org/2000/svg"
   xmlns:sodipodi="http://sodipodi.sourceforge.net/DTD/sodipodi-0.dtd"
   xmlns:inkscape="http://www.inkscape.org/namespaces/inkscape"
   width="765"
   height="990"
   id="svg2567"
   sodipodi:version="0.32"
   inkscape:version="0.46"
   sodipodi:docname="pacman2.svg"
   inkscape:output_extension="org.inkscape.output.svg.inkscape"
   version="1.0">
  <defs
     id="defs2569">
    <inkscape:perspective
       sodipodi:type="inkscape:persp3d"
       inkscape:vp_x="0 : 526.18109 : 1"
       inkscape:vp_y="6.1230318e-14 : 1000 : 0"
       inkscape:vp_z="744.09448 : 526.18109 : 1"
       inkscape:persp3d-origin="372.04724 : 350.78739 : 1"
       id="perspective2575" />
  </defs>
  <sodipodi:namedview
     id="base"
     pagecolor="#ffffff"
     bordercolor="#666666"
     borderopacity="1.0"
     gridtolerance="10000"
     guidetolerance="10"
     objecttolerance="10"
     inkscape:pageopacity="0.0"
     inkscape:pageshadow="2"
     inkscape:zoom="0.7"
     inkscape:cx="432.09071"
     inkscape:cy="477.1378"
     inkscape:document-units="px"
     inkscape:current-layer="layer1"
     showgrid="true"
     inkscape:window-width="1276"
     inkscape:window-height="1006"
     inkscape:window-x="0"
     inkscape:window-y="14" />
  <metadata
     id="metadata2572">
    <rdf:RDF>
      <cc:Work
         rdf:about="">
        <dc:format>image/svg+xml</dc:format>
        <dc:type
           rdf:resource="http://purl.org/dc/dcmitype/StillImage" />
      </cc:Work>
    </rdf:RDF>
  </metadata>
  <g
     inkscape:label="Layer 1"
     inkscape:groupmode="layer"
     id="layer1">
    <path
       style="fill:#383838;fill-opacity:1;fill-rule:nonzero;stroke:none;stroke-width:1;stroke-miterlimit:4;stroke-opacity:1"
       d="M 640.23956,571.85324 L 640.23956,602.09073 L 670.47703,602.09073 L 670.47703,579.59554 L 669.01677,579.59554 L 669.01677,577.10957 L 670.47703,577.10957 L 670.47703,571.85324 L 640.23956,571.85324 z M 655.3567,583.61208 C 657.21124,583.61208 658.71819,585.11584 658.71819,586.97038 C 658.71819,588.82493 657.21124,590.33187 655.3567,590.33187 C 653.50216,590.33187 651.9984,588.82492 651.9984,586.97038 C 651.9984,585.11584 653.50216,583.61208 655.3567,583.61208 z M 659.59372,588.50415 C 659.7953,588.50415 659.95799,588.66683 659.95799,588.86842 C 659.95799,589.06999 659.7953,589.23587 659.59372,589.23587 C 659.39214,589.23587 659.22945,589.06999 659.22945,588.86842 C 659.22945,588.66683 659.39214,588.50415 659.59372,588.50415 z M 655.37907,591.46622 C 656.03166,591.46372 656.67794,591.69101 656.74668,592.15643 C 656.88483,593.09186 656.94093,599.08889 656.74668,600.18948 C 656.55121,601.29693 654.20568,601.27449 653.96992,600.18948 C 653.74176,599.13941 653.776,593.07396 653.96992,592.15643 C 654.06617,591.70101 654.72647,591.46871 655.37907,591.46622 z"
       id="rect2579" />
    <g
       id="g4573"
       transform="translate(5.7142857,-1.4285714)"
       style="fill:none">
      <rect
         y="107.36217"
         x="108.75"
         height="63.75"
         width="63.75"
         id="rect4469"
         style="fill:none;fill-opacity:1;fill-rule:nonzero;stroke:#004aff;stroke-width:14.16666698;stroke-linecap:round;stroke-linejoin:round;stroke-miterlimit:4;stroke-dasharray:none;stroke-opacity:1" />
      <rect
         y="107.36217"
         x="236.25"
         height="63.75"
         width="63.75"
         id="rect4471"
         style="fill:none;fill-opacity:1;fill-rule:nonzero;stroke:#004aff;stroke-width:14.16666698;stroke-linecap:round;stroke-linejoin:round;stroke-miterlimit:4;stroke-dasharray:none;stroke-opacity:1" />
      <rect
         y="107.36217"
         x="427.5"
         height="63.75"
         width="63.75"
         id="rect4473"
         style="fill:none;fill-opacity:1;fill-rule:nonzero;stroke:#004aff;stroke-width:14.16666698;stroke-linecap:round;stroke-linejoin:round;stroke-miterlimit:4;stroke-dasharray:none;stroke-opacity:1" />
      <rect
         y="107.36217"
         x="555"
         height="63.75"
         width="63.75"
         id="rect4475"
         style="fill:none;fill-opacity:1;fill-rule:nonzero;stroke:#004aff;stroke-width:14.16666698;stroke-linecap:round;stroke-linejoin:round;stroke-miterlimit:4;stroke-dasharray:none;stroke-opacity:1" />
      <path
         id="path4477"
         d="M 363.75001,43.612172 L 363.75001,171.11217 L 363.75001,171.11217"
         style="fill:none;fill-rule:evenodd;stroke:#004aff;stroke-width:14.16666698;stroke-linecap:round;stroke-linejoin:round;stroke-miterlimit:4;stroke-dasharray:none;stroke-opacity:1" />
      <path
         sodipodi:nodetypes="cc"
         id="path4487"
         d="M 236.25,234.86217 L 491.25001,234.86217"
         style="fill:none;fill-rule:evenodd;stroke:#004aff;stroke-width:14.16666698;stroke-linecap:round;stroke-linejoin:round;stroke-miterlimit:4;stroke-dasharray:none;stroke-opacity:1" />
      <path
         sodipodi:nodetypes="cccccccccccccccccccc"
         d="M 682.5,394.23718 L 618.75,394.23718 L 618.75,489.86218 L 682.5,489.86218 L 682.49998,617.36217 L 45.037819,617.36217 L 45,489.86218 L 108.75,489.86218 L 108.75,394.23718 L 45,394.23718 M 682.5,330.48718 L 618.75,330.48718 L 618.75,234.86218 L 682.5,234.86218 L 682.49998,43.574635 L 45.037819,43.574635 L 45,234.86218 L 108.75,234.86218 L 108.75,330.48718 L 45,330.48718"
         style="fill:none;fill-opacity:1;fill-rule:nonzero;stroke:#004aff;stroke-width:14.16666698;stroke-linecap:round;stroke-linejoin:round;stroke-miterlimit:4;stroke-opacity:1"
         id="rect3437" />
      <path
         sodipodi:nodetypes="cccccc"
         id="rect4493"
         d="M 395.62501,298.61217 L 491.25001,298.61217 L 491.25001,426.11218 L 236.25,426.11218 L 236.25,298.61217 L 331.87501,298.61217"
         style="fill:none;fill-opacity:1;fill-rule:nonzero;stroke:#004aff;stroke-width:14.16666698;stroke-linecap:round;stroke-linejoin:round;stroke-miterlimit:4;stroke-opacity:1" />
      <path
         sodipodi:nodetypes="cc"
         id="path4495"
         d="M 555.00001,234.86217 C 555.00001,298.61217 555.00001,330.48717 555.00001,330.48717"
         style="fill:none;fill-rule:evenodd;stroke:#004aff;stroke-width:14.16666698;stroke-linecap:round;stroke-linejoin:round;stroke-miterlimit:4;stroke-dasharray:none;stroke-opacity:1" />
      <path
         sodipodi:nodetypes="cc"
         id="path4497"
         d="M 172.5,234.86217 C 172.5,298.61217 172.5,330.48717 172.5,330.48717"
         style="fill:none;fill-rule:evenodd;stroke:#004aff;stroke-width:14.16666698;stroke-linecap:round;stroke-linejoin:round;stroke-miterlimit:4;stroke-dasharray:none;stroke-opacity:1" />
      <path
         id="path4499"
         d="M 236.25,489.86218 L 491.25001,489.86218"
         style="fill:none;fill-rule:evenodd;stroke:#004aff;stroke-width:14.16666698;stroke-linecap:round;stroke-linejoin:round;stroke-miterlimit:4;stroke-dasharray:none;stroke-opacity:1" />
      <path
         id="path4501"
         d="M 363.75001,489.86218 L 363.75001,553.61218"
         style="fill:none;fill-rule:evenodd;stroke:#004aff;stroke-width:14.16666698;stroke-linecap:round;stroke-linejoin:round;stroke-miterlimit:4;stroke-dasharray:none;stroke-opacity:1" />
      <path
         sodipodi:nodetypes="cc"
         id="path4503"
         d="M 618.75001,553.61218 L 427.50001,553.61218"
         style="fill:none;fill-rule:evenodd;stroke:#004aff;stroke-width:14.16666698;stroke-linecap:round;stroke-linejoin:round;stroke-miterlimit:4;stroke-dasharray:none;stroke-opacity:1" />
      <path
         sodipodi:nodetypes="cc"
         id="path4505"
         d="M 300.00001,553.61218 L 108.75,553.61218"
         style="fill:none;fill-rule:evenodd;stroke:#004aff;stroke-width:14.16666698;stroke-linecap:round;stroke-linejoin:round;stroke-miterlimit:4;stroke-dasharray:none;stroke-opacity:1" />
      <path
         sodipodi:nodetypes="ccc"
         id="path4507"
         d="M 555.00001,553.61218 L 555.00001,426.11218 L 555.00001,394.23718"
         style="fill:none;fill-rule:evenodd;stroke:#004aff;stroke-width:14.16666698;stroke-linecap:round;stroke-linejoin:round;stroke-miterlimit:4;stroke-dasharray:none;stroke-opacity:1" />
      <path
         sodipodi:nodetypes="cc"
         id="path4509"
         d="M 172.5,553.61218 L 172.5,394.23718"
         style="fill:none;fill-rule:evenodd;stroke:#004aff;stroke-width:14.16666698;stroke-linecap:round;stroke-linejoin:round;stroke-miterlimit:4;stroke-dasharray:none;stroke-opacity:1" />
    </g>
    <path
       id="path4591"
       d="M 68.810986,570.84308 L 68.810986,601.08057 L 99.048456,601.08057 L 99.048456,578.58538 L 97.588196,578.58538 L 97.588196,576.09941 L 99.048456,576.09941 L 99.048456,570.84308 L 68.810986,570.84308 z M 83.928126,582.60192 C 85.782666,582.60192 87.289616,584.10568 87.289616,585.96022 C 87.289616,587.81477 85.782666,589.32171 83.928126,589.32171 C 82.073586,589.32171 80.569826,587.81476 80.569826,585.96022 C 80.569826,584.10568 82.073586,582.60192 83.928126,582.60192 z M 88.165146,587.49399 C 88.366726,587.49399 88.529416,587.65667 88.529416,587.85826 C 88.529416,588.05983 88.366726,588.22571 88.165146,588.22571 C 87.963566,588.22571 87.800876,588.05983 87.800876,587.85826 C 87.800876,587.65667 87.963566,587.49399 88.165146,587.49399 z M 83.950496,590.45606 C 84.603086,590.45356 85.249366,590.68085 85.318106,591.14627 C 85.456256,592.0817 85.512356,598.07873 85.318106,599.17932 C 85.122636,600.28677 82.777106,600.26433 82.541346,599.17932 C 82.313186,598.12925 82.347426,592.0638 82.541346,591.14627 C 82.637596,590.69085 83.297896,590.45855 83.950496,590.45606 z"
       style="fill:#383838;fill-opacity:1;fill-rule:nonzero;stroke:none;stroke-width:1;stroke-miterlimit:4;stroke-opacity:1" />
    <path
       style="fill:#383838;fill-opacity:1;fill-rule:nonzero;stroke:none;stroke-width:1;stroke-miterlimit:4;stroke-opacity:1"
       d="M 640.23956,56.743 L 640.23956,86.98049 L 670.47703,86.98049 L 670.47703,64.4853 L 669.01677,64.4853 L 669.01677,61.99933 L 670.47703,61.99933 L 670.47703,56.743 L 640.23956,56.743 z M 655.3567,68.50184 C 657.21124,68.50184 658.71819,70.0056 658.71819,71.86014 C 658.71819,73.71469 657.21124,75.22163 655.3567,75.22163 C 653.50216,75.22163 651.9984,73.71468 651.9984,71.86014 C 651.9984,70.0056 653.50216,68.50184 655.3567,68.50184 z M 659.59372,73.39391 C 659.7953,73.39391 659.95799,73.55659 659.95799,73.75818 C 659.95799,73.95975 659.7953,74.12563 659.59372,74.12563 C 659.39214,74.12563 659.22945,73.95975 659.22945,73.75818 C 659.22945,73.55659 659.39214,73.39391 659.59372,73.39391 z M 655.37907,76.35598 C 656.03166,76.35348 656.67794,76.58077 656.74668,77.04619 C 656.88483,77.98162 656.94093,83.97865 656.74668,85.07924 C 656.55121,86.18669 654.20568,86.16425 653.96992,85.07924 C 653.74176,84.02917 653.776,77.96372 653.96992,77.04619 C 654.06617,76.59077 654.72647,76.35847 655.37907,76.35598 z"
       id="path4593" />
    <g
       id="g7118">
      <path
         style="fill:#ececec;fill-opacity:1;stroke:none;stroke-width:4;stroke-linecap:round;stroke-miterlimit:4;stroke-opacity:1"
         d="M 548.1404,213.15885 L 545.20535,209.34329 L 545.20535,224.89904 L 548.1404,224.89904 L 548.1404,213.15885 z"
         id="path4879"
         sodipodi:nodetypes="ccccc" />
      <path
         style="fill:#f1e06b;fill-opacity:1;stroke:none;stroke-width:4;stroke-linecap:round;stroke-miterlimit:4;stroke-opacity:1"
         d="M 509.59539,237.32791 C 509.59539,238.76063 509.75236,248.44051 510.05004,249.78411 C 510.78214,253.47007 513.15201,255.59224 516.71083,256.39995 C 518.36493,256.70847 520.2464,249.94352 522.28833,249.90582 C 524.33027,249.86812 526.53266,256.55766 528.82859,256.55766 C 531.13529,256.55766 533.34757,249.86433 535.39756,249.8954 C 537.44755,249.92648 539.33526,256.68196 540.99282,256.36207 C 544.7459,255.73934 546.70824,253.17254 547.6336,249.66285 C 547.91412,248.35657 548.0618,238.71758 548.0618,237.32791 C 548.0618,226.71308 539.44532,218.09815 528.82859,218.09815 C 518.21186,218.09815 509.59539,226.71308 509.59539,237.32791 z"
         id="path4877"
         sodipodi:nodetypes="cccsssccssc" />
      <path
         style="fill:#00003f;fill-opacity:1;stroke:none;stroke-width:4;stroke-linecap:round;stroke-miterlimit:4;stroke-opacity:1"
         d="M 548.79329,223.90044 L 544.95381,223.90044 L 544.95381,247.87122 L 548.79329,246.41845 L 548.79329,223.90044 z"
         id="path4881"
         sodipodi:nodetypes="ccccc" />
      <path
         style="fill:#2b1100;fill-opacity:1;stroke:none;stroke-width:4;stroke-linecap:round;stroke-miterlimit:4;stroke-opacity:1"
         d="M 528.82568,218.09805 C 539.44241,218.09805 548.06198,226.71761 548.06197,237.33434 C 548.06197,238.72427 547.91444,248.36344 547.63392,249.66995 C 546.70857,253.18027 544.74574,255.74025 540.99267,256.3631 C 539.3351,256.68303 537.4391,249.93451 535.38911,249.90344 C 533.33911,249.87236 531.13238,256.55766 528.82568,256.55766 C 526.52974,256.55766 524.33012,249.86573 522.28819,249.90344 C 520.24626,249.94115 518.36467,256.71057 516.71057,256.40201 C 513.15175,255.59415 510.77548,253.47331 510.04338,249.7867 C 509.7457,248.44286 509.58939,238.76732 509.58938,237.33434 C 509.58938,226.71761 518.20895,218.09805 528.82568,218.09805 z M 517.8261,228.08587 C 514.34175,228.08587 510.33106,230.11899 510.2804,233.03262 C 510.22524,236.15333 514.23798,238.95574 517.72233,238.95574 C 520.18772,238.95574 522.41672,237.63259 523.4556,235.57026 C 524.38276,237.90357 526.55248,239.44865 529.21481,239.44865 C 532.69916,239.44864 542.0199,236.06206 541.9065,233.4135 C 541.82836,231.58819 532.80293,228.59175 529.31858,228.59175 C 526.85051,228.59175 524.31162,230.22256 523.274,232.28854 C 522.34727,229.95432 520.48908,228.08587 517.8261,228.08587 z"
         id="path4883"
         sodipodi:nodetypes="csccsssccsccsscssscc" />
      <path
         style="fill:#ff0000;fill-rule:evenodd;stroke:none;stroke-width:1px;stroke-linecap:butt;stroke-linejoin:miter;stroke-opacity:1"
         d="M 552.01015,231.99448 C 552.01015,231.99448 547.75559,225.35322 547.34052,228.05123 C 546.92544,230.74924 550.66114,231.16432 552.01015,231.99448 z"
         id="path4885" />
      <path
         id="path4887"
         d="M 553.73821,228.67654 C 553.73821,228.67654 545.8676,228.16563 548.02813,226.49719 C 550.18865,224.82875 552.35907,227.89747 553.73821,228.67654 z"
         style="fill:#ff0000;fill-rule:evenodd;stroke:none;stroke-width:1px;stroke-linecap:butt;stroke-linejoin:miter;stroke-opacity:1" />
      <path
         sodipodi:type="arc"
         style="fill:#ffffff;fill-opacity:1;stroke:none;stroke-width:4;stroke-linecap:round;stroke-miterlimit:4;stroke-dasharray:none;stroke-opacity:1"
         id="path4889"
         sodipodi:cx="239.5"
         sodipodi:cy="417.86218"
         sodipodi:rx="15.5"
         sodipodi:ry="15.5"
         d="M 255,417.86218 A 15.5,15.5 0 1 1 224,417.86218 A 15.5,15.5 0 1 1 255,417.86218 z"
         transform="matrix(-0.2958955,0,0,0.2958955,588.00769,110.09301)" />
      <path
         sodipodi:type="arc"
         style="fill:#000000;fill-opacity:1;stroke:none;stroke-width:4;stroke-linecap:round;stroke-miterlimit:4;stroke-dasharray:none;stroke-opacity:1"
         id="path4891"
         sodipodi:cx="239.5"
         sodipodi:cy="417.86218"
         sodipodi:rx="15.5"
         sodipodi:ry="15.5"
         d="M 255,417.86218 A 15.5,15.5 0 1 1 224,417.86218 A 15.5,15.5 0 1 1 255,417.86218 z"
         transform="matrix(-0.1813553,0,0,0.1813553,560.52441,159.32235)" />
      <path
         transform="matrix(-0.2958955,0,0,0.2958955,599.84351,110.09301)"
         d="M 255,417.86218 A 15.5,15.5 0 1 1 224,417.86218 A 15.5,15.5 0 1 1 255,417.86218 z"
         sodipodi:ry="15.5"
         sodipodi:rx="15.5"
         sodipodi:cy="417.86218"
         sodipodi:cx="239.5"
         id="path4893"
         style="fill:#ffffff;fill-opacity:1;stroke:none;stroke-width:4;stroke-linecap:round;stroke-miterlimit:4;stroke-dasharray:none;stroke-opacity:1"
         sodipodi:type="arc" />
      <path
         transform="matrix(-0.1813553,0,0,0.1813553,572.36023,159.32235)"
         d="M 255,417.86218 A 15.5,15.5 0 1 1 224,417.86218 A 15.5,15.5 0 1 1 255,417.86218 z"
         sodipodi:ry="15.5"
         sodipodi:rx="15.5"
         sodipodi:cy="417.86218"
         sodipodi:cx="239.5"
         id="path4895"
         style="fill:#000000;fill-opacity:1;stroke:none;stroke-width:4;stroke-linecap:round;stroke-miterlimit:4;stroke-dasharray:none;stroke-opacity:1"
         sodipodi:type="arc" />
      <path
         sodipodi:type="star"
         style="fill:#999999;fill-opacity:1;stroke:none;stroke-width:4;stroke-linecap:round;stroke-miterlimit:4;stroke-dasharray:none;stroke-opacity:1"
         id="path4897"
         sodipodi:sides="4"
         sodipodi:cx="458"
         sodipodi:cy="437.5"
         sodipodi:r1="7.3527207"
         sodipodi:r2="2.9098985"
         sodipodi:arg1="0.95449939"
         sodipodi:arg2="1.1053447"
         inkscape:flatsided="false"
         inkscape:rounded="0"
         inkscape:randomized="0"
         d="M 462.25,443.5 L 459.30604,440.10034 L 452,441.75 L 455.39966,438.80604 L 453.75,431.5 L 456.69396,434.89966 L 464,433.25 L 460.60034,436.19396 L 462.25,443.5 z"
         transform="matrix(-0.5447905,0,0,0.5447905,761.52102,4.9076226)" />
      <path
         transform="matrix(-0.5447905,0,0,0.5447905,767.43589,6.464167)"
         d="M 462.25,443.5 L 459.30604,440.10034 L 452,441.75 L 455.39966,438.80604 L 453.75,431.5 L 456.69396,434.89966 L 464,433.25 L 460.60034,436.19396 L 462.25,443.5 z"
         inkscape:randomized="0"
         inkscape:rounded="0"
         inkscape:flatsided="false"
         sodipodi:arg2="1.1053447"
         sodipodi:arg1="0.95449939"
         sodipodi:r2="2.9098985"
         sodipodi:r1="7.3527207"
         sodipodi:cy="437.5"
         sodipodi:cx="458"
         sodipodi:sides="4"
         id="path4899"
         style="fill:#999999;fill-opacity:1;stroke:none;stroke-width:4;stroke-linecap:round;stroke-miterlimit:4;stroke-dasharray:none;stroke-opacity:1"
         sodipodi:type="star" />
      <path
         style="fill:#ff0000;fill-opacity:1;stroke:none;stroke-width:4;stroke-linecap:round;stroke-miterlimit:4;stroke-opacity:1"
         d="M 545.05758,225.14568 L 512.68146,225.14568 C 511.36547,225.53277 511.76555,226.26308 511.74753,226.90976 L 546.30282,226.90976 C 546.4712,226.03001 545.9954,225.47234 545.05758,225.14568 z"
         id="path4901"
         sodipodi:nodetypes="ccccc" />
      <path
         sodipodi:type="arc"
         style="fill:#ff0000;fill-opacity:1;stroke:none;stroke-width:4;stroke-linecap:round;stroke-miterlimit:4;stroke-dasharray:none;stroke-opacity:1"
         id="path4903"
         sodipodi:cx="393.125"
         sodipodi:cy="404.125"
         sodipodi:rx="3.625"
         sodipodi:ry="3.625"
         d="M 396.75,404.125 A 3.625,3.625 0 1 1 389.5,404.125 A 3.625,3.625 0 1 1 396.75,404.125 z"
         transform="matrix(-0.4150785,0,0,0.4150785,710.15506,59.32182)" />
    </g>
    <g
       id="g6919">
      <path
         style="fill:#c87137;fill-opacity:1;stroke:none;stroke-width:4;stroke-linecap:round;stroke-miterlimit:4;stroke-opacity:1"
         d="M 167.44249,478.32162 C 167.44249,479.63656 167.29845,488.52066 167.02529,489.75379 C 166.35349,493.13673 164.17884,495.08444 160.91318,495.82575 C 159.39534,496.1089 157.66886,489.9001 155.79513,489.8655 C 153.9214,489.8309 151.90043,495.97049 149.79363,495.97049 C 147.67694,495.97049 145.6469,489.82742 143.76578,489.85594 C 141.88466,489.88446 140.15245,496.08457 138.63143,495.79098 C 135.18751,495.21945 133.38682,492.86366 132.53769,489.64251 C 132.28028,488.44361 132.14476,479.59705 132.14476,478.32162 C 132.14476,468.57945 140.05145,460.67276 149.79363,460.67276 C 159.5358,460.67276 167.44249,468.57945 167.44249,478.32162 z"
         id="path4984"
         sodipodi:nodetypes="cccsssccssc" />
      <path
         sodipodi:type="arc"
         style="fill:#ffffff;fill-opacity:1;stroke:none;stroke-width:4;stroke-linecap:round;stroke-miterlimit:4;stroke-dasharray:none;stroke-opacity:1"
         id="path4990"
         sodipodi:cx="239.5"
         sodipodi:cy="417.86218"
         sodipodi:rx="15.5"
         sodipodi:ry="15.5"
         d="M 255,417.86218 A 15.5,15.5 0 1 1 224,417.86218 A 15.5,15.5 0 1 1 255,417.86218 z"
         transform="matrix(0.271521,0,0,0.271521,95.489417,361.74075)" />
      <path
         sodipodi:type="arc"
         style="fill:#000000;fill-opacity:1;stroke:none;stroke-width:4;stroke-linecap:round;stroke-miterlimit:4;stroke-dasharray:none;stroke-opacity:1"
         id="path4994"
         sodipodi:cx="239.5"
         sodipodi:cy="417.86218"
         sodipodi:rx="15.5"
         sodipodi:ry="15.5"
         d="M 255,417.86218 A 15.5,15.5 0 1 1 224,417.86218 A 15.5,15.5 0 1 1 255,417.86218 z"
         transform="matrix(0.1664161,0,0,0.1664161,120.76965,404.68164)" />
      <path
         sodipodi:nodetypes="ccccc"
         id="path5016"
         d="M 132.02416,484.95588 C 146.0143,479.77585 153.77571,472.03317 161.65016,464.75633 C 162.16236,464.98478 162.63642,465.25137 162.7948,465.83364 C 156.17492,472.5878 149.89346,479.3208 132.09149,486.77384 C 131.75598,486.16785 131.64385,485.56187 132.02416,484.95588 z"
         style="fill:#000000;fill-rule:evenodd;stroke:none;stroke-width:1px;stroke-linecap:butt;stroke-linejoin:miter;stroke-opacity:1" />
      <path
         transform="matrix(0.271521,0,0,0.271521,84.628574,361.74075)"
         d="M 255,417.86218 A 15.5,15.5 0 1 1 224,417.86218 A 15.5,15.5 0 1 1 255,417.86218 z"
         sodipodi:ry="15.5"
         sodipodi:rx="15.5"
         sodipodi:cy="417.86218"
         sodipodi:cx="239.5"
         id="path4998"
         style="fill:#000000;fill-opacity:1;stroke:none;stroke-width:4;stroke-linecap:round;stroke-miterlimit:4;stroke-dasharray:none;stroke-opacity:1"
         sodipodi:type="arc" />
      <path
         sodipodi:nodetypes="ccc"
         id="path5113"
         d="M 131.18044,475.8092 C 139.6455,476.29106 148.7574,469.62999 159.08036,462.38296 C 145.10043,452.96876 131.71598,463.80131 131.18044,475.8092 z"
         style="fill:#ff0000;fill-rule:evenodd;stroke:none;stroke-width:1px;stroke-linecap:butt;stroke-linejoin:miter;stroke-opacity:1" />
      <path
         style="fill:#ffffff;fill-opacity:1;stroke:none;stroke-width:4;stroke-linecap:round;stroke-miterlimit:4;stroke-dasharray:none;stroke-opacity:1"
         d="M 150.25923,459.87827 C 149.9252,460.07797 150.11432,460.47511 150.52887,460.75084 C 150.61294,460.75516 150.69194,460.72835 150.76485,460.70266 C 150.71869,460.90044 150.75553,460.95303 150.7169,461.21484 C 150.97986,461.10815 151.11049,461.06878 151.3487,461.04458 C 151.33949,460.87678 151.37715,460.88602 151.35993,460.74803 C 151.42491,460.77598 151.49036,460.7862 151.56679,460.79013 C 152.32822,460.69139 152.25327,460.0511 151.60866,459.83513 C 151.40858,459.82482 151.24576,459.90307 151.14127,460.0373 C 150.98046,459.91231 150.77085,459.85633 150.5829,459.7763 C 150.44669,459.79759 150.33631,459.83219 150.25923,459.87827 z M 147.91783,462.0626 C 147.77538,462.14386 147.65218,462.31355 147.57672,462.54939 C 147.58365,462.74962 147.67663,462.91147 147.81936,463.00404 C 147.70736,463.17922 147.66273,463.38316 147.60618,463.58135 C 147.76904,464.32249 148.41541,464.19979 148.57815,463.55247 C 148.57523,463.46833 148.55307,463.3923 148.5212,463.32188 C 148.62396,463.33669 148.62021,463.33308 148.74022,463.34444 C 148.73609,463.1203 148.73581,462.95937 148.89282,462.70773 C 148.66909,462.73813 148.67181,462.69562 148.49782,462.73275 C 148.52007,462.6656 148.54596,462.58823 148.54331,462.51175 C 148.43344,462.03756 148.15524,461.92716 147.91783,462.0626 z M 150.11434,461.66889 C 149.15213,462.25904 148.63606,463.17461 148.96614,463.71279 C 149.20572,464.10342 149.82905,464.18848 150.51798,463.98 C 150.54582,464.03223 150.56888,464.08267 150.60065,464.13447 C 151.08077,464.91728 151.82979,465.33581 152.27013,465.06575 C 152.71046,464.79569 152.67694,463.93831 152.19682,463.1555 C 152.15801,463.09223 152.11708,463.03501 152.07509,462.97671 C 152.50742,462.48227 152.68133,461.93829 152.45666,461.57197 C 152.12658,461.03378 151.07654,461.07875 150.11434,461.66889 z M 151.07484,462.09361 C 151.21523,462.0075 151.39664,462.04763 151.47978,462.18318 C 151.56292,462.31873 151.51645,462.49863 151.37606,462.58473 C 151.23567,462.67084 151.05425,462.63071 150.97111,462.49516 C 150.88797,462.35961 150.93444,462.17971 151.07484,462.09361 z M 150.17467,462.79053 C 150.31506,462.70443 150.49648,462.74455 150.57961,462.88011 C 150.66275,463.01566 150.61628,463.19555 150.47589,463.28166 C 150.33549,463.36777 150.15408,463.32764 150.07094,463.19209 C 149.9878,463.05653 150.03427,462.87664 150.17467,462.79053 z M 153.31893,461.87588 C 153.17649,461.95715 153.04452,462.13222 152.96906,462.36806 C 152.97221,462.45905 152.99472,462.53284 153.03139,462.60743 C 152.85095,462.57603 152.79988,462.55735 152.55429,462.53797 C 152.47546,462.68779 152.4135,462.79744 152.28476,462.94467 C 152.36384,463.03237 152.37335,463.12848 152.43396,463.2273 C 152.8112,463.17511 152.96125,463.15522 153.1931,463.08757 C 153.12223,463.18751 153.06843,463.32362 153.07324,463.46281 C 153.24188,464.19485 153.88518,464.08999 154.04521,463.43393 C 154.03542,463.15111 153.8466,462.92011 153.60589,462.89474 C 153.82437,462.76157 153.85676,462.56849 153.93565,462.33041 C 153.82577,461.85623 153.55635,461.74045 153.31893,461.87588 z M 150.42665,464.20498 C 150.31305,464.56883 150.52185,464.95266 150.58462,465.38743 C 150.49114,465.30823 150.36063,465.2552 150.22154,465.24803 C 149.46853,465.35105 149.55385,465.99495 150.18505,466.21181 C 150.46767,466.22638 150.69979,466.04522 150.74575,465.80757 C 150.86645,466.03728 151.05377,466.09974 151.28775,466.19931 C 152.04918,466.10055 151.97762,465.44613 151.33301,465.23015 C 151.24209,465.22547 151.15497,465.23605 151.0775,465.26617 C 151.11258,465.13347 151.07156,465.08344 151.1023,464.91302 C 150.89328,464.74265 150.82514,464.63824 150.6576,464.36506 C 150.62583,464.31327 150.45449,464.25721 150.42665,464.20498 z M 151.08312,464.2127 L 152.0303,463.63177 L 152.15939,463.84226 L 151.21222,464.42318 L 151.08312,464.2127 z"
         id="path2901" />
      <path
         sodipodi:nodetypes="csc"
         id="path5119"
         d="M 122.44249,473.81309 C 122.44249,473.81309 131.38642,471.3544 130.0419,475.89788 C 129.22582,478.65564 123.27225,474.61631 122.44249,473.81309 z"
         style="fill:#ff0000;fill-rule:evenodd;stroke:none;stroke-width:1px;stroke-linecap:butt;stroke-linejoin:miter;stroke-opacity:1" />
      <path
         style="fill:#ff0000;fill-rule:evenodd;stroke:none;stroke-width:1px;stroke-linecap:butt;stroke-linejoin:miter;stroke-opacity:1"
         d="M 123.60701,482.60228 C 123.60701,482.60228 129.68257,473.58882 131.9059,478.55181 C 133.25539,481.56421 124.9457,482.65758 123.60701,482.60228 z"
         id="path5121"
         sodipodi:nodetypes="csc" />
      <path
         transform="matrix(0.5380113,0,0,0.5380113,47.524413,319.13484)"
         d="M 158.5,292 A 4,4 0 1 1 150.5,292 A 4,4 0 1 1 158.5,292 z"
         sodipodi:ry="4"
         sodipodi:rx="4"
         sodipodi:cy="292"
         sodipodi:cx="154.5"
         id="path5123"
         style="fill:#ff0000;fill-opacity:1;stroke:none;stroke-width:4;stroke-linecap:round;stroke-miterlimit:4;stroke-dasharray:none;stroke-opacity:1"
         sodipodi:type="arc" />
    </g>
    <g
       id="g4724">
      <path
         sodipodi:nodetypes="ccccc"
         id="path3215"
         d="M 389.84539,445.82964 C 381.27532,434.22444 372.49613,445.55938 365.38012,435.62412 C 365.31559,435.65873 360.48253,451.25845 360.49746,451.07797 C 367.82636,460.42098 376.16411,450.17238 385.10895,461.20507 C 385.14529,461.22657 389.77297,445.95849 389.84539,445.82964 z"
         style="fill:#37c844;fill-opacity:1;fill-rule:evenodd;stroke:none;stroke-width:0.91903061px;stroke-linecap:butt;stroke-linejoin:miter;stroke-opacity:1;display:inline" />
      <path
         sodipodi:nodetypes="cs"
         id="path3217"
         d="M 365.18102,435.95367 L 352.18314,474.48502"
         style="fill:none;fill-rule:evenodd;stroke:#000000;stroke-width:1.15802908;stroke-linecap:round;stroke-linejoin:miter;stroke-miterlimit:4;stroke-dasharray:none;stroke-opacity:1;display:inline" />
    </g>
    <path
       transform="translate(-245.35598,-195.96959)"
       d="M 334.28571,715.93359 A 5,5 0 1 1 324.28571,715.93359 A 5,5 0 1 1 334.28571,715.93359 z"
       sodipodi:ry="5"
       sodipodi:rx="5"
       sodipodi:cy="715.93359"
       sodipodi:cx="329.28571"
       id="path4667"
       style="fill:#343434;fill-opacity:1;fill-rule:nonzero;stroke:none;stroke-width:10;stroke-linecap:round;stroke-linejoin:round;stroke-miterlimit:4;stroke-dasharray:none;stroke-opacity:1"
       sodipodi:type="arc" />
    <path
       transform="translate(8.7041085,-128.28937)"
       d="M 334.28571,715.93359 A 5,5 0 1 1 324.28571,715.93359 A 5,5 0 1 1 334.28571,715.93359 z"
       sodipodi:ry="5"
       sodipodi:rx="5"
       sodipodi:cy="715.93359"
       sodipodi:cx="329.28571"
       id="path4669"
       style="fill:#343434;fill-opacity:1;fill-rule:nonzero;stroke:none;stroke-width:10;stroke-linecap:round;stroke-linejoin:round;stroke-miterlimit:4;stroke-dasharray:none;stroke-opacity:1"
       sodipodi:type="arc" />
    <path
       sodipodi:type="arc"
       style="fill:#343434;fill-opacity:1;fill-rule:nonzero;stroke:none;stroke-width:10;stroke-linecap:round;stroke-linejoin:round;stroke-miterlimit:4;stroke-dasharray:none;stroke-opacity:1"
       id="path4671"
       sodipodi:cx="329.28571"
       sodipodi:cy="715.93359"
       sodipodi:rx="5"
       sodipodi:ry="5"
       d="M 334.28571,715.93359 A 5,5 0 1 1 324.28571,715.93359 A 5,5 0 1 1 334.28571,715.93359 z"
       transform="translate(135.73416,-128.28937)" />
    <path
       transform="translate(262.7642,-128.28937)"
       d="M 334.28571,715.93359 A 5,5 0 1 1 324.28571,715.93359 A 5,5 0 1 1 334.28571,715.93359 z"
       sodipodi:ry="5"
       sodipodi:rx="5"
       sodipodi:cy="715.93359"
       sodipodi:cx="329.28571"
       id="path4673"
       style="fill:#343434;fill-opacity:1;fill-rule:nonzero;stroke:none;stroke-width:10;stroke-linecap:round;stroke-linejoin:round;stroke-miterlimit:4;stroke-dasharray:none;stroke-opacity:1"
       sodipodi:type="arc" />
    <path
       transform="translate(199.24918,-128.28937)"
       d="M 334.28571,715.93359 A 5,5 0 1 1 324.28571,715.93359 A 5,5 0 1 1 334.28571,715.93359 z"
       sodipodi:ry="5"
       sodipodi:rx="5"
       sodipodi:cy="715.93359"
       sodipodi:cx="329.28571"
       id="path4677"
       style="fill:#343434;fill-opacity:1;fill-rule:nonzero;stroke:none;stroke-width:10;stroke-linecap:round;stroke-linejoin:round;stroke-miterlimit:4;stroke-dasharray:none;stroke-opacity:1"
       sodipodi:type="arc" />
    <path
       sodipodi:type="arc"
       style="fill:#343434;fill-opacity:1;fill-rule:nonzero;stroke:none;stroke-width:10;stroke-linecap:round;stroke-linejoin:round;stroke-miterlimit:4;stroke-dasharray:none;stroke-opacity:1"
       id="path4679"
       sodipodi:cx="329.28571"
       sodipodi:cy="715.93359"
       sodipodi:rx="5"
       sodipodi:ry="5"
       d="M 334.28571,715.93359 A 5,5 0 1 1 324.28571,715.93359 A 5,5 0 1 1 334.28571,715.93359 z"
       transform="translate(-181.84096,-128.28937)" />
    <path
       transform="translate(-118.32593,-128.28937)"
       d="M 334.28571,715.93359 A 5,5 0 1 1 324.28571,715.93359 A 5,5 0 1 1 334.28571,715.93359 z"
       sodipodi:ry="5"
       sodipodi:rx="5"
       sodipodi:cy="715.93359"
       sodipodi:cx="329.28571"
       id="path4681"
       style="fill:#343434;fill-opacity:1;fill-rule:nonzero;stroke:none;stroke-width:10;stroke-linecap:round;stroke-linejoin:round;stroke-miterlimit:4;stroke-dasharray:none;stroke-opacity:1"
       sodipodi:type="arc" />
    <path
       sodipodi:type="arc"
       style="fill:#343434;fill-opacity:1;fill-rule:nonzero;stroke:none;stroke-width:10;stroke-linecap:round;stroke-linejoin:round;stroke-miterlimit:4;stroke-dasharray:none;stroke-opacity:1"
       id="path4683"
       sodipodi:cx="329.28571"
       sodipodi:cy="715.93359"
       sodipodi:rx="5"
       sodipodi:ry="5"
       d="M 334.28571,715.93359 A 5,5 0 1 1 324.28571,715.93359 A 5,5 0 1 1 334.28571,715.93359 z"
       transform="translate(-54.810921,-128.28937)" />
    <path
       transform="translate(72.219147,-128.28937)"
       d="M 334.28571,715.93359 A 5,5 0 1 1 324.28571,715.93359 A 5,5 0 1 1 334.28571,715.93359 z"
       sodipodi:ry="5"
       sodipodi:rx="5"
       sodipodi:cy="715.93359"
       sodipodi:cx="329.28571"
       id="path4685"
       style="fill:#343434;fill-opacity:1;fill-rule:nonzero;stroke:none;stroke-width:10;stroke-linecap:round;stroke-linejoin:round;stroke-miterlimit:4;stroke-dasharray:none;stroke-opacity:1"
       sodipodi:type="arc" />
    <path
       transform="translate(326.27926,-197.9899)"
       d="M 334.28571,715.93359 A 5,5 0 1 1 324.28571,715.93359 A 5,5 0 1 1 334.28571,715.93359 z"
       sodipodi:ry="5"
       sodipodi:rx="5"
       sodipodi:cy="715.93359"
       sodipodi:cx="329.28571"
       id="path4691"
       style="fill:#343434;fill-opacity:1;fill-rule:nonzero;stroke:none;stroke-width:10;stroke-linecap:round;stroke-linejoin:round;stroke-miterlimit:4;stroke-dasharray:none;stroke-opacity:1"
       sodipodi:type="arc" />
    <path
       sodipodi:type="arc"
       style="fill:#343434;fill-opacity:1;fill-rule:nonzero;stroke:none;stroke-width:10;stroke-linecap:round;stroke-linejoin:round;stroke-miterlimit:4;stroke-dasharray:none;stroke-opacity:1"
       id="path4697"
       sodipodi:cx="329.28571"
       sodipodi:cy="715.93359"
       sodipodi:rx="5"
       sodipodi:ry="5"
       d="M 334.28571,715.93359 A 5,5 0 1 1 324.28571,715.93359 A 5,5 0 1 1 334.28571,715.93359 z"
       transform="translate(265.67011,-197.9899)" />
    <path
       transform="translate(71.720821,-580.33262)"
       d="M 334.28571,715.93359 A 5,5 0 1 1 324.28571,715.93359 A 5,5 0 1 1 334.28571,715.93359 z"
       sodipodi:ry="5"
       sodipodi:rx="5"
       sodipodi:cy="715.93359"
       sodipodi:cx="329.28571"
       id="path4701"
       style="fill:#343434;fill-opacity:1;fill-rule:nonzero;stroke:none;stroke-width:10;stroke-linecap:round;stroke-linejoin:round;stroke-miterlimit:4;stroke-dasharray:none;stroke-opacity:1"
       sodipodi:type="arc" />
    <path
       sodipodi:type="arc"
       style="fill:#343434;fill-opacity:1;fill-rule:nonzero;stroke:none;stroke-width:10;stroke-linecap:round;stroke-linejoin:round;stroke-miterlimit:4;stroke-dasharray:none;stroke-opacity:1"
       id="path4707"
       sodipodi:cx="329.28571"
       sodipodi:cy="715.93359"
       sodipodi:rx="5"
       sodipodi:ry="5"
       d="M 334.28571,715.93359 A 5,5 0 1 1 324.28571,715.93359 A 5,5 0 1 1 334.28571,715.93359 z"
       transform="translate(71.720821,-644.98241)" />
    <path
       sodipodi:type="arc"
       style="fill:#343434;fill-opacity:1;fill-rule:nonzero;stroke:none;stroke-width:10;stroke-linecap:round;stroke-linejoin:round;stroke-miterlimit:4;stroke-dasharray:none;stroke-opacity:1"
       id="path4709"
       sodipodi:cx="329.28571"
       sodipodi:cy="715.93359"
       sodipodi:rx="5"
       sodipodi:ry="5"
       d="M 334.28571,715.93359 A 5,5 0 1 1 324.28571,715.93359 A 5,5 0 1 1 334.28571,715.93359 z"
       transform="translate(6.0609056,-580.33262)" />
    <path
       transform="translate(6.0609056,-644.47733)"
       d="M 334.28571,715.93359 A 5,5 0 1 1 324.28571,715.93359 A 5,5 0 1 1 334.28571,715.93359 z"
       sodipodi:ry="5"
       sodipodi:rx="5"
       sodipodi:cy="715.93359"
       sodipodi:cx="329.28571"
       id="path4715"
       style="fill:#343434;fill-opacity:1;fill-rule:nonzero;stroke:none;stroke-width:10;stroke-linecap:round;stroke-linejoin:round;stroke-miterlimit:4;stroke-dasharray:none;stroke-opacity:1"
       sodipodi:type="arc" />
    <path
       sodipodi:type="arc"
       style="fill:#343434;fill-opacity:1;fill-rule:nonzero;stroke:none;stroke-width:10;stroke-linecap:round;stroke-linejoin:round;stroke-miterlimit:4;stroke-dasharray:none;stroke-opacity:1"
       id="path4728"
       sodipodi:cx="329.28571"
       sodipodi:cy="715.93359"
       sodipodi:rx="5"
       sodipodi:ry="5"
       d="M 334.28571,715.93359 A 5,5 0 1 1 324.28571,715.93359 A 5,5 0 1 1 334.28571,715.93359 z"
       transform="translate(265.67011,-323.65289)" />
    <path
       sodipodi:type="arc"
       style="fill:#343434;fill-opacity:1;fill-rule:nonzero;stroke:none;stroke-width:10;stroke-linecap:round;stroke-linejoin:round;stroke-miterlimit:4;stroke-dasharray:none;stroke-opacity:1"
       id="path4730"
       sodipodi:cx="329.28571"
       sodipodi:cy="715.93359"
       sodipodi:rx="5"
       sodipodi:ry="5"
       d="M 334.28571,715.93359 A 5,5 0 1 1 324.28571,715.93359 A 5,5 0 1 1 334.28571,715.93359 z"
       transform="translate(265.67011,-260.82142)" />
    <path
       transform="translate(265.67011,-386.48437)"
       d="M 334.28571,715.93359 A 5,5 0 1 1 324.28571,715.93359 A 5,5 0 1 1 334.28571,715.93359 z"
       sodipodi:ry="5"
       sodipodi:rx="5"
       sodipodi:cy="715.93359"
       sodipodi:cx="329.28571"
       id="path4732"
       style="fill:#343434;fill-opacity:1;fill-rule:nonzero;stroke:none;stroke-width:10;stroke-linecap:round;stroke-linejoin:round;stroke-miterlimit:4;stroke-dasharray:none;stroke-opacity:1"
       sodipodi:type="arc" />
    <path
       transform="translate(265.67011,-449.31588)"
       d="M 334.28571,715.93359 A 5,5 0 1 1 324.28571,715.93359 A 5,5 0 1 1 334.28571,715.93359 z"
       sodipodi:ry="5"
       sodipodi:rx="5"
       sodipodi:cy="715.93359"
       sodipodi:cx="329.28571"
       id="path4734"
       style="fill:#343434;fill-opacity:1;fill-rule:nonzero;stroke:none;stroke-width:10;stroke-linecap:round;stroke-linejoin:round;stroke-miterlimit:4;stroke-dasharray:none;stroke-opacity:1"
       sodipodi:type="arc" />
    <path
       transform="translate(135.73416,-197.9899)"
       d="M 334.28571,715.93359 A 5,5 0 1 1 324.28571,715.93359 A 5,5 0 1 1 334.28571,715.93359 z"
       sodipodi:ry="5"
       sodipodi:rx="5"
       sodipodi:cy="715.93359"
       sodipodi:cx="329.28571"
       id="path4736"
       style="fill:#343434;fill-opacity:1;fill-rule:nonzero;stroke:none;stroke-width:10;stroke-linecap:round;stroke-linejoin:round;stroke-miterlimit:4;stroke-dasharray:none;stroke-opacity:1"
       sodipodi:type="arc" />
    <path
       sodipodi:type="arc"
       style="fill:#343434;fill-opacity:1;fill-rule:nonzero;stroke:none;stroke-width:10;stroke-linecap:round;stroke-linejoin:round;stroke-miterlimit:4;stroke-dasharray:none;stroke-opacity:1"
       id="path4738"
       sodipodi:cx="329.28571"
       sodipodi:cy="715.93359"
       sodipodi:rx="5"
       sodipodi:ry="5"
       d="M 334.28571,715.93359 A 5,5 0 1 1 324.28571,715.93359 A 5,5 0 1 1 334.28571,715.93359 z"
       transform="translate(199.24918,-197.9899)" />
    <path
       sodipodi:type="arc"
       style="fill:#343434;fill-opacity:1;fill-rule:nonzero;stroke:none;stroke-width:10;stroke-linecap:round;stroke-linejoin:round;stroke-miterlimit:4;stroke-dasharray:none;stroke-opacity:1"
       id="path4740"
       sodipodi:cx="329.28571"
       sodipodi:cy="715.93359"
       sodipodi:rx="5"
       sodipodi:ry="5"
       d="M 334.28571,715.93359 A 5,5 0 1 1 324.28571,715.93359 A 5,5 0 1 1 334.28571,715.93359 z"
       transform="translate(72.219147,-197.9899)" />
    <path
       sodipodi:type="arc"
       style="fill:#343434;fill-opacity:1;fill-rule:nonzero;stroke:none;stroke-width:10;stroke-linecap:round;stroke-linejoin:round;stroke-miterlimit:4;stroke-dasharray:none;stroke-opacity:1"
       id="path4742"
       sodipodi:cx="329.28571"
       sodipodi:cy="715.93359"
       sodipodi:rx="5"
       sodipodi:ry="5"
       d="M 334.28571,715.93359 A 5,5 0 1 1 324.28571,715.93359 A 5,5 0 1 1 334.28571,715.93359 z"
       transform="translate(198.36362,-644.98241)" />
    <path
       transform="translate(261.87864,-644.98241)"
       d="M 334.28571,715.93359 A 5,5 0 1 1 324.28571,715.93359 A 5,5 0 1 1 334.28571,715.93359 z"
       sodipodi:ry="5"
       sodipodi:rx="5"
       sodipodi:cy="715.93359"
       sodipodi:cx="329.28571"
       id="path4744"
       style="fill:#343434;fill-opacity:1;fill-rule:nonzero;stroke:none;stroke-width:10;stroke-linecap:round;stroke-linejoin:round;stroke-miterlimit:4;stroke-dasharray:none;stroke-opacity:1"
       sodipodi:type="arc" />
    <path
       transform="translate(134.8486,-644.98241)"
       d="M 334.28571,715.93359 A 5,5 0 1 1 324.28571,715.93359 A 5,5 0 1 1 334.28571,715.93359 z"
       sodipodi:ry="5"
       sodipodi:rx="5"
       sodipodi:cy="715.93359"
       sodipodi:cx="329.28571"
       id="path4746"
       style="fill:#343434;fill-opacity:1;fill-rule:nonzero;stroke:none;stroke-width:10;stroke-linecap:round;stroke-linejoin:round;stroke-miterlimit:4;stroke-dasharray:none;stroke-opacity:1"
       sodipodi:type="arc" />
    <path
       sodipodi:type="arc"
       style="fill:#343434;fill-opacity:1;fill-rule:nonzero;stroke:none;stroke-width:10;stroke-linecap:round;stroke-linejoin:round;stroke-miterlimit:4;stroke-dasharray:none;stroke-opacity:1"
       id="path4750"
       sodipodi:cx="329.28571"
       sodipodi:cy="715.93359"
       sodipodi:rx="5"
       sodipodi:ry="5"
       d="M 334.28571,715.93359 A 5,5 0 1 1 324.28571,715.93359 A 5,5 0 1 1 334.28571,715.93359 z"
       transform="translate(325.26911,-580.33262)" />
    <path
       sodipodi:type="arc"
       style="fill:#343434;fill-opacity:1;fill-rule:nonzero;stroke:none;stroke-width:10;stroke-linecap:round;stroke-linejoin:round;stroke-miterlimit:4;stroke-dasharray:none;stroke-opacity:1"
       id="path4752"
       sodipodi:cx="329.28571"
       sodipodi:cy="715.93359"
       sodipodi:rx="5"
       sodipodi:ry="5"
       d="M 334.28571,715.93359 A 5,5 0 1 1 324.28571,715.93359 A 5,5 0 1 1 334.28571,715.93359 z"
       transform="translate(325.26911,-512.14734)" />
    <path
       transform="translate(265.67011,-512.14734)"
       d="M 334.28571,715.93359 A 5,5 0 1 1 324.28571,715.93359 A 5,5 0 1 1 334.28571,715.93359 z"
       sodipodi:ry="5"
       sodipodi:rx="5"
       sodipodi:cy="715.93359"
       sodipodi:cx="329.28571"
       id="path4754"
       style="fill:#343434;fill-opacity:1;fill-rule:nonzero;stroke:none;stroke-width:10;stroke-linecap:round;stroke-linejoin:round;stroke-miterlimit:4;stroke-dasharray:none;stroke-opacity:1"
       sodipodi:type="arc" />
    <path
       sodipodi:type="arc"
       style="fill:#343434;fill-opacity:1;fill-rule:nonzero;stroke:none;stroke-width:10;stroke-linecap:round;stroke-linejoin:round;stroke-miterlimit:4;stroke-dasharray:none;stroke-opacity:1"
       id="path4756"
       sodipodi:cx="329.28571"
       sodipodi:cy="715.93359"
       sodipodi:rx="5"
       sodipodi:ry="5"
       d="M 334.28571,715.93359 A 5,5 0 1 1 324.28571,715.93359 A 5,5 0 1 1 334.28571,715.93359 z"
       transform="translate(-57.080384,-644.98241)" />
    <text
       xml:space="preserve"
       style="font-size:14px;font-style:normal;font-variant:normal;font-weight:normal;font-stretch:normal;text-align:start;line-height:100%;writing-mode:lr-tb;text-anchor:start;fill:#000000;fill-opacity:1;stroke:none;stroke-width:1px;stroke-linecap:butt;stroke-linejoin:miter;stroke-opacity:1;font-family:Nimbus Mono L;-inkscape-font-specification:Nimbus Mono L"
       x="284.28574"
       y="340.93359"
       id="text6819"
       sodipodi:linespacing="100%"><tspan
         sodipodi:role="line"
         id="tspan6829"
         x="284.28574"
         y="340.93359">5e5e5e204272696e6720</tspan><tspan
         sodipodi:role="line"
         id="tspan6831"
         x="284.28574"
         y="354.93359">796f757220616e737765</tspan><tspan
         sodipodi:role="line"
         id="tspan6833"
         x="284.28574"
         y="368.93359">7220666f7220706f696e</tspan><tspan
         sodipodi:role="line"
         id="tspan6835"
         x="284.28574"
         y="382.93359">747320205e5e5e</tspan></text>
    <g
       transform="matrix(0.2046092,0,0,0.2046092,13.254456,818.58303)"
       id="g2779"
       style="display:inline">
      <path
         style="fill:#000000;fill-opacity:1;fill-rule:evenodd;stroke:none;stroke-width:5;stroke-linecap:butt;stroke-linejoin:miter;stroke-miterlimit:4;stroke-dasharray:none;stroke-opacity:1"
         d="M 127.1141,465.5924 C 91.814047,465.5924 66.89506,504.2459 69.859396,529.82972 C 71.761234,546.24359 81.651632,548.75843 96.01098,575.0839 C 104.71039,591.03284 111.56039,612.77438 100.19257,619.35575 C 88.824765,625.93711 53.531251,643.88779 53.53125,643.88779 L 53.53125,731.25 L 228.8265,731.25 C 228.8265,731.25 230.62049,725.86487 229.42387,714.49706 C 243.87007,715.26906 254.19943,715.68227 269.51412,713.28904 C 290.82939,704.65951 302.41803,697.91484 316.18872,691.15976 C 319.30006,687.58786 324.5538,662.43638 323.35717,651.66689 C 322.17857,641.0595 321.01036,622.90838 315.83029,608.07206 C 315.83112,607.62561 315.81244,607.17371 315.77719,606.71802 C 317.90386,598.92728 318.64423,595.20653 320.96769,587.65525 C 323.36091,579.87727 313.19812,579.87221 315.59134,573.88916 C 317.98457,567.9061 319.77015,572.09667 321.56506,555.3441 C 323.35997,538.59153 316.6504,536.93715 312.59122,530.81206 C 313.93239,525.70068 314.54999,522.63654 307.07568,516.5878 C 303.81694,513.9506 301.55946,512.46778 297.4356,512.23126 C 293.31173,511.99474 287.68977,511.89966 279.91179,511.30135 C 279.95788,511.237 279.68945,518.04719 279.8219,518.15083 C 279.59187,518.15083 272.97826,508.24505 268.82685,511.94803 C 264.86347,515.4833 273.24628,527.8739 273.24627,527.59611 C 273.51087,527.66524 264.87102,526.81018 264.1245,530.81206 C 263.39332,534.73169 269.93358,536.10993 269.84182,536.20168 C 269.75006,535.92516 263.79217,535.24252 263.99859,539.96567 C 264.22106,545.05637 272.74333,545.38736 272.74334,545.5438 C 268.67573,555.71281 254.50626,589.03774 244.98208,611.57664 C 247.97361,618.15801 274.90373,620.56376 274.90373,620.56376 C 274.90373,620.56376 277.7599,637.70722 270.70886,644.48516 C 261.13596,645.96638 226.25358,641.8655 203.09971,630.13497 C 183.35561,625.94684 173.54242,629.40149 162.4121,627.13484 C 163.71562,615.17348 164.21749,608.58979 164.21749,608.58979 C 164.21749,608.58979 179.77569,606.19506 179.77569,584.05775 C 179.77569,561.92042 189.27078,560.03657 186.94414,548.16237 C 185.05685,538.53041 181.53399,532.45339 189.1876,524.09495 C 194.98993,515.09543 195.91779,501.48946 187.54152,491.91656 C 175.82743,478.52903 162.41416,465.5924 127.1141,465.5924 z M 283.08108,515.50608 C 282.97494,515.60488 286.88702,515.90504 291.28498,516.19638 C 291.7627,519.41501 296.839,523.95317 299.88712,526.41806 C 299.62647,527.00514 299.35852,527.56957 299.09062,528.13052 L 283.43987,527.85176 C 283.52084,527.66348 282.88447,515.7395 283.08108,515.50608 z M 276.34425,546.61907 C 277.89568,547.38545 280.81962,547.77463 283.05453,548.37477 C 280.15284,549.11714 277.60828,549.09234 277.30649,551.49475 C 276.88402,554.8578 283.91375,557.05322 290.12324,558.85588 C 288.4593,559.44397 285.41576,560.84837 285.28168,562.4898 C 284.86781,567.55673 295.35853,569.71644 304.68278,571.55997 C 305.89074,579.19986 307.54144,589.21622 308.90079,597.08044 C 285.0055,594.98587 270.36389,593.61307 255.48253,597.49196 C 261.78844,582.55106 269.46993,562.86918 276.34425,546.61907 z"
         id="path2781"
         sodipodi:nodetypes="csssccccccsccssscsscczczczcccccccsscscccccccccscscccc" />
    </g>
    <text
       xml:space="preserve"
       style="font-size:40px;font-style:normal;font-variant:normal;font-weight:normal;font-stretch:normal;text-align:center;line-height:100%;writing-mode:lr-tb;text-anchor:middle;fill:#000000;fill-opacity:1;stroke:none;stroke-width:1px;stroke-linecap:butt;stroke-linejoin:miter;stroke-opacity:1;font-family:URW Gothic L;-inkscape-font-specification:URW Gothic L"
       x="374.7666"
       y="695.96906"
       id="text4758"
       sodipodi:linespacing="100%"><tspan
         sodipodi:role="line"
         id="tspan6165"
         x="374.7666"
         y="695.96906">2010 Capture The Flag</tspan><tspan
         sodipodi:role="line"
         id="tspan6167"
         x="374.7666"
         y="735.96906">A computer security competition</tspan><tspan
         sodipodi:role="line"
         id="tspan6169"
         x="374.7666"
         y="775.96906">Presented by LANL &amp; NMT CS Dept.</tspan><tspan
         sodipodi:role="line"
         id="tspan6171"
         x="374.7666"
         y="815.96906">Fri &amp; Sat, October 29-30</tspan><tspan
         sodipodi:role="line"
         id="tspan6173"
         x="374.7666"
         y="855.96906"></tspan><tspan
         sodipodi:role="line"
         id="tspan7150"
         x="374.7666"
         y="895.96906">Register by October 12</tspan><tspan
         sodipodi:role="line"
         id="tspan6175"
         x="374.7666"
         y="935.96906">http://dirtbags.net/ctf/</tspan></text>
  </g>
</svg>
