<?xml version="1.0" encoding="UTF-8" standalone="no"?>
<!-- Created with Inkscape (http://www.inkscape.org/) -->
<svg
   xmlns:dc="http://purl.org/dc/elements/1.1/"
   xmlns:cc="http://creativecommons.org/ns#"
   xmlns:rdf="http://www.w3.org/1999/02/22-rdf-syntax-ns#"
   xmlns:svg="http://www.w3.org/2000/svg"
   xmlns="http://www.w3.org/2000/svg"
   xmlns:sodipodi="http://sodipodi.sourceforge.net/DTD/sodipodi-0.dtd"
   xmlns:inkscape="http://www.inkscape.org/namespaces/inkscape"
   width="765"
   height="990"
   id="svg4774"
   sodipodi:version="0.32"
   inkscape:version="0.46"
   sodipodi:docname="ship.svg"
   inkscape:output_extension="org.inkscape.output.svg.inkscape"
   version="1.0">
  <defs
     id="defs4776"><inkscape:perspective
   sodipodi:type="inkscape:persp3d"
   inkscape:vp_x="0 : 526.18109 : 1"
   inkscape:vp_y="0 : 1000 : 0"
   inkscape:vp_z="744.09448 : 526.18109 : 1"
   inkscape:persp3d-origin="372.04724 : 350.78739 : 1"
   id="perspective4782" />

			
		
				
				
				
				
				
				
				
				
				
				
				
				
				
			
					
				
					
				
					
				
					
				
					
				
					
				
					
				
					
				
					
				
					
				
					
				
					
				
					
				<clipPath
   id="clp4">
				<path
   d="M 28.058,16.126 L 568.95,16.126 L 568.95,696.105 L 28.058,696.105 L 28.058,16.126 z"
   style="stroke:#000000"
   id="path2178" />

			</clipPath>

		
	
			<clipPath
   id="clp3">
			<path
   id="path2173"
   style="stroke:#000000"
   d="M 36,81.75 L 559.276,81.75 L 559.276,677.358 L 36,677.358 L 36,81.75 z" />

		</clipPath>

	

		<clipPath
   id="clp2">
		<path
   d="M 36,81.75 L 36,677.358 L 559.276,677.358 L 559.276,81.75 L 36,81.75 z"
   style="stroke:#000000"
   id="path2168" />

	</clipPath>

	<inkscape:perspective
   id="perspective4852"
   inkscape:persp3d-origin="238.10619 : 168.93046 : 1"
   inkscape:vp_z="476.21237 : 253.39569 : 1"
   inkscape:vp_y="0 : 1000 : 0"
   inkscape:vp_x="0 : 253.39569 : 1"
   sodipodi:type="inkscape:persp3d" />
</defs>
  <sodipodi:namedview
     id="base"
     pagecolor="#ffffff"
     bordercolor="#666666"
     borderopacity="1.0"
     gridtolerance="10000"
     guidetolerance="10"
     objecttolerance="10"
     inkscape:pageopacity="0.0"
     inkscape:pageshadow="2"
     inkscape:zoom="0.7"
     inkscape:cx="322.77932"
     inkscape:cy="552.59379"
     inkscape:document-units="px"
     inkscape:current-layer="layer1"
     showgrid="false"
     inkscape:window-width="1276"
     inkscape:window-height="1006"
     inkscape:window-x="0"
     inkscape:window-y="14" />
  <metadata
     id="metadata4779">
    <rdf:RDF>
      <cc:Work
         rdf:about="">
        <dc:format>image/svg+xml</dc:format>
        <dc:type
           rdf:resource="http://purl.org/dc/dcmitype/StillImage" />
      </cc:Work>
    </rdf:RDF>
  </metadata>
  <g
     inkscape:label="Layer 1"
     inkscape:groupmode="layer"
     id="layer1">
    <path
       id="path2184"
       d="M 285.64268,16.121907 C 284.32514,16.194355 284.25705,16.590758 284.48145,17.670211 C 284.83028,19.349475 285.45799,22.157997 288.50705,25.953631 C 289.92574,27.719031 290.73802,33.55809 288.97153,38.881962 C 287.97291,41.893784 285.00439,44.655052 283.28153,47.70729 C 281.32895,51.165777 280.61103,54.95481 279.37205,58.622827 C 277.8587,63.109722 272.859,63.273731 270.46931,67.138493 C 266.9417,72.846281 267.47238,76.544211 263.92772,80.918386 C 260.15763,85.568005 256.43907,87.933369 254.5992,88.156709 C 254.37694,88.183284 252.4259,90.053382 252.00579,90.053382 C 252.00579,91.890041 247.51571,95.292936 247.51573,99.691569 C 245.82475,99.691569 244.72668,121.01793 244.34169,123.41931 C 243.64619,127.76159 239.13637,133.65739 232.96168,138.82492 C 227.84518,143.10763 221.48796,146.61388 216.00775,150.82427 C 205.33448,159.02384 198.0733,168.12752 198.8603,169.09424 C 199.56113,169.95781 204.89075,169.20847 209.93066,166.88791 C 214.37822,164.84174 218.32625,161.19482 221.77518,162.28172 C 224.09147,163.01235 216.25936,180.76256 216.16258,181.75163 C 215.80738,185.3654 214.71809,189.00432 214.57558,192.16397 C 214.32246,197.79732 215.38978,201.98698 216.97545,202.07311 C 220.69237,202.27412 224.73878,187.85685 232.18751,176.25515 C 239.63733,164.65451 250.49323,155.85215 256.96037,150.01142 C 263.23076,144.34935 268.53558,137.37345 269.26938,132.39948 C 269.37999,131.64119 270.51097,128.0056 270.77897,122.87741 C 271.064,117.41739 270.58071,110.24688 273.37238,103.02041 C 275.6589,97.102048 283.48682,90.892563 287.19099,87.03419 C 292.11498,81.905999 295.91589,76.770821 296.17115,77.899203 C 298.74482,89.245656 299.08264,103.87792 302.0934,117.10998 C 304.34803,127.02178 308.74632,139.29293 307.62859,149.08243 C 307.37016,151.34129 306.56168,151.11691 305.65451,153.37897 C 302.9096,160.23217 297.82248,167.56508 292.53263,176.33257 C 285.51143,187.97043 277.76042,201.50555 270.74027,213.72408 C 268.08259,218.35137 264.28749,220.88681 261.02467,223.98159 C 256.09854,228.65248 251.80627,233.00302 250.18655,235.09067 C 247.53205,238.513 246.23956,242.18111 247.12865,242.9096 C 247.51789,243.22866 249.0211,242.93185 250.68974,241.63225 C 251.98828,240.62087 253.25404,238.71991 255.10241,237.87762 C 257.30173,236.87474 254.41485,251.35542 256.22493,265.32129 C 258.00948,279.09253 263.9772,291.5348 267.10176,293.96489 C 268.02808,294.68488 273.99565,302.99202 275.03681,307.7448 C 275.22931,308.62536 274.39899,309.54849 274.37878,309.98983 C 273.76408,323.07831 241.94847,287.60083 232.69072,268.57273 C 228.32186,259.59041 222.79349,241.17038 223.09124,231.6457 C 223.3784,222.43687 226.91188,213.28185 230.5618,209.54367 C 231.40197,208.68225 232.22936,207.59369 232.80684,206.75672 C 233.64275,205.5454 232.48978,204.71732 231.91657,204.74393 C 229.43223,204.85773 222.77627,216.39491 222.58804,216.39491 C 222.58804,221.9134 212.14487,225.13101 209.73713,228.5491 C 208.67574,230.05713 203.7779,232.81192 199.05384,236.09707 C 196.21962,238.06773 193.92598,241.07518 191.27361,241.74837 C 190.40472,241.96958 189.45187,240.84662 188.64149,240.78068 C 188.03423,240.73069 186.82611,239.32792 186.39646,238.92272 C 185.99232,238.54094 184.15461,231.90262 184.15141,231.80054 C 184.04826,229.10456 177.01647,205.88682 170.2941,184.49987 C 164.44913,165.89929 159.09782,148.51666 157.13352,149.08243 C 156.25402,149.33449 157.31176,153.17049 157.28835,167.04275 C 157.28835,167.1172 141.04576,200.19288 139.83125,203.93108 C 139.57707,204.71063 137.52948,220.22429 134.72185,236.87121 C 133.1468,246.2098 133.857,257.29993 132.55423,265.66966 C 131.50241,272.425 130.633,279.00434 129.3802,279.87534 C 126.91501,281.58864 129.0146,285.25122 129.10924,285.3331 C 130.47797,286.51573 136.47684,275.69962 138.94097,266.55994 C 141.26153,257.94984 143.1988,248.10837 143.1988,243.33539 C 143.22858,243.33539 148.65976,215.11756 150.90161,215.11756 C 150.90161,208.5494 162.32535,185.41567 165.61048,189.49315 C 167.06003,191.29258 168.72981,194.91911 169.13288,200.5248 C 169.46682,205.16911 168.71544,211.2421 168.20389,218.13676 C 166.91602,235.509 164.62747,252.23902 162.74613,269.30817 C 160.62126,288.5979 155.51889,343.16895 155.35298,343.97509 C 154.38094,348.72041 152.77892,369.36584 150.63066,390.23064 C 148.05488,415.25475 145.75457,440.71254 145.75351,440.78274 C 145.68437,449.88522 130.65636,433.29942 129.76727,433.11863 C 125.40267,432.22849 88.426236,397.56986 82.544029,398.82373 C 81.580498,399.02791 82.276554,401.40243 83.666548,403.58475 C 86.506088,408.04612 114.51957,431.21972 128.76088,443.41485 C 135.40774,449.10457 136.56533,447.70833 136.81205,453.09174 C 136.9854,456.88525 122.93032,464.20467 116.02608,470.51015 C 113.12805,473.15612 110.93142,474.99151 112.46498,477.32268 C 112.93611,478.03843 115.59904,476.87788 115.48418,477.98071 C 113.81661,494.00018 117.31472,501.19255 119.31623,505.11473 C 121.27626,508.95714 122.97123,513.29203 126.12876,517.42373 C 133.83168,527.50251 148.3251,537.82078 160.5011,541.46114 C 163.49165,542.35447 172.95263,547.33019 185.69972,547.77047 C 195.30312,548.10336 205.30453,546.41654 208.96298,546.49313 C 213.99971,546.59843 209.74244,549.87166 207.68562,555.16362 C 205.56925,560.61193 205.42144,566.95544 205.44059,573.00782 C 205.44378,574.00111 207.02147,584.8768 206.56311,585.04588 C 206.40357,585.10542 206.23326,585.14329 206.05991,585.20071 C 202.16112,586.48647 198.29875,585.94922 194.75729,586.94254 C 189.23029,588.48993 184.20469,591.78037 178.88718,596.11624 C 173.98552,600.11392 170.9141,606.66548 168.43614,611.67668 C 166.53568,615.52124 164.63705,618.2494 164.6041,619.41819 C 164.58388,620.13394 167.36889,618.99387 169.7522,617.17316 C 171.73456,615.65873 172.36184,613.93985 173.73907,613.3411 C 177.65276,611.64057 180.9761,612.92317 181.24835,615.58615 C 181.50253,618.07261 179.13179,620.6043 176.83569,622.86318 C 168.07778,631.47752 155.04887,621.11073 148.23079,614.19267 C 146.08784,612.01888 145.88142,610.27962 144.90194,609.85742 C 143.37582,609.20018 141.82224,610.3672 140.72152,612.72179 C 140.01642,614.23195 139.87069,616.36735 138.86355,618.37309 C 137.21407,621.66143 134.67961,622.84894 129.3802,627.31455 C 125.15492,630.87726 112.79061,630.45234 114.82615,626.77263 C 115.11648,626.2462 116.88672,626.09427 117.61309,625.41787 C 118.8542,624.26291 118.26839,623.62143 117.92275,622.86318 C 117.21447,621.31259 115.11966,620.27084 115.01969,620.26976 C 112.03763,620.23042 109.64801,619.56802 107.89749,620.77296 C 105.56949,622.3746 104.98491,625.38864 104.41381,628.39836 C 103.84271,631.40806 103.27783,634.41824 103.91061,636.83661 C 104.78587,640.18451 107.34652,642.67381 108.67164,642.75887 C 108.92688,642.77588 110.54543,643.29734 114.12941,643.57173 L 655.33875,643.84267 C 658.02302,642.76536 660.53684,643.27793 662.53835,642.17825 C 668.53541,638.8846 670.37289,633.29445 671.78947,624.5663 C 672.56369,619.80396 670.40267,613.80363 669.54442,612.06376 C 668.43307,609.81339 667.12492,608.22724 665.44142,606.25762 C 660.3898,600.3499 651.94756,596.15045 643.45552,596.4259 C 635.709,596.67582 629.38155,600.91693 628.5531,606.37374 C 628.22342,608.53692 629.30044,611.84391 629.59821,613.26369 C 629.77794,614.12938 630.56953,617.67759 632.6561,620.23106 C 634.44916,622.42718 638.07207,623.25755 641.40402,622.55351 C 644.34566,621.93137 647.03986,620.03557 648.56493,618.29567 C 650.92376,615.60396 649.38359,610.40802 648.83587,608.46395 C 648.30732,606.58795 647.62297,608.88083 647.51982,610.709 C 647.4794,611.44067 646.79739,612.62115 646.31988,612.95404 C 643.27296,615.07252 638.04156,615.92615 637.92033,610.08967 C 637.70337,599.6759 666.97753,606.97575 656.49997,623.36637 C 654.36658,626.70364 649.78475,627.41961 646.51341,627.39196 C 637.85229,627.31538 628.60963,624.88926 620.65676,621.5084 C 610.97042,617.38841 598.59819,610.35183 587.01987,604.67062 C 576.47742,599.49563 566.09059,597.09053 561.47287,592.51643 C 559.10765,590.17354 559.28774,586.74536 559.84716,585.04588 C 560.26191,583.78882 560.73752,582.23803 562.01479,580.63321 C 564.8256,577.10346 569.24929,572.6299 569.2918,565.84692 C 569.32796,560.3114 566.93563,553.29781 563.87274,550.82837 C 561.61069,549.00447 557.17769,548.44736 554.27326,546.84149 C 553.13639,546.21296 552.76353,545.16335 552.06694,544.20938 C 551.15339,542.95765 550.87197,541.12995 550.05414,539.56446 C 548.79283,537.15244 547.77487,534.75401 545.44794,533.10031 C 542.30636,530.86907 538.16376,531.60784 532.82926,528.18444 C 530.59911,526.75191 532.28837,521.90405 526.32639,519.35911 C 524.49187,518.57744 523.04476,519.73631 520.7912,518.35272 C 520.34243,518.07727 520.14658,514.77719 517.84943,512.19821 C 515.82239,509.92233 511.68031,508.42861 511.23044,507.35976 C 510.24882,505.03283 511.62456,499.65572 511.19173,494.66367 C 511.04284,492.93123 508.47486,484.71622 509.75956,480.84508 C 510.57527,478.38521 515.20272,477.87482 518.85584,477.63235 C 523.07792,477.35052 528.89921,478.16101 535.03559,478.52262 C 549.18863,479.35535 565.79215,482.31613 572.73677,482.81916 C 574.29692,482.93295 575.3867,483.03694 575.83339,483.09012 C 596.40889,485.5202 621.70098,506.5815 626.5016,505.23084 C 629.339,504.43429 617.10114,495.14126 615.35382,494.08307 C 612.46535,492.33255 600.6687,486.11233 590.42615,477.01303 C 579.17752,467.02039 569.19728,455.03146 568.13058,454.25297 C 565.33145,452.21105 553.29854,438.35724 546.8027,426.26739 C 544.22584,421.47208 542.0393,413.41424 540.26112,407.84258 C 537.16209,398.12541 532.67262,379.11889 531.82287,360.81288 C 531.28049,349.13567 533.03891,338.29659 533.52601,333.48533 C 536.96961,299.44168 555.32566,249.99834 570.14337,222.35588 C 574.18149,214.82206 579.4179,207.27337 583.49749,200.09902 C 586.12645,195.47598 587.92119,190.20027 590.38743,186.16429 C 593.07277,181.76673 597.49388,179.42504 599.67725,176.02291 C 603.72919,169.70785 606.71404,165.45541 607.84455,164.44935 C 609.65143,162.83708 606.54844,162.88542 604.94148,163.71391 C 602.87615,164.77953 600.35127,166.3717 600.14175,167.04275 C 599.41962,169.35054 588.02386,179.30056 577.84619,193.98323 C 576.59976,195.78267 574.49684,195.54901 572.93032,197.23466 C 571.46908,198.80651 571.39448,200.99398 570.18208,203.0795 C 569.042,205.03739 566.75299,206.88291 565.26622,208.38245 C 560.94414,212.74172 554.42385,216.01806 550.13156,220.26567 C 546.36571,223.99537 542.38056,227.33221 539.37085,231.06508 C 530.4364,242.14782 522.49083,249.22658 519.04937,251.5801 C 515.89823,253.73687 513.23002,255.95112 511.34656,257.7346 C 509.68431,259.30859 509.0291,261.02371 508.01772,260.83121 C 507.12437,260.66211 507.08551,257.823 507.08872,256.37984 C 507.09935,251.70682 507.46469,245.53271 506.15975,244.03212 C 504.91652,242.6049 502.06853,243.06468 500.89551,240.54844 C 498.97377,236.42738 500.74842,225.63336 501.94063,215.89172 C 502.84991,208.45573 502.96223,201.47168 504.14695,199.09263 C 504.50217,198.38114 505.18164,194.79737 505.11464,190.2286 C 505.05722,186.19686 504.20471,181.4058 505.15335,177.14543 C 505.4809,175.67141 506.02427,175.03182 506.12104,172.81018 C 506.28481,169.10601 506.39201,165.66673 506.19846,163.2494 C 505.87833,159.24323 505.42636,158.51139 504.14695,160.30764 C 503.01859,161.89437 499.07817,180.28599 496.90863,198.4346 C 494.82524,215.86002 493.28926,232.67588 493.27013,233.07788 C 492.86919,241.25299 488.92183,241.83894 487.5414,242.05804 C 486.31413,242.25159 485.69501,243.38276 484.79317,243.87729 C 479.27892,246.89763 480.02282,254.44618 481.81268,262.99883 C 482.5316,266.43606 485.05504,270.83102 486.38017,272.32736 C 489.29735,275.61996 490.92758,274.32493 487.5414,284.36542 C 487.384,284.83548 486.34551,287.1319 484.36738,289.86189 C 481.47466,293.85214 476.58293,299.04578 471.90354,305.732 C 468.75665,310.22954 465.97736,316.07774 462.69114,320.86666 C 451.64245,336.96803 440.67062,351.52687 440.16333,351.67789 C 439.95914,351.73851 431.03104,365.92364 425.22221,373.85733 C 422.28269,377.86991 420.95469,376.35204 420.26763,378.61836 C 419.96054,379.63146 420.7014,382.72845 421.1192,384.73417 C 421.38746,384.68487 421.62935,384.65977 421.6224,384.85029 C 421.4884,388.39814 424.72735,397.6261 424.2158,397.93344 C 424.15518,397.97065 434.28958,422.44032 438.30536,428.16406 C 439.08275,429.27224 439.58264,429.88069 440.35686,431.10583 C 441.38102,432.72768 442.75228,435.59697 444.88566,437.84095 C 448.96096,442.12261 454.32279,445.86442 454.91091,446.66629 C 455.92123,448.04458 460.75867,455.48926 463.65883,458.0076 C 464.10444,458.3947 465.32194,459.41444 465.78774,459.74944 C 466.12807,459.99191 469.68592,461.41075 469.92946,462.88477 C 470.01135,463.3761 470.92044,465.28463 469.6198,465.28463 C 469.61981,464.755 465.40253,462.6867 463.81366,461.10421 C 463.03306,460.32679 461.19988,458.96576 460.71706,458.39468 C 458.3614,455.61999 454.95301,450.39845 452.8207,447.47914 C 447.935,440.79081 440.1292,438.52242 436.83447,429.32528 C 436.2485,427.68748 435.37049,426.92407 434.4346,425.53195 C 432.84999,423.17629 429.78034,418.22031 427.66078,413.22294 C 425.66991,408.52759 424.5887,403.75759 423.98356,402.26869 C 423.23447,400.4206 420.52756,388.86381 420.11279,385.81797 C 420.59506,386.56013 420.96944,386.09165 421.19661,386.39859 C 421.54407,386.86616 421.37419,385.9583 421.1192,384.73417 C 420.6896,384.81312 420.13301,385.04065 420.07409,385.08252 C 420.02856,385.11581 420.05919,385.37313 420.11279,385.77926 C 419.83997,385.34681 419.52114,384.56287 419.14512,382.99232 C 412.94491,357.11422 411.55784,337.40491 413.45511,310.10596 C 413.83371,304.65233 412.72577,299.62229 413.37769,293.92619 C 415.41216,276.17002 418.35233,258.72567 423.98356,241.32259 C 432.11719,216.18999 444.47816,191.39588 455.41411,168.32011 C 461.54732,155.37838 466.26472,145.02229 468.96177,143.93433 C 469.44779,143.73758 474.22603,140.84444 478.13546,137.35404 C 480.32839,135.39614 481.65031,132.36216 482.43201,131.12212 C 484.04959,128.5559 485.05349,125.86577 485.06412,125.70306 C 485.41401,120.57487 440.28128,160.12295 438.88598,163.17199 C 438.24787,164.56943 427.98796,162.95956 420.69342,162.51397 C 401.34519,161.33136 385.21092,152.95874 382.72128,130.81246 C 381.47912,119.7627 384.33876,108.30214 385.74049,105.4977 C 386.77207,103.43663 386.75439,101.544 388.21776,99.188367 C 391.95914,93.170031 398.19555,86.238594 402.96534,81.460296 C 408.12758,76.287441 413.44334,72.379586 411.98421,69.693193 C 409.44566,65.024428 393.25977,84.743948 388.79837,90.208206 C 385.53131,94.208022 380.12885,99.741759 374.36044,104.10423 C 364.07749,111.88159 352.89481,117.99733 352.49067,119.58726 C 352.29924,120.34234 346.07159,123.80895 339.52364,128.14164 C 329.63629,134.68535 317.68195,142.31347 317.30548,142.65698 C 316.62058,143.28338 314.90759,142.96391 314.20887,142.61826 C 312.83272,141.9355 312.56471,140.49589 311.96384,138.94104 C 310.42921,134.96889 310.30112,129.5267 310.2607,128.56742 C 309.44181,109.32448 303.40308,86.623489 299.11292,64.854746 C 297.25924,55.445968 295.08268,46.196406 294.85509,37.488489 C 294.77533,34.431991 291.6819,28.432873 291.75848,23.631177 C 291.8223,19.652621 294.53587,16.516427 294.35189,16.508983 C 289.53265,16.305313 286.96022,16.049447 285.64268,16.121907 z M 357.36782,120.09046 C 360.93585,119.80968 344.25574,135.71343 344.16853,135.72833 C 343.62933,135.81552 332.01435,146.24541 332.01435,147.26318 C 330.53931,147.26318 321.28075,158.94994 320.5182,160.73341 C 320.19171,161.49701 318.10019,163.07726 316.64745,161.89464 C 315.4659,160.93217 315.36097,157.45614 315.21528,154.23055 C 315.03871,150.33922 316.184,145.65685 318.62153,145.36651 C 319.15223,145.30271 324.64643,142.31764 329.96286,139.13458 C 334.39233,136.48222 357.08704,120.1128 357.36782,120.09046 z M 307.706,158.02388 C 307.74439,158.021 307.78383,158.03361 307.82212,158.0626 C 308.22837,158.36995 311.53282,163.12286 310.76389,167.54595 C 309.97053,172.11047 305.80625,177.10141 302.5966,179.35176 C 301.49057,180.12601 292.17729,191.07867 289.59086,193.28648 C 289.22182,193.60234 288.8635,193.40708 288.81671,193.32519 C 288.26795,192.35423 289.59526,188.29776 292.33909,183.1451 C 294.67241,178.76455 295.95845,175.64229 298.22264,172.61664 C 300.34858,169.77496 301.39732,166.37215 303.40947,164.44935 C 306.43942,161.55596 307.13018,158.06709 307.706,158.02388 z M 427.58337,170.48773 C 428.29338,170.49572 428.6818,170.63572 428.66718,170.99092 C 428.57039,173.31785 416.97197,181.45378 405.82971,191.11886 C 392.79759,202.42172 379.80562,215.38409 378.07638,217.13036 C 377.6797,217.53236 370.7193,223.41775 362.86429,230.21352 C 353.61504,238.21315 342.97037,247.11696 340.10423,249.95438 C 337.40509,252.62803 335.46918,255.12518 334.80131,253.6703 C 334.68219,253.41082 333.63943,251.31557 333.6788,248.67704 C 333.70537,246.87226 334.73046,244.93751 335.03355,242.59995 C 335.58126,238.40017 337.27284,233.83521 337.23989,229.67161 C 337.19202,223.74793 334.14327,220.10953 334.14327,218.33029 C 334.14327,214.63145 337.1495,211.17395 339.09785,210.12429 C 350.40815,204.0283 357.979,197.15862 367.39309,191.8156 C 375.78729,187.05114 384.45749,181.62587 394.29485,177.91958 C 400.59928,175.54371 407.436,174.385 414.84858,172.88759 C 420.43754,171.75896 425.45331,170.46375 427.58337,170.48773 z M 171.84241,210.62749 C 171.93865,210.62947 172.04951,210.67169 172.15208,210.7436 C 174.44924,212.35374 175.27771,222.77269 178.50011,231.91665 C 180.18895,236.70559 182.64619,241.20691 183.72563,245.34817 C 184.44456,248.10903 183.87727,249.84682 183.88046,251.50268 C 183.88685,254.89206 177.98376,271.63062 177.76466,271.63062 C 177.76466,278.5795 168.51515,308.33702 163.0945,304.99655 C 159.76043,302.94402 166.43619,248.45446 167.89423,245.23205 C 168.8596,243.1025 168.85875,210.56557 171.84241,210.62749 z M 208.76944,233.92944 C 209.1755,233.942 209.48071,234.27909 209.77583,235.09067 C 209.8673,235.34379 209.09149,235.74863 208.45978,236.52286 C 207.53559,237.65336 206.48495,239.41448 205.44059,241.20647 C 203.7475,244.11194 201.32754,247.03507 199.63444,249.95438 C 197.52659,253.59048 196.21335,256.37581 195.64757,256.30242 C 195.54548,256.28859 194.03688,257.10264 192.66709,255.76052 C 190.83042,253.96002 191.15942,251.8678 191.04136,250.26404 C 190.92226,248.66133 191.47675,246.30438 193.32511,244.18695 C 196.19124,240.90288 200.33359,238.83933 203.9697,236.83251 C 206.51339,235.4287 207.87611,233.90185 208.76944,233.92944 z M 540.6482,235.43904 C 541.05971,235.37056 541.30622,235.63002 541.30622,236.36803 C 541.23177,236.36803 531.08743,248.84842 531.08743,249.18023 C 530.80028,249.18024 520.17189,260.50678 520.17189,261.41182 C 518.91695,261.41182 506.77361,276.91176 506.08234,278.05608 C 505.66436,278.74843 505.40368,280.73898 503.14056,281.15269 C 502.47907,281.27392 501.5538,281.50728 501.08905,280.99785 C 500.31164,280.14812 500.17475,278.21779 500.04395,277.47547 C 499.55475,274.70929 501.11729,272.37535 501.63096,270.97259 C 503.0316,267.14081 512.50778,261.3709 512.50778,260.09577 C 513.50216,260.09578 520.82992,254.01771 520.82992,253.05098 C 521.52335,253.05097 532.9841,242.58467 532.9841,242.17416 C 534.0184,242.17416 538.86497,235.7358 540.6482,235.43904 z M 311.11227,241.28388 C 312.18718,241.31316 314.71676,245.05167 318.27317,248.71574 C 320.22256,250.72364 323.05789,252.22365 324.42767,254.52188 C 326.71206,258.35047 326.33078,263.18281 321.44719,267.48891 C 318.50023,270.08597 313.26113,272.08879 309.2156,276.00458 C 303.9853,281.06577 298.62701,287.80884 293.65516,292.84237 C 287.26141,299.31269 281.71699,303.47446 280.33975,303.02247 C 279.53682,302.75871 280.10807,298.2809 280.6494,294.97129 C 281.48851,289.8399 284.90765,280.77688 287.19099,276.43037 C 290.68246,269.78562 295.59097,263.25376 299.73225,257.50235 C 305.99946,248.79761 310.21468,241.70864 310.91873,241.32259 C 310.97735,241.29042 311.04061,241.28193 311.11227,241.28388 z M 185.97068,259.20549 C 187.04394,258.96278 187.49234,260.89036 187.6738,261.25699 C 188.09282,262.1046 188.98564,262.50565 188.79633,264.39232 C 188.19014,270.42447 183.74164,275.86634 181.09352,277.86254 C 180.68727,278.16881 179.24568,276.78715 179.971,275.50138 C 180.37938,274.77499 183.51914,260.88197 185.46748,259.43774 C 185.6476,259.30414 185.81736,259.24016 185.97068,259.20549 z M 486.92208,290.86829 C 487.12626,290.74175 489.49249,291.43091 487.69623,297.21633 C 487.45695,297.98949 488.04068,299.98183 486.80596,301.74512 C 485.62015,303.43714 483.39075,304.70625 481.30948,306.85452 C 478.94957,309.28886 476.66778,312.65697 474.41953,315.64113 C 467.79607,324.42672 461.0823,333.8337 458.12365,333.8337 C 458.12364,332.42032 465.70452,321.02149 466.44577,321.02149 C 466.44578,319.58898 479.76988,301.12579 479.87731,301.12579 C 479.87729,300.5951 486.58922,291.07354 486.92208,290.86829 z M 258.50867,323.80844 C 259.38924,323.43301 254.15157,330.09566 253.63153,330.04035 C 253.4635,330.02228 245.51941,338.26927 244.3804,338.98181 C 242.91809,339.89857 238.08923,343.44177 237.29693,344.71053 C 236.61949,345.79635 234.8863,347.10304 233.81323,348.38775 C 232.66253,349.76392 232.1706,351.07988 231.21983,350.6715 C 230.60726,350.40882 230.35874,348.98169 229.98119,347.45877 C 229.32819,344.82448 230.19393,344.64219 229.59411,343.12352 C 228.71673,340.90399 225.93312,337.88827 220.96233,337.20126 C 219.99986,337.06832 218.44679,336.32634 218.09796,335.76908 C 213.70892,328.73509 222.86377,328.94649 226.42009,327.44695 C 229.10755,326.31539 232.62761,326.81061 236.36794,326.82763 C 240.34329,326.84572 254.06962,325.69827 258.50867,323.80844 z M 207.87916,336.3884 C 209.11813,336.51919 211.12038,338.44385 209.11781,341.5365 C 208.43397,342.59472 206.47194,342.6464 205.71153,343.5493 C 204.93306,344.47453 203.58966,347.7118 203.35038,350.47796 C 203.10472,353.33135 203.99196,355.72572 204.74384,356.67117 C 206.04026,358.30471 207.84135,360.48121 209.5823,361.50961 C 211.118,362.41573 212.70316,362.18665 212.56278,363.52241 C 212.47982,364.31046 212.09309,366.29369 210.93706,365.45779 C 210.10011,364.85372 208.98457,362.64776 207.91786,361.62573 C 207.08836,360.8313 206.2752,361.03997 205.71153,361.54832 C 204.70121,362.45975 207.94408,364.34627 207.49209,367.19963 C 207.03903,370.05298 202.90023,373.88066 201.9569,374.63149 C 201.21245,375.22386 200.31145,375.26203 199.78928,375.79271 C 198.67474,376.92321 198.83409,378.48858 199.28608,379.00543 C 199.90717,379.7201 201.73994,380.18379 201.9569,381.25048 C 202.30253,382.95846 201.1684,385.33925 199.86669,387.36628 C 198.1417,390.05163 195.11079,391.76937 192.7445,394.02398 C 189.956,396.68058 188.25995,399.17576 186.1255,398.63019 C 184.42072,398.19522 183.09191,395.72096 182.5644,393.40466 C 181.21589,387.4831 181.71305,379.02367 183.88046,370.91556 C 186.14039,362.45863 190.71989,355.32315 191.89293,353.69068 C 194.48787,350.08222 199.64725,343.94696 203.54392,340.02691 C 205.44758,338.11261 206.65932,336.26078 207.87916,336.3884 z M 158.87537,346.37496 C 159.9689,346.13259 163.50205,363.94819 163.71382,363.94819 C 163.71382,370.53766 175.18309,399.24949 180.35807,399.24949 C 180.35807,411.08093 161.81714,412.71352 161.81714,419.76451 C 153.56441,419.76451 167.54587,437.08643 167.54587,429.98332 C 170.7523,429.98331 186.1255,420.48653 186.1255,422.97726 C 185.07689,422.97726 184.61517,424.87393 183.57081,424.87393 C 183.57081,426.3511 169.44254,429.41778 169.44254,431.9574 C 164.96735,431.9574 157.92884,442.21492 150.28229,442.21492 C 150.28229,434.57792 157.83508,348.58129 158.56571,348.58129 C 158.56571,347.06879 158.67287,346.41984 158.87537,346.37496 z M 298.9968,426.61577 L 300.0419,426.61577 C 299.69982,426.87321 299.34673,426.93143 299.0355,426.69318 C 299.02389,426.68431 299.00966,426.63077 298.9968,426.61577 z M 301.16442,429.17046 C 301.74972,429.10076 303.48361,431.13991 305.38355,434.12502 C 307.77536,437.8813 309.10624,444.01266 311.77031,448.7952 C 313.71969,452.29516 315.76063,456.66138 317.53773,458.5108 C 317.72171,458.70118 320.8483,462.80448 322.80196,463.81374 C 323.21777,464.02751 323.4387,461.98191 325.70503,462.30414 C 328.35634,462.68276 328.64869,463.32429 328.91775,464.08469 C 329.43144,465.53425 327.80375,467.47568 327.79524,469.3102 C 327.78462,471.4287 328.47575,473.94707 326.90496,473.60675 C 326.37958,473.49295 321.68394,470.41408 319.16345,465.40075 C 317.16727,461.4286 314.66438,458.00452 312.97023,454.79488 C 310.03073,449.22321 308.3961,444.42563 306.62219,440.82144 C 305.05778,437.64265 303.25706,435.44999 302.40306,433.62183 C 300.96116,430.5333 300.70918,429.22468 301.16442,429.17046 z M 203.93099,434.9766 C 204.70456,434.76195 204.18122,440.30785 204.0084,444.34383 C 203.88504,447.20888 203.37804,449.92951 203.15684,453.44011 C 202.65592,461.38977 203.63647,470.17088 205.40187,477.24527 C 206.5462,481.83002 208.56744,486.96615 207.99527,487.34795 C 206.84032,488.11898 206.13685,486.65622 204.43418,483.20624 C 202.67835,479.64563 199.93694,473.92073 199.28608,462.49768 C 199.05319,458.39258 198.85969,449.48554 200.75696,443.14389 C 202.50416,437.30409 203.46684,435.10538 203.93099,434.9766 z M 382.7987,453.67235 C 383.20882,453.6326 383.78579,453.87393 384.42442,454.40781 C 385.71765,455.48937 387.47789,458.45183 389.22416,461.10421 C 393.13464,467.04385 395.03465,471.81474 398.35914,478.29038 C 401.37098,484.15663 403.77562,489.78107 406.37162,495.43783 C 407.63827,498.20078 409.71528,500.93318 410.47461,503.75996 C 412.01563,509.49326 407.26853,507.61131 404.55236,503.79866 C 403.6473,502.52883 403.53856,500.70554 403.15888,500.04403 C 402.07519,498.16377 401.62089,495.83874 400.60418,493.57986 C 397.90185,487.57538 394.82229,480.90853 392.63043,475.73567 C 389.89724,469.28449 387.22953,464.50954 386.43721,463.34924 C 381.85486,456.64523 381.5683,453.79164 382.7987,453.67235 z M 375.05719,454.29168 C 375.93092,454.27956 378.97739,459.68419 381.63748,465.09109 C 385.52561,472.99395 390.46314,482.59608 391.4692,484.59971 C 394.79156,491.21148 397.4249,497.75309 399.09459,501.78587 C 401.79375,508.30725 405.58755,511.81905 400.48806,513.32072 C 399.63406,513.57172 396.97781,508.07876 394.5658,502.28908 C 390.54259,492.63995 386.18545,480.7603 385.77919,479.99351 C 384.23286,477.0742 372.32231,457.79142 374.90236,454.3691 C 374.94051,454.31863 374.99893,454.29248 375.05719,454.29168 z M 361.12246,455.33678 C 361.57484,455.23416 362.11925,455.6123 362.51593,456.80768 C 363.21464,458.90915 361.40758,458.29226 362.20626,461.68482 C 363.73133,468.15941 367.16168,479.36735 367.23826,479.72255 C 367.52116,481.01151 368.37711,484.68182 368.78656,489.01237 C 369.09606,492.2752 368.88624,495.86412 369.44459,499.42471 C 370.23159,504.42739 372.35506,509.81847 372.73473,512.81753 C 373.11333,515.81658 371.72785,516.41007 370.21873,514.48196 C 368.80961,512.68145 367.50889,506.698 366.30927,499.23117 C 365.40528,493.59781 365.10414,486.4479 363.94812,479.79997 C 362.92715,473.93585 361.17972,468.35633 360.61925,464.04599 C 360.12581,460.24502 360.28409,457.61486 360.3096,456.80768 C 360.33354,456.03451 360.67008,455.43941 361.12246,455.33678 z M 394.0626,455.53032 C 395.0007,455.38024 396.91116,456.58344 398.74622,458.23985 C 400.89873,460.18285 401.87016,462.86227 403.08147,464.6266 C 403.442,465.14984 408.43136,478.1148 413.18415,488.04469 C 416.43631,494.83938 419.84015,499.34045 419.68702,499.8892 C 418.48632,504.21339 414.93336,502.64962 413.45511,499.85049 C 412.92017,498.83911 412.49877,496.98524 411.67455,495.24429 C 408.95731,489.5046 405.45553,480.56597 401.84283,472.60037 C 399.2681,466.9234 395.74333,462.48885 394.29485,459.24624 C 393.35472,457.14371 393.27502,456.0325 393.71424,455.64644 C 393.80583,455.56629 393.92861,455.55176 394.0626,455.53032 z M 402.42344,455.87869 C 402.49775,455.86276 402.59897,455.87483 402.7331,455.87869 C 403.63386,455.90317 405.82616,455.77841 407.45543,456.9238 C 408.3945,457.58636 410.6273,460.50938 413.06803,464.58789 C 415.83527,469.21091 418.92109,475.29019 421.81594,480.9225 C 426.4762,489.98987 430.25197,498.02764 426.7318,497.99254 C 426.66797,497.99146 423.77298,497.96537 421.93207,495.01205 C 420.54525,492.78613 420.19012,489.59388 418.91287,487.03829 C 415.22145,479.65869 405.39093,469.28774 403.42984,460.0204 C 402.73472,456.7346 401.90331,455.99019 402.42344,455.87869 z M 355.27761,455.99481 C 358.43912,456.32265 357.53474,462.14402 357.7162,463.96857 C 358.22028,469.00532 359.42287,476.41528 360.03864,479.83868 C 361.2202,486.42174 361.80975,491.53205 362.70947,495.08946 C 364.2377,501.13758 366.98558,504.52583 365.03192,510.80474 C 364.74795,511.71189 359.4851,507.34736 354.42605,503.68254 C 348.23757,499.1999 345.18843,497.24337 344.16853,493.85082 C 343.456,491.48453 344.15178,482.55075 343.70405,473.99384 C 343.33927,467.02049 341.60395,460.15051 342.65894,458.39468 C 344.29565,455.67318 351.96999,456.34405 354.58087,456.03351 C 354.8294,456.00375 355.06685,455.97297 355.27761,455.99481 z M 368.5156,456.22705 C 368.96237,455.81382 374.04022,467.74646 379.39244,480.10962 C 383.35397,489.26423 388.54325,499.18705 391.93368,506.89528 C 395.021,513.91222 396.49011,519.15318 396.65601,519.7849 C 396.97399,520.99305 396.7556,524.37211 398.47527,527.13934 C 401.28715,531.66987 403.10321,535.15181 400.48806,535.15181 C 400.48806,534.49458 392.20464,531.25478 392.20464,530.0424 C 391.66759,530.0424 383.39252,523.62225 383.22449,523.61695 C 382.84056,523.60526 380.98619,519.80723 379.54727,513.24331 C 378.10834,506.6794 377.10739,497.3262 375.1346,488.66401 C 371.96856,474.75663 367.91431,461.08808 368.47689,456.30448 C 368.48151,456.26498 368.50118,456.24038 368.5156,456.22705 z M 415.42919,458.12373 C 418.47717,457.91101 420.99367,462.44214 423.75132,467.25871 C 423.86085,467.44907 425.3797,469.5707 426.49955,472.32941 C 427.48863,474.76269 427.99689,477.70398 429.32521,480.30316 C 430.68542,482.96511 435.63992,488.44341 435.05393,491.06388 C 434.39242,494.02678 432.11721,492.80134 430.3316,489.6704 C 428.03658,485.64718 426.22627,478.98495 426.11247,479.37418 C 425.88702,480.1463 418.415,468.02012 418.40967,467.83933 C 418.36502,466.24195 417.26829,465.6178 416.62912,464.43306 C 415.3136,461.98702 414.32366,460.49584 414.5002,459.43979 C 414.57996,458.96016 414.38164,458.19604 415.42919,458.12373 z M 338.28499,459.43979 C 338.69472,459.34707 339.23085,459.76628 339.44621,460.79455 C 339.74611,462.22071 339.36983,465.02106 339.75589,467.64579 C 340.28549,471.25638 340.13569,475.58348 340.45261,479.14194 C 340.64829,481.33594 340.30247,483.56102 340.14295,485.41257 C 339.81858,489.14543 339.16817,491.38145 337.74309,488.78013 C 337.34853,488.05906 337.64062,485.96972 337.12377,484.5223 C 336.29531,482.20387 336.63311,479.94227 336.69798,477.63235 C 336.77987,474.66197 336.74752,471.65508 336.8528,468.80702 C 336.95808,465.96641 337.15859,463.05156 337.78179,460.13652 C 337.86594,459.74091 338.03916,459.4954 338.28499,459.43979 z M 425.57057,460.71713 C 430.15639,460.6863 445.2935,465.63882 446.00818,466.94906 C 446.02518,466.98309 442.80423,468.24411 439.89239,469.85212 C 437.06559,471.41335 435.89948,473.07162 434.47331,473.29709 C 432.07194,473.67676 428.84002,471.26248 427.15758,468.30382 C 426.04302,466.34272 426.26164,463.92957 425.45445,462.72993 C 425.03966,462.11308 424.40285,460.72351 425.57057,460.71713 z M 332.2079,462.38157 C 332.63629,462.20136 333.19475,466.1946 333.2143,466.44586 C 333.47058,469.66826 333.30086,471.90286 333.25301,475.34859 C 333.23917,476.36318 332.40034,477.34021 332.78851,478.63874 C 332.87571,478.93228 333.24295,485.04653 331.54987,480.80637 C 330.85539,479.06754 331.45993,475.69343 331.39503,474.88411 C 331.16853,472.07965 330.70998,469.68836 330.89184,467.41355 C 331.01735,465.85766 331.61662,464.36453 332.01435,462.72993 C 332.06779,462.50992 332.1467,462.4073 332.2079,462.38157 z M 272.9466,475.27118 C 278.99116,475.43392 286.82994,477.09875 289.20378,477.67106 C 295.35506,479.15251 300.68984,481.81334 303.87395,482.54821 C 305.42452,482.9066 307.34456,484.4539 310.64778,485.76093 C 315.17299,487.5508 321.35334,489.41454 324.15671,491.76061 C 327.1643,494.2779 326.31232,496.88666 323.07291,496.05715 C 322.35716,495.87422 312.8326,492.86027 302.0934,489.51557 C 297.64585,488.12983 292.45778,486.79023 288.00384,485.45127 C 283.09049,483.97303 277.23163,484.00756 273.06272,482.4708 C 262.00447,478.39226 264.5031,475.66192 270.46931,475.30988 C 271.23876,475.26456 272.08309,475.24793 272.9466,475.27118 z M 447.78872,476.355 C 448.30773,476.37597 448.7314,476.62217 448.94994,477.20656 C 451.4566,483.90982 442.26195,490.93001 441.16972,489.70912 C 438.95021,487.22583 436.3962,485.21185 437.99571,482.5095 C 439.16447,480.53775 441.39467,478.9533 442.09871,478.71617 C 443.67163,478.18735 446.23166,476.29203 447.78872,476.355 z M 246.8964,476.54853 C 247.31686,476.55705 247.71675,476.5912 248.13503,476.66465 C 249.52929,476.91032 252.20291,477.22089 252.62512,478.52262 C 252.824,479.13627 253.77943,480.71675 252.66382,481.46439 C 252.23951,481.75047 249.18456,481.599 247.43831,481.81276 C 243.14282,482.34026 238.77773,483.01862 237.33563,483.36106 C 234.54607,484.0204 232.32316,485.1809 230.67793,485.72223 C 229.62506,486.06892 228.74471,485.99726 228.35547,485.87706 C 227.51637,485.61758 227.37774,484.93789 227.92968,484.79326 C 234.02353,483.20298 240.58949,476.42079 246.8964,476.54853 z M 492.88305,479.52902 C 495.69614,479.41961 497.89856,479.71832 498.61176,480.65154 C 499.6391,481.99367 499.05538,484.23686 499.50205,486.53509 C 500.96118,494.03912 501.04702,504.90706 500.3536,510.26283 C 500.2813,510.82755 499.50962,512.09309 498.14728,512.70142 C 496.02134,513.64898 492.73822,513.93676 490.32834,514.90775 C 485.40541,516.89542 482.04389,518.83365 479.60635,520.3268 C 475.47465,522.85898 471.60224,526.61341 470.89714,526.21035 C 469.31891,525.30853 470.39329,522.61797 470.43265,520.55905 C 470.55494,514.11213 471.40771,506.67612 472.17448,501.12785 C 472.46801,499.00085 474.90979,485.414 476.66457,483.78684 C 479.28717,481.35462 483.3523,480.70838 487.34787,480.10962 C 489.27453,479.82089 491.19519,479.59467 492.88305,479.52902 z M 168.62968,488.58658 C 171.91164,488.38879 181.59984,492.45931 184.42237,494.19919 C 188.47325,496.69521 191.9277,500.22643 195.37662,503.21805 C 198.60221,506.0161 202.61731,510.07877 206.64051,513.28202 C 209.6385,515.66851 213.99815,517.63545 216.04646,518.89462 C 217.59065,519.84434 217.26109,520.37039 217.13028,520.52035 C 216.68041,521.03294 209.91768,517.74253 199.16997,511.34664 C 191.82757,506.97781 184.76553,502.32763 183.60951,501.63104 C 179.20344,498.97442 174.28001,497.90891 171.26181,495.97973 C 169.2571,494.69929 168.0189,493.50079 167.81683,493.15409 C 167.05962,491.85769 167.24076,490.46838 166.38465,490.48326 C 164.21217,490.52417 162.62111,490.33681 161.81714,490.40585 L 161.77845,490.40585 C 161.68768,490.42172 157.53235,490.94683 154.65625,492.49605 C 151.82841,494.01899 149.96029,496.18664 150.01134,496.52165 C 150.19744,497.75639 151.79986,498.46757 152.91441,499.42471 C 154.90209,501.1295 157.04446,502.78983 158.72055,503.83738 C 163.0426,506.53758 168.19962,509.69807 172.88752,512.89494 C 184.25099,520.64467 194.02579,528.886 195.06696,529.61663 C 203.33991,535.42865 212.64871,539.99 212.44666,542.69979 C 212.36371,543.81434 187.95309,543.97139 185.39006,543.93843 C 178.04448,543.8427 172.14028,541.98746 160.0366,536.08078 C 154.30434,533.28377 146.79347,528.11241 142.81173,520.98484 C 138.72577,513.66901 140.00268,505.62452 144.24391,498.99893 C 145.46162,497.09633 146.17956,495.49303 147.76629,494.16048 C 148.78408,493.30649 150.18599,492.23238 151.98543,491.7219 C 153.53174,491.28269 156.71911,491.22235 157.94639,490.87035 L 161.12042,489.94135 C 161.53625,489.78395 162.29813,489.76846 163.21062,489.59299 C 164.80799,489.28456 166.76857,488.69931 168.62968,488.58658 z M 258.7022,492.96056 C 259.19524,492.8776 259.81272,493.18764 260.40534,493.2315 C 263.48418,493.45592 262.95026,494.07628 263.03746,496.09586 C 263.11829,497.9591 262.55499,498.31876 261.41174,498.45702 C 260.28762,498.59314 259.08931,498.89411 258.89574,498.45702 C 258.22256,496.93941 257.25865,494.15845 258.27642,493.19279 C 258.41601,493.06066 258.53787,492.98819 258.7022,492.96056 z M 246.70286,492.99926 C 247.04211,492.99128 247.4083,493.13978 247.70926,493.69599 C 248.19634,494.59678 248.02295,496.06934 248.09633,497.56675 C 248.15376,498.71958 248.93011,499.47949 248.09633,500.3537 C 247.27211,501.21831 244.95479,500.93189 241.16768,501.78587 C 240.24564,501.99433 240.68308,502.33224 239.73549,502.4439 C 237.29051,502.72894 233.65091,501.72055 232.18751,499.8892 C 231.2761,498.75126 231.52201,497.12282 231.91657,495.67008 C 232.23669,494.49598 233.80007,496.70438 235.82603,498.45702 C 238.51352,500.78288 239.91312,502.50434 241.78699,499.8892 C 242.65906,498.67257 244.05881,498.38862 244.34169,497.64416 C 244.35872,497.60056 244.38155,493.13175 245.85129,493.15409 C 246.05655,493.15728 246.36362,493.00723 246.70286,492.99926 z M 272.55952,494.19919 C 273.12865,494.23826 273.93826,494.85509 274.88198,495.24429 C 275.84127,495.64098 277.00445,495.50815 277.59151,496.3281 C 278.5093,497.61173 278.29859,499.65921 276.89477,500.54723 C 276.06205,501.07364 275.41589,500.18676 274.4949,499.96662 C 273.68345,499.77306 272.58828,500.30846 272.17244,499.61824 C 271.64706,498.75042 271.98891,497.33415 271.82408,496.52165 C 271.69646,495.88994 271.75897,494.6635 272.09502,494.35402 C 272.16124,494.29339 272.24611,494.26014 272.32727,494.23789 C 272.39829,494.21844 272.47822,494.19361 272.55952,494.19919 z M 286.37813,497.99254 C 286.45001,497.96106 286.52231,497.97791 286.61037,497.99254 C 288.50764,498.30731 288.22738,497.85693 290.365,499.11506 C 291.46254,499.76164 291.26745,501.21024 290.90692,502.4439 C 290.61232,503.45209 291.98835,503.79866 287.96513,503.79866 C 286.00598,503.79868 285.29983,498.46457 286.37813,497.99254 z M 302.55789,503.25675 C 302.92519,503.24508 303.24876,503.32415 303.44817,503.68254 C 303.75233,504.22918 303.32653,505.27031 303.21592,506.31466 C 302.99046,508.44058 300.75085,509.39209 299.80966,507.5533 C 299.05244,506.07503 299.38193,504.69092 299.5,503.9922 C 299.62123,503.27433 300.43418,503.40478 301.39667,503.37288 C 301.77101,503.36011 302.19059,503.26845 302.55789,503.25675 z M 441.36327,505.38568 C 442.12229,505.41272 443.58553,508.26158 444.88566,510.45637 C 445.51524,511.52093 447.48909,514.20114 447.1307,515.06258 C 447.02964,515.30397 447.63652,516.06175 446.89845,515.79802 C 446.57405,515.68316 445.97715,516.11175 445.69851,515.99156 C 444.49143,515.47259 443.94655,514.32342 443.02769,513.2046 C 442.30451,512.32086 441.12891,511.31625 440.93748,509.14031 C 440.69261,506.37376 440.90784,505.36945 441.36327,505.38568 z M 312.89282,506.23725 C 313.85674,506.18151 314.58613,506.62957 314.8669,507.39847 C 315.04982,507.89937 314.72951,508.69491 314.75078,509.25643 C 314.76887,509.76479 315.19381,510.69368 315.09915,510.95957 C 314.90452,511.50408 314.0694,511.06293 313.70568,511.0757 C 311.75735,511.14268 311.73033,510.75782 311.61547,509.91447 C 311.26345,507.34825 311.48401,506.60667 311.84772,506.4695 C 312.21195,506.33177 312.57152,506.25583 312.89282,506.23725 z M 234.58739,508.25004 C 235.72081,508.2978 236.64671,509.0939 237.06467,509.56609 C 237.57302,510.14035 238.37052,511.29039 238.2259,512.23692 C 238.12805,512.88671 237.35948,512.7458 236.98726,513.35944 C 236.3247,514.45591 235.91986,516.20354 235.55508,516.80441 C 235.33707,517.16496 234.92476,516.48029 234.31644,516.53346 C 233.15191,516.6345 231.40469,517.61519 230.91017,517.2302 C 230.52625,516.93242 229.91619,516.24024 229.09092,515.48835 C 226.61507,513.2316 222.15028,510.13717 222.82029,509.75963 C 223.74979,509.2364 225.2793,510.75831 227.23295,511.42406 C 227.94336,511.66547 229.60735,511.82608 231.10371,511.23052 C 232.05873,510.84872 232.48667,508.93682 233.38745,508.52099 C 233.80275,508.32903 234.20958,508.23412 234.58739,508.25004 z M 351.63911,509.68222 C 352.12172,509.61682 352.80038,509.67077 353.53577,509.87575 C 355.37774,510.38731 357.40652,511.97106 357.60007,512.04337 C 358.41365,512.34436 361.49654,513.91853 363.832,516.45604 C 365.4538,518.21719 366.38555,520.3434 367.16084,522.3396 C 367.69049,523.7062 368.38333,525.04946 368.28335,526.05553 C 368.17701,527.11476 368.19311,529.11254 366.73505,529.42309 C 364.46557,529.90805 360.61762,527.05191 357.83232,522.72667 C 354.50886,517.56657 352.72001,511.17909 351.87135,510.80474 C 350.6151,510.25036 350.83472,509.79123 351.63911,509.68222 z M 326.13081,510.41766 C 326.90596,510.35345 327.6358,510.59542 327.95005,511.1144 C 328.30847,511.70676 328.05285,513.13827 327.52428,515.2174 C 327.30945,516.06395 324.89265,514.44562 324.35026,513.97876 C 323.68558,513.40552 323.61817,512.36121 324.11801,511.54018 C 324.54768,510.83454 325.35564,510.48187 326.13081,510.41766 z M 433.97012,510.92086 C 434.12345,510.90516 434.272,510.91581 434.4346,510.92086 C 435.51869,510.95454 436.69023,511.45192 436.83447,512.23692 C 437.38325,515.21896 439.07116,516.6395 439.58272,517.57857 C 440.36227,519.01112 439.92989,519.80143 439.04082,520.3268 C 438.43249,520.68626 437.48043,520.77038 437.06673,521.41061 C 436.27123,522.63897 431.0875,513.21031 432.8476,511.38535 C 433.09645,511.12722 433.51007,510.96799 433.97012,510.92086 z M 289.16507,512.04337 C 291.77596,511.70733 293.10661,515.71581 295.62924,521.13967 C 297.29998,524.73108 300.13658,528.84951 301.89986,533.10031 C 303.25372,536.36524 304.08308,539.68201 305.69322,542.54495 C 307.47776,545.71843 306.90753,549.36406 307.82212,551.71864 C 308.83991,554.33806 311.1135,556.81315 311.61547,556.82805 C 311.69417,556.83019 317.07808,557.03366 324.15671,559.88595 C 333.63569,563.70708 344.88361,568.91608 346.64583,571.11115 C 347.41792,572.07255 345.97311,573.59322 344.05242,574.51741 C 340.55139,576.19986 340.28848,576.7016 339.63976,577.0334 C 338.89105,577.41733 334.97682,574.3951 321.33107,567.97583 C 317.18131,566.02324 312.41241,564.26836 307.55117,562.59548 C 305.50181,561.89144 295.43162,557.80552 284.90724,555.47328 C 275.4017,553.36651 265.29707,553.09366 262.03107,552.68634 C 261.2781,552.5917 261.19267,551.84073 261.2182,551.79606 C 262.08708,550.23804 264.66099,549.79289 267.48883,549.20265 C 271.01008,548.4667 275.10066,547.81255 278.94628,548.11884 C 283.84581,548.50915 287.71013,549.87811 287.88772,549.89939 C 291.51213,550.32905 305.85654,557.59199 305.84804,553.34436 C 305.84272,550.75369 304.49316,548.20607 303.40947,545.68026 C 303.23928,545.2857 299.52777,538.64175 296.09373,531.20363 C 291.95034,522.22557 288.06435,512.18589 289.16507,512.04337 z M 510.95948,512.27563 C 511.40759,512.15077 512.09542,512.94575 512.85616,513.94005 C 513.69208,515.03121 515.33426,516.58586 515.79793,517.92693 C 516.66894,520.43892 514.54306,521.26624 512.97228,520.94613 C 511.89923,520.7281 510.93483,519.29367 510.84336,518.62368 C 510.21522,514.0796 510.38335,512.43615 510.95948,512.27563 z M 335.69158,513.86264 C 336.69179,513.85081 338.02067,514.30235 338.67206,514.44326 C 339.85997,514.6985 339.90284,516.47659 339.87199,517.26891 C 339.78159,519.65328 340.41509,519.76832 339.05914,519.63006 C 334.3053,519.14191 336.1726,520.31273 334.64647,516.10768 C 334.00998,514.35289 334.69136,513.87447 335.69158,513.86264 z M 302.20953,514.71421 C 302.8984,514.60328 304.0369,515.22365 304.72551,515.44964 C 311.25539,517.58834 317.5805,536.30944 319.51182,542.42883 C 321.42611,548.48862 323.6932,555.31295 322.41488,555.0088 C 321.89165,554.88545 319.87278,555.18376 317.11194,551.44769 C 314.43511,547.82543 311.67678,539.78213 310.99614,536.50657 C 310.575,534.48274 307.72624,526.09109 305.26743,521.21708 C 303.47331,517.66073 301.8516,517.35985 301.66762,515.95285 C 301.55715,515.10577 301.7962,514.78075 302.20953,514.71421 z M 426.11247,515.2948 C 426.2401,515.30652 430.21729,519.55598 431.26059,522.49443 C 431.66683,523.64407 432.2875,524.45374 431.22188,525.55232 C 427.90271,528.97786 423.68184,523.07471 422.93845,520.01714 C 422.88104,519.78213 423.207,517.66015 424.06098,516.37863 C 424.64591,515.50336 425.72323,515.25653 426.11247,515.2948 z M 281.88804,515.79802 C 284.12247,515.63671 284.79384,516.487 285.56527,517.7721 C 286.34374,519.06852 287.45454,520.77238 286.88132,522.76538 C 286.52824,523.99157 284.65853,523.1865 283.35894,522.95892 C 283.13135,522.91848 280.89069,522.43314 279.75913,520.67517 C 279.16569,519.75524 278.76903,517.74627 279.56559,516.57216 C 280.10691,515.77456 279.86029,516.11981 280.84294,515.95285 C 281.22967,515.88744 281.56885,515.82106 281.88804,515.79802 z M 417.05491,520.17197 C 418.05807,520.20661 418.62763,520.98659 419.45478,521.95252 C 419.98016,522.56724 420.11955,523.96882 420.73213,524.97171 C 421.1522,525.65979 422.14282,525.91295 422.24171,526.63614 C 422.94577,531.78132 420.75634,532.71012 418.95158,531.93908 C 417.98485,531.52646 417.59327,530.25285 416.78395,529.15213 C 415.23761,527.0528 413.68282,524.75419 414.34537,524.42981 C 415.28551,523.96717 414.61349,521.96197 415.23565,521.06225 C 415.66528,520.43903 415.15413,520.67222 415.85498,520.40422 C 416.3144,520.22874 416.72052,520.16043 417.05491,520.17197 z M 320.20855,521.87511 C 321.28247,521.86035 327.39779,529.58996 330.11769,541.57727 C 330.28467,542.3164 331.24199,545.95065 332.67238,549.51231 C 334.63135,554.3938 337.05969,559.45949 335.53675,559.88595 C 333.48953,560.46024 333.2495,558.16726 332.05306,556.17002 C 328.9721,551.02802 326.17165,544.89666 323.92448,539.44834 C 322.07293,534.95613 318.7052,525.92298 320.05372,521.99123 C 320.07799,521.92064 320.13695,521.87608 320.20855,521.87511 z M 498.18599,522.3009 C 498.39069,522.30977 498.58977,522.39036 498.72789,522.53313 C 499.97219,523.82211 501.22338,525.83867 500.04395,527.33287 C 498.78794,528.92281 494.96622,530.01501 492.96046,531.62941 C 488.01837,535.61221 485.1193,537.57002 479.68377,541.38372 C 477.71416,542.76413 475.77074,541.95925 475.15498,541.69338 C 474.92632,541.59555 474.64447,540.97095 475.34852,540.49346 C 476.69385,539.58418 479.74857,538.48374 480.45791,537.39683 C 481.19705,536.2642 478.70683,535.85 477.67098,536.27432 C 473.88916,537.82491 465.05552,543.83135 458.12365,544.75128 C 458.09812,544.75448 451.41063,546.5045 444.92437,549.78326 C 436.71201,553.93306 428.26759,559.84998 428.00915,560.00207 C 423.87003,562.42049 419.87864,563.98075 417.75164,565.18888 C 416.73067,565.76956 416.44804,566.53902 415.23565,565.92433 C 413.72441,565.15966 411.71088,563.19977 412.17775,562.51806 C 413.3157,560.85902 420.22385,561.82806 426.49955,558.1441 C 428.34366,557.06147 430.40582,553.87917 432.8476,552.64764 C 436.04129,551.03855 440.03857,550.98831 443.45348,548.81558 C 448.56464,545.56339 453.75709,542.24702 458.62684,539.79671 C 460.23591,538.98633 464.68086,536.12855 470.2004,534.80343 C 471.50636,534.4897 472.59355,535.10733 474.03247,535.26793 C 475.56494,535.43916 477.44582,535.13824 478.87091,534.49378 C 483.44076,532.42527 487.12379,529.50475 490.5993,527.25546 C 493.77532,525.19984 496.75306,522.23875 498.18599,522.3009 z M 331.43375,524.31368 C 332.34418,524.3028 335.29655,524.88134 338.71077,526.13293 C 343.18598,527.77285 348.30409,530.67044 352.52938,532.82935 C 356.88866,535.05632 360.2991,536.51969 358.95483,537.12589 C 358.63472,537.27053 357.80708,537.1712 356.98074,537.08718 C 356.89568,537.07868 351.32171,535.05784 345.44589,532.48098 C 341.06535,530.55926 337.27269,528.12653 334.49165,526.48131 C 332.52522,525.31782 330.67358,524.65656 331.1628,524.35239 C 331.2036,524.32674 331.30369,524.31523 331.43375,524.31368 z M 373.62501,524.62334 C 374.5924,524.6156 375.63389,525.62832 376.10229,528.30056 C 376.48195,530.46587 376.7134,534.27655 375.87005,535.15181 C 375.36489,535.67932 374.02404,534.33524 373.35406,533.21643 C 372.95842,532.55815 371.50477,526.98458 371.80576,526.21035 C 372.16773,525.27561 372.87259,524.62937 373.62501,524.62334 z M 408.57795,525.32008 C 409.95712,525.42425 410.98908,527.44605 411.36489,528.76506 C 411.43932,529.02775 412.06391,531.59754 412.56482,533.48737 C 413.97717,538.82188 406.34124,533.04875 405.82971,531.78425 C 405.2033,530.23368 405.54163,527.89064 406.52644,526.59743 C 407.27124,525.61899 407.95105,525.27272 408.57795,525.32008 z M 282.12029,527.06193 C 283.48358,526.95797 285.14762,527.30856 286.7652,528.02961 C 293.76302,531.15099 293.65139,533.21658 290.8682,533.91316 C 290.18331,534.08333 285.98178,533.7828 282.89444,533.56479 C 281.16307,533.44356 279.79105,533.68436 279.56559,533.21643 C 278.61164,531.24575 278.95432,529.85108 279.29464,528.88118 C 279.69717,527.73579 280.75702,527.16589 282.12029,527.06193 z M 331.62728,529.34566 C 333.28067,529.44203 341.80443,533.30568 342.89119,533.75833 C 348.5256,536.10441 355.93744,540.85728 356.98074,541.57727 C 359.99897,543.65854 366.49314,546.87875 371.96058,548.69946 C 374.92561,549.68745 380.976,550.11312 379.1989,550.28647 C 379.1723,550.28966 379.45175,552.50638 377.41835,552.95729 C 375.26476,553.43799 372.11999,553.177 371.07031,553.11212 C 371.00544,553.10682 364.37066,551.27502 358.21938,548.77688 C 352.2585,546.35423 346.8739,543.20981 346.10391,542.85462 C 342.70817,541.28807 334.99661,538.42986 332.13048,533.71962 C 331.29139,532.33918 330.339,530.06394 331.39503,529.38437 C 331.44003,529.35547 331.51706,529.33924 331.62728,529.34566 z M 456.80759,531.51329 C 457.01383,531.51103 457.24095,531.55683 457.46562,531.62941 C 458.08032,531.82828 459.07029,532.4909 458.82038,533.29384 C 458.60662,533.97981 457.29661,533.91394 456.49792,534.57119 C 456.17357,534.83812 454.84384,535.94761 453.44003,536.35174 C 452.55309,536.60592 452.55042,536.20141 452.12397,535.73242 C 451.83258,535.41231 450.88338,535.23525 451.19499,534.41637 C 451.52895,533.53682 453.50109,532.56653 455.3367,531.93908 C 455.68685,531.81862 456.18884,531.52007 456.80759,531.51329 z M 515.41086,532.48098 C 516.44249,532.42203 517.18657,532.75322 517.30753,532.90677 C 517.48725,533.13433 515.3371,536.17701 512.74003,539.64188 C 511.51916,541.27118 509.51107,542.35851 507.9403,543.78359 C 506.34826,545.22887 498.88936,549.57048 498.41823,550.55742 C 498.19277,551.02961 496.88824,550.36139 496.59897,549.74456 C 496.32671,549.16387 496.77888,548.15631 496.90863,547.8479 C 497.8126,545.71343 501.11371,542.92625 503.45022,541.22889 C 504.73706,540.29409 506.16724,538.56601 507.82418,537.82262 C 509.82141,536.92611 511.60948,534.13975 513.32065,533.13902 C 514.07081,532.69993 514.79187,532.51635 515.41086,532.48098 z M 385.70178,532.63581 C 386.48914,532.65802 387.5743,533.2148 388.60483,533.83574 C 389.08552,534.1261 394.48866,537.29913 393.83036,538.28711 C 393.0742,539.42294 390.68227,540.07701 388.64354,540.33862 C 387.15675,540.53007 385.86622,540.76496 385.46953,539.44834 C 383.84437,534.07168 384.38947,532.59879 385.70178,532.63581 z M 529.22946,534.95827 C 532.272,534.86413 535.38138,535.36281 538.0935,536.46786 C 539.94291,537.22187 545.5416,539.76832 544.67378,543.04815 C 544.5047,543.68624 543.45102,545.53089 541.96426,546.22217 C 539.31295,547.45369 535.81938,547.66415 537.47417,549.62844 C 538.23243,550.52814 540.77067,550.32065 543.2029,550.78967 C 548.18326,551.75106 554.58053,553.13037 557.29246,555.66682 C 562.33128,560.3792 561.03067,567.46106 557.09892,570.41441 C 554.40826,572.43507 549.83353,571.64069 546.10597,571.88529 C 544.00664,572.0225 541.56033,573.88448 539.83534,573.82067 C 538.49321,573.77068 537.8201,572.07814 536.6226,570.45312 C 534.69446,567.83371 532.89547,564.38908 532.36477,563.52446 C 531.30555,561.80265 530.80467,559.8041 529.73267,559.49886 C 528.65214,559.19045 528.24313,560.95601 527.52633,562.44064 C 526.81059,563.92635 525.75666,565.09596 525.47483,564.95663 C 519.65643,562.08625 521.68834,549.59939 523.38462,548.62204 C 523.9036,548.32318 523.63729,546.29466 523.53945,544.48033 C 523.45331,542.87872 523.60292,541.46347 522.72658,541.57727 C 522.48306,541.60811 519.75914,543.09026 517.03657,545.25448 C 512.49757,548.86188 507.12414,554.0553 506.04363,554.46688 C 503.63268,555.38361 503.31777,553.47754 502.90831,553.07342 C 501.86182,552.03968 505.02364,549.83039 506.81778,548.54463 C 508.15139,547.58962 509.38847,545.62831 511.23044,544.13196 C 512.94479,542.73986 514.69927,540.94567 518.62358,538.171 C 521.48425,536.14842 525.31762,535.07929 529.22946,534.95827 z M 445.19531,535.655 C 445.70301,535.59075 446.16717,535.78427 446.47266,535.73242 C 448.07534,535.46016 447.83628,536.77727 448.83382,537.04848 C 449.0274,537.10057 449.4302,537.5708 449.29832,537.74521 C 449.07923,538.03661 448.08781,538.098 447.51778,538.59678 C 446.80734,539.2168 446.29967,540.20534 445.04048,539.52575 C 443.83236,538.87596 443.21491,536.72976 444.69212,535.80983 C 444.85935,535.70561 445.02608,535.67641 445.19531,535.655 z M 280.49457,536.93236 C 280.84617,536.92508 281.20127,536.93397 281.61711,536.97106 C 283.49629,537.13907 288.81066,537.20202 291.8746,539.52575 C 297.01662,543.42775 301.88577,547.5585 293.77128,546.95761 C 290.40211,546.70663 286.65879,545.37919 283.04927,544.59646 C 280.24163,543.98814 277.33283,544.06741 275.81095,542.89333 C 274.03281,541.52138 274.5845,540.16946 276.0819,538.86773 C 277.03202,538.03953 278.03335,536.98326 280.49457,536.93236 z M 438.53761,539.60317 C 438.89174,539.60765 439.19426,539.61051 439.31176,539.64188 C 440.33484,539.91945 440.31751,540.70565 440.35686,541.22889 C 440.43982,542.32855 438.9461,544.20464 437.37639,544.94482 C 436.30438,545.44891 435.05482,545.14797 434.74427,544.75128 C 433.54572,543.22411 435.12789,540.70344 435.59584,539.95154 C 435.75775,539.69232 437.47523,539.58976 438.53761,539.60317 z M 429.24779,544.13196 C 430.45913,544.12771 430.63765,546.21015 430.60256,547.46081 C 430.58342,548.1319 430.2751,547.92292 429.63487,548.38979 C 429.42005,548.54504 429.20379,548.70071 429.01554,548.81558 C 426.7854,550.1577 426.25138,548.63044 426.07377,545.48672 C 426.01317,544.41472 427.19205,544.14047 429.24779,544.13196 z M 338.01403,544.20938 C 339.04335,544.17001 341.3343,545.29125 343.4718,546.06734 C 345.49563,546.80114 347.40142,547.04458 347.96188,547.22857 C 351.32149,548.32714 354.81936,550.38819 358.41292,551.91218 C 362.74776,553.75204 367.03791,555.11703 369.05751,557.33124 C 369.79451,558.13947 368.11628,559.15907 367.19955,560.81493 C 366.69331,561.73165 365.06776,561.14355 364.02553,560.81493 C 363.69798,560.71071 360.45225,559.80317 356.51626,558.1441 C 354.59451,557.33478 348.62483,554.52797 344.09112,551.87347 C 342.86915,551.15881 337.91367,548.87585 337.78179,548.00271 C 337.53825,546.39683 336.85529,544.80366 337.66567,544.28679 C 337.75726,544.22856 337.86699,544.215 338.01403,544.20938 z M 401.92024,545.3706 C 403.36278,545.3628 405.06852,545.88347 405.63618,546.02863 C 408.17153,546.67841 406.98384,547.36033 405.55875,548.38979 C 403.84012,549.63197 401.1485,550.49292 400.48806,551.17675 C 399.94355,551.74144 398.62506,551.79878 397.97207,552.14443 C 396.00992,553.18026 394.3412,554.03028 392.20464,553.73144 C 391.90582,553.68997 389.10673,552.73407 387.32748,551.79606 C 385.54933,550.85911 385.06816,549.69908 387.67586,549.28006 C 388.08848,549.21521 391.43308,548.52409 395.37867,547.53823 C 398.06506,546.86716 399.45363,545.66349 401.30093,545.40931 C 401.49208,545.38312 401.71417,545.37171 401.92024,545.3706 z M 419.02899,548.62204 C 419.4734,548.64185 419.85651,548.82972 420.11279,548.893 C 420.1479,548.9015 420.91756,549.09028 421.1579,549.82198 C 421.39719,550.55258 421.12494,551.8383 421.1579,552.64764 C 421.19302,553.49526 421.5417,554.38947 420.26763,554.38947 C 419.86779,554.38945 419.46969,554.42669 419.0677,554.38947 C 419.02836,554.38627 418.21767,554.46715 417.67423,553.80886 C 416.9755,552.96338 416.61753,551.13886 417.71293,549.35748 C 418.08464,548.75238 418.58458,548.60224 419.02899,548.62204 z M 220.14945,552.4541 C 220.91956,552.46606 221.75087,552.50036 222.47191,552.4541 C 224.68294,552.3116 224.33071,554.86588 222.35579,556.82805 C 221.12106,558.05319 217.97501,559.20318 216.08517,559.88595 C 212.74472,561.09514 212.85656,558.33827 214.34333,556.24743 C 215.01865,555.2988 216.4156,554.85805 217.13028,554.35077 C 217.69924,553.94557 217.54069,552.90117 218.09796,552.68634 C 218.67809,552.46355 219.37936,552.44213 220.14945,552.4541 z M 410.47461,552.76375 C 410.85551,552.73984 411.1405,552.84891 411.36489,553.11212 C 412.13379,554.0108 412.64351,553.82733 412.75836,554.23464 C 413.0487,555.2737 411.0987,556.74545 410.16494,557.44737 C 406.99255,559.83385 407.66192,559.86283 403.46855,559.22792 C 400.59604,558.79084 398.6286,557.71222 398.78493,556.86676 C 399.0019,555.70435 402.24474,555.81047 404.86202,554.89267 C 407.46706,553.97938 409.33192,552.83549 410.47461,552.76375 z M 480.65145,554.27334 C 484.71413,554.44349 493.90825,560.56927 505.26947,568.2855 C 513.36483,573.78378 524.91744,579.34278 533.17764,584.6975 C 542.58214,590.79348 555.49304,597.68975 565.692,603.19973 C 571.0414,606.08926 576.81241,608.52842 573.93672,608.23171 C 573.40923,608.17746 570.15317,607.07483 567.82091,606.10279 C 564.06252,604.53627 560.06578,601.51918 555.70544,598.9806 C 549.53608,595.38808 542.94029,592.06479 537.93868,589.03275 C 532.90512,585.98052 527.04278,583.11294 521.79761,579.82034 C 511.65607,573.45638 502.63629,567.85394 498.34082,565.96304 C 494.67813,564.34971 491.06103,562.40846 488.85745,560.85364 C 485.42237,558.42992 484.11547,556.61874 480.76757,556.94417 C 477.34948,557.27493 473.6615,560.95062 467.607,565.26629 C 462.33416,569.02364 456.15156,571.23151 450.96275,573.4723 C 448.81978,574.39649 447.08243,577.43368 444.6534,577.26565 C 443.49099,577.1859 442.45844,576.87075 441.63422,576.25925 C 441.00249,575.79022 448.43382,572.36999 456.73017,568.05325 C 462.04981,565.28496 467.59232,561.88643 472.01967,559.49886 C 476.12052,557.28786 478.6535,554.94673 479.21927,554.58301 C 479.58007,554.35077 480.07107,554.24904 480.65145,554.27334 z M 255.45077,555.66682 C 256.05928,555.64108 256.74718,555.6421 257.50228,555.66682 C 264.5671,555.89867 277.12552,558.24817 283.82343,559.69241 C 297.12886,562.56387 311.25211,567.04443 321.02141,572.19495 C 322.78363,573.12446 331.05731,575.34017 333.29171,578.38816 C 334.82103,580.47477 329.22975,583.22526 326.90496,583.88465 C 326.03075,584.13244 324.06242,582.8447 322.72454,582.33634 C 317.21349,580.24337 309.19962,575.62156 305.11259,574.24646 C 302.61338,573.40629 291.61306,569.20278 280.26233,566.7759 C 265.66792,563.65663 249.20353,563.32293 249.37368,562.40194 C 250.28749,557.44113 251.19124,555.84693 255.45077,555.66682 z M 340.99452,555.66682 C 344.66678,555.63175 349.87475,558.24916 353.88415,560.46656 C 356.90449,562.13838 359.47702,563.32592 358.95483,564.33732 C 357.43829,567.2747 354.03631,568.57415 350.86495,567.93712 C 348.87727,567.53829 347.24916,565.86657 345.40719,564.91793 C 343.6088,563.99057 341.70558,563.72873 340.76228,562.55676 C 340.01037,561.6209 340.84949,560.77632 340.76228,559.80853 C 340.62616,558.29518 339.8034,555.67852 340.99452,555.66682 z M 380.97944,556.01519 C 383.3591,556.09349 386.23367,560.72125 385.74049,561.55037 C 385.52884,561.90664 382.51884,559.48932 380.05046,559.30533 C 378.89234,559.21919 376.98559,560.68801 374.39916,562.44064 C 371.06401,564.69844 366.05209,567.4715 362.12885,570.29828 C 357.7334,573.46325 354.16489,577.24306 352.02616,577.73013 C 351.63055,577.81945 351.35733,577.05489 351.05849,576.95599 C 349.84611,576.55715 372.21871,562.87288 373.00568,562.09228 C 374.8583,560.25137 377.88795,557.64848 380.01175,556.28614 C 380.32018,556.08808 380.6395,556.00401 380.97944,556.01519 z M 224.25246,561.31812 C 224.57715,561.31507 224.85559,561.34837 225.14274,561.43424 C 226.35725,561.79797 226.03047,562.66408 225.99431,563.52446 C 225.94006,564.82086 225.32667,566.70173 223.47833,568.36291 C 222.36909,569.36048 220.22678,570.12125 219.14307,571.03372 C 217.73074,572.22165 217.40347,573.44204 216.24,574.01421 C 215.50298,574.37578 214.68918,574.24646 214.26591,574.24646 C 214.26591,570.67099 214.32796,568.98486 216.93674,565.8082 C 218.89556,563.42131 221.97965,561.33954 224.25246,561.31812 z M 251.85097,568.01454 C 254.1231,567.93271 257.4355,568.32566 261.91494,568.78869 C 267.34516,569.35023 274.2255,569.58965 280.03009,571.53693 C 285.11786,573.24278 291.15368,573.93937 297.25496,575.83347 C 308.68332,579.38341 319.88271,583.91924 322.22134,584.62009 C 326.12226,585.78993 321.53966,586.93729 319.78277,588.41343 C 317.52284,590.30964 316.15983,591.42714 313.47343,590.92942 C 312.38549,590.72737 307.30128,588.36243 300.62251,585.78131 C 288.31039,581.0243 277.4854,578.05038 264.23739,576.37537 C 260.62575,575.91914 256.19367,576.99111 253.94117,576.76246 C 249.92649,576.35621 249.10085,575.01856 248.83179,574.24646 C 247.20796,569.58433 248.06409,568.1509 251.85097,568.01454 z M 226.18784,571.76917 C 227.32577,571.78089 229.20557,575.66067 228.97479,576.76246 C 228.68765,578.13863 226.85742,581.31179 221.65906,584.34913 C 220.05105,585.28926 218.6304,586.27413 217.67218,585.82002 C 214.90498,584.50768 215.99482,580.64261 217.74958,578.07851 C 218.72803,576.64706 220.70806,575.08093 221.93001,573.62713 C 222.28948,573.1975 224.69683,571.75429 226.18784,571.76917 z M 254.01859,580.5945 C 255.12632,580.57384 256.57333,580.62697 258.43126,580.67191 C 258.53656,580.67405 268.07375,581.25646 276.27545,582.49117 C 282.07152,583.36218 287.20177,584.98651 287.88772,585.162 C 292.88192,586.44564 300.05354,588.99486 304.91905,591.51003 C 306.34414,592.246 308.32269,592.52317 309.06077,593.32929 C 310.53902,594.94263 309.47742,597.47161 307.08668,597.81937 C 304.9767,598.12567 301.96867,596.49651 296.40338,594.4131 C 290.45843,592.18828 283.20459,589.65967 275.92708,588.10376 C 274.67854,587.83683 269.87963,586.46472 264.85672,585.93614 C 258.39808,585.25657 251.59767,585.39957 251.54131,585.20071 C 250.46132,581.40243 250.6954,580.65647 254.01859,580.5945 z M 381.40523,581.83313 C 381.72173,581.83985 382.02926,581.87975 382.3342,581.94926 C 383.82097,582.28637 388.79105,583.38212 391.93368,585.00717 C 392.425,585.26135 394.97499,587.17846 397.27533,588.68439 C 401.2964,591.31548 399.79491,591.97479 397.97207,591.3165 C 397.20527,591.03891 396.0883,590.06347 394.72063,589.34241 C 392.7234,588.28743 390.37296,587.40945 389.14675,586.749 C 387.43984,585.82907 385.84021,584.28068 383.76639,583.92335 C 380.93111,583.43521 378.00872,584.73164 376.06358,585.78131 C 375.00327,586.35242 374.21742,586.47199 373.04439,587.48444 C 372.09788,588.30119 369.85504,590.06502 370.0252,588.60697 C 370.05073,588.39956 370.78319,587.71502 370.87676,587.36832 C 370.94911,587.09395 372.42534,586.43905 374.01208,585.23942 C 376.69768,583.20893 379.18965,581.78618 381.40523,581.83313 z M 430.21548,581.83313 C 433.70695,581.69914 436.28134,583.1276 435.9442,584.38784 C 435.81234,584.88129 435.91181,585.56223 434.4346,585.78131 C 431.54722,586.2099 430.13573,587.90394 427.97044,589.18758 C 425.90405,590.41167 423.19843,591.47809 420.15151,591.89711 C 418.95933,592.05982 417.87852,592.4418 416.513,592.20677 C 415.67602,592.06214 415.69394,590.54751 416.00981,590.03915 C 416.55646,589.15749 417.75259,589.251 418.91287,588.95534 C 421.64605,588.26301 424.71729,586.07966 427.00275,584.27171 C 428.19812,583.32625 428.89781,581.88313 430.21548,581.83313 z M 334.56906,583.88465 C 335.78251,583.88465 337.12377,584.06021 337.12377,585.162 C 334.36293,585.162 334.48352,589.03275 332.67238,589.03275 C 332.67238,591.74893 328.84035,592.05584 328.84035,593.48412 C 326.22732,593.48411 324.91054,596.03883 321.79556,596.03883 C 321.79556,597.17995 318.62153,597.00359 318.62153,598.59353 C 316.27653,598.59353 316.44947,601.22564 314.09276,601.22564 C 314.09276,600.01113 312.83144,599.29026 314.09276,599.29026 C 314.09276,597.31745 318.62153,596.9839 318.62153,595.4195 C 319.71056,595.4195 323.07291,593.8613 323.07291,592.8648 C 324.16086,592.86479 327.52428,591.30554 327.52428,590.31009 L 328.84035,590.31009 C 328.84035,589.16576 334.56906,586.54338 334.56906,583.88465 z M 227.92968,584.27171 C 228.52483,584.26292 229.11277,584.38124 229.63282,584.6975 C 230.21669,585.05166 230.10346,585.87356 230.36827,586.43934 C 230.94895,587.68469 231.45077,588.99347 231.72303,590.50363 C 232.03144,592.21589 230.96832,592.69604 230.0973,593.8712 C 229.50068,594.67626 229.67448,596.42992 227.69744,596.69685 C 226.76901,596.82233 225.29876,598.62802 223.9428,598.24516 C 223.13028,598.01757 222.40053,595.93106 221.77518,595.22596 C 221.09667,594.4613 220.02758,593.78418 220.18817,591.93582 C 220.55827,587.67333 223.52071,586.17423 225.02662,585.23942 C 225.9193,584.68574 226.93778,584.28639 227.92968,584.27171 z M 197.62165,589.65207 L 205.32447,589.65207 C 205.32447,591.73228 207.22114,592.70574 207.22114,594.76148 C 208.8068,594.76148 208.62726,597.9742 209.77583,597.9742 C 209.77583,599.83746 207.22114,597.58089 207.22114,596.03883 C 206.02151,596.03881 206.06138,594.14215 204.04711,594.14215 C 204.04711,592.8362 201.49241,593.51169 201.49241,592.20677 C 199.66851,592.20677 193.7896,592.16617 193.7896,594.14215 C 191.91679,594.14216 191.67539,595.4195 189.29953,595.4195 C 189.29953,596.77335 186.1255,597.01529 186.1255,598.59353 C 184.79827,598.59353 183.86876,601.84495 181.63542,601.84495 C 181.63542,604.01662 179.04202,604.35296 179.04202,605.67701 C 177.57652,605.67703 178.29606,607.57368 177.14535,607.57368 C 177.14535,606.21133 177.77113,603.12231 179.04202,603.12231 C 179.04202,600.85814 182.29346,600.10262 182.29346,598.59353 C 184.15884,598.59353 184.55721,596.69685 186.74482,596.69685 C 186.74482,595.90559 189.29953,595.48323 189.29953,594.14215 C 191.03196,594.14216 191.44742,592.8648 193.17029,592.8648 C 193.17029,591.52691 196.34431,592.42895 196.34431,590.92942 C 196.88881,590.92944 197.62165,590.17958 197.62165,589.65207 z M 256.53458,589.84561 C 256.65099,589.83113 256.78296,589.83909 256.92166,589.84561 C 258.34829,589.91261 260.9823,590.98579 264.93413,591.16167 C 268.92546,591.33928 272.64614,591.21306 276.50769,591.97452 C 279.87582,592.63815 283.22793,593.33235 285.29431,594.68406 C 287.07566,595.85177 286.97012,598.83652 288.00384,599.90959 C 290.52966,602.53108 290.54131,603.25954 288.58446,602.73524 C 287.75812,602.51298 287.01357,601.86649 285.25562,601.38046 C 282.6628,600.66261 279.06663,598.49194 274.95939,597.66453 C 270.35444,596.7393 264.40899,596.47129 260.56018,595.61304 C 256.43805,594.69417 255.96314,594.08956 255.72173,592.43902 C 255.45465,590.61716 255.7197,589.94701 256.53458,589.84561 z M 507.4758,593.44541 C 508.46592,593.37309 510.90304,594.72176 513.97868,596.19365 C 519.27809,598.73117 526.45163,602.4376 531.08743,605.67701 C 532.30512,606.52889 533.71283,607.49365 534.95818,608.03817 C 535.86746,608.43592 536.56201,608.70658 536.42907,609.16069 C 536.31846,609.53929 535.49894,610.44335 534.22274,610.43804 C 532.86357,610.43379 531.24473,609.16257 527.75858,607.38013 C 524.03953,605.48073 520.06524,603.09154 518.97196,602.34816 C 517.63834,601.44525 514.61972,599.51947 512.19812,597.9742 C 511.02085,597.22339 510.21158,596.4406 509.37247,596.11624 C 508.42277,595.74719 507.50291,595.85385 506.54682,595.26467 C 505.58966,594.67445 505.44027,593.5943 507.4758,593.44541 z M 408.07474,594.49052 C 408.7397,594.51085 409.3713,594.74909 409.70047,595.18726 C 410.23964,595.90513 406.43165,598.89953 405.82971,599.25155 C 405.12142,599.66524 403.80492,599.83657 402.61698,600.33537 C 400.73563,601.12553 398.90622,602.20267 398.20431,602.27074 C 394.37357,602.64296 398.43784,601.00355 400.60418,599.29026 C 402.60994,597.70564 404.03534,597.40806 406.2942,595.10984 C 406.72119,594.67541 407.4098,594.47017 408.07474,594.49052 z M 232.5746,596.73556 C 234.23897,596.76429 234.5991,599.19834 234.58739,603.93516 C 234.5842,605.02631 234.51287,606.88287 233.11651,607.22531 C 231.58295,607.6018 229.65416,606.50713 228.85867,606.02537 C 224.55789,603.42088 229.3958,596.67813 232.5746,596.73556 z M 262.7278,599.83216 C 262.97646,599.81433 263.23076,599.82312 263.50195,599.83216 C 269.84361,600.04168 282.36706,604.74161 283.97826,605.13511 C 287.08899,605.89657 289.737,606.17223 289.43603,607.30272 C 288.1258,612.22778 282.0239,609.33305 278.24953,608.38655 C 273.42338,607.17732 267.95212,606.67883 265.01154,605.67701 C 257.97452,603.28214 258.9979,600.09972 262.7278,599.83216 z"
       style="fill:#000000;fill-rule:evenodd" />
    <g
       id="g6946"
       transform="matrix(0.944197,0.1006029,0.1283421,0.8874497,-31.804518,-42.938124)">
      <path
         id="path6107"
         d="M 361.47176,354.92539 C 337.81457,389.02336 316.68295,419.83434 295.89724,429.74581 C 295.99392,430.1942 296.05099,430.69772 296.08073,431.2014 C 296.20857,433.36829 295.67209,435.61771 294.69336,437.46746 C 294.71688,438.1157 294.73684,438.75614 294.77501,439.40305 C 295.04506,443.9806 297.27912,475.57604 298.21981,479.59352 C 301.16752,490.21296 306.47328,496.68982 315.78345,494.92298 C 319.90408,494.29035 323.23259,470.09332 328.24584,467.90542 C 333.25909,465.71752 339.96356,485.53255 345.61138,483.18588 C 351.23286,480.85015 355.31827,456.57327 360.32514,454.62012 C 365.33203,452.667 371.25423,473.04718 375.24424,470.34818 C 383.80082,464.06706 389.20692,454.6649 390.28313,441.77861 C 390.75089,437.05001 389.25118,404.983 388.97276,400.26363 C 387.56789,376.45009 376.5665,359.74019 361.47176,354.92539 z"
         style="fill:none;fill-opacity:1;stroke:#ffffff;stroke-width:1.19303966;stroke-linecap:round;stroke-miterlimit:4;stroke-dasharray:none;stroke-opacity:1" />
      <path
         id="path6105"
         d="M 372.3125,380.9375 C 371.23096,380.93346 370.09975,381.14209 368.9375,381.625 C 362.73885,384.20058 358.10188,393.0997 358.59375,401.4375 C 359.08564,409.7753 364.52008,414.41929 370.71875,411.84375 C 376.91742,409.2682 381.55439,400.43158 381.0625,392.09375 C 380.66283,385.3193 376.99917,380.955 372.3125,380.9375 z M 375.03125,386.53125 C 377.90155,386.54009 380.1613,389.19166 380.40625,393.34375 C 380.70773,398.454 377.86169,403.89016 374.0625,405.46875 C 370.26332,407.0473 366.92648,404.17276 366.625,399.0625 C 366.32352,393.95223 369.16957,388.54733 372.96875,386.96875 C 373.6811,386.67277 374.36887,386.52921 375.03125,386.53125 z"
         style="fill:#ffffff;fill-opacity:1;stroke:#ffffff;stroke-width:1.19303966;stroke-linecap:round;stroke-miterlimit:4;stroke-dasharray:none;stroke-opacity:1" />
      <path
         id="path6103"
         d="M 369.95545,359.19082 C 363.22285,371.25721 356.52125,383.50873 349.10959,395.77525 C 346.8458,393.12478 343.54723,392.17797 339.97208,393.66347 C 333.7734,396.23903 329.12958,405.11965 329.62146,413.45746 C 329.81788,416.78662 330.79977,419.51255 332.30531,421.44571 C 322.30568,435.41428 310.7275,449.27008 296.47872,462.76663 C 296.66345,465.02935 296.86962,467.14317 297.05236,469.18077 C 313.52269,452.45722 326.02655,437.70953 336.04833,424.22337 C 337.76609,424.80797 339.72535,424.70879 341.75387,423.86592 C 347.95254,421.29036 352.56713,412.46569 352.07523,404.12784 C 352.01375,403.08565 351.88163,402.10796 351.67398,401.18718 C 360.1779,387.42681 366.70065,374.67314 373.27047,361.88368 C 372.20723,360.91406 371.09971,360.00018 369.95545,359.19082 z"
         style="fill:#ffffff;fill-opacity:1;stroke:#ffffff;stroke-width:0.80000001;stroke-linecap:round;stroke-miterlimit:4;stroke-dasharray:none;stroke-opacity:1" />
      <path
         id="path6099"
         d="M 333.74158,351.47927 C 310.19475,361.25357 293.1054,394.87591 291.77515,425.50631 C 291.17379,425.4787 290.52958,425.58621 289.87614,425.85771 C 289.22271,426.12921 288.62871,426.53619 288.05932,427.05026 C 284.26282,420.90396 267.9361,433.96722 267.9361,433.96724 C 269.71119,435.42873 279.4517,440.17875 284.96651,438.05146 C 285.15623,438.67495 285.40399,439.23247 285.71509,439.7099 C 279.36606,446.64782 272.91095,464.24349 272.91095,464.24349 C 276.49462,462.95783 298.4263,449.7941 294.18769,440.47863 C 293.96949,439.99902 293.75969,439.59712 293.52782,439.22099 C 295.22678,437.16908 296.25286,434.11909 296.08073,431.2014 C 296.05099,430.69772 295.99392,430.1942 295.89724,429.74581 C 317.21384,419.58118 338.87531,387.47051 363.27146,352.33944 C 352.83371,347.48144 342.81308,347.71368 333.74158,351.47927 z"
         style="fill:#ffffff;fill-opacity:1;stroke:none;stroke-width:1.19303966;stroke-linecap:round;stroke-miterlimit:4;stroke-dasharray:none;stroke-opacity:1" />
      <path
         d="M 340.04346,352.40591 C 340.56189,352.48473 341.13607,352.45516 341.59161,352.72551 C 341.842,352.12789 342.25131,351.66944 342.78737,351.48462 C 344.55308,351.54512 344.90449,353.74318 342.89371,354.94174 C 342.68895,355.01236 342.52552,355.0662 342.34623,355.03792 C 342.4214,355.51409 342.31737,355.52708 342.37749,356.1191 C 341.74699,356.47007 341.40857,356.74208 340.72952,357.41656 C 340.77715,356.4341 340.66691,356.28785 340.74819,355.52689 C 340.5591,355.69988 340.34832,355.88395 340.12309,355.96165 C 338.95859,355.43163 338.35967,354.23374 339.20864,353.14666 C 339.40457,352.89584 339.68453,352.63332 340.04346,352.40591 z M 342.85235,356.447 C 343.98006,355.91323 344.94464,355.9887 345.44197,356.77151 C 346.11903,357.83718 345.77192,359.98082 344.72306,362.23465 C 344.84745,362.39734 344.96152,362.55946 345.07845,362.74347 C 346.52529,365.02073 346.78998,368.04196 345.67225,369.49938 C 344.55454,370.95684 342.4762,370.29199 341.02938,368.01473 C 340.93366,367.86403 340.85965,367.70838 340.7743,367.55174 C 338.98025,369.06379 337.2804,369.47697 336.55843,368.34059 C 335.56374,366.775 336.76317,362.89772 339.20558,359.7129 C 340.4268,358.12048 341.72466,356.98077 342.85235,356.447 z M 348.25797,356.52057 C 348.74063,356.31139 349.24623,356.68421 349.54141,357.86923 C 349.38133,358.81115 349.32538,359.52638 348.77061,360.24651 C 349.41826,360.0707 349.97308,360.67641 350.0591,361.68064 C 349.77103,364.21267 348.09914,365.31801 347.49418,362.87769 C 347.45185,362.38344 347.56317,361.81599 347.73111,361.37871 C 347.1268,361.87857 346.72429,362.13037 345.72878,362.73587 C 345.54614,362.4484 345.48499,362.10926 345.25541,361.88218 C 345.56775,361.21101 345.72156,360.75132 345.90019,360.12621 C 346.55956,359.92351 346.69757,359.94202 347.18567,359.85467 C 347.07204,359.62763 347.00413,359.38933 346.97648,359.06627 C 347.12789,358.13616 347.42877,357.33902 347.79165,356.88938 C 347.94285,356.70207 348.09706,356.59028 348.25797,356.52057 z M 333.91135,363.18189 C 334.40031,362.96452 334.89712,363.30277 335.1923,364.48781 C 335.21555,364.75936 335.15579,365.04389 335.11063,365.30956 C 335.567,364.98337 335.5631,365.14582 336.15365,364.78866 C 335.78799,365.86585 335.81837,366.46713 335.87688,367.26702 C 335.55424,367.35928 335.57747,367.35837 335.30015,367.41913 C 335.4001,367.63654 335.48124,367.8661 335.50684,368.16481 C 335.20969,370.66847 333.50162,371.85447 332.91016,369.37502 C 333.01907,368.60104 333.09658,367.7972 333.35833,367.04426 C 332.95789,366.87027 332.68825,366.39578 332.62735,365.68487 C 332.77878,364.75475 333.05043,364.01347 333.41329,363.56388 C 333.56451,363.37658 333.74838,363.25434 333.91135,363.18189 z M 342.14455,359.89225 C 342.04434,359.95678 341.95791,360.06573 341.8688,360.18192 C 341.51243,360.64659 341.41813,361.35879 341.66866,361.75314 C 341.91919,362.14746 342.40976,362.06817 342.76611,361.60348 C 343.12249,361.13881 343.21679,360.42661 342.96626,360.03226 C 342.77838,359.73653 342.44517,359.69864 342.14455,359.89225 z M 339.87955,363.4156 C 339.77935,363.48012 339.69038,363.54634 339.60128,363.66251 C 339.2449,364.12722 339.1506,364.83943 339.40113,365.23374 C 339.65167,365.62804 340.14474,365.59152 340.5011,365.12682 C 340.85748,364.66214 340.95176,363.94992 340.70125,363.5556 C 340.51335,363.25983 340.18016,363.22198 339.87955,363.4156 z M 344.73464,364.637 L 342.31741,367.78591 L 342.70959,368.36698 L 345.12937,365.26079 L 344.73464,364.637 z M 340.56813,368.46898 C 340.65348,368.62558 341.14286,368.65247 341.23861,368.80312 C 341.74349,369.59784 341.93583,369.90023 342.52962,370.27995 C 342.48369,370.92565 342.60466,371.03007 342.53919,371.54522 C 342.73953,371.3512 342.95496,371.22393 343.19857,371.13992 C 344.96426,371.20043 345.32072,373.48387 343.30996,374.68249 C 342.66455,374.58454 342.13657,374.57041 341.76585,373.87976 C 341.69353,374.78364 341.11605,375.69138 340.35886,375.95243 C 338.62874,375.87389 338.2626,373.65717 340.24999,372.45261 C 340.62266,372.32409 340.9643,372.346 341.23051,372.52664 C 340.97094,371.03586 340.34206,369.90075 340.56813,368.46898 z"
         style="fill:#000000;fill-opacity:1;stroke:none;stroke-width:1.19303966;stroke-linecap:round;stroke-miterlimit:4;stroke-dasharray:none;stroke-opacity:1"
         id="path6097" />
    </g>
    <text
       xml:space="preserve"
       style="font-size:12.76179218px;font-style:normal;font-variant:normal;font-weight:normal;font-stretch:normal;text-align:start;line-height:100%;writing-mode:lr-tb;text-anchor:start;fill:#ffffff;fill-opacity:1;stroke:none;stroke-width:1px;stroke-linecap:butt;stroke-linejoin:miter;stroke-opacity:1;font-family:Nimbus Mono L;-inkscape-font-specification:Nimbus Mono L"
       x="102.3828"
       y="702.87213"
       id="text6953"
       sodipodi:linespacing="100%"><tspan
         sodipodi:role="line"
         id="tspan6957"
         x="102.3828"
         y="702.87213">5e5e5e5e363a2c3c2277653c60793d663c6e7c2964242e713327716126222236645e5e5e5e</tspan></text>
    <g
       transform="matrix(0.2046092,0,0,0.2046092,13.254456,821.44017)"
       id="g2779"
       style="display:inline">
      <path
         style="fill:#000000;fill-opacity:1;fill-rule:evenodd;stroke:none;stroke-width:5;stroke-linecap:butt;stroke-linejoin:miter;stroke-miterlimit:4;stroke-dasharray:none;stroke-opacity:1"
         d="M 127.1141,465.5924 C 91.814047,465.5924 66.89506,504.2459 69.859396,529.82972 C 71.761234,546.24359 81.651632,548.75843 96.01098,575.0839 C 104.71039,591.03284 111.56039,612.77438 100.19257,619.35575 C 88.824765,625.93711 53.531251,643.88779 53.53125,643.88779 L 53.53125,731.25 L 228.8265,731.25 C 228.8265,731.25 230.62049,725.86487 229.42387,714.49706 C 243.87007,715.26906 254.19943,715.68227 269.51412,713.28904 C 290.82939,704.65951 302.41803,697.91484 316.18872,691.15976 C 319.30006,687.58786 324.5538,662.43638 323.35717,651.66689 C 322.17857,641.0595 321.01036,622.90838 315.83029,608.07206 C 315.83112,607.62561 315.81244,607.17371 315.77719,606.71802 C 317.90386,598.92728 318.64423,595.20653 320.96769,587.65525 C 323.36091,579.87727 313.19812,579.87221 315.59134,573.88916 C 317.98457,567.9061 319.77015,572.09667 321.56506,555.3441 C 323.35997,538.59153 316.6504,536.93715 312.59122,530.81206 C 313.93239,525.70068 314.54999,522.63654 307.07568,516.5878 C 303.81694,513.9506 301.55946,512.46778 297.4356,512.23126 C 293.31173,511.99474 287.68977,511.89966 279.91179,511.30135 C 279.95788,511.237 279.68945,518.04719 279.8219,518.15083 C 279.59187,518.15083 272.97826,508.24505 268.82685,511.94803 C 264.86347,515.4833 273.24628,527.8739 273.24627,527.59611 C 273.51087,527.66524 264.87102,526.81018 264.1245,530.81206 C 263.39332,534.73169 269.93358,536.10993 269.84182,536.20168 C 269.75006,535.92516 263.79217,535.24252 263.99859,539.96567 C 264.22106,545.05637 272.74333,545.38736 272.74334,545.5438 C 268.67573,555.71281 254.50626,589.03774 244.98208,611.57664 C 247.97361,618.15801 274.90373,620.56376 274.90373,620.56376 C 274.90373,620.56376 277.7599,637.70722 270.70886,644.48516 C 261.13596,645.96638 226.25358,641.8655 203.09971,630.13497 C 183.35561,625.94684 173.54242,629.40149 162.4121,627.13484 C 163.71562,615.17348 164.21749,608.58979 164.21749,608.58979 C 164.21749,608.58979 179.77569,606.19506 179.77569,584.05775 C 179.77569,561.92042 189.27078,560.03657 186.94414,548.16237 C 185.05685,538.53041 181.53399,532.45339 189.1876,524.09495 C 194.98993,515.09543 195.91779,501.48946 187.54152,491.91656 C 175.82743,478.52903 162.41416,465.5924 127.1141,465.5924 z M 283.08108,515.50608 C 282.97494,515.60488 286.88702,515.90504 291.28498,516.19638 C 291.7627,519.41501 296.839,523.95317 299.88712,526.41806 C 299.62647,527.00514 299.35852,527.56957 299.09062,528.13052 L 283.43987,527.85176 C 283.52084,527.66348 282.88447,515.7395 283.08108,515.50608 z M 276.34425,546.61907 C 277.89568,547.38545 280.81962,547.77463 283.05453,548.37477 C 280.15284,549.11714 277.60828,549.09234 277.30649,551.49475 C 276.88402,554.8578 283.91375,557.05322 290.12324,558.85588 C 288.4593,559.44397 285.41576,560.84837 285.28168,562.4898 C 284.86781,567.55673 295.35853,569.71644 304.68278,571.55997 C 305.89074,579.19986 307.54144,589.21622 308.90079,597.08044 C 285.0055,594.98587 270.36389,593.61307 255.48253,597.49196 C 261.78844,582.55106 269.46993,562.86918 276.34425,546.61907 z"
         id="path2781"
         sodipodi:nodetypes="csssccccccsccssscsscczczczcccccccsscscccccccccscscccc" />
    </g>
    <text
       xml:space="preserve"
       style="font-size:40px;font-style:normal;font-variant:normal;font-weight:normal;font-stretch:normal;text-align:center;line-height:100%;writing-mode:lr-tb;text-anchor:middle;fill:#000000;fill-opacity:1;stroke:none;stroke-width:1px;stroke-linecap:butt;stroke-linejoin:miter;stroke-opacity:1;font-family:URW Gothic L;-inkscape-font-specification:URW Gothic L"
       x="374.7666"
       y="698.82623"
       id="text4758"
       sodipodi:linespacing="100%"><tspan
         sodipodi:role="line"
         id="tspan6165"
         x="374.7666"
         y="698.82623">2010 Capture The Flag</tspan><tspan
         sodipodi:role="line"
         id="tspan6167"
         x="374.7666"
         y="738.82623">A computer security competition</tspan><tspan
         sodipodi:role="line"
         id="tspan6169"
         x="374.7666"
         y="778.82623">Presented by LANL &amp; NMT CS Dept.</tspan><tspan
         sodipodi:role="line"
         id="tspan6171"
         x="374.7666"
         y="818.82623">Fri &amp; Sat, October 29-30</tspan><tspan
         sodipodi:role="line"
         id="tspan6173"
         x="374.7666"
         y="858.82623"></tspan><tspan
         sodipodi:role="line"
         id="tspan7150"
         x="374.7666"
         y="898.82623">Register by October 12</tspan><tspan
         sodipodi:role="line"
         id="tspan6175"
         x="374.7666"
         y="938.82623">http://dirtbags.net/ctf/</tspan></text>
  </g>
</svg>
