<?xml version="1.0" encoding="UTF-8" standalone="no"?>
<!-- Created with Inkscape (http://www.inkscape.org/) -->

<svg
   xmlns:dc="http://purl.org/dc/elements/1.1/"
   xmlns:cc="http://creativecommons.org/ns#"
   xmlns:rdf="http://www.w3.org/1999/02/22-rdf-syntax-ns#"
   xmlns:svg="http://www.w3.org/2000/svg"
   xmlns="http://www.w3.org/2000/svg"
   xmlns:sodipodi="http://sodipodi.sourceforge.net/DTD/sodipodi-0.dtd"
   xmlns:inkscape="http://www.inkscape.org/namespaces/inkscape"
   width="744.09448819"
   height="1052.3622047"
   id="svg2891"
   version="1.1"
   inkscape:version="0.47 r22583"
   sodipodi:docname="butterfly.svg">
  <defs
     id="defs2893">
    <inkscape:perspective
       sodipodi:type="inkscape:persp3d"
       inkscape:vp_x="0 : 526.18109 : 1"
       inkscape:vp_y="0 : 1000 : 0"
       inkscape:vp_z="744.09448 : 526.18109 : 1"
       inkscape:persp3d-origin="372.04724 : 350.78739 : 1"
       id="perspective2899" />
    <inkscape:perspective
       id="perspective2874"
       inkscape:persp3d-origin="0.5 : 0.33333333 : 1"
       inkscape:vp_z="1 : 0.5 : 1"
       inkscape:vp_y="0 : 1000 : 0"
       inkscape:vp_x="0 : 0.5 : 1"
       sodipodi:type="inkscape:persp3d" />
    <inkscape:perspective
       id="perspective2901"
       inkscape:persp3d-origin="0.5 : 0.33333333 : 1"
       inkscape:vp_z="1 : 0.5 : 1"
       inkscape:vp_y="0 : 1000 : 0"
       inkscape:vp_x="0 : 0.5 : 1"
       sodipodi:type="inkscape:persp3d" />
    <inkscape:perspective
       id="perspective2916"
       inkscape:persp3d-origin="0.5 : 0.33333333 : 1"
       inkscape:vp_z="1 : 0.5 : 1"
       inkscape:vp_y="0 : 1000 : 0"
       inkscape:vp_x="0 : 0.5 : 1"
       sodipodi:type="inkscape:persp3d" />
    <inkscape:perspective
       id="perspective2991"
       inkscape:persp3d-origin="0.5 : 0.33333333 : 1"
       inkscape:vp_z="1 : 0.5 : 1"
       inkscape:vp_y="0 : 1000 : 0"
       inkscape:vp_x="0 : 0.5 : 1"
       sodipodi:type="inkscape:persp3d" />
    <inkscape:perspective
       id="perspective3016"
       inkscape:persp3d-origin="0.5 : 0.33333333 : 1"
       inkscape:vp_z="1 : 0.5 : 1"
       inkscape:vp_y="0 : 1000 : 0"
       inkscape:vp_x="0 : 0.5 : 1"
       sodipodi:type="inkscape:persp3d" />
    <inkscape:perspective
       id="perspective3047"
       inkscape:persp3d-origin="0.5 : 0.33333333 : 1"
       inkscape:vp_z="1 : 0.5 : 1"
       inkscape:vp_y="0 : 1000 : 0"
       inkscape:vp_x="0 : 0.5 : 1"
       sodipodi:type="inkscape:persp3d" />
    <inkscape:perspective
       id="perspective2930"
       inkscape:persp3d-origin="0.5 : 0.33333333 : 1"
       inkscape:vp_z="1 : 0.5 : 1"
       inkscape:vp_y="0 : 1000 : 0"
       inkscape:vp_x="0 : 0.5 : 1"
       sodipodi:type="inkscape:persp3d" />
    <inkscape:perspective
       id="perspective2954"
       inkscape:persp3d-origin="0.5 : 0.33333333 : 1"
       inkscape:vp_z="1 : 0.5 : 1"
       inkscape:vp_y="0 : 1000 : 0"
       inkscape:vp_x="0 : 0.5 : 1"
       sodipodi:type="inkscape:persp3d" />
  </defs>
  <sodipodi:namedview
     id="base"
     pagecolor="#ffffff"
     bordercolor="#666666"
     borderopacity="1.0"
     inkscape:pageopacity="0.0"
     inkscape:pageshadow="2"
     inkscape:zoom="0.66802096"
     inkscape:cx="372.04724"
     inkscape:cy="526.18109"
     inkscape:document-units="px"
     inkscape:current-layer="g7134"
     showgrid="false"
     inkscape:window-width="1175"
     inkscape:window-height="946"
     inkscape:window-x="655"
     inkscape:window-y="65"
     inkscape:window-maximized="0" />
  <metadata
     id="metadata2896">
    <rdf:RDF>
      <cc:Work
         rdf:about="">
        <dc:format>image/svg+xml</dc:format>
        <dc:type
           rdf:resource="http://purl.org/dc/dcmitype/StillImage" />
        <dc:title></dc:title>
      </cc:Work>
    </rdf:RDF>
  </metadata>
  <g
     inkscape:label="Layer 1"
     inkscape:groupmode="layer"
     id="layer1">
    <g
       transform="matrix(-2.3117506,0,0,2.3291906,646.56143,-679.66512)"
       id="g7134">
      <path
         sodipodi:nodetypes="cccsssccssc"
         id="path4877"
         d="m 147.37512,509.22295 c 0,3.4517 0.37818,26.7723 1.09535,30.00926 1.76377,8.88016 7.47321,13.99286 16.04706,15.93879 3.98502,0.74326 8.51783,-15.55472 13.43722,-15.64555 4.91939,-0.0908 10.22535,16.0255 15.75668,16.0255 5.55727,0 10.88704,-16.12546 15.82585,-16.0506 4.9388,0.0749 9.48664,16.35005 13.48001,15.57939 9.04184,-1.50027 13.76948,-7.68418 15.99884,-16.13965 0.67582,-3.14707 1.03162,-26.36915 1.03162,-29.71714 0,-25.57306 -20.75867,-46.328 -46.33632,-46.328 -25.57764,0 -46.33631,20.75494 -46.33631,46.328 z"
         style="fill:#f1e06b;fill-opacity:1;stroke:none" />
      <path
         sodipodi:nodetypes="ccccc"
         id="path4879"
         d="m 240.2371,450.99527 -7.07106,-9.19239 0,37.47666 7.07106,0 0,-28.28427 z"
         style="fill:#ececec;fill-opacity:1;stroke:none" />
      <path
         sodipodi:nodetypes="ccccc"
         id="path4881"
         d="m 241.81004,476.87373 -9.25,0 0,57.75 9.25,-3.50001 0,-54.24999 z"
         style="fill:#00003f;fill-opacity:1;stroke:none" />
      <path
         sodipodi:nodetypes="csccsssccsccsscssscc"
         id="path4883"
         d="m 193.70441,462.8947 c 25.57765,0 46.34376,20.7661 46.34375,46.34375 0,3.34859 -0.35543,26.57111 -1.03125,29.71875 -2.22935,8.457 -6.95816,14.62446 -16,16.125 -3.99338,0.77079 -8.56119,-15.48763 -13.5,-15.5625 -4.93881,-0.0749 -10.25524,16.03125 -15.8125,16.03125 -5.53133,0 -10.83062,-16.12209 -15.75,-16.03125 -4.91938,0.0909 -9.45248,16.39964 -13.4375,15.65625 -8.57385,-1.94628 -14.29873,-7.05576 -16.0625,-15.9375 -0.71716,-3.23754 -1.09374,-26.54769 -1.09375,-30 0,-25.57765 20.7661,-46.34374 46.34375,-46.34375 z m -26.5,24.0625 c -8.39444,-10e-6 -18.05691,4.89815 -18.17896,11.91762 -0.1329,7.51837 9.53454,14.26988 17.92896,14.26988 5.93958,1e-5 11.30965,-3.1877 13.8125,-8.15625 2.2337,5.62139 7.46096,9.34375 13.875,9.34375 8.39442,-10e-6 30.84979,-8.1589 30.5766,-14.53977 -0.18827,-4.3975 -21.93218,-11.61648 -30.3266,-11.61648 -5.94605,0 -12.06269,3.92892 -14.5625,8.90625 -2.23266,-5.62356 -6.7094,-10.125 -13.125,-10.125 z"
         style="fill:#2b1100;fill-opacity:1;stroke:none" />
      <path
         id="path4885"
         d="m 249.56004,496.37374 c 0,0 -10.25,-16 -11.25,-9.5 -1,6.5 8,7.5 11.25,9.5 z"
         style="fill:#ff0000;fill-rule:evenodd;stroke:none" />
      <path
         style="fill:#ff0000;fill-rule:evenodd;stroke:none"
         d="m 253.72326,488.38023 c 0,0 -18.96174,-1.23088 -13.75664,-5.25046 5.2051,-4.01957 10.43404,3.37354 13.75664,5.25046 z"
         id="path4887" />
      <path
         transform="matrix(-0.7128664,0,0,0.7128664,336.28471,202.69081)"
         d="m 255,417.86218 a 15.5,15.5 0 1 1 -31,0 15.5,15.5 0 1 1 31,0 z"
         sodipodi:ry="15.5"
         sodipodi:rx="15.5"
         sodipodi:cy="417.86218"
         sodipodi:cx="239.5"
         id="path4889"
         style="fill:#ffffff;fill-opacity:1;stroke:none"
         sodipodi:type="arc" />
      <path
         transform="matrix(-0.4369181,0,0,0.4369181,266.63077,315.27735)"
         d="m 255,417.86218 a 15.5,15.5 0 1 1 -31,0 15.5,15.5 0 1 1 31,0 z"
         sodipodi:ry="15.5"
         sodipodi:rx="15.5"
         sodipodi:cy="417.86218"
         sodipodi:cx="239.5"
         id="path4891"
         style="fill:#000000;fill-opacity:1;stroke:none"
         sodipodi:type="arc" />
      <path
         sodipodi:type="arc"
         style="fill:#ffffff;fill-opacity:1;stroke:none"
         id="path4893"
         sodipodi:cx="239.5"
         sodipodi:cy="417.86218"
         sodipodi:rx="15.5"
         sodipodi:ry="15.5"
         d="m 255,417.86218 a 15.5,15.5 0 1 1 -31,0 15.5,15.5 0 1 1 31,0 z"
         transform="matrix(-0.7128664,0,0,0.7128664,364.79936,202.69081)" />
      <path
         sodipodi:type="arc"
         style="fill:#000000;fill-opacity:1;stroke:none"
         id="path4895"
         sodipodi:cx="239.5"
         sodipodi:cy="417.86218"
         sodipodi:rx="15.5"
         sodipodi:ry="15.5"
         d="m 255,417.86218 a 15.5,15.5 0 1 1 -31,0 15.5,15.5 0 1 1 31,0 z"
         transform="matrix(-0.4369181,0,0,0.4369181,295.14542,316.13602)" />
      <path
         transform="matrix(-1.3125,0,0,1.3125,754.31004,-50.720067)"
         d="M 462.25,443.5 459.30604,440.10034 452,441.75 455.39966,438.80604 453.75,431.5 456.69396,434.89966 464,433.25 460.60034,436.19396 462.25,443.5 z"
         inkscape:randomized="0"
         inkscape:rounded="0"
         inkscape:flatsided="false"
         sodipodi:arg2="1.1053447"
         sodipodi:arg1="0.95449939"
         sodipodi:r2="2.9098985"
         sodipodi:r1="7.3527207"
         sodipodi:cy="437.5"
         sodipodi:cx="458"
         sodipodi:sides="4"
         id="path4897"
         style="fill:#999999;fill-opacity:1;stroke:none"
         sodipodi:type="star" />
      <path
         sodipodi:type="star"
         style="fill:#999999;fill-opacity:1;stroke:none"
         id="path4899"
         sodipodi:sides="4"
         sodipodi:cx="458"
         sodipodi:cy="437.5"
         sodipodi:r1="7.3527207"
         sodipodi:r2="2.9098985"
         sodipodi:arg1="0.95449939"
         sodipodi:arg2="1.1053447"
         inkscape:flatsided="false"
         inkscape:rounded="0"
         inkscape:randomized="0"
         d="M 462.25,443.5 459.30604,440.10034 452,441.75 455.39966,438.80604 453.75,431.5 456.69396,434.89966 464,433.25 460.60034,436.19396 462.25,443.5 z"
         transform="matrix(-1.3125,0,0,1.3125,768.56004,-46.970067)" />
      <path
         sodipodi:nodetypes="ccccc"
         id="path4901"
         d="m 232.81004,479.87373 -78,0 c -3.17046,0.93258 -2.20659,2.69202 -2.25,4.25001 l 83.25,0 c 0.40565,-2.11949 -0.74064,-3.46302 -3,-4.25001 z"
         style="fill:#ff0000;fill-opacity:1;stroke:none" />
      <path
         transform="matrix(-1,0,0,1,630.56004,80.373683)"
         d="m 396.75,404.125 a 3.625,3.625 0 1 1 -7.25,0 3.625,3.625 0 1 1 7.25,0 z"
         sodipodi:ry="3.625"
         sodipodi:rx="3.625"
         sodipodi:cy="404.125"
         sodipodi:cx="393.125"
         id="path4903"
         style="fill:#ff0000;fill-opacity:1;stroke:none"
         sodipodi:type="arc" />
      <path
         style="fill:none;stroke:#000000;stroke-width:0.99118525;stroke-linecap:butt;stroke-linejoin:bevel;stroke-miterlimit:4;stroke-opacity:1;stroke-dasharray:none"
         d="m 114.86985,429.4567 c 0.19917,-0.27292 1.90105,-1.56721 1.90845,-1.73813 0.009,-0.21402 0.77586,-0.7191 0.78512,-0.93314 0.001,-0.0292 0.55015,-0.71911 0.66586,-0.8245 0.1157,-0.1054 0.97259,-1.29389 0.97386,-1.3231 0.009,-0.21402 0.47276,-0.33401 0.48203,-0.54804 0.002,-0.0365 1.2063,-1.31672 1.38151,-1.47631 0.95422,-0.86906 1.51553,-1.92545 2.46975,-2.79452 0.15904,-0.14484 0.46784,-0.22052 0.47711,-0.43453 0.009,-0.21402 0.53239,-0.38832 0.54166,-0.60236 0.009,-0.21403 0.38754,-0.57102 0.54657,-0.71587 0.22495,-0.20488 1.33483,-1.72136 1.33661,-1.76251 0.009,-0.21402 0.64676,-0.38345 0.65603,-0.59748 0.0122,-0.28117 1.27955,-1.76754 1.29171,-2.04872 0.009,-0.21403 0.5324,-0.38832 0.54166,-0.60236 0.0196,-0.45403 0.43221,-0.72074 0.45186,-1.17478 0.009,-0.21402 0.18931,-0.40294 0.19857,-0.61699 0.0185,-0.42806 0.29931,-0.29754 0.31785,-0.72561 0.009,-0.21403 -0.0395,-0.41269 -0.0302,-0.62674 0.0185,-0.42807 0.52804,-0.28779 0.54657,-0.71587 0.009,-0.21402 0.0602,-0.0673 0.0695,-0.28133 0.0185,-0.42806 0.42841,-0.6332 0.44694,-1.06126 0.009,-0.21403 0.12966,-0.34864 0.13893,-0.56267 0.0185,-0.42808 0.35896,-0.35187 0.37748,-0.77994 0.009,-0.21403 0.24894,-0.45727 0.2582,-0.67131 0.0185,-0.42806 0.23968,-0.24322 0.2582,-0.6713 0.009,-0.21402 0.12967,-0.34862 0.13893,-0.56267 0.0185,-0.42806 0.35896,-0.35186 0.37748,-0.77993 0.009,-0.21402 -0.44707,-0.2595 -0.43781,-0.47354 0.009,-0.21402 0.46784,-0.22052 0.47711,-0.43453 0.009,-0.21403 -0.44707,-0.2595 -0.43781,-0.47354 0.009,-0.21402 0.46784,-0.22053 0.47711,-0.43453 0.009,-0.21402 -0.44707,-0.2595 -0.43782,-0.47354 0.009,-0.21402 0.46785,-0.22053 0.47711,-0.43453 0.009,-0.21402 -0.44706,-0.2595 -0.43781,-0.47353 0.009,-0.21403 0.46785,-0.22053 0.47712,-0.43454 0.009,-0.21402 -0.44708,-0.2595 -0.43781,-0.47354 0.009,-0.21403 0.46784,-0.22052 0.47711,-0.43453 0.009,-0.21402 -0.44708,-0.25951 -0.43781,-0.47354 0.009,-0.21403 0.31807,-0.28969 0.47711,-0.43453 -0.14595,-0.15785 -0.44708,-0.25951 -0.43782,-0.47354 0.009,-0.21403 0.46784,-0.22052 0.47711,-0.43454 0.009,-0.21402 -0.44707,-0.2595 -0.43781,-0.47353 0.009,-0.21403 0.46784,-0.22052 0.47711,-0.43454 0.0196,-0.45403 -0.69671,-1.11002 -0.67706,-1.56405 0.009,-0.21402 -0.16853,-0.0771 -0.15925,-0.29109 0.009,-0.21853 -0.57706,-1.22717 -0.56759,-1.44568 0.009,-0.21402 -0.7158,-0.66897 -0.70653,-0.883 0.0196,-0.45405 -0.36836,-0.75488 -0.34874,-1.2089 0.009,-0.21402 -0.49689,-0.4322 -0.48763,-0.64624 0.002,-0.0411 -0.74917,-1.52324 -0.95561,-1.74652 -0.14594,-0.15783 -0.54669,-0.60491 -0.53743,-0.81894 0.009,-0.21402 -0.66598,-0.49626 -0.65672,-0.71029 0.009,-0.21403 -0.29188,-0.3157 -0.43782,-0.47355 -0.14594,-0.15783 -0.29187,-0.31569 -0.4378,-0.47354 -1.45938,-1.57845 -2.91874,-3.15691 -4.37812,-4.73537 -0.30232,-0.32699 -1.54561,-1.81624 -1.75124,-1.89414 -0.28518,-0.10806 -0.77918,-0.44907 -1.06437,-0.55712 -0.4033,-0.15281 -0.29487,-0.41058 -0.72618,-0.42897 -0.21565,-0.009 -0.46563,-0.13356 -0.68128,-0.14277 -0.43129,-0.0184 -0.24015,-0.35138 -0.67144,-0.36977 -0.21566,-0.009 -0.26146,0.44373 -0.47711,0.43453 -0.21566,-0.009 -0.22215,-0.46435 -0.43781,-0.47353 -0.21566,-0.009 -0.26147,0.44372 -0.47711,0.43452 -0.21566,-0.009 -0.22215,-0.46434 -0.43782,-0.47353 -0.21565,-0.009 -0.26146,0.44373 -0.4771,0.43453 -0.21566,-0.009 -0.22215,-0.46434 -0.43782,-0.47353 -0.21565,-0.009 -0.26146,0.44372 -0.47711,0.43452 -0.21566,-0.009 -0.22214,-0.46434 -0.43781,-0.47353 -0.21566,-0.009 -0.26146,0.44373 -0.47711,0.43454 -0.21566,-0.009 -0.22214,-0.46435 -0.43781,-0.47354 -0.30935,-0.0132 -0.67994,0.36902 -0.98929,0.35585 -0.21565,-0.009 -0.18715,0.0487 -0.40274,0.0397 -0.21565,-0.009 -0.3611,0.0983 -0.57675,0.0891 -0.21565,-0.009 -0.12257,-0.11893 -0.33818,-0.12813 -0.21565,-0.009 -0.42073,0.15266 -0.63638,0.14346 -0.21564,-0.009 -0.18715,0.0487 -0.40273,0.0397 -0.43131,-0.0184 -0.37908,0.2113 -0.81039,0.19289 -0.21565,-0.009 -0.24181,-0.0103 -0.45746,-0.0195 -0.21565,-0.009 -0.26146,0.44374 -0.47711,0.43454 -0.21565,-0.009 -0.22214,-0.46435 -0.43781,-0.47354 -0.21565,-0.009 -0.26145,0.44372 -0.47711,0.43454 -0.21565,-0.009 -0.22215,-0.46436 -0.43781,-0.47353 -0.43129,-0.0184 -0.38891,0.43828 -0.8202,0.4199 -0.21565,-0.009 -0.35618,-0.0152 -0.57183,-0.0244 -0.45746,-0.0195 -0.54166,0.60236 -0.99912,0.58286 -0.21565,-0.009 -0.65438,0.25635 -0.87001,0.24724 -0.43129,-0.0184 -0.49346,0.20637 -0.92475,0.18796 -0.21566,-0.009 -0.25164,0.21671 -0.4673,0.20747 -0.45747,-0.0195 -0.93949,0.52854 -1.39694,0.50906 -0.21566,-0.009 -0.25655,0.33022 -0.47221,0.32102 -0.220158,-0.009 -1.644058,0.72594 -1.864228,0.71656 -0.21565,-0.009 -0.26636,0.55723 -0.48202,0.54804 -0.45746,-0.0195 -1.23275,0.68661 -1.69022,0.66711 -0.21565,-0.009 0.0368,0.17213 -0.17891,0.16295 -0.45746,-0.0195 -0.99421,0.46935 -1.45167,0.44984 -0.21566,-0.009 -0.20183,0.38942 -0.41747,0.38022 -0.45746,-0.0195 -1.28258,0.51391 -1.74005,0.49439 -0.21565,-0.009 0.0865,0.34485 -0.1291,0.33565 -0.18706,-0.008 -1.42409,0.81572 -1.70006,0.89413 -0.29334,0.0838 -0.35275,0.28707 -0.64619,0.37046 -0.48076,0.13663 -2.02019,1.16478 -2.34134,1.15109 -0.21566,-0.009 -0.26638,0.55723 -0.48203,0.54804 -0.21565,-0.009 -0.31807,0.28969 -0.4771,0.43453 -0.79519,0.72423 -1.50617,0.82659 -2.30135,1.5508 -0.15904,0.14485 -0.42565,0.26616 -0.64128,0.25699 -0.21566,-0.009 -0.14219,0.3351 -0.35784,0.3259 -0.21565,-0.009 -0.31807,0.28969 -0.47711,0.43454 -0.15903,0.14484 -0.0648,-0.26809 -0.22381,-0.12326 -0.95422,0.86906 -1.90844,1.73813 -2.862662,2.60719 -0.159036,0.14485 -0.54001,0.26128 -0.755659,0.25207 -0.215658,-0.009 -0.19691,0.27591 -0.412559,0.26671 -0.215659,-0.009 -0.318073,0.28969 -0.477109,0.43454 -0.159036,0.14484 -0.318072,0.28969 -0.477109,0.43453 l 37.449746,34.80226 z"
         id="path5314"
         sodipodi:nodetypes="csssssssssssssssssssssssssssssssssssssscssssssssssssssssssssssssssssssssssssssssssssssssssssssssssssssssssssssssscc" />
      <path
         style="fill:none;stroke:#000000;stroke-width:0.99118525;stroke-linecap:butt;stroke-linejoin:bevel;stroke-miterlimit:4;stroke-opacity:1;stroke-dasharray:none"
         d="m 114.43204,428.98317 -1.02115,-50.53444"
         id="path5316" />
      <path
         style="fill:none;stroke:#000000;stroke-width:0.99118525;stroke-linecap:butt;stroke-linejoin:bevel;stroke-miterlimit:4;stroke-opacity:1;stroke-dasharray:none"
         d="m 105.2836,420.63288 -1.53834,-41.23159"
         id="path5318"
         sodipodi:nodetypes="cc" />
      <path
         style="fill:none;stroke:#000000;stroke-width:0.99118525;stroke-linecap:butt;stroke-linejoin:bevel;stroke-miterlimit:4;stroke-opacity:1;stroke-dasharray:none"
         d="m 96.403182,411.38427 -0.68104,-27.94686"
         id="path5322"
         sodipodi:nodetypes="cc" />
      <path
         style="fill:none;stroke:#000000;stroke-width:0.99118525;stroke-linecap:butt;stroke-linejoin:bevel;stroke-miterlimit:4;stroke-opacity:1;stroke-dasharray:none"
         d="m 88.294542,404.15863 -0.72956,-16.23595"
         id="path5324"
         sodipodi:nodetypes="cc" />
      <path
         style="fill:none;stroke:#000000;stroke-width:0.99118525;stroke-linecap:butt;stroke-linejoin:bevel;stroke-miterlimit:4;stroke-opacity:1;stroke-dasharray:none"
         d="m 105.85051,420.77075 17.4621,-1.07504 0.40373,-35.80405 -36.434808,3.96208"
         id="path5326"
         sodipodi:nodetypes="cccc" />
      <path
         style="fill:none;stroke:#000000;stroke-width:0.99118525;stroke-linecap:butt;stroke-linejoin:bevel;stroke-miterlimit:4;stroke-opacity:1;stroke-dasharray:none"
         d="m 132.67459,399.28438 -44.449518,5.15559"
         id="path5328"
         sodipodi:nodetypes="cc" />
      <path
         style="fill:none;stroke:#000000;stroke-width:0.99118525;stroke-linecap:butt;stroke-linejoin:bevel;stroke-miterlimit:4;stroke-opacity:1;stroke-dasharray:none"
         d="m 130.41246,409.19514 -34.426748,2.56935"
         id="path5330"
         sodipodi:nodetypes="cc" />
      <path
         style="fill:none;stroke:#000000;stroke-width:0.99118525;stroke-linecap:butt;stroke-linejoin:bevel;stroke-miterlimit:4;stroke-opacity:1;stroke-dasharray:none"
         d="m 130.02531,391.66603 -50.282138,4.90694"
         id="path5332"
         sodipodi:nodetypes="cc" />
      <path
         style="fill:none;stroke:#000000;stroke-width:0.99118525;stroke-linecap:butt;stroke-linejoin:miter;stroke-miterlimit:4;stroke-opacity:1;stroke-dasharray:none"
         d="m 114.55527,429.1344 46.41135,48.21494"
         id="path5349" />
      <text
         xml:space="preserve"
         style="font-size:10.342803px;font-style:normal;font-variant:normal;font-weight:normal;font-stretch:normal;text-align:center;line-height:100%;writing-mode:lr-tb;text-anchor:middle;fill:#000000;fill-opacity:1;stroke:none;font-family:URW Gothic L;-inkscape-font-specification:URW Gothic L Book"
         x="-115.77256"
         y="616.8515"
         id="text4758"
         sodipodi:linespacing="100%"
         transform="scale(-1.0037649,0.99624921)"><tspan
           sodipodi:role="line"
           id="tspan3155"
           x="-115.77256"
           y="616.8515">A Computer Security Competition</tspan><tspan
           sodipodi:role="line"
           id="tspan3159"
           x="-115.77256"
           y="627.19427">Presented by Los Alamos National Laboratory</tspan><tspan
           sodipodi:role="line"
           x="-115.77256"
           y="637.53711"
           id="tspan2931">and New Mexico Tech</tspan><tspan
           sodipodi:role="line"
           id="tspan3161"
           x="-114.3383"
           y="647.87988"> </tspan><tspan
           sodipodi:role="line"
           id="tspan3163"
           x="-115.77256"
           y="658.22272">Sat &amp; Sun, Nov 5 – 6, 10 a.m. – 6 p.m.</tspan><tspan
           sodipodi:role="line"
           id="tspan3165"
           x="-115.77256"
           y="668.56549">Fidel Ballroom 3,</tspan><tspan
           sodipodi:role="line"
           id="tspan3167"
           x="-115.77256"
           y="678.90833">New Mexico Tech</tspan><tspan
           sodipodi:role="line"
           id="tspan3169"
           x="-114.3383"
           y="689.2511"> </tspan><tspan
           sodipodi:role="line"
           id="tspan3171"
           x="-115.77256"
           y="699.59393">Register by November 15</tspan><tspan
           sodipodi:role="line"
           id="tspan3173"
           x="-115.77256"
           y="709.93671">http://dirtbags.net/ctf/</tspan><tspan
           sodipodi:role="line"
           id="tspan3175"
           x="-115.77256"
           y="720.27954" /></text>
      <g
         transform="matrix(-0.08850834,0,0,0.08784562,276.59839,673.37488)"
         id="g2779"
         style="display:inline">
        <path
           style="fill:#000000;fill-opacity:1;fill-rule:evenodd;stroke:none"
           d="m 127.1141,465.5924 c -35.300053,0 -60.21904,38.6535 -57.254704,64.23732 1.901838,16.41387 11.792236,18.92871 26.151584,45.25418 8.69941,15.94894 15.54941,37.69048 4.18159,44.27185 -11.367805,6.58136 -46.661319,24.53204 -46.66132,24.53204 l 0,87.36221 175.29525,0 c 0,0 1.79399,-5.38513 0.59737,-16.75294 14.4462,0.772 24.77556,1.18521 40.09025,-1.20802 21.31527,-8.62953 32.90391,-15.3742 46.6746,-22.12928 3.11134,-3.5719 8.36508,-28.72338 7.16845,-39.49287 -1.1786,-10.60739 -2.34681,-28.75851 -7.52688,-43.59483 8.3e-4,-0.44645 -0.0179,-0.89835 -0.0531,-1.35404 2.12667,-7.79074 2.86704,-11.51149 5.1905,-19.06277 2.39322,-7.77798 -7.76957,-7.78304 -5.37635,-13.76609 2.39323,-5.98306 4.17881,-1.79249 5.97372,-18.54506 1.79491,-16.75257 -4.91466,-18.40695 -8.97384,-24.53204 1.34117,-5.11138 1.95877,-8.17552 -5.51554,-14.22426 -3.25874,-2.6372 -5.51622,-4.12002 -9.64008,-4.35654 -4.12387,-0.23652 -9.74583,-0.3316 -17.52381,-0.92991 0.0461,-0.0643 -0.22234,6.74584 -0.0899,6.84948 -0.23003,0 -6.84364,-9.90578 -10.99505,-6.2028 -3.96338,3.53527 4.41943,15.92587 4.41942,15.64808 0.2646,0.0691 -8.37525,-0.78593 -9.12177,3.21595 -0.73118,3.91963 5.80908,5.29787 5.71732,5.38962 -0.0918,-0.27652 -6.04965,-0.95916 -5.84323,3.76399 0.22247,5.0907 8.74474,5.42169 8.74475,5.57813 -4.06761,10.16901 -18.23708,43.49394 -27.76126,66.03284 2.99153,6.58137 29.92165,8.98712 29.92165,8.98712 0,0 2.85617,17.14346 -4.19487,23.9214 -9.5729,1.48122 -44.45528,-2.61966 -67.60915,-14.35019 -19.7441,-4.18813 -29.55729,-0.73348 -40.68761,-3.00013 1.30352,-11.96136 1.80539,-18.54505 1.80539,-18.54505 0,0 15.5582,-2.39473 15.5582,-24.53204 0,-22.13733 9.49509,-24.02118 7.16845,-35.89538 -1.88729,-9.63196 -5.41015,-15.70898 2.24346,-24.06742 5.80233,-8.99952 6.73019,-22.60549 -1.64608,-32.17839 C 175.82743,478.52903 162.41416,465.5924 127.1141,465.5924 z m 155.96698,49.91368 c -0.10614,0.0988 3.80594,0.39896 8.2039,0.6903 0.47772,3.21863 5.55402,7.75679 8.60214,10.22168 -0.26065,0.58708 -0.5286,1.15151 -0.7965,1.71246 l -15.65075,-0.27876 c 0.081,-0.18828 -0.5554,-12.11226 -0.35879,-12.34568 z m -6.73683,31.11299 c 1.55143,0.76638 4.47537,1.15556 6.71028,1.7557 -2.90169,0.74237 -5.44625,0.71757 -5.74804,3.11998 -0.42247,3.36305 6.60726,5.55847 12.81675,7.36113 -1.66394,0.58809 -4.70748,1.99249 -4.84156,3.63392 -0.41387,5.06693 10.07685,7.22664 19.4011,9.07017 1.20796,7.63989 2.85866,17.65625 4.21801,25.52047 -23.89529,-2.09457 -38.5369,-3.46737 -53.41826,0.41152 6.30591,-14.9409 13.9874,-34.62278 20.86172,-50.87289 z"
           id="path2781"
           sodipodi:nodetypes="csssccccccsccssscsscczczczcccccccsscscccccccccscscccc" />
      </g>
    </g>
    <text
       xml:space="preserve"
       style="font-size:40px;font-style:normal;font-variant:normal;font-weight:normal;font-stretch:normal;text-align:start;line-height:100%;writing-mode:lr-tb;text-anchor:start;fill:#000000;fill-opacity:1;stroke:none;font-family:URW Gothic L;-inkscape-font-specification:URW Gothic L"
       x="372.60278"
       y="63.640118"
       id="text2833"
       sodipodi:linespacing="100%"><tspan
         sodipodi:role="line"
         x="378.14966"
         y="63.640118"
         id="tspan2927"
         style="text-align:center;text-anchor:middle">The NM Collegiate Security Series </tspan><tspan
         sodipodi:role="line"
         x="372.60278"
         y="103.64011"
         style="text-align:center;text-anchor:middle"
         id="tspan2868">NMT CTF Invitational 2011</tspan></text>
    <path
       sodipodi:nodetypes="ccccc"
       id="path3215"
       d="m 530.50402,289.98889 c -10.54427,-10.59766 -21.34583,-0.2468 -30.10109,-9.3195 -0.0794,0.0316 -6.02581,14.27699 -6.00743,14.11218 9.01718,8.53188 19.27562,-0.82697 30.281,9.24788 0.0447,0.0196 5.73842,-13.9229 5.82752,-14.04056 z"
       style="fill:#c87137;fill-rule:evenodd;stroke:none;display:inline" />
    <path
       sodipodi:nodetypes="cc"
       id="path3217"
       d="m 500.23805,280.91088 c -22.4958,50.04427 -22.65848,50.08957 -22.65848,50.08957"
       style="fill:none;stroke:#000000;stroke-width:1.08948898;stroke-linecap:round;stroke-linejoin:miter;stroke-miterlimit:4;stroke-opacity:1;stroke-dasharray:none;display:inline" />
    <path
       sodipodi:nodetypes="ccccc"
       id="path3215-0"
       d="m 446.30446,289.98888 c 10.54427,-10.59766 21.34583,-0.2468 30.10109,-9.3195 0.0794,0.0316 6.02581,14.27699 6.00743,14.11218 -9.01718,8.53188 -19.27562,-0.82697 -30.281,9.24788 -0.0447,0.0196 -5.73842,-13.9229 -5.82752,-14.04056 z"
       style="fill:#c87137;fill-rule:evenodd;stroke:none;display:inline" />
    <path
       sodipodi:nodetypes="cc"
       id="path3217-6"
       d="m 476.57043,280.91087 c 22.4958,50.04427 22.65848,50.08957 22.65848,50.08957"
       style="fill:none;stroke:#000000;stroke-width:1.08948898;stroke-linecap:round;stroke-linejoin:miter;stroke-miterlimit:4;stroke-opacity:1;stroke-dasharray:none;display:inline" />
    <path
       sodipodi:nodetypes="ccccc"
       id="path3215-01"
       d="m 663.33777,216.6379 c -10.54427,-10.59766 -21.34583,-0.2468 -30.10109,-9.3195 -0.0794,0.0316 -6.02581,14.27699 -6.00743,14.11218 9.01718,8.53188 19.27562,-0.82697 30.281,9.24788 0.0447,0.0196 5.73842,-13.9229 5.82752,-14.04056 z"
       style="fill:#c87137;fill-rule:evenodd;stroke:none;display:inline" />
    <path
       sodipodi:nodetypes="cc"
       id="path3217-5"
       d="m 633.0718,207.55989 c -22.4958,50.04427 -22.65848,50.08957 -22.65848,50.08957"
       style="fill:none;stroke:#000000;stroke-width:1.08948898;stroke-linecap:round;stroke-linejoin:miter;stroke-miterlimit:4;stroke-opacity:1;stroke-dasharray:none;display:inline" />
    <path
       sodipodi:nodetypes="ccccc"
       id="path3215-0-8"
       d="m 579.13821,216.63789 c 10.54427,-10.59766 21.34583,-0.2468 30.10109,-9.3195 0.0794,0.0316 6.02581,14.27699 6.00743,14.11218 -9.01718,8.53188 -19.27562,-0.82697 -30.281,9.24788 -0.0447,0.0196 -5.73842,-13.9229 -5.82752,-14.04056 z"
       style="fill:#c87137;fill-rule:evenodd;stroke:none;display:inline" />
    <path
       sodipodi:nodetypes="cc"
       id="path3217-6-0"
       d="m 609.40418,207.55988 c 22.4958,50.04427 22.65848,50.08957 22.65848,50.08957"
       style="fill:none;stroke:#000000;stroke-width:1.08948898;stroke-linecap:round;stroke-linejoin:miter;stroke-miterlimit:4;stroke-opacity:1;stroke-dasharray:none;display:inline" />
    <path
       sodipodi:nodetypes="ccccc"
       id="path3215-01-0"
       d="m 667.82864,333.40071 c -10.54427,-10.59766 -21.34583,-0.2468 -30.10109,-9.3195 -0.0794,0.0316 -6.02581,14.27699 -6.00743,14.11218 9.01718,8.53188 19.27562,-0.82697 30.281,9.24788 0.0447,0.0196 5.73842,-13.9229 5.82752,-14.04056 z"
       style="fill:#c87137;fill-rule:evenodd;stroke:none;display:inline" />
    <path
       sodipodi:nodetypes="cc"
       id="path3217-5-0"
       d="m 637.56267,324.3227 c -22.4958,50.04427 -22.65848,50.08957 -22.65848,50.08957"
       style="fill:none;stroke:#000000;stroke-width:1.08948898;stroke-linecap:round;stroke-linejoin:miter;stroke-miterlimit:4;stroke-opacity:1;stroke-dasharray:none;display:inline" />
    <path
       sodipodi:nodetypes="ccccc"
       id="path3215-0-8-4"
       d="m 583.62908,333.4007 c 10.54427,-10.59766 21.34583,-0.2468 30.10109,-9.3195 0.0794,0.0316 6.02581,14.27699 6.00743,14.11218 -9.01718,8.53188 -19.27562,-0.82697 -30.281,9.24788 -0.0447,0.0196 -5.73842,-13.9229 -5.82752,-14.04056 z"
       style="fill:#c87137;fill-rule:evenodd;stroke:none;display:inline" />
    <path
       sodipodi:nodetypes="cc"
       id="path3217-6-0-7"
       d="m 613.89505,324.32269 c 22.4958,50.04427 22.65848,50.08957 22.65848,50.08957"
       style="fill:none;stroke:#000000;stroke-width:1.08948898;stroke-linecap:round;stroke-linejoin:miter;stroke-miterlimit:4;stroke-opacity:1;stroke-dasharray:none;display:inline" />
  </g>
</svg>
