<?xml version="1.0" encoding="UTF-8" standalone="no"?>
<!-- Created with Inkscape (http://www.inkscape.org/) -->

<svg
   xmlns:dc="http://purl.org/dc/elements/1.1/"
   xmlns:cc="http://creativecommons.org/ns#"
   xmlns:rdf="http://www.w3.org/1999/02/22-rdf-syntax-ns#"
   xmlns:svg="http://www.w3.org/2000/svg"
   xmlns="http://www.w3.org/2000/svg"
   xmlns:sodipodi="http://sodipodi.sourceforge.net/DTD/sodipodi-0.dtd"
   xmlns:inkscape="http://www.inkscape.org/namespaces/inkscape"
   width="765"
   height="990"
   id="svg6189"
   sodipodi:version="0.32"
   inkscape:version="0.47 r22583"
   sodipodi:docname="chasevendetta.svg"
   inkscape:output_extension="org.inkscape.output.svg.inkscape"
   version="1.0">
  <defs
     id="defs6191">
    <inkscape:perspective
       sodipodi:type="inkscape:persp3d"
       inkscape:vp_x="0 : 526.18109 : 1"
       inkscape:vp_y="0 : 1000 : 0"
       inkscape:vp_z="744.09448 : 526.18109 : 1"
       inkscape:persp3d-origin="372.04724 : 350.78739 : 1"
       id="perspective6197" />
    <inkscape:perspective
       id="perspective3762"
       inkscape:persp3d-origin="0.5 : 0.33333333 : 1"
       inkscape:vp_z="1 : 0.5 : 1"
       inkscape:vp_y="0 : 1000 : 0"
       inkscape:vp_x="0 : 0.5 : 1"
       sodipodi:type="inkscape:persp3d" />
    <inkscape:perspective
       id="perspective3776"
       inkscape:persp3d-origin="0.5 : 0.33333333 : 1"
       inkscape:vp_z="1 : 0.5 : 1"
       inkscape:vp_y="0 : 1000 : 0"
       inkscape:vp_x="0 : 0.5 : 1"
       sodipodi:type="inkscape:persp3d" />
  </defs>
  <sodipodi:namedview
     id="base"
     pagecolor="#ffffff"
     bordercolor="#666666"
     borderopacity="1.0"
     gridtolerance="10000"
     guidetolerance="10"
     objecttolerance="10"
     inkscape:pageopacity="0.0"
     inkscape:pageshadow="2"
     inkscape:zoom="1.0399469"
     inkscape:cx="361.28133"
     inkscape:cy="518.2734"
     inkscape:document-units="px"
     inkscape:current-layer="layer1"
     showgrid="false"
     inkscape:window-width="1104"
     inkscape:window-height="971"
     inkscape:window-x="478"
     inkscape:window-y="25"
     inkscape:window-maximized="0"
     inkscape:snap-nodes="true" />
  <metadata
     id="metadata6194">
    <rdf:RDF>
      <cc:Work
         rdf:about="">
        <dc:format>image/svg+xml</dc:format>
        <dc:type
           rdf:resource="http://purl.org/dc/dcmitype/StillImage" />
        <dc:title></dc:title>
      </cc:Work>
    </rdf:RDF>
  </metadata>
  <g
     inkscape:label="Layer 1"
     inkscape:groupmode="layer"
     id="layer1">
    <g
       id="g3033"
       transform="translate(3.6828256,0)">
      <g
         transform="translate(19.192898,-1.0101525)"
         id="g7134">
        <path
           sodipodi:nodetypes="cccsssccssc"
           id="path4877"
           d="M 137.85847,492.90822 C 137.85847,496.35992 138.23665,519.68052 138.95382,522.91748 C 140.71759,531.79764 146.42703,536.91034 155.00088,538.85627 C 158.9859,539.59953 163.51871,523.30155 168.4381,523.21072 C 173.35749,523.11988 178.66345,539.23622 184.19478,539.23622 C 189.75205,539.23622 195.08182,523.11076 200.02063,523.18562 C 204.95943,523.26049 209.50727,539.53567 213.50064,538.76501 C 222.54248,537.26474 227.27012,531.08083 229.49948,522.62536 C 230.1753,519.47829 230.5311,496.25621 230.5311,492.90822 C 230.5311,467.33516 209.77243,446.58022 184.19478,446.58022 C 158.61714,446.58022 137.85847,467.33516 137.85847,492.90822 z"
           style="fill:#f1e06b;fill-opacity:1;stroke:none;stroke-width:4;stroke-linecap:round;stroke-miterlimit:4;stroke-opacity:1" />
        <path
           sodipodi:nodetypes="ccccc"
           id="path4879"
           d="M 230.72045,434.68054 L 223.64939,425.48815 L 223.64939,462.96481 L 230.72045,462.96481 L 230.72045,434.68054 z"
           style="fill:#ececec;fill-opacity:1;stroke:none;stroke-width:4;stroke-linecap:round;stroke-miterlimit:4;stroke-opacity:1" />
        <path
           sodipodi:nodetypes="ccccc"
           id="path4881"
           d="M 232.29339,460.559 L 223.04339,460.559 L 223.04339,518.309 L 232.29339,514.80899 L 232.29339,460.559 z"
           style="fill:#00003f;fill-opacity:1;stroke:none;stroke-width:4;stroke-linecap:round;stroke-miterlimit:4;stroke-opacity:1" />
        <path
           sodipodi:nodetypes="csccsssccsccsscssscc"
           id="path4883"
           d="M 184.18776,446.57997 C 209.76541,446.57997 230.53152,467.34607 230.53151,492.92372 C 230.53151,496.27231 230.17608,519.49483 229.50026,522.64247 C 227.27091,531.09947 222.5421,537.26693 213.50026,538.76747 C 209.50688,539.53826 204.93907,523.27984 200.00026,523.20497 C 195.06145,523.1301 189.74502,539.23622 184.18776,539.23622 C 178.65643,539.23622 173.35714,523.11413 168.43776,523.20497 C 163.51838,523.29582 158.98528,539.60461 155.00026,538.86122 C 146.42641,536.91494 140.70153,531.80546 138.93776,522.92372 C 138.2206,519.68618 137.84402,496.37603 137.84401,492.92372 C 137.84401,467.34607 158.61011,446.57998 184.18776,446.57997 z M 157.68776,470.64247 C 149.29332,470.64246 139.63085,475.54062 139.5088,482.56009 C 139.3759,490.07846 149.04334,496.82997 157.43776,496.82997 C 163.37734,496.82998 168.74741,493.64227 171.25026,488.67372 C 173.48396,494.29511 178.71122,498.01747 185.12526,498.01747 C 193.51968,498.01746 215.97505,489.85857 215.70186,483.4777 C 215.51359,479.0802 193.76968,471.86122 185.37526,471.86122 C 179.42921,471.86122 173.31257,475.79014 170.81276,480.76747 C 168.5801,475.14391 164.10336,470.64247 157.68776,470.64247 z"
           style="fill:#2b1100;fill-opacity:1;stroke:none;stroke-width:4;stroke-linecap:round;stroke-miterlimit:4;stroke-opacity:1" />
        <path
           id="path4885"
           d="M 240.04339,480.05901 C 240.04339,480.05901 229.79339,464.05901 228.79339,470.55901 C 227.79339,477.05901 236.79339,478.05901 240.04339,480.05901 z"
           style="fill:#ff0000;fill-rule:evenodd;stroke:none;stroke-width:1px;stroke-linecap:butt;stroke-linejoin:miter;stroke-opacity:1" />
        <path
           style="fill:#ff0000;fill-rule:evenodd;stroke:none;stroke-width:1px;stroke-linecap:butt;stroke-linejoin:miter;stroke-opacity:1"
           d="M 244.20661,472.0655 C 244.20661,472.0655 225.24487,470.83462 230.44997,466.81504 C 235.65507,462.79547 240.88401,470.18858 244.20661,472.0655 z"
           id="path4887" />
        <path
           transform="matrix(-0.7128664,0,0,0.7128664,326.76806,186.37608)"
           d="m 255,417.86218 c 0,8.56042 -6.93959,15.5 -15.5,15.5 -8.56041,0 -15.5,-6.93958 -15.5,-15.5 0,-8.56041 6.93959,-15.5 15.5,-15.5 8.56041,0 15.5,6.93959 15.5,15.5 z"
           sodipodi:ry="15.5"
           sodipodi:rx="15.5"
           sodipodi:cy="417.86218"
           sodipodi:cx="239.5"
           id="path4889"
           style="fill:#ffffff;fill-opacity:1;stroke:none;stroke-width:4;stroke-linecap:round;stroke-miterlimit:4;stroke-dasharray:none;stroke-opacity:1"
           sodipodi:type="arc" />
        <path
           transform="matrix(-0.4369181,0,0,0.4369181,257.11412,302.3973)"
           d="m 255,417.86218 c 0,8.56042 -6.93959,15.5 -15.5,15.5 -8.56041,0 -15.5,-6.93958 -15.5,-15.5 0,-8.56041 6.93959,-15.5 15.5,-15.5 8.56041,0 15.5,6.93959 15.5,15.5 z"
           sodipodi:ry="15.5"
           sodipodi:rx="15.5"
           sodipodi:cy="417.86218"
           sodipodi:cx="239.5"
           id="path4891"
           style="fill:#000000;fill-opacity:1;stroke:none;stroke-width:4;stroke-linecap:round;stroke-miterlimit:4;stroke-dasharray:none;stroke-opacity:1"
           sodipodi:type="arc" />
        <path
           sodipodi:type="arc"
           style="fill:#ffffff;fill-opacity:1;stroke:none;stroke-width:4;stroke-linecap:round;stroke-miterlimit:4;stroke-dasharray:none;stroke-opacity:1"
           id="path4893"
           sodipodi:cx="239.5"
           sodipodi:cy="417.86218"
           sodipodi:rx="15.5"
           sodipodi:ry="15.5"
           d="m 255,417.86218 c 0,8.56042 -6.93959,15.5 -15.5,15.5 -8.56041,0 -15.5,-6.93958 -15.5,-15.5 0,-8.56041 6.93959,-15.5 15.5,-15.5 8.56041,0 15.5,6.93959 15.5,15.5 z"
           transform="matrix(-0.7128664,0,0,0.7128664,355.28271,186.37608)" />
        <path
           sodipodi:type="arc"
           style="fill:#000000;fill-opacity:1;stroke:none;stroke-width:4;stroke-linecap:round;stroke-miterlimit:4;stroke-dasharray:none;stroke-opacity:1"
           id="path4895"
           sodipodi:cx="239.5"
           sodipodi:cy="417.86218"
           sodipodi:rx="15.5"
           sodipodi:ry="15.5"
           d="m 255,417.86218 c 0,8.56042 -6.93959,15.5 -15.5,15.5 -8.56041,0 -15.5,-6.93958 -15.5,-15.5 0,-8.56041 6.93959,-15.5 15.5,-15.5 8.56041,0 15.5,6.93959 15.5,15.5 z"
           transform="matrix(-0.4369181,0,0,0.4369181,285.62877,302.3973)" />
        <path
           transform="matrix(-1.3125,0,0,1.3125,744.79339,-67.03474)"
           d="M 462.25,443.5 459.30604,440.10034 452,441.75 455.39966,438.80604 453.75,431.5 456.69396,434.89966 464,433.25 460.60034,436.19396 462.25,443.5 z"
           inkscape:randomized="0"
           inkscape:rounded="0"
           inkscape:flatsided="false"
           sodipodi:arg2="1.1053447"
           sodipodi:arg1="0.95449939"
           sodipodi:r2="2.9098985"
           sodipodi:r1="7.3527207"
           sodipodi:cy="437.5"
           sodipodi:cx="458"
           sodipodi:sides="4"
           id="path4897"
           style="fill:#999999;fill-opacity:1;stroke:none;stroke-width:4;stroke-linecap:round;stroke-miterlimit:4;stroke-dasharray:none;stroke-opacity:1"
           sodipodi:type="star" />
        <path
           sodipodi:type="star"
           style="fill:#999999;fill-opacity:1;stroke:none;stroke-width:4;stroke-linecap:round;stroke-miterlimit:4;stroke-dasharray:none;stroke-opacity:1"
           id="path4899"
           sodipodi:sides="4"
           sodipodi:cx="458"
           sodipodi:cy="437.5"
           sodipodi:r1="7.3527207"
           sodipodi:r2="2.9098985"
           sodipodi:arg1="0.95449939"
           sodipodi:arg2="1.1053447"
           inkscape:flatsided="false"
           inkscape:rounded="0"
           inkscape:randomized="0"
           d="M 462.25,443.5 459.30604,440.10034 452,441.75 455.39966,438.80604 453.75,431.5 456.69396,434.89966 464,433.25 460.60034,436.19396 462.25,443.5 z"
           transform="matrix(-1.3125,0,0,1.3125,759.04339,-63.28474)" />
        <path
           sodipodi:nodetypes="ccccc"
           id="path4901"
           d="M 223.29339,463.559 L 145.29339,463.559 C 142.12293,464.49158 143.0868,466.25102 143.04339,467.80901 L 226.29339,467.80901 C 226.69904,465.68952 225.55275,464.34599 223.29339,463.559 z"
           style="fill:#ff0000;fill-opacity:1;stroke:none;stroke-width:4;stroke-linecap:round;stroke-miterlimit:4;stroke-opacity:1" />
        <path
           transform="matrix(-1,0,0,1,621.04339,64.05901)"
           d="m 396.75,404.125 c 0,2.00203 -1.62297,3.625 -3.625,3.625 -2.00203,0 -3.625,-1.62297 -3.625,-3.625 0,-2.00203 1.62297,-3.625 3.625,-3.625 2.00203,0 3.625,1.62297 3.625,3.625 z"
           sodipodi:ry="3.625"
           sodipodi:rx="3.625"
           sodipodi:cy="404.125"
           sodipodi:cx="393.125"
           id="path4903"
           style="fill:#ff0000;fill-opacity:1;stroke:none;stroke-width:4;stroke-linecap:round;stroke-miterlimit:4;stroke-dasharray:none;stroke-opacity:1"
           sodipodi:type="arc" />
      </g>
      <path
         sodipodi:nodetypes="ccccc"
         id="path3215"
         d="M 425.1675,185.11986 C 369.56485,109.82525 312.60546,183.36639 266.43675,118.90637 C 266.01808,119.13091 234.66114,220.34198 234.75804,219.17101 C 282.30794,279.78854 336.40333,213.29555 394.4375,284.87567 C 394.67323,285.01515 424.69768,185.95582 425.1675,185.11986 z"
         style="fill:#c87137;fill-rule:evenodd;stroke:none;stroke-width:0.91903061px;stroke-linecap:butt;stroke-linejoin:miter;stroke-opacity:1;display:inline" />
      <path
         sodipodi:nodetypes="cc"
         id="path3217"
         d="M 265.56729,120.62215 C 146.94116,476.17819 146.08334,476.50001 146.08334,476.50001"
         style="fill:none;fill-rule:evenodd;stroke:#000000;stroke-width:6.66866779;stroke-linecap:round;stroke-linejoin:miter;stroke-miterlimit:4;stroke-dasharray:none;stroke-opacity:1;display:inline" />
      <g
         transform="matrix(-1,0,0,1,702.05004,-194.13611)"
         id="g4943"
         style="display:inline">
        <path
           sodipodi:nodetypes="cccsssccssc"
           id="path4984"
           d="M 201.92989,686.02586 C 201.92989,689.47818 201.55171,712.80297 200.83454,716.04051 C 199.07077,724.92226 193.36133,730.03588 184.78748,731.98216 C 180.80246,732.72556 176.26965,716.42465 171.35026,716.3338 C 166.43087,716.24295 161.12491,732.36218 155.59358,732.36218 C 150.03631,732.36218 144.70654,716.23383 139.76773,716.3087 C 134.82893,716.38358 130.28109,732.66168 126.28772,731.89089 C 117.24588,730.39035 112.51824,724.20533 110.28888,715.74834 C 109.61306,712.6007 109.25726,689.37445 109.25726,686.02586 C 109.25726,660.44822 130.01593,639.68955 155.59358,639.68955 C 181.17122,639.68955 201.92989,660.44822 201.92989,686.02586 z"
           style="fill:#c87137;fill-opacity:1;stroke:none;stroke-width:4;stroke-linecap:round;stroke-miterlimit:4;stroke-opacity:1" />
        <path
           transform="matrix(0.7128664,0,0,0.7128664,13.0203,379.94798)"
           d="m 255,417.86218 c 0,8.56042 -6.93959,15.5 -15.5,15.5 -8.56041,0 -15.5,-6.93958 -15.5,-15.5 0,-8.56041 6.93959,-15.5 15.5,-15.5 8.56041,0 15.5,6.93959 15.5,15.5 z"
           sodipodi:ry="15.5"
           sodipodi:rx="15.5"
           sodipodi:cy="417.86218"
           sodipodi:cx="239.5"
           id="path4990"
           style="fill:#ffffff;fill-opacity:1;stroke:none;stroke-width:4;stroke-linecap:round;stroke-miterlimit:4;stroke-dasharray:none;stroke-opacity:1"
           sodipodi:type="arc" />
        <path
           transform="matrix(0.4369181,0,0,0.4369181,82.67424,495.9692)"
           d="m 255,417.86218 c 0,8.56042 -6.93959,15.5 -15.5,15.5 -8.56041,0 -15.5,-6.93958 -15.5,-15.5 0,-8.56041 6.93959,-15.5 15.5,-15.5 8.56041,0 15.5,6.93959 15.5,15.5 z"
           sodipodi:ry="15.5"
           sodipodi:rx="15.5"
           sodipodi:cy="417.86218"
           sodipodi:cx="239.5"
           id="path4994"
           style="fill:#000000;fill-opacity:1;stroke:none;stroke-width:4;stroke-linecap:round;stroke-miterlimit:4;stroke-dasharray:none;stroke-opacity:1"
           sodipodi:type="arc" />
        <path
           style="fill:#000000;fill-rule:evenodd;stroke:none;stroke-width:1px;stroke-linecap:butt;stroke-linejoin:miter;stroke-opacity:1"
           d="M 108.94063,703.44381 C 145.67112,689.84386 166.04836,669.51582 186.72238,650.4108 C 188.06713,651.01059 189.31175,651.71051 189.72758,653.23922 C 172.34737,670.97196 155.85568,688.64916 109.11741,708.21678 C 108.23654,706.62579 107.94214,705.0348 108.94063,703.44381 z"
           id="path5016"
           sodipodi:nodetypes="ccccc" />
        <path
           sodipodi:type="arc"
           style="fill:#000000;fill-opacity:1;stroke:none;stroke-width:4;stroke-linecap:round;stroke-miterlimit:4;stroke-dasharray:none;stroke-opacity:1"
           id="path4998"
           sodipodi:cx="239.5"
           sodipodi:cy="417.86218"
           sodipodi:rx="15.5"
           sodipodi:ry="15.5"
           d="m 255,417.86218 c 0,8.56042 -6.93959,15.5 -15.5,15.5 -8.56041,0 -15.5,-6.93958 -15.5,-15.5 0,-8.56041 6.93959,-15.5 15.5,-15.5 8.56041,0 15.5,6.93959 15.5,15.5 z"
           transform="matrix(0.7128664,0,0,0.7128664,-15.49436,379.94799)" />
        <path
           style="fill:#ff0000;fill-rule:evenodd;stroke:none;stroke-width:1px;stroke-linecap:butt;stroke-linejoin:miter;stroke-opacity:1"
           d="M 106.72549,679.42961 C 128.95012,680.69471 152.87301,663.20638 179.97549,644.17961 C 143.2718,619.46306 108.13153,647.90342 106.72549,679.42961 z"
           id="path5113"
           sodipodi:nodetypes="ccc" />
        <path
           id="path2901"
           d="M 156.816,637.60365 C 155.93902,638.12796 156.43555,639.17063 157.52394,639.89456 C 157.74466,639.90591 157.95207,639.8355 158.14349,639.76807 C 158.0223,640.28733 158.11901,640.4254 158.0176,641.11276 C 158.70798,640.83265 159.05095,640.7293 159.67637,640.66576 C 159.65218,640.2252 159.75106,640.24947 159.70585,639.88719 C 159.87644,639.96055 160.04829,639.98739 160.24894,639.99772 C 162.24805,639.73847 162.05127,638.05743 160.35886,637.49039 C 159.83356,637.46333 159.4061,637.66877 159.13175,638.0212 C 158.70957,637.69303 158.15923,637.54605 157.66579,637.33595 C 157.30816,637.39184 157.01837,637.48267 156.816,637.60365 z M 150.66875,643.33852 C 150.29476,643.55188 149.97131,643.99737 149.7732,644.61658 C 149.79139,645.14226 150.0355,645.56719 150.41023,645.81023 C 150.11618,646.27017 149.999,646.8056 149.85055,647.32593 C 150.27813,649.27176 151.97514,648.94961 152.4024,647.25011 C 152.39473,647.02921 152.33655,646.8296 152.25289,646.6447 C 152.52268,646.68358 152.51283,646.6741 152.82791,646.70394 C 152.81706,646.11546 152.81634,645.69295 153.22856,645.03229 C 152.64117,645.11211 152.6483,645.00049 152.1915,645.09798 C 152.24992,644.92168 152.31788,644.71853 152.31093,644.51775 C 152.02246,643.27277 151.29207,642.98294 150.66875,643.33852 z M 156.43559,642.30486 C 153.90937,643.85426 152.55444,646.25805 153.42105,647.67102 C 154.05007,648.69661 155.68659,648.91992 157.49533,648.37256 C 157.56842,648.5097 157.62898,648.64213 157.71239,648.77812 C 158.97291,650.83336 160.93944,651.9322 162.09552,651.22315 C 163.25159,650.51412 163.16359,648.26312 161.90305,646.20788 C 161.80117,646.04178 161.6937,645.89154 161.58347,645.73847 C 162.71852,644.44036 163.17513,643.01216 162.58525,642.05039 C 161.71865,640.63741 158.96181,640.75546 156.43559,642.30486 z M 158.95734,643.41993 C 159.32593,643.19386 159.80223,643.29922 160.0205,643.6551 C 160.23878,644.01098 160.11677,644.4833 159.74818,644.70936 C 159.37959,644.93543 158.90329,644.83007 158.68502,644.47419 C 158.46674,644.1183 158.58874,643.646 158.95734,643.41993 z M 156.59399,645.24967 C 156.96257,645.02361 157.43888,645.12896 157.65715,645.48485 C 157.87542,645.84073 157.75342,646.31304 157.38483,646.53911 C 157.01623,646.76518 156.53994,646.65982 156.32166,646.30394 C 156.10338,645.94805 156.22539,645.47574 156.59399,645.24967 z M 164.84912,642.84831 C 164.47514,643.06168 164.12866,643.5213 163.93054,644.1405 C 163.93881,644.37938 163.99791,644.57311 164.09418,644.76895 C 163.62045,644.68651 163.48636,644.63746 162.84159,644.58658 C 162.63461,644.97992 162.47193,645.26781 162.13393,645.65435 C 162.34155,645.88462 162.36654,646.13694 162.52566,646.39638 C 163.51609,646.25938 163.91003,646.20716 164.51876,646.02953 C 164.33269,646.29193 164.19142,646.64927 164.20407,647.01472 C 164.64683,648.93664 166.33578,648.66134 166.75592,646.9389 C 166.73021,646.19635 166.23449,645.58987 165.6025,645.52327 C 166.17613,645.17365 166.26116,644.66672 166.46827,644.04166 C 166.17979,642.7967 165.47245,642.49274 164.84912,642.84831 z M 157.25556,648.96325 C 156.95731,649.91851 157.50549,650.92626 157.67031,652.06771 C 157.42487,651.85977 157.08223,651.72055 156.71705,651.70174 C 154.74005,651.97219 154.96405,653.66273 156.62125,654.2321 C 157.36326,654.27033 157.97268,653.79471 158.09335,653.17078 C 158.41024,653.77388 158.90203,653.93785 159.51633,654.19927 C 161.51544,653.93999 161.32755,652.22183 159.63516,651.65479 C 159.39646,651.6425 159.16774,651.67027 158.96434,651.74935 C 159.05643,651.40096 158.94875,651.2696 159.02944,650.82218 C 158.48067,650.37488 158.30178,650.10076 157.8619,649.38354 C 157.77849,649.24756 157.32866,649.10038 157.25556,648.96325 z M 158.97909,648.98352 L 161.46587,647.45832 L 161.8048,648.01093 L 159.31803,649.53613 L 158.97909,648.98352 z"
           style="fill:#ffffff;fill-opacity:1;stroke:none;stroke-width:4;stroke-linecap:round;stroke-miterlimit:4;stroke-dasharray:none;stroke-opacity:1" />
        <path
           style="fill:#ff0000;fill-rule:evenodd;stroke:none;stroke-width:1px;stroke-linecap:butt;stroke-linejoin:miter;stroke-opacity:1"
           d="M 83.78439,674.18891 C 83.78439,674.18891 107.26627,667.73374 103.7363,679.66244 C 101.59372,686.90281 85.96288,676.29774 83.78439,674.18891 z"
           id="path5119"
           sodipodi:nodetypes="csc" />
        <path
           sodipodi:nodetypes="csc"
           id="path5121"
           d="M 86.84178,697.26453 C 86.84178,697.26453 102.7929,673.60009 108.63014,686.63022 C 112.17318,694.53914 90.35646,697.40973 86.84178,697.26453 z"
           style="fill:#ff0000;fill-rule:evenodd;stroke:none;stroke-width:1px;stroke-linecap:butt;stroke-linejoin:miter;stroke-opacity:1" />
        <path
           sodipodi:type="arc"
           style="fill:#ff0000;fill-opacity:1;stroke:none;stroke-width:4;stroke-linecap:round;stroke-miterlimit:4;stroke-dasharray:none;stroke-opacity:1"
           id="path5123"
           sodipodi:cx="154.5"
           sodipodi:cy="292"
           sodipodi:rx="4"
           sodipodi:ry="4"
           d="m 158.5,292 c 0,2.20914 -1.79086,4 -4,4 -2.20914,0 -4,-1.79086 -4,-4 0,-2.20914 1.79086,-4 4,-4 2.20914,0 4,1.79086 4,4 z"
           transform="matrix(1.4125247,0,0,1.4125247,-112.90968,268.08805)" />
      </g>
      <text
         sodipodi:linespacing="100%"
         id="text6799"
         y="584.40125"
         x="360.94019"
         style="font-size:24.12047195px;font-style:normal;font-variant:normal;font-weight:normal;font-stretch:normal;text-align:start;line-height:100%;writing-mode:lr-tb;text-anchor:start;fill:#000000;fill-opacity:1;stroke:none;font-family:Nimbus Mono L;-inkscape-font-specification:Nimbus Mono L"
         xml:space="preserve"
         transform="scale(1.0578351,0.9453269)"><tspan
           y="584.40125"
           x="360.94019"
           id="tspan6813"
           sodipodi:role="line"
           style="text-align:center;text-anchor:middle;font-size:12.00000015">ner lbh nabalzbhf?</tspan><tspan
           y="608.52173"
           x="360.94019"
           sodipodi:role="line"
           style="text-align:center;text-anchor:middle;font-size:12.00000015"
           id="tspan2933">pneqf:krphi-thxrk-ilirk</tspan></text>
      <path
         style="fill:#ffffff;fill-opacity:1;stroke:#000000;stroke-opacity:0"
         d="m 324.24649,208.38827 c 0.69559,0.24809 0.78495,0.22496 1.48609,2.34269 0.4104,1.23961 1.30789,3.89091 1.73406,5.44378 l 12.75428,4.49505 c 1.61202,0.49292 1.8503,0.36914 2.67033,0.12267 1.49897,-0.45055 3.12377,-1.53694 7.18011,-4.80318 1.22552,-0.98681 2.78344,-2.2278 3.46175,-2.75692 1.05192,-0.86654 0.86565,-1.13359 2.77328,-0.86017 -2.40171,2.80674 -5.36111,6.06781 -7.0486,7.38452 -3.31954,2.59017 -8.01222,4.96274 -15.64673,4.76385 5.66484,0.96119 7.92065,-0.094 12.48701,-1.78776 -4.14807,4.22977 -9.08386,7.63046 -13.78094,11.16684 9.59209,-5.10478 19.17607,-11.13721 26.12735,-19.75362 1.28071,-1.7177 2.88978,-4.12526 2.83568,-4.23917 -1.83262,1.03689 -4.00636,2.13833 -7.44044,1.00362 -5.19574,-1.71684 -8.62047,-4.73697 -11.36881,-8.93359 -0.49106,0.1516 -1.05426,0.23627 -1.26488,0.82849 -0.19765,0.55576 0.19433,1.38618 1.14041,2.48297 1.55353,1.80097 6.06405,4.88289 8.32538,5.68936 0.28637,0.10214 0.51059,0.21292 0.49866,0.24801 -0.0119,0.0351 -1.92568,1.28428 -4.2522,2.77223 -3.57054,2.28356 -4.30367,2.70315 -4.70575,2.70127 -0.933,-0.004 -5.52431,-1.85859 -7.88126,-3.18228 -1.1303,-0.63478 -1.58961,-1.05293 -2.03686,-1.85744 -0.75287,-1.62705 -1.1304,-3.43907 -1.92739,-5.01739 -1.49056,0.0371 -3.07007,0.0651 -5.29201,-0.69856 -1.73379,-0.5959 -3.18497,-1.64566 -4.57201,-2.81937 -1.58077,0.73033 -2.97423,1.91072 -4.54994,2.70732 -0.83791,0.34617 -1.45126,0.38175 -2.72187,0.16031 -2.64955,-0.46185 -7.37216,-1.92933 -8.10626,-2.51954 -0.31637,-0.25436 -0.63702,-1.04975 -2.05321,-5.1118 -0.92276,-2.64678 -1.66657,-4.84375 -1.65465,-4.87885 0.0119,-0.0351 0.2548,0.0207 0.54117,0.12284 2.26133,0.80648 7.66417,1.26009 9.97291,0.83657 1.40601,-0.25793 2.21629,-0.65959 2.39793,-1.22107 0.19357,-0.59829 -0.19669,-1.023 -0.48985,-1.4543 -4.69645,1.54151 -9.21061,1.7303 -14.3239,-0.22949 -3.37955,-1.29531 -4.41661,-3.54186 -5.22536,-5.52077 -0.11142,0.0549 -0.30809,2.96615 -0.34439,5.12766 0.23105,11.17793 4.09117,22.0051 8.51949,32.11014 -1.54058,-5.76101 -3.35052,-11.5675 -4.04074,-17.5228 2.55417,4.2332 3.68359,6.49573 8.70694,9.3464 -6.10587,-4.70149 -8.3479,-9.54727 -9.38162,-13.69 -0.52548,-2.10595 -0.87051,-6.54552 -1.05349,-10.27406 1.6612,0.99937 1.3534,1.09021 1.65328,2.43886 0.21129,0.8464 0.68106,2.81055 1.0442,4.36394 1.20189,5.14154 1.81772,7.02704 2.72003,8.33397 0.49361,0.71498 0.60545,0.96362 2.16781,1.60282 l 12.72179,4.59078 c 1.27463,-0.94629 3.58406,-2.45388 4.65662,-3.16461 1.83232,-1.21419 1.89103,-1.13825 2.5866,-0.89019 z m -4.42968,-57.19234 c -4.46293,-1.54095 -9.36268,-0.41876 -13.7179,5.69942 4.26688,-0.66081 8.90512,1.03882 12.42312,3.86098 4.69085,3.76302 7.79324,9.6636 9.83765,16.63888 0.65986,-3.38963 0.48137,-7.21604 0.23033,-9.2507 0.73261,0.40556 1.69638,1.18199 2.38532,0.74752 0.744,-0.46921 0.55998,-1.28106 0.23062,-2.01465 -2.65923,-5.92339 -7.29569,-10.81698 -13.28624,-13.2292 3.98705,1.21438 8.70727,3.642 12.49752,7.00395 -2.60252,-4.21162 -6.40797,-8.00865 -10.60042,-9.4562 z m 42.53952,15.17136 c -4.16358,-1.53255 -9.44677,-0.97691 -14.03799,0.66912 5.00777,-0.22421 10.17871,0.87576 14.04006,2.46045 -6.15756,-1.92031 -12.7564,-1.03368 -18.42885,1.91828 -0.70251,0.36559 -1.33851,0.88499 -1.0394,1.72621 0.27697,0.77896 1.50284,0.78344 2.32283,0.93161 -1.42914,1.43543 -3.88662,4.32174 -5.42229,7.39901 5.82751,-4.1678 11.83356,-6.81995 17.7903,-6.7856 4.46739,0.0258 9.13317,1.64435 12.07811,4.87719 0.29112,-7.56761 -2.87055,-11.56484 -7.30277,-13.19627 z m -45.53391,2.13744 c -1.99686,-0.68968 -3.7675,-0.98354 -5.21634,-0.87383 -2.86137,0.21666 -5.82484,3.90625 -8.13018,3.33335 -2.07102,-0.51468 -2.26211,-3.75764 -2.59907,-5.56654 -0.0501,1.89733 0.24347,3.97157 0.94914,5.60965 -1.40314,0.33603 -2.8894,0.65059 -4.1031,1.45084 1.84495,-0.50683 3.6856,-1.00003 5.03905,-0.33284 -1.9778,0.3381 -4.76685,0.79444 -6.6187,2.49373 2.65098,-1.278 5.65289,-2.22819 8.47764,-1.04235 0.81604,0.34257 1.04182,0.50168 1.8819,1.34811 2.03727,2.39171 4.80542,3.42008 7.62833,4.39232 l 0.59626,-1.75629 c -1.99761,-0.71822 -3.90821,-1.6801 -5.7313,-2.77876 -0.75112,-0.50726 -1.93571,-1.69933 -2.11236,-2.12377 -0.12013,-0.28866 -0.10542,-0.32365 0.349,-0.83729 1.17891,-1.33258 2.65414,-2.20474 4.25846,-2.57599 1.9621,-0.45403 3.94379,0.0418 5.78195,0.75772 0.005,0.003 0.0122,0.004 0.0181,0.007 l 0.4,-1.17823 c -0.009,-0.004 -0.0263,-0.0133 -0.0348,-0.0165 -0.14636,-0.0568 -0.289,-0.11404 -0.43313,-0.16685 -0.13518,-0.0494 -0.26764,-0.097 -0.40077,-0.14292 l 1e-5,-2e-5 z m 36.99733,13.19479 c -0.14502,-0.0502 -0.29149,-0.0961 -0.44064,-0.14476 -0.008,-0.002 -0.0278,-0.006 -0.0373,-0.009 l -0.4,1.17823 c 0.006,0.002 0.012,0.004 0.0181,0.007 1.87472,0.60823 3.72866,1.48036 4.99194,3.0847 1.03293,1.31179 1.66125,2.93417 1.7784,4.72897 0.0451,0.69181 0.0356,0.72863 -0.23349,0.87849 -0.39557,0.22036 -2.04628,0.40124 -2.94238,0.32104 -2.09472,-0.2986 -4.1752,-0.7601 -6.17632,-1.46799 l -0.59626,1.75628 c 2.802,1.03383 5.59505,1.98885 8.64084,1.40995 1.17129,-0.1291 1.44469,-0.10989 2.29189,0.14044 2.93285,0.86756 4.7108,3.52245 6.01511,6.21107 -0.42265,-2.51047 -2.33284,-4.64275 -3.67863,-6.16619 1.46525,0.33802 2.60956,1.89576 3.74904,3.46698 -0.46683,-1.39961 -1.44154,-2.59185 -2.3381,-3.74805 1.54537,-0.83529 3.03184,-2.27466 4.14172,-3.79403 -1.35978,1.20377 -3.47373,3.62465 -5.40913,2.71047 -2.15437,-1.01761 -2.24302,-5.7957 -4.3551,-7.78611 -1.06944,-1.00783 -2.63558,-1.90401 -4.61882,-2.63379 -0.1322,-0.0486 -0.26491,-0.0956 -0.40077,-0.14293 l -10e-6,1e-5 z m -34.90184,-12.24931 -0.38875,1.14508 c 2.84123,1.55783 5.68984,4.52928 5.93038,6.43677 -1.778,-2.49575 -4.03308,-4.80657 -6.94181,-5.79445 -1.8883,-0.64132 -4.40214,-0.98885 -6.58602,-0.60693 -1.10212,0.19273 -2.80716,0.89908 -2.95175,1.25469 -0.56811,1.39725 5.43325,4.41357 7.71799,5.11776 2.67547,0.82578 5.37523,1.64727 8.11993,1.31085 -1.96306,1.37014 -5.21321,0.51402 -7.80003,-0.32167 l -0.59376,1.74892 c 4.09628,1.20092 9.66233,1.10624 10.4599,-1.30131 1.22125,-3.68653 -4.28843,-7.48573 -6.96608,-8.98971 z m 33.0871,11.80023 c -3.01018,-0.52453 -9.63079,-1.0515 -10.90615,2.61575 -0.83289,2.39494 3.47351,6.01055 7.41234,7.67527 l 0.59376,-1.74892 c -2.53421,-0.99067 -5.60083,-2.38738 -6.31,-4.71055 1.94806,2.01006 4.5622,3.08373 7.15991,4.13858 2.21772,0.90158 8.74964,2.35515 9.15052,0.89825 0.10201,-0.37079 -0.80691,-2.00938 -1.55422,-2.8617 -1.48084,-1.68891 -3.66216,-3.01587 -5.53101,-3.7145 -2.87874,-1.07618 -6.0463,-0.69931 -8.95183,0.12611 1.34388,-1.34243 5.37689,-1.8596 8.54792,-1.2732 l 0.38876,-1.14509 z m -21.6669,-5.59327 c -2.43824,7.1417 -5.22233,11.73731 -11.52593,15.63653 -1.39824,0.8649 -3.0148,1.76907 -3.63107,3.41063 -0.46338,1.23429 -0.27417,2.56796 0.0959,3.91429 -0.0697,-1.2177 -0.002,-2.35984 0.51179,-3.47466 0.45143,-0.97868 1.39297,-1.43963 4.13125,-2.7617 2.63438,-1.27192 3.16384,-1.61051 3.38612,-1.09153 0.0983,0.22956 -0.2647,1.22151 -1.10168,2.95884 -1.20558,2.50243 -1.70392,4.33348 -1.53189,5.6329 0.17667,1.33427 1.34079,2.78772 3.18852,3.9853 0.3985,0.25828 1.01314,0.50992 1.66641,0.74292 0.65326,0.23297 1.28753,0.42676 1.7564,0.4778 2.17395,0.23671 3.96694,-0.16209 4.91355,-1.09577 0.92188,-0.90929 1.6402,-2.66188 2.21068,-5.39082 0.39607,-1.89458 0.71225,-2.90321 0.92837,-3.02064 0.4886,-0.26545 0.69862,0.33686 1.9936,3.01016 1.34604,2.77871 1.80502,3.73914 1.5662,4.79364 -0.27205,1.2012 -0.91108,2.13943 -1.70326,3.04972 1.10555,-0.82005 2.06165,-1.74525 2.44594,-3.00776 0.51108,-1.67905 -0.20865,-3.41647 -0.78103,-4.98416 -2.58034,-7.0676 -1.97963,-12.44188 0.43432,-19.59225 -2.0437,3.47833 -3.84002,9.12711 -5.34002,14.01212 -0.94677,3.08333 -1.38842,5.168 -1.69987,7.12915 -0.29523,1.85897 -0.79146,3.17655 -1.56414,3.4626 -1.46426,0.54205 -3.17477,0.31518 -4.69198,-0.22453 -1.51726,-0.5396 -2.99552,-1.44862 -3.81447,-2.80923 -0.4314,-0.71673 -0.0236,-2.06458 0.8709,-3.70983 0.94363,-1.73569 1.86001,-3.65105 2.98523,-6.67074 1.7827,-4.78419 3.79569,-10.35569 4.30017,-14.38298 z m -12.25208,23.74862 c -0.1669,-0.0531 -0.32995,-0.0843 -0.48355,-0.0899 -0.28926,-0.0106 -0.45327,0.39699 -0.27543,0.95435 0.21956,0.58514 0.54478,0.94268 1.33197,1.46569 0.77044,0.51189 1.23202,0.68496 1.37992,0.43022 0.55889,-0.96256 -0.78467,-2.38862 -1.95291,-2.76036 z m 16.42801,5.85891 c -1.14105,-0.45184 -3.05811,-0.18866 -3.20295,0.92156 -0.0383,0.29382 0.42838,0.45182 1.34243,0.54068 0.93392,0.0908 1.40544,0.0174 1.93197,-0.30162 0.47702,-0.32382 0.59529,-0.74773 0.36209,-0.92345 -0.12383,-0.0933 -0.27053,-0.17262 -0.43354,-0.23717 z m -21.55824,6.27147 c -0.24738,0.1074 -0.59086,0.16784 -0.52357,0.45721 0.0733,0.31479 1.52189,1.27488 3.72008,2.18119 3.57314,1.47318 7.21579,2.84839 10.93275,3.89906 2.28533,0.646 3.98953,0.85707 4.23759,0.65686 0.22801,-0.18404 -0.005,-0.44993 -0.13355,-0.69156 l -18.2333,-6.50276 z m 2.17703,8.69344 c 0.82594,2.16192 1.32779,3.31383 0.88949,4.5812 -0.82171,2.37654 -1.92916,2.29818 -3.11199,6.12608 -0.94978,3.07374 -1.13962,5.22942 -1.51768,7.26017 -0.89962,4.83254 -0.15233,5.17966 0.8521,5.53788 1.00444,0.35823 1.80054,0.56154 4.02216,-3.79951 0.93357,-1.83264 2.09036,-3.64346 3.20741,-6.65755 1.39112,-3.75361 0.47541,-4.39679 1.2706,-6.78279 0.42398,-1.27248 1.51512,-1.85627 3.47205,-3.02569 l -9.08414,-3.23979 z"
         id="path2954"
         sodipodi:nodetypes="csssccscccccscsssssssccccscssssssccsccccsccssccscszccsccssccccccssccscccsscccccsccccssssccsscccccssssccccscccccsssccccsssccccsccsccccsssccccsccssssssssssssscsscsssssssccscssccsccscccccssccccscszccccc" />
    </g>
    <text
       xml:space="preserve"
       style="font-size:20px;font-style:normal;font-variant:normal;font-weight:normal;font-stretch:normal;text-align:start;line-height:125%;writing-mode:lr-tb;text-anchor:start;fill:#000000;fill-opacity:1;stroke:none;stroke-width:1px;stroke-linecap:butt;stroke-linejoin:miter;stroke-opacity:1;font-family:Nimbus Mono L;-inkscape-font-specification:Nimbus Mono L"
       x="180.31223"
       y="241.71477"
       id="text6815"
       sodipodi:linespacing="125%"><tspan
         sodipodi:role="line"
         id="tspan6817"
         x="180.31223"
         y="241.71477" /></text>
    <g
       transform="matrix(0.2046092,0,0,0.2046092,13.254456,821.44017)"
       id="g2779"
       style="display:inline">
      <path
         style="fill:#000000;fill-opacity:1;fill-rule:evenodd;stroke:none;stroke-width:5;stroke-linecap:butt;stroke-linejoin:miter;stroke-miterlimit:4;stroke-dasharray:none;stroke-opacity:1"
         d="M 127.1141,465.5924 C 91.814047,465.5924 66.89506,504.2459 69.859396,529.82972 C 71.761234,546.24359 81.651632,548.75843 96.01098,575.0839 C 104.71039,591.03284 111.56039,612.77438 100.19257,619.35575 C 88.824765,625.93711 53.531251,643.88779 53.53125,643.88779 L 53.53125,731.25 L 228.8265,731.25 C 228.8265,731.25 230.62049,725.86487 229.42387,714.49706 C 243.87007,715.26906 254.19943,715.68227 269.51412,713.28904 C 290.82939,704.65951 302.41803,697.91484 316.18872,691.15976 C 319.30006,687.58786 324.5538,662.43638 323.35717,651.66689 C 322.17857,641.0595 321.01036,622.90838 315.83029,608.07206 C 315.83112,607.62561 315.81244,607.17371 315.77719,606.71802 C 317.90386,598.92728 318.64423,595.20653 320.96769,587.65525 C 323.36091,579.87727 313.19812,579.87221 315.59134,573.88916 C 317.98457,567.9061 319.77015,572.09667 321.56506,555.3441 C 323.35997,538.59153 316.6504,536.93715 312.59122,530.81206 C 313.93239,525.70068 314.54999,522.63654 307.07568,516.5878 C 303.81694,513.9506 301.55946,512.46778 297.4356,512.23126 C 293.31173,511.99474 287.68977,511.89966 279.91179,511.30135 C 279.95788,511.237 279.68945,518.04719 279.8219,518.15083 C 279.59187,518.15083 272.97826,508.24505 268.82685,511.94803 C 264.86347,515.4833 273.24628,527.8739 273.24627,527.59611 C 273.51087,527.66524 264.87102,526.81018 264.1245,530.81206 C 263.39332,534.73169 269.93358,536.10993 269.84182,536.20168 C 269.75006,535.92516 263.79217,535.24252 263.99859,539.96567 C 264.22106,545.05637 272.74333,545.38736 272.74334,545.5438 C 268.67573,555.71281 254.50626,589.03774 244.98208,611.57664 C 247.97361,618.15801 274.90373,620.56376 274.90373,620.56376 C 274.90373,620.56376 277.7599,637.70722 270.70886,644.48516 C 261.13596,645.96638 226.25358,641.8655 203.09971,630.13497 C 183.35561,625.94684 173.54242,629.40149 162.4121,627.13484 C 163.71562,615.17348 164.21749,608.58979 164.21749,608.58979 C 164.21749,608.58979 179.77569,606.19506 179.77569,584.05775 C 179.77569,561.92042 189.27078,560.03657 186.94414,548.16237 C 185.05685,538.53041 181.53399,532.45339 189.1876,524.09495 C 194.98993,515.09543 195.91779,501.48946 187.54152,491.91656 C 175.82743,478.52903 162.41416,465.5924 127.1141,465.5924 z M 283.08108,515.50608 C 282.97494,515.60488 286.88702,515.90504 291.28498,516.19638 C 291.7627,519.41501 296.839,523.95317 299.88712,526.41806 C 299.62647,527.00514 299.35852,527.56957 299.09062,528.13052 L 283.43987,527.85176 C 283.52084,527.66348 282.88447,515.7395 283.08108,515.50608 z M 276.34425,546.61907 C 277.89568,547.38545 280.81962,547.77463 283.05453,548.37477 C 280.15284,549.11714 277.60828,549.09234 277.30649,551.49475 C 276.88402,554.8578 283.91375,557.05322 290.12324,558.85588 C 288.4593,559.44397 285.41576,560.84837 285.28168,562.4898 C 284.86781,567.55673 295.35853,569.71644 304.68278,571.55997 C 305.89074,579.19986 307.54144,589.21622 308.90079,597.08044 C 285.0055,594.98587 270.36389,593.61307 255.48253,597.49196 C 261.78844,582.55106 269.46993,562.86918 276.34425,546.61907 z"
         id="path2781"
         sodipodi:nodetypes="csssccccccsccssscsscczczczcccccccsscscccccccccscscccc" />
    </g>
    <text
       xml:space="preserve"
       style="font-size:24px;font-style:normal;font-variant:normal;font-weight:normal;font-stretch:normal;text-align:center;line-height:100%;writing-mode:lr-tb;text-anchor:middle;fill:#000000;fill-opacity:1;stroke:none;font-family:URW Gothic L;-inkscape-font-specification:URW Gothic L Book"
       x="381.88013"
       y="739.68048"
       id="text4758"
       sodipodi:linespacing="100%"><tspan
         sodipodi:role="line"
         id="tspan3155"
         x="381.88013"
         y="739.68048">A Computer Security Competition</tspan><tspan
         sodipodi:role="line"
         id="tspan3159"
         x="381.88013"
         y="763.68048">Presented by Los Alamos National Laboratory</tspan><tspan
         sodipodi:role="line"
         x="381.88013"
         y="787.68048"
         id="tspan2931">and New Mexico Tech</tspan><tspan
         sodipodi:role="line"
         id="tspan3161"
         x="385.20825"
         y="811.68048"> </tspan><tspan
         sodipodi:role="line"
         id="tspan3163"
         x="381.88013"
         y="835.68048">Sat &amp; Sun, Nov 5 – 6, 10 a.m. – 6 p.m.</tspan><tspan
         sodipodi:role="line"
         id="tspan3165"
         x="381.88013"
         y="859.68048">Fidel Ballroom 3,</tspan><tspan
         sodipodi:role="line"
         id="tspan3167"
         x="381.88013"
         y="883.68048">New Mexico Tech</tspan><tspan
         sodipodi:role="line"
         id="tspan3169"
         x="385.20825"
         y="907.68048"> </tspan><tspan
         sodipodi:role="line"
         id="tspan3171"
         x="381.88013"
         y="931.68048">Register by November 15</tspan><tspan
         sodipodi:role="line"
         id="tspan3173"
         x="381.88013"
         y="955.68048">http://dirtbags.net/ctf/</tspan><tspan
         sodipodi:role="line"
         id="tspan3175"
         x="381.88013"
         y="979.68048" /></text>
    <text
       xml:space="preserve"
       style="font-size:40px;font-style:normal;font-variant:normal;font-weight:normal;font-stretch:normal;text-align:start;line-height:100%;writing-mode:lr-tb;text-anchor:start;fill:#000000;fill-opacity:1;stroke:none;font-family:URW Gothic L;-inkscape-font-specification:URW Gothic L"
       x="383.44458"
       y="627.55573"
       id="text2833"
       sodipodi:linespacing="100%"><tspan
         sodipodi:role="line"
         x="388.99146"
         y="627.55573"
         id="tspan2927"
         style="text-align:center;text-anchor:middle">The NM Collegiate Security Series </tspan><tspan
         sodipodi:role="line"
         x="383.44458"
         y="667.55573"
         style="text-align:center;text-anchor:middle"
         id="tspan2868">NMT CTF Invitational 2011</tspan></text>
  </g>
</svg>
