<?xml version="1.0" encoding="UTF-8" standalone="no"?>
<!-- Created with Inkscape (http://www.inkscape.org/) -->

<svg
   xmlns:dc="http://purl.org/dc/elements/1.1/"
   xmlns:cc="http://creativecommons.org/ns#"
   xmlns:rdf="http://www.w3.org/1999/02/22-rdf-syntax-ns#"
   xmlns:svg="http://www.w3.org/2000/svg"
   xmlns="http://www.w3.org/2000/svg"
   xmlns:sodipodi="http://sodipodi.sourceforge.net/DTD/sodipodi-0.dtd"
   xmlns:inkscape="http://www.inkscape.org/namespaces/inkscape"
   width="744.09448819"
   height="1052.3622047"
   id="svg5477"
   version="1.1"
   inkscape:version="0.47 r22583"
   sodipodi:docname="battle2.svg">
  <defs
     id="defs5479">
    <inkscape:perspective
       sodipodi:type="inkscape:persp3d"
       inkscape:vp_x="0 : 526.18109 : 1"
       inkscape:vp_y="0 : 1000 : 0"
       inkscape:vp_z="744.09448 : 526.18109 : 1"
       inkscape:persp3d-origin="372.04724 : 350.78739 : 1"
       id="perspective5485" />
    <inkscape:perspective
       id="perspective2968"
       inkscape:persp3d-origin="0.5 : 0.33333333 : 1"
       inkscape:vp_z="1 : 0.5 : 1"
       inkscape:vp_y="0 : 1000 : 0"
       inkscape:vp_x="0 : 0.5 : 1"
       sodipodi:type="inkscape:persp3d" />
    <inkscape:perspective
       id="perspective5554"
       inkscape:persp3d-origin="0.5 : 0.33333333 : 1"
       inkscape:vp_z="1 : 0.5 : 1"
       inkscape:vp_y="0 : 1000 : 0"
       inkscape:vp_x="0 : 0.5 : 1"
       sodipodi:type="inkscape:persp3d" />
    <inkscape:perspective
       id="perspective5576"
       inkscape:persp3d-origin="0.5 : 0.33333333 : 1"
       inkscape:vp_z="1 : 0.5 : 1"
       inkscape:vp_y="0 : 1000 : 0"
       inkscape:vp_x="0 : 0.5 : 1"
       sodipodi:type="inkscape:persp3d" />
    <inkscape:perspective
       id="perspective5598"
       inkscape:persp3d-origin="0.5 : 0.33333333 : 1"
       inkscape:vp_z="1 : 0.5 : 1"
       inkscape:vp_y="0 : 1000 : 0"
       inkscape:vp_x="0 : 0.5 : 1"
       sodipodi:type="inkscape:persp3d" />
    <inkscape:perspective
       id="perspective2829"
       inkscape:persp3d-origin="0.5 : 0.33333333 : 1"
       inkscape:vp_z="1 : 0.5 : 1"
       inkscape:vp_y="0 : 1000 : 0"
       inkscape:vp_x="0 : 0.5 : 1"
       sodipodi:type="inkscape:persp3d" />
    <inkscape:perspective
       id="perspective3006"
       inkscape:persp3d-origin="0.5 : 0.33333333 : 1"
       inkscape:vp_z="1 : 0.5 : 1"
       inkscape:vp_y="0 : 1000 : 0"
       inkscape:vp_x="0 : 0.5 : 1"
       sodipodi:type="inkscape:persp3d" />
    <inkscape:perspective
       id="perspective6261"
       inkscape:persp3d-origin="0.5 : 0.33333333 : 1"
       inkscape:vp_z="1 : 0.5 : 1"
       inkscape:vp_y="0 : 1000 : 0"
       inkscape:vp_x="0 : 0.5 : 1"
       sodipodi:type="inkscape:persp3d" />
  </defs>
  <sodipodi:namedview
     id="base"
     pagecolor="#ffffff"
     bordercolor="#666666"
     borderopacity="1.0"
     inkscape:pageopacity="0.0"
     inkscape:pageshadow="2"
     inkscape:zoom="0.62430978"
     inkscape:cx="372.04724"
     inkscape:cy="526.18109"
     inkscape:document-units="px"
     inkscape:current-layer="layer1"
     showgrid="false"
     inkscape:window-width="1003"
     inkscape:window-height="900"
     inkscape:window-x="865"
     inkscape:window-y="65"
     inkscape:window-maximized="0" />
  <metadata
     id="metadata5482">
    <rdf:RDF>
      <cc:Work
         rdf:about="">
        <dc:format>image/svg+xml</dc:format>
        <dc:type
           rdf:resource="http://purl.org/dc/dcmitype/StillImage" />
        <dc:title></dc:title>
      </cc:Work>
    </rdf:RDF>
  </metadata>
  <g
     inkscape:label="Layer 1"
     inkscape:groupmode="layer"
     id="layer1">
    <g
       transform="matrix(-1,0,0,1,270.45172,-46.681036)"
       id="g7134" />
    <g
       transform="matrix(-4.2809382,0,0,4.2506471,1003.5719,-2497.5378)"
       id="g4943"
       style="display:inline">
      <path
         sodipodi:nodetypes="cccsssccssc"
         id="path4984"
         d="m 201.92989,686.02586 c 0,3.45232 -0.37818,26.77711 -1.09535,30.01465 -1.76377,8.88175 -7.47321,13.99537 -16.04706,15.94165 -3.98502,0.7434 -8.51783,-15.55751 -13.43722,-15.64836 -4.91939,-0.0909 -10.22535,16.02838 -15.75668,16.02838 -5.55727,0 -10.88704,-16.12835 -15.82585,-16.05348 -4.9388,0.0749 -9.48664,16.35298 -13.48001,15.58219 -9.04184,-1.50054 -13.76948,-7.68556 -15.99884,-16.14255 -0.67582,-3.14764 -1.03162,-26.37389 -1.03162,-29.72248 0,-25.57764 20.75867,-46.33631 46.33632,-46.33631 25.57764,0 46.33631,20.75867 46.33631,46.33631 z"
         style="fill:#c87137;fill-opacity:1;stroke:none" />
      <path
         transform="matrix(0.7128664,0,0,0.7128664,13.0203,379.94798)"
         d="m 255,417.86218 c 0,8.56042 -6.93959,15.5 -15.5,15.5 -8.56041,0 -15.5,-6.93958 -15.5,-15.5 0,-8.56041 6.93959,-15.5 15.5,-15.5 8.56041,0 15.5,6.93959 15.5,15.5 z"
         sodipodi:ry="15.5"
         sodipodi:rx="15.5"
         sodipodi:cy="417.86218"
         sodipodi:cx="239.5"
         id="path4990"
         style="fill:#ffffff;fill-opacity:1;stroke:none"
         sodipodi:type="arc" />
      <path
         transform="matrix(0.4369181,0,0,0.4369181,82.67424,495.9692)"
         d="m 255,417.86218 c 0,8.56042 -6.93959,15.5 -15.5,15.5 -8.56041,0 -15.5,-6.93958 -15.5,-15.5 0,-8.56041 6.93959,-15.5 15.5,-15.5 8.56041,0 15.5,6.93959 15.5,15.5 z"
         sodipodi:ry="15.5"
         sodipodi:rx="15.5"
         sodipodi:cy="417.86218"
         sodipodi:cx="239.5"
         id="path4994"
         style="fill:#000000;fill-opacity:1;stroke:none"
         sodipodi:type="arc" />
      <path
         style="fill:#000000;fill-rule:evenodd;stroke:none"
         d="m 108.94063,703.44381 c 36.73049,-13.59995 57.10773,-33.92799 77.78175,-53.03301 1.34475,0.59979 2.58937,1.29971 3.0052,2.82842 -17.38021,17.73274 -33.8719,35.40994 -80.61017,54.97756 -0.88087,-1.59099 -1.17527,-3.18198 -0.17678,-4.77297 z"
         id="path5016"
         sodipodi:nodetypes="ccccc" />
      <path
         sodipodi:type="arc"
         style="fill:#000000;fill-opacity:1;stroke:none"
         id="path4998"
         sodipodi:cx="239.5"
         sodipodi:cy="417.86218"
         sodipodi:rx="15.5"
         sodipodi:ry="15.5"
         d="m 255,417.86218 c 0,8.56042 -6.93959,15.5 -15.5,15.5 -8.56041,0 -15.5,-6.93958 -15.5,-15.5 0,-8.56041 6.93959,-15.5 15.5,-15.5 8.56041,0 15.5,6.93959 15.5,15.5 z"
         transform="matrix(0.7128664,0,0,0.7128664,-15.49436,379.94799)" />
      <path
         style="fill:#ff0000;fill-rule:evenodd;stroke:none"
         d="m 106.72549,679.42961 c 22.22463,1.2651 46.14752,-16.22323 73.25,-35.25 -36.70369,-24.71655 -71.84396,3.72381 -73.25,35.25 z"
         id="path5113"
         sodipodi:nodetypes="ccc" />
      <path
         id="path2901"
         d="m 156.816,637.60365 c -0.87698,0.52431 -0.38045,1.56698 0.70794,2.29091 0.22072,0.0113 0.42813,-0.0591 0.61955,-0.12649 -0.12119,0.51926 -0.0245,0.65733 -0.12589,1.34469 0.69038,-0.28011 1.03335,-0.38346 1.65877,-0.447 -0.0242,-0.44056 0.0747,-0.41629 0.0295,-0.77857 0.17059,0.0734 0.34244,0.1002 0.54309,0.11053 1.99911,-0.25925 1.80233,-1.94029 0.10992,-2.50733 -0.5253,-0.0271 -0.95276,0.17838 -1.22711,0.53081 -0.42218,-0.32817 -0.97252,-0.47515 -1.46596,-0.68525 -0.35763,0.0559 -0.64742,0.14672 -0.84979,0.2677 z m -6.14725,5.73487 c -0.37399,0.21336 -0.69744,0.65885 -0.89555,1.27806 0.0182,0.52568 0.2623,0.95061 0.63703,1.19365 -0.29405,0.45994 -0.41123,0.99537 -0.55968,1.5157 0.42758,1.94583 2.12459,1.62368 2.55185,-0.0758 -0.008,-0.2209 -0.0659,-0.42051 -0.14951,-0.60541 0.26979,0.0389 0.25994,0.0294 0.57502,0.0592 -0.0109,-0.58848 -0.0116,-1.01099 0.40065,-1.67165 -0.58739,0.0798 -0.58026,-0.0318 -1.03706,0.0657 0.0584,-0.1763 0.12638,-0.37945 0.11943,-0.58023 -0.28847,-1.24498 -1.01886,-1.53481 -1.64218,-1.17923 z m 5.76684,-1.03366 c -2.52622,1.5494 -3.88115,3.95319 -3.01454,5.36616 0.62902,1.02559 2.26554,1.2489 4.07428,0.70154 0.0731,0.13714 0.13365,0.26957 0.21706,0.40556 1.26052,2.05524 3.22705,3.15408 4.38313,2.44503 1.15607,-0.70903 1.06807,-2.96003 -0.19247,-5.01527 -0.10188,-0.1661 -0.20935,-0.31634 -0.31958,-0.46941 1.13505,-1.29811 1.59166,-2.72631 1.00178,-3.68808 -0.8666,-1.41298 -3.62344,-1.29493 -6.14966,0.25447 z m 2.52175,1.11507 c 0.36859,-0.22607 0.84489,-0.12071 1.06316,0.23517 0.21828,0.35588 0.0963,0.8282 -0.27232,1.05426 -0.36859,0.22607 -0.84489,0.12071 -1.06316,-0.23517 -0.21828,-0.35589 -0.0963,-0.82819 0.27232,-1.05426 z m -2.36335,1.82974 c 0.36858,-0.22606 0.84489,-0.12071 1.06316,0.23518 0.21827,0.35588 0.0963,0.82819 -0.27232,1.05426 -0.3686,0.22607 -0.84489,0.12071 -1.06317,-0.23517 -0.21828,-0.35589 -0.0963,-0.8282 0.27233,-1.05427 z m 8.25513,-2.40136 c -0.37398,0.21337 -0.72046,0.67299 -0.91858,1.29219 0.008,0.23888 0.0674,0.43261 0.16364,0.62845 -0.47373,-0.0824 -0.60782,-0.13149 -1.25259,-0.18237 -0.20698,0.39334 -0.36966,0.68123 -0.70766,1.06777 0.20762,0.23027 0.23261,0.48259 0.39173,0.74203 0.99043,-0.137 1.38437,-0.18922 1.9931,-0.36685 -0.18607,0.2624 -0.32734,0.61974 -0.31469,0.98519 0.44276,1.92192 2.13171,1.64662 2.55185,-0.0758 -0.0257,-0.74255 -0.52143,-1.34903 -1.15342,-1.41563 0.57363,-0.34962 0.65866,-0.85655 0.86577,-1.48161 -0.28848,-1.24496 -0.99582,-1.54892 -1.61915,-1.19335 z m -7.59356,6.11494 c -0.29825,0.95526 0.24993,1.96301 0.41475,3.10446 -0.24544,-0.20794 -0.58808,-0.34716 -0.95326,-0.36597 -1.977,0.27045 -1.753,1.96099 -0.0958,2.53036 0.74201,0.0382 1.35143,-0.43739 1.4721,-1.06132 0.31689,0.6031 0.80868,0.76707 1.42298,1.02849 1.99911,-0.25928 1.81122,-1.97744 0.11883,-2.54448 -0.2387,-0.0123 -0.46742,0.0155 -0.67082,0.0946 0.0921,-0.34839 -0.0156,-0.47975 0.0651,-0.92717 -0.54877,-0.4473 -0.72766,-0.72142 -1.16754,-1.43864 -0.0834,-0.13598 -0.53324,-0.28316 -0.60634,-0.42029 z m 1.72353,0.0203 2.48678,-1.5252 0.33893,0.55261 -2.48677,1.5252 -0.33894,-0.55261 z"
         style="fill:#ffffff;fill-opacity:1;stroke:none" />
      <path
         style="fill:#ff0000;fill-rule:evenodd;stroke:none"
         d="m 83.78439,674.18891 c 0,0 23.48188,-6.45517 19.95191,5.47353 -2.14258,7.24037 -17.77342,-3.3647 -19.95191,-5.47353 z"
         id="path5119"
         sodipodi:nodetypes="csc" />
      <path
         sodipodi:nodetypes="csc"
         id="path5121"
         d="m 86.84178,697.26453 c 0,0 15.95112,-23.66444 21.78836,-10.63431 3.54304,7.90892 -18.27368,10.77951 -21.78836,10.63431 z"
         style="fill:#ff0000;fill-rule:evenodd;stroke:none" />
      <path
         sodipodi:type="arc"
         style="fill:#ff0000;fill-opacity:1;stroke:none"
         id="path5123"
         sodipodi:cx="154.5"
         sodipodi:cy="292"
         sodipodi:rx="4"
         sodipodi:ry="4"
         d="m 158.5,292 c 0,2.20914 -1.79086,4 -4,4 -2.20914,0 -4,-1.79086 -4,-4 0,-2.20914 1.79086,-4 4,-4 2.20914,0 4,1.79086 4,4 z"
         transform="matrix(1.4125247,0,0,1.4125247,-112.90968,268.08805)" />
    </g>
    <g
       transform="matrix(0.2046092,0,0,0.2046092,6.7986924,846.06528)"
       id="g2779"
       style="display:inline">
      <path
         style="fill:#000000;fill-opacity:1;fill-rule:evenodd;stroke:none"
         d="m 127.1141,465.5924 c -35.300053,0 -60.21904,38.6535 -57.254704,64.23732 1.901838,16.41387 11.792236,18.92871 26.151584,45.25418 8.69941,15.94894 15.54941,37.69048 4.18159,44.27185 -11.367805,6.58136 -46.661319,24.53204 -46.66132,24.53204 l 0,87.36221 175.29525,0 c 0,0 1.79399,-5.38513 0.59737,-16.75294 14.4462,0.772 24.77556,1.18521 40.09025,-1.20802 21.31527,-8.62953 32.90391,-15.3742 46.6746,-22.12928 3.11134,-3.5719 8.36508,-28.72338 7.16845,-39.49287 -1.1786,-10.60739 -2.34681,-28.75851 -7.52688,-43.59483 8.3e-4,-0.44645 -0.0179,-0.89835 -0.0531,-1.35404 2.12667,-7.79074 2.86704,-11.51149 5.1905,-19.06277 2.39322,-7.77798 -7.76957,-7.78304 -5.37635,-13.76609 2.39323,-5.98306 4.17881,-1.79249 5.97372,-18.54506 1.79491,-16.75257 -4.91466,-18.40695 -8.97384,-24.53204 1.34117,-5.11138 1.95877,-8.17552 -5.51554,-14.22426 -3.25874,-2.6372 -5.51622,-4.12002 -9.64008,-4.35654 -4.12387,-0.23652 -9.74583,-0.3316 -17.52381,-0.92991 0.0461,-0.0643 -0.22234,6.74584 -0.0899,6.84948 -0.23003,0 -6.84364,-9.90578 -10.99505,-6.2028 -3.96338,3.53527 4.41943,15.92587 4.41942,15.64808 0.2646,0.0691 -8.37525,-0.78593 -9.12177,3.21595 -0.73118,3.91963 5.80908,5.29787 5.71732,5.38962 -0.0918,-0.27652 -6.04965,-0.95916 -5.84323,3.76399 0.22247,5.0907 8.74474,5.42169 8.74475,5.57813 -4.06761,10.16901 -18.23708,43.49394 -27.76126,66.03284 2.99153,6.58137 29.92165,8.98712 29.92165,8.98712 0,0 2.85617,17.14346 -4.19487,23.9214 -9.5729,1.48122 -44.45528,-2.61966 -67.60915,-14.35019 -19.7441,-4.18813 -29.55729,-0.73348 -40.68761,-3.00013 1.30352,-11.96136 1.80539,-18.54505 1.80539,-18.54505 0,0 15.5582,-2.39473 15.5582,-24.53204 0,-22.13733 9.49509,-24.02118 7.16845,-35.89538 -1.88729,-9.63196 -5.41015,-15.70898 2.24346,-24.06742 5.80233,-8.99952 6.73019,-22.60549 -1.64608,-32.17839 C 175.82743,478.52903 162.41416,465.5924 127.1141,465.5924 z m 155.96698,49.91368 c -0.10614,0.0988 3.80594,0.39896 8.2039,0.6903 0.47772,3.21863 5.55402,7.75679 8.60214,10.22168 -0.26065,0.58708 -0.5286,1.15151 -0.7965,1.71246 l -15.65075,-0.27876 c 0.081,-0.18828 -0.5554,-12.11226 -0.35879,-12.34568 z m -6.73683,31.11299 c 1.55143,0.76638 4.47537,1.15556 6.71028,1.7557 -2.90169,0.74237 -5.44625,0.71757 -5.74804,3.11998 -0.42247,3.36305 6.60726,5.55847 12.81675,7.36113 -1.66394,0.58809 -4.70748,1.99249 -4.84156,3.63392 -0.41387,5.06693 10.07685,7.22664 19.4011,9.07017 1.20796,7.63989 2.85866,17.65625 4.21801,25.52047 -23.89529,-2.09457 -38.5369,-3.46737 -53.41826,0.41152 6.30591,-14.9409 13.9874,-34.62278 20.86172,-50.87289 z"
         id="path2781"
         sodipodi:nodetypes="csssccccccsccssscsscczczczcccccccsscscccccccccscscccc" />
    </g>
    <text
       xml:space="preserve"
       style="font-size:24px;font-style:normal;font-variant:normal;font-weight:normal;font-stretch:normal;text-align:center;line-height:100%;writing-mode:lr-tb;text-anchor:middle;fill:#000000;fill-opacity:1;stroke:none;font-family:URW Gothic L;-inkscape-font-specification:URW Gothic L Book"
       x="385.03497"
       y="714.1994"
       id="text4758"
       sodipodi:linespacing="100%"><tspan
         sodipodi:role="line"
         id="tspan3155"
         x="385.03497"
         y="714.1994">A Computer Security Competition</tspan><tspan
         sodipodi:role="line"
         id="tspan3159"
         x="385.03497"
         y="738.1994">Presented by Los Alamos National Laboratory</tspan><tspan
         sodipodi:role="line"
         x="385.03497"
         y="762.1994"
         id="tspan2931">and New Mexico Tech</tspan><tspan
         sodipodi:role="line"
         id="tspan3161"
         x="388.3631"
         y="786.1994"> </tspan><tspan
         sodipodi:role="line"
         id="tspan3163"
         x="385.03497"
         y="810.1994">Sat &amp; Sun, Nov 5 – 6, 10 a.m. – 6 p.m.</tspan><tspan
         sodipodi:role="line"
         id="tspan3165"
         x="385.03497"
         y="834.1994">Fidel Ballroom 3,</tspan><tspan
         sodipodi:role="line"
         id="tspan3167"
         x="385.03497"
         y="858.1994">New Mexico Tech</tspan><tspan
         sodipodi:role="line"
         id="tspan3169"
         x="388.3631"
         y="882.1994"> </tspan><tspan
         sodipodi:role="line"
         id="tspan3171"
         x="385.03497"
         y="906.1994">Register by November 15</tspan><tspan
         sodipodi:role="line"
         id="tspan3173"
         x="385.03497"
         y="930.1994">http://dirtbags.net/ctf/</tspan><tspan
         sodipodi:role="line"
         id="tspan3175"
         x="385.03497"
         y="954.1994" /></text>
    <text
       xml:space="preserve"
       style="font-size:40px;font-style:normal;font-variant:normal;font-weight:normal;font-stretch:normal;text-align:start;line-height:100%;writing-mode:lr-tb;text-anchor:start;fill:#000000;fill-opacity:1;stroke:none;font-family:URW Gothic L;-inkscape-font-specification:URW Gothic L"
       x="368.97998"
       y="86.756401"
       id="text2833"
       sodipodi:linespacing="100%"><tspan
         sodipodi:role="line"
         x="374.52686"
         y="86.756401"
         id="tspan2927"
         style="text-align:center;text-anchor:middle">The NM Collegiate Security Series </tspan><tspan
         sodipodi:role="line"
         x="368.97998"
         y="126.7564"
         style="text-align:center;text-anchor:middle"
         id="tspan2868">NMT CTF Invitational 2011</tspan></text>
  </g>
</svg>
