<?xml version="1.0" encoding="UTF-8" standalone="no"?>
<!-- Created with Inkscape (http://www.inkscape.org/) -->

<svg
   xmlns:dc="http://purl.org/dc/elements/1.1/"
   xmlns:cc="http://creativecommons.org/ns#"
   xmlns:rdf="http://www.w3.org/1999/02/22-rdf-syntax-ns#"
   xmlns:svg="http://www.w3.org/2000/svg"
   xmlns="http://www.w3.org/2000/svg"
   xmlns:sodipodi="http://sodipodi.sourceforge.net/DTD/sodipodi-0.dtd"
   xmlns:inkscape="http://www.inkscape.org/namespaces/inkscape"
   width="567.65729"
   height="558.58429"
   id="svg2"
   sodipodi:version="0.32"
   inkscape:version="0.48.3.1 r9886"
   version="1.0"
   sodipodi:docname="standie.svg"
   inkscape:output_extension="org.inkscape.output.svg.inkscape">
  <defs
     id="defs4">
    <inkscape:perspective
       sodipodi:type="inkscape:persp3d"
       inkscape:vp_x="0 : 526.18109 : 1"
       inkscape:vp_y="0 : 1000 : 0"
       inkscape:vp_z="744.09448 : 526.18109 : 1"
       inkscape:persp3d-origin="372.04724 : 350.78739 : 1"
       id="perspective10" />
    <inkscape:perspective
       sodipodi:type="inkscape:persp3d"
       inkscape:vp_x="0 : 526.18109 : 1"
       inkscape:vp_y="0 : 1000 : 0"
       inkscape:vp_z="744.09448 : 526.18109 : 1"
       inkscape:persp3d-origin="372.04724 : 350.78739 : 1"
       id="perspective2447" />
    <inkscape:perspective
       id="perspective2547"
       inkscape:persp3d-origin="372.04724 : 350.78739 : 1"
       inkscape:vp_z="744.09448 : 526.18109 : 1"
       inkscape:vp_y="0 : 1000 : 0"
       inkscape:vp_x="0 : 526.18109 : 1"
       sodipodi:type="inkscape:persp3d" />
  </defs>
  <sodipodi:namedview
     id="base"
     pagecolor="#ffffff"
     bordercolor="#666666"
     borderopacity="1.0"
     gridtolerance="10000"
     guidetolerance="10"
     objecttolerance="10"
     inkscape:pageopacity="0.0"
     inkscape:pageshadow="2"
     inkscape:zoom="0.66"
     inkscape:cx="464.11373"
     inkscape:cy="265.57531"
     inkscape:document-units="in"
     inkscape:current-layer="layer3"
     showgrid="true"
     units="in"
     inkscape:window-width="1020"
     inkscape:window-height="580"
     inkscape:window-x="0"
     inkscape:window-y="16"
     inkscape:snap-global="false"
     borderlayer="false"
     fit-margin-top="0"
     fit-margin-left="0"
     fit-margin-right="0"
     fit-margin-bottom="0"
     inkscape:window-maximized="0" />
  <metadata
     id="metadata7">
    <rdf:RDF>
      <cc:Work
         rdf:about="">
        <dc:format>image/svg+xml</dc:format>
        <dc:type
           rdf:resource="http://purl.org/dc/dcmitype/StillImage" />
        <dc:title></dc:title>
      </cc:Work>
    </rdf:RDF>
  </metadata>
  <g
     inkscape:label="Layer 1"
     inkscape:groupmode="layer"
     id="layer1"
     transform="translate(-81.606098,-393.35612)">
    <g
       id="layer4"
       inkscape:label="dirtbags"
       style="display:none"
       transform="translate(-308.19052,44.944851)">
      <text
         xml:space="preserve"
         style="font-size:48px;font-style:normal;font-variant:normal;font-weight:bold;font-stretch:condensed;text-align:start;line-height:125%;writing-mode:lr-tb;text-anchor:start;fill:#ffffff;fill-opacity:1;stroke:none;font-family:Nimbus Sans L;-inkscape-font-specification:Nimbus Sans L Bold Condensed"
         x="527.22546"
         y="731.11957"
         id="text3300"
         sodipodi:linespacing="125%"><tspan
           sodipodi:role="line"
           id="tspan3302"
           x="527.22546"
           y="731.11957">dirtbags</tspan></text>
    </g>
    <g
       id="layer2"
       inkscape:label="dirtbags.net"
       style="display:none"
       transform="translate(-308.19052,44.944851)">
      <text
         xml:space="preserve"
         style="font-size:40px;font-style:normal;font-variant:normal;font-weight:bold;font-stretch:condensed;text-align:start;line-height:125%;writing-mode:lr-tb;text-anchor:start;fill:#ffffff;fill-opacity:1;stroke:none;font-family:Nimbus Sans L;-inkscape-font-specification:Nimbus Sans L Bold Condensed"
         x="502.14645"
         y="731.11957"
         id="text3308"
         sodipodi:linespacing="125%"><tspan
           sodipodi:role="line"
           id="tspan3310"
           x="502.14645"
           y="731.11957">dirtbags.net</tspan></text>
    </g>
    <text
       sodipodi:linespacing="125%"
       id="text3272"
       y="894.32263"
       x="-229.31424"
       style="font-size:85.50655365px;font-style:normal;font-variant:normal;font-weight:bold;font-stretch:condensed;text-align:start;line-height:125%;writing-mode:lr-tb;text-anchor:start;fill:#ffffff;fill-opacity:1;stroke:none;font-family:Nimbus Sans L;-inkscape-font-specification:Nimbus Sans L Bold Condensed"
       xml:space="preserve"><tspan
         y="894.32263"
         x="-229.31424"
         id="tspan3274"
         sodipodi:role="line" /></text>
    <path
       inkscape:connector-curvature="0"
       sodipodi:nodetypes="csssccccccsccssscsscczczczcccccccsscscccccccccscscccc"
       id="path3227"
       d="m 237.10962,395.11548 c -73.75601,0 -125.82179,80.76271 -119.6281,134.21759 3.9737,34.29517 24.63872,39.54969 54.64117,94.55418 18.17657,33.32375 32.48898,78.75056 8.73703,92.50169 -23.75192,13.75111 -97.49426,51.25729 -97.49426,51.25729 l 0,182.53479 366.26226,0 c 0,0 3.74836,-11.2517 1.24814,-35.00363 30.18392,1.61302 51.76611,2.47638 83.76465,-2.52404 44.53618,-18.03055 68.7495,-32.12288 97.52201,-46.23696 6.50084,-7.46313 17.47802,-60.01468 14.97778,-82.51648 -2.46257,-22.16311 -4.90343,-60.08809 -15.72668,-91.08713 0.002,-0.93282 -0.0373,-1.87702 -0.11095,-2.82914 4.44346,-16.27798 5.9904,-24.05213 10.84504,-39.82979 5.0004,-16.25132 -16.23376,-16.2619 -11.23336,-28.76289 5.00042,-12.50102 8.73121,-3.74524 12.48151,-38.7481 3.75028,-35.00285 -10.2687,-38.45951 -18.74997,-51.25729 2.80225,-10.67972 4.09267,-17.08195 -11.52418,-29.7202 -6.80882,-5.51017 -11.5256,-8.60838 -20.142,-9.10256 -8.61643,-0.49419 -20.36296,-0.69285 -36.61428,-1.94295 0.0963,-0.13446 -0.46456,14.09477 -0.18782,14.31131 -0.48062,0 -14.29912,-20.69715 -22.97308,-12.96014 -8.28109,7.3866 9.23397,33.27555 9.23395,32.69513 0.55285,0.14444 -17.49927,-1.64213 -19.05905,6.71941 -1.52773,8.18969 12.13751,11.06938 11.94578,11.26108 -0.19173,-0.57775 -12.64015,-2.00407 -12.20886,7.8645 0.46483,10.63652 18.27128,11.32808 18.2713,11.65495 -8.49887,21.24715 -38.10459,90.87633 -58.00443,137.96916 6.2505,13.75112 62.51836,18.7777 62.51836,18.7777 0,0 5.96768,35.81958 -8.76477,49.98142 -20.00164,3.09487 -92.88496,-5.47352 -141.2627,-29.98331 -41.25336,-8.75069 -61.75707,-1.53254 -85.01278,-6.26848 2.72358,-24.99209 3.77219,-38.74807 3.77219,-38.74807 0,0 32.50733,-5.00355 32.50733,-51.25729 0,-46.25378 19.83906,-50.1899 14.97778,-74.99988 -3.94331,-20.12504 -11.30398,-32.82238 4.68748,-50.28652 12.1234,-18.80361 14.06208,-47.23196 -3.43931,-67.2336 -24.47545,-27.97193 -52.50117,-55.00175 -126.25718,-55.00175 z m 325.87772,104.28975 c -0.22176,0.20643 7.95214,0.83358 17.14125,1.44231 0.99815,6.72502 11.60458,16.20706 17.97333,21.3572 -0.5446,1.22664 -1.10445,2.40596 -1.66421,3.57802 l -32.7007,-0.58245 c 0.16917,-0.39339 -1.16046,-25.30738 -0.74967,-25.79508 z m -14.07593,65.00754 c 3.24155,1.60128 9.35084,2.41443 14.02047,3.66837 -6.0628,1.55111 -11.37941,1.49929 -12.00997,6.51889 -0.88271,7.02676 13.80522,11.61388 26.77934,15.38036 -3.47664,1.22876 -9.83582,4.16311 -10.11596,7.59272 -0.86475,10.58685 21.05459,15.09936 40.5367,18.95123 2.52391,15.9628 5.97288,36.891 8.81312,53.32252 -49.92687,-4.37639 -80.51908,-7.24473 -111.61223,0.85983 13.17559,-31.21754 29.2253,-72.3409 43.58853,-106.29392 z"
       style="fill:#008080;stroke:#000000;stroke-width:3.51872301;stroke-linecap:butt;stroke-linejoin:miter;stroke-miterlimit:4;stroke-opacity:1;stroke-dasharray:none" />
    <g
       id="layer3"
       inkscape:label="dirtbags rot"
       style="display:inline"
       transform="matrix(2.0894021,0,0,2.0894021,-692.3033,-0.93221)">
      <g
         id="g3070">
        <g
           id="text3166"
           style="font-size:34.41987228px;font-style:normal;font-variant:normal;font-weight:normal;font-stretch:normal;text-align:start;line-height:125%;writing-mode:lr-tb;text-anchor:start;fill:#000000;fill-opacity:1;stroke:none;display:inline;font-family:FreeSans;-inkscape-font-specification:FreeSans"
           transform="matrix(0.387016,-0.922073,0.922073,0.387016,0,0)">
          <path
             id="path3052"
             d="m -73.847646,590.15248 0,25.09209 -2.547071,0 0,-2.37497 c -0.780197,1.12438 -1.62922,1.92751 -2.54707,2.40939 -0.894928,0.50482 -1.961943,0.75723 -3.201048,0.75723 -2.432344,0 -4.348382,-0.87197 -5.748119,-2.61591 -1.399743,-1.76688 -2.099613,-4.17627 -2.099612,-7.22817 -10e-7,-2.86831 0.699869,-5.16297 2.099612,-6.88397 1.422684,-1.74393 3.304302,-2.61589 5.644859,-2.61591 2.47822,2e-5 4.325418,0.92935 5.5416,2.78801 l 0,-9.32779 2.856849,0 m -7.916571,9.22453 c -1.560375,10e-6 -2.822435,0.64252 -3.786186,1.92751 -0.96376,1.28502 -1.445638,2.97159 -1.445634,5.05972 -4e-6,2.11109 0.481874,3.80914 1.445634,5.09414 0.963751,1.26207 2.237285,1.8931 3.820606,1.89309 1.514464,1e-5 2.730632,-0.63102 3.648507,-1.89309 0.917849,-1.26206 1.37678,-2.93715 1.376795,-5.0253 -1.5e-5,-2.15697 -0.458946,-3.86649 -1.376795,-5.12856 -0.917875,-1.28499 -2.145516,-1.9275 -3.682927,-1.92751"
             inkscape:connector-curvature="0" />
          <path
             id="path3054"
             d="m -66.630228,597.20855 0,18.03602 -2.85685,0 0,-18.03602 2.85685,0 m 0,-7.05607 0,3.61409 -2.89127,0 0,-3.61409 2.89127,0"
             inkscape:connector-curvature="0" />
          <path
             id="path3056"
             d="m -53.080631,599.72121 c -1.927522,0.0459 -3.373155,0.49336 -4.336904,1.34237 -0.963762,0.84904 -1.44564,2.4553 -1.445634,4.81878 l 0,9.36221 -2.89127,0 0,-18.03602 2.650331,0 0,3.26989 c 0.826071,-1.35383 1.617727,-2.31758 2.374971,-2.89127 0.780175,-0.59659 1.629198,-0.89489 2.54707,-0.89491 0.252402,2e-5 0.619547,0.0344 1.101436,0.10326 l 0,2.92569"
             inkscape:connector-curvature="0" />
          <path
             id="path3058"
             d="m -43.958288,597.20855 0,2.34056 -2.960109,0 0,12.35673 c -6e-6,0.64251 0.103254,1.07849 0.309779,1.30796 0.22946,0.20652 0.653971,0.30978 1.273535,0.30977 0.573657,1e-5 1.032588,-0.0459 1.376795,-0.13768 l 0,2.4094 c -0.894924,0.16062 -1.675107,0.24093 -2.340551,0.24093 -1.124388,0 -1.984884,-0.25241 -2.581491,-0.75723 -0.596614,-0.48188 -0.894919,-1.18175 -0.894916,-2.09961 l 0,-13.63027 -2.443811,0 0,-2.34056 2.443811,0 0,-4.95646 2.856849,0 0,4.95646 2.960109,0"
             inkscape:connector-curvature="0" />
          <path
             id="path3060"
             d="m -41.296127,590.15248 2.856849,0 0,9.49989 c 1.307949,-1.97339 3.16662,-2.96009 5.576019,-2.96011 2.386432,2e-5 4.26805,0.84904 5.644859,2.54707 1.376778,1.69806 2.065175,4.00419 2.065193,6.91839 -1.8e-5,2.98306 -0.711362,5.38098 -2.134032,7.19375 -1.422703,1.78984 -3.327267,2.68475 -5.713699,2.68475 -2.455292,0 -4.359856,-1.03259 -5.713699,-3.09778 l 0,2.30613 -2.58149,0 0,-25.09209 m 7.88215,9.22453 c -1.514482,10e-6 -2.73065,0.64252 -3.648506,1.92751 -0.917868,1.26207 -1.3768,2.94865 -1.376795,5.05972 -5e-6,2.11109 0.458927,3.80914 1.376795,5.09414 0.917856,1.26207 2.134024,1.8931 3.648506,1.89309 1.560357,1e-5 2.822417,-0.63102 3.786186,-1.89309 0.986689,-1.285 1.48004,-2.94863 1.480055,-4.99088 -1.5e-5,-2.15697 -0.481893,-3.87796 -1.445635,-5.16298 -0.940822,-1.28499 -2.214356,-1.9275 -3.820606,-1.92751"
             inkscape:connector-curvature="0" />
          <path
             id="path3062"
             d="m -21.758009,602.54363 c 0.137678,-3.9009 2.547066,-5.85135 7.228174,-5.85137 2.225806,2e-5 3.912378,0.42453 5.0597208,1.27353 1.1473134,0.8261 1.7209774,2.04226 1.7209936,3.64851 l 0,10.60132 c -1.62e-5,0.94081 0.5162813,1.41122 1.5488943,1.41121 0.2065012,10e-6 0.4130202,-0.0229 0.6195577,-0.0688 l 0,2.16846 c -0.803148,0.20651 -1.4571249,0.30977 -1.9619327,0.30977 -0.9178788,0 -1.6177489,-0.21799 -2.0996123,-0.65397 -0.4589454,-0.41304 -0.7457774,-1.07849 -0.8604964,-1.99636 -1.927525,1.76689 -3.969768,2.65033 -6.126738,2.65033 -1.812785,0 -3.258418,-0.48187 -4.336904,-1.44563 -1.055544,-0.96375 -1.583315,-2.26024 -1.583314,-3.88945 -1e-6,-0.52776 0.04589,-1.00964 0.13768,-1.44563 0.114731,-0.43598 0.229464,-0.8146 0.344199,-1.13586 0.137677,-0.34419 0.367143,-0.65397 0.688397,-0.92933 0.321249,-0.2983 0.585135,-0.53924 0.791657,-0.72282 0.229462,-0.18356 0.596607,-0.35566 1.101436,-0.5163 0.527766,-0.18356 0.929331,-0.30977 1.204696,-0.37862 0.275352,-0.0918 0.75723,-0.19503 1.445634,-0.30978 0.68839,-0.11472 1.193214,-0.19503 1.514475,-0.24093 0.321243,-0.0459 0.894907,-0.1262 1.720993,-0.24094 1.124371,-0.13767 1.904554,-0.35566 2.340551,-0.65398 0.435972,-0.2983 0.653965,-0.74575 0.653978,-1.34238 l 0,-0.75723 c -1.3e-5,-0.87196 -0.355685,-1.53741 -1.067016,-1.99636 -0.688409,-0.45891 -1.675111,-0.68838 -2.960109,-0.68839 -1.33091,10e-6 -2.340558,0.2639 -3.028949,0.79165 -0.688403,0.50484 -1.089968,1.30797 -1.204695,2.40939 l -2.89127,0 m 5.748119,10.97994 c 1.583305,1e-5 2.879785,-0.41303 3.889446,-1.23911 1.009636,-0.84902 1.514461,-1.75541 1.514474,-2.71917 l 0,-3.23547 c -0.573677,0.27537 -1.445647,0.50483 -2.61591,0.6884 -1.147339,0.18358 -2.145514,0.34421 -2.994529,0.48188 -0.849031,0.13768 -1.61774,0.47041 -2.306132,0.99817 -0.688402,0.50483 -1.0326,1.21618 -1.032596,2.13403 -4e-6,0.91787 0.309774,1.62922 0.929337,2.13404 0.619551,0.50482 1.491521,0.75724 2.61591,0.75723"
             inkscape:connector-curvature="0" />
          <path
             id="path3064"
             d="m 3.1937101,616.03622 c -2.1110918,0 -3.87797685,-0.86049 -5.3006604,-2.58149 -1.4226897,-1.74393 -2.134033,-4.05006 -2.134032,-6.91839 -1e-6,-2.93715 0.699869,-5.31212 2.0996122,-7.12491 1.42268351,-1.81277 3.2813548,-2.71915 5.5760193,-2.71917 2.2487541,2e-5 4.0844787,1.04408 5.5071796,3.13221 l 0,-2.61592 2.6503302,0 0,15.07591 c -1.7e-5,1.72099 -0.103276,3.15515 -0.309779,4.30248 -0.206535,1.17028 -0.585154,2.24876 -1.135856,3.23547 -0.5507325,0.9867 -1.3768086,1.72099 -2.4782305,2.20287 -1.0785012,0.48187 -2.4552947,0.72281 -4.1303847,0.72282 -2.1110922,-10e-6 -3.79766422,-0.48189 -5.0597212,-1.44563 -1.2620645,-0.96377 -1.9734078,-2.29467 -2.1340321,-3.99271 l 2.92568914,0 c 0.32124731,2.0193 1.77835376,3.02894 4.37132376,3.02895 1.9275021,-10e-6 3.2469292,-0.55072 3.9582853,-1.65215 0.7113305,-1.0785 1.0670022,-2.73065 1.0670161,-4.95647 l 0,-0.92933 c -0.8031435,1.14733 -1.6406929,1.9734 -2.5126507,2.47823 -0.8490341,0.50482 -1.8357361,0.75723 -2.960109,0.75723 M 3.744428,599.34259 c -1.5374284,10e-6 -2.75359598,0.63104 -3.64850643,1.89309 -0.89492112,1.26207 -1.34237897,2.97159 -1.34237497,5.12856 -4e-6,2.17993 0.44745385,3.90092 1.34237497,5.16298 0.89491045,1.23912 2.12255133,1.85868 3.68292633,1.85867 1.5144639,10e-6 2.7076849,-0.60808 3.5796667,-1.82425 0.8719567,-1.23911 1.3079413,-2.93715 1.3079552,-5.09414 -1.39e-5,-2.24875 -0.4359985,-3.99269 -1.3079552,-5.23182 C 6.5094794,599.97363 5.304785,599.3426 3.744428,599.34259"
             inkscape:connector-curvature="0" />
          <path
             id="path3066"
             d="m 18.119566,609.87507 c 0.137675,1.07849 0.50482,1.93899 1.101436,2.58149 0.619552,0.61956 1.720986,0.92934 3.304308,0.92933 1.262052,10e-6 2.2717,-0.25241 3.028948,-0.75723 0.780172,-0.52777 1.170263,-1.21617 1.170276,-2.06519 -1.3e-5,-0.66545 -0.218005,-1.19322 -0.653978,-1.58332 -0.435996,-0.39008 -1.14734,-0.69986 -2.134032,-0.92934 l -2.68475,-0.65397 c -2.134037,-0.50482 -3.625563,-1.13585 -4.474583,-1.8931 -0.826079,-0.78017 -1.239117,-1.8816 -1.239116,-3.3043 -10e-7,-1.67509 0.631029,-3.00599 1.893093,-3.99271 1.262058,-1.00963 2.937156,-1.51445 5.025302,-1.51447 2.088128,2e-5 3.694387,0.48189 4.818782,1.44563 1.124368,0.96377 1.698032,2.32909 1.720994,4.09597 l -3.028949,0 c -0.06885,-1.9275 -1.273546,-2.89126 -3.614087,-2.89127 -1.170283,10e-6 -2.099618,0.25242 -2.788009,0.75723 -0.688403,0.4819 -1.032601,1.13587 -1.032597,1.96194 -4e-6,0.64251 0.263881,1.17028 0.791657,1.58331 0.527766,0.3901 1.376789,0.72283 2.547071,0.99818 l 2.75359,0.65397 c 1.789821,0.436 3.086301,1.05556 3.889445,1.85868 0.803115,0.78019 1.20468,1.83573 1.204696,3.16663 -1.6e-5,1.74394 -0.676939,3.13221 -2.030773,4.1648 -1.330914,1.0326 -3.132219,1.54889 -5.40392,1.54889 -4.658159,0 -7.056075,-2.05371 -7.193753,-6.16115 l 3.028949,0"
             inkscape:connector-curvature="0" />
          <path
             id="path3068"
             d="m 38.289613,590.15248 0,11.63392 -0.757237,7.67563 -1.342375,0 -0.757237,-7.67563 0,-11.63392 2.856849,0 m 0,21.51242 0,3.57967 -2.891269,0 0,-3.57967 2.891269,0"
             inkscape:connector-curvature="0" />
        </g>
      </g>
    </g>
  </g>
</svg>
