<?xml version="1.0" encoding="UTF-8" standalone="no"?>
<!-- Created with Inkscape (http://www.inkscape.org/) -->

<svg
   xmlns:dc="http://purl.org/dc/elements/1.1/"
   xmlns:cc="http://creativecommons.org/ns#"
   xmlns:rdf="http://www.w3.org/1999/02/22-rdf-syntax-ns#"
   xmlns:svg="http://www.w3.org/2000/svg"
   xmlns="http://www.w3.org/2000/svg"
   xmlns:xlink="http://www.w3.org/1999/xlink"
   xmlns:sodipodi="http://sodipodi.sourceforge.net/DTD/sodipodi-0.dtd"
   xmlns:inkscape="http://www.inkscape.org/namespaces/inkscape"
   width="744.09448819"
   height="1052.3622047"
   id="svg2"
   version="1.1"
   inkscape:version="0.47 r22583"
   sodipodi:docname="invitational.svg">
  <defs
     id="defs4">
    <linearGradient
       id="linearGradient5704">
      <stop
         id="stop5706"
         offset="0"
         style="stop-color:#ffc61e;stop-opacity:1;" />
      <stop
         id="stop5708"
         offset="1"
         style="stop-color:#5960a8;stop-opacity:1;" />
    </linearGradient>
    <inkscape:perspective
       sodipodi:type="inkscape:persp3d"
       inkscape:vp_x="0 : 526.18109 : 1"
       inkscape:vp_y="0 : 1000 : 0"
       inkscape:vp_z="744.09448 : 526.18109 : 1"
       inkscape:persp3d-origin="372.04724 : 350.78739 : 1"
       id="perspective10" />
    <inkscape:perspective
       id="perspective4484"
       inkscape:persp3d-origin="360 : 240 : 1"
       inkscape:vp_z="720 : 360 : 1"
       inkscape:vp_y="0 : 1000 : 0"
       inkscape:vp_x="0 : 360 : 1"
       sodipodi:type="inkscape:persp3d" />
    <inkscape:perspective
       id="perspective5002"
       inkscape:persp3d-origin="125 : 43.333333 : 1"
       inkscape:vp_z="250 : 65 : 1"
       inkscape:vp_y="0 : 1000 : 0"
       inkscape:vp_x="0 : 65 : 1"
       sodipodi:type="inkscape:persp3d" />
    <inkscape:perspective
       id="perspective5155"
       inkscape:persp3d-origin="0.5 : 0.33333333 : 1"
       inkscape:vp_z="1 : 0.5 : 1"
       inkscape:vp_y="0 : 1000 : 0"
       inkscape:vp_x="0 : 0.5 : 1"
       sodipodi:type="inkscape:persp3d" />
    <inkscape:perspective
       id="perspective5265"
       inkscape:persp3d-origin="0.5 : 0.33333333 : 1"
       inkscape:vp_z="1 : 0.5 : 1"
       inkscape:vp_y="0 : 1000 : 0"
       inkscape:vp_x="0 : 0.5 : 1"
       sodipodi:type="inkscape:persp3d" />
    <inkscape:perspective
       id="perspective5444"
       inkscape:persp3d-origin="0.5 : 0.33333333 : 1"
       inkscape:vp_z="1 : 0.5 : 1"
       inkscape:vp_y="0 : 1000 : 0"
       inkscape:vp_x="0 : 0.5 : 1"
       sodipodi:type="inkscape:persp3d" />
    <inkscape:perspective
       sodipodi:type="inkscape:persp3d"
       inkscape:vp_x="0 : 0.5 : 1"
       inkscape:vp_y="0 : 1000 : 0"
       inkscape:vp_z="1 : 0.5 : 1"
       inkscape:persp3d-origin="0.5 : 0.33333333 : 1"
       id="perspective3798" />
    <inkscape:perspective
       id="perspective2884"
       inkscape:persp3d-origin="0.5 : 0.33333333 : 1"
       inkscape:vp_z="1 : 0.5 : 1"
       inkscape:vp_y="0 : 1000 : 0"
       inkscape:vp_x="0 : 0.5 : 1"
       sodipodi:type="inkscape:persp3d" />
    <linearGradient
       inkscape:collect="always"
       xlink:href="#linearGradient5704"
       id="linearGradient5702"
       x1="0.050339181"
       y1="9.5150194"
       x2="63.781483"
       y2="9.5150194"
       gradientUnits="userSpaceOnUse" />
    <inkscape:perspective
       id="perspective5778"
       inkscape:persp3d-origin="0.5 : 0.33333333 : 1"
       inkscape:vp_z="1 : 0.5 : 1"
       inkscape:vp_y="0 : 1000 : 0"
       inkscape:vp_x="0 : 0.5 : 1"
       sodipodi:type="inkscape:persp3d" />
    <linearGradient
       inkscape:collect="always"
       xlink:href="#linearGradient5704"
       id="linearGradient5790"
       x1="0.053257428"
       y1="17.85799"
       x2="34.701138"
       y2="17.85799"
       gradientUnits="userSpaceOnUse" />
    <clipPath
       id="clipPath4438"
       clipPathUnits="userSpaceOnUse">
      <path
         style="fill:#000000;fill-opacity:0.39130435;stroke:#000000;stroke-width:4.488029px;stroke-linecap:butt;stroke-linejoin:miter;stroke-opacity:1"
         d="m 231.70059,447.5205 346.64658,1.97238 -243.09634,277.12 -105.52258,2.46548 1.97234,-281.55786 z"
         id="path4440"
         sodipodi:nodetypes="ccccc" />
    </clipPath>
    <inkscape:perspective
       sodipodi:type="inkscape:persp3d"
       inkscape:vp_x="0 : 0.5 : 1"
       inkscape:vp_y="0 : 1000 : 0"
       inkscape:vp_z="1 : 0.5 : 1"
       inkscape:persp3d-origin="0.5 : 0.33333333 : 1"
       id="perspective4386" />
    <inkscape:perspective
       id="perspective4358"
       inkscape:persp3d-origin="372.04724 : 350.78739 : 1"
       inkscape:vp_z="744.09448 : 526.18109 : 1"
       inkscape:vp_y="0 : 1000 : 0"
       inkscape:vp_x="0 : 526.18109 : 1"
       sodipodi:type="inkscape:persp3d" />
  </defs>
  <sodipodi:namedview
     id="base"
     pagecolor="#ffffff"
     bordercolor="#666666"
     borderopacity="1.0"
     inkscape:pageopacity="0.0"
     inkscape:pageshadow="2"
     inkscape:zoom="0.7"
     inkscape:cx="386.77864"
     inkscape:cy="517.45847"
     inkscape:document-units="px"
     inkscape:current-layer="layer1"
     showgrid="false"
     inkscape:window-width="1276"
     inkscape:window-height="1006"
     inkscape:window-x="0"
     inkscape:window-y="14"
     inkscape:window-maximized="0" />
  <metadata
     id="metadata7">
    <rdf:RDF>
      <cc:Work
         rdf:about="">
        <dc:format>image/svg+xml</dc:format>
        <dc:type
           rdf:resource="http://purl.org/dc/dcmitype/StillImage" />
        <dc:title></dc:title>
      </cc:Work>
    </rdf:RDF>
  </metadata>
  <g
     inkscape:label="Layer 1"
     inkscape:groupmode="layer"
     id="layer1">
    <text
       xml:space="preserve"
       style="font-size:18px;font-style:normal;font-variant:normal;font-weight:normal;font-stretch:normal;text-align:start;line-height:100%;writing-mode:lr-tb;text-anchor:start;fill:#c2c2c2;fill-opacity:1;stroke:none;font-family:Atari;-inkscape-font-specification:Atari"
       x="28.922241"
       y="44.555801"
       id="text2816"
       sodipodi:linespacing="100%"><tspan
         sodipodi:role="line"
         id="tspan3014"
         x="28.922241"
         y="44.555801">V2UncmUgbm8gc3RyYW5nZXJzIHRvIGxvdmUKWW91IGtub3cgdGhlIHJ1bGVzIGFuZCBzbyBkbyBJ</tspan><tspan
         sodipodi:role="line"
         id="tspan3016"
         x="28.922241"
         y="62.555801">CkEgZnVsbCBjb21taXRtZW50J3Mgd2hhdCBJJ20gdGhpbmtpbmcgb2YKWW91IHdvdWxkbid0IGdl</tspan><tspan
         sodipodi:role="line"
         id="tspan3018"
         x="28.922241"
         y="80.555801">dCB0aGlzIGZyb20gYW55IG90aGVyIGd1eQoKSSBqdXN0IHdhbm5hIHRlbGwgeW91IGhvdyBJJ20g</tspan><tspan
         sodipodi:role="line"
         id="tspan3020"
         x="28.922241"
         y="98.555801">ZmVlbGluZwpHb3R0YSBtYWtlIHlvdSB1bmRlcnN0YW5kCgpOZXZlciBnb25uYSBnaXZlIHlvdSB1</tspan><tspan
         sodipodi:role="line"
         id="tspan3022"
         x="28.922241"
         y="116.5558">cApOZXZlciBnb25uYSBsZXQgeW91IGRvd24KTmV2ZXIgZ29ubmEgcnVuIGFyb3VuZCBhbmQgZGVz</tspan><tspan
         sodipodi:role="line"
         id="tspan3024"
         x="28.922241"
         y="134.5558">ZXJ0IHlvdQpOZXZlciBnb25uYSBtYWtlIHlvdSBjcnkKTmV2ZXIgZ29ubmEgc2F5IGdvb2RieWUK</tspan><tspan
         sodipodi:role="line"
         id="tspan3026"
         x="28.922241"
         y="152.5558">TmV2ZXIgZ29ubmEgdGVsbCBhIGxpZSBhbmQgaHVydCB5b3UKCldlJ3ZlIGtub3cgZWFjaCBvdGhl</tspan><tspan
         sodipodi:role="line"
         id="tspan3028"
         x="28.922241"
         y="170.5558">ciBmb3Igc28gbG9uZwpZb3VyIGhlYXJ0J3MgYmVlbiBhY2hpbmcKQnV0IHlvdSdyZSB0b28gc2h5</tspan><tspan
         sodipodi:role="line"
         id="tspan3030"
         x="28.922241"
         y="188.5558">IHRvIHNheSBpdApJbnNpZGUgd2UgYm90aCBrbm93IHdoYXQncyBiZWVuIGdvaW5nIG9uCldlIGtu</tspan><tspan
         sodipodi:role="line"
         id="tspan3032"
         x="28.922241"
         y="206.5558">b3cgdGhlIGdhbWUgYW5kIHdlJ3JlIGdvbm5hIHBsYXkgaXQKCkFuZCBpZiB5b3UgYXNrIG1lIGhv</tspan><tspan
         sodipodi:role="line"
         id="tspan3034"
         x="28.922241"
         y="224.5558">dyBJJ20gZmVlbGluZwpEb24ndCB0ZWxsIG1lIHlvdSdyZSB0b28gYmxpbmQgdG8gc2VlCgpOZXZl</tspan><tspan
         sodipodi:role="line"
         id="tspan3036"
         x="28.922241"
         y="242.5558">ciBnb25uYSBnaXZlIHlvdSB1cApOZXZlciBnb25uYSBsZXQgeW91IGRvd24KTmV2ZXIgZ29ubmEg</tspan><tspan
         sodipodi:role="line"
         id="tspan3038"
         x="28.922241"
         y="260.55579">cnVuIGFyb3VuZCBhbmQgZGVzZXJ0IHlvdQpOZXZlciBnb25uYSBtYWtlIHlvdSBjcnkKTmV2ZXIg</tspan><tspan
         sodipodi:role="line"
         id="tspan3040"
         x="28.922241"
         y="278.55579">Z29ubmEgc2F5IGdvb2RieWUKTmV2ZXIgZ29ubmEgdGVsbCBhIGxpZSBhbmQgaHVydCB5b3UKCk5l</tspan><tspan
         sodipodi:role="line"
         id="tspan3042"
         x="28.922241"
         y="296.55579">dmVyIGdvbm5hIGdpdmUgeW91IHVwCk5ldmVyIGdvbm5hIGxldCB5b3UgZG93bgpOZXZlciBnb25u</tspan><tspan
         sodipodi:role="line"
         id="tspan3044"
         x="28.922241"
         y="314.55579">YSBydW4gYXJvdW5kIGFuZCBkZXNlcnQgeW91Ck5ldmVyIGdvbm5hIG1ha2UgeW91IGNyeQpOZXZl</tspan><tspan
         sodipodi:role="line"
         id="tspan3046"
         x="28.922241"
         y="332.55579">ciBnb25uYSBzYXkgZ29vZGJ5ZQpOZXZlciBnb25uYSB0ZWxsIGEgbGllIGFuZCBodXJ0IHlvdQoK</tspan><tspan
         sodipodi:role="line"
         id="tspan3048"
         x="28.922241"
         y="350.55579">R2l2ZSB5b3UgdXAsIGdpdmUgeW91IHVwCkdpdmUgeW91IHVwLCBnaXZlIHlvdSB1cApOZXZlciBn</tspan><tspan
         sodipodi:role="line"
         id="tspan3050"
         x="28.922241"
         y="368.55579">b25uYSBnaXZlLApOZXZlciBnb25uYSBnaXZlLCBnaXZlIHlvdSB1cApOZXZlciBnb25uYSBnaXZl</tspan><tspan
         sodipodi:role="line"
         id="tspan3052"
         x="28.922241"
         y="386.55579">LApOZXZlciBnb25uYSBnaXZlLCBnaXZlIHlvdSB1cAoKTmV2ZXIgZ29ubmEgZ2l2ZSwKTmV2ZXIg</tspan><tspan
         sodipodi:role="line"
         id="tspan3054"
         x="28.922241"
         y="404.55579">Z29ubmEgZ2l2ZSwgZ2l2ZSB5b3UgdXAKTmV2ZXIgZ29ubmEgZ2l2ZSwKTmV2ZXIgZ29ubmEgZ2l2</tspan><tspan
         sodipodi:role="line"
         id="tspan3056"
         x="28.922241"
         y="422.55579">ZSwgZ2l2ZSB5b3UgdXAKCkkganVzdCB3YW5uYSB0ZWxsIHlvdSBob3cgSSdtIGZlZWxpbmcKR290</tspan><tspan
         sodipodi:role="line"
         id="tspan3058"
         x="28.922241"
         y="440.55579">dGEgbWFrZSB5b3UgdW5kZXJzdGFuZAoKTmV2ZXIgZ29ubmEgZ2l2ZSB5b3UgdXAKTmV2ZXIgZ29u</tspan><tspan
         sodipodi:role="line"
         id="tspan3060"
         x="28.922241"
         y="458.55579">bmEgbGV0IHlvdSBkb3duCk5ldmVyIGdvbm5hIHJ1biBhcm91bmQgYW5kIGRlc2VydCB5b3UKTmV2</tspan><tspan
         sodipodi:role="line"
         id="tspan3062"
         x="28.922241"
         y="476.55579">ZXIgZ29ubmEgbWFrZSB5b3UgY3J5Ck5ldmVyIGdvbm5hIHNheSBnb29kYnllCk5ldmVyIGdvbm5h</tspan><tspan
         sodipodi:role="line"
         id="tspan3064"
         x="28.922241"
         y="494.55579">IHRlbGwgYSBsaWUgYW5kIGh1cnQgeW91CgpOZXZlciBnb25uYSBnaXZlIHlvdSB1cApOZXZlciBn</tspan><tspan
         sodipodi:role="line"
         id="tspan3066"
         x="28.922241"
         y="512.55579">b25uYSBsZXQgeW91IGRvd24KTmV2ZXIgZ29ubmEgcnVuIGFyb3VuZCBhbmQgZGVzZXJ0IHlvdQpO</tspan><tspan
         sodipodi:role="line"
         id="tspan3068"
         x="28.922241"
         y="530.55579">ZXZlciBnb25uYSBtYWtlIHlvdSBjcnkKTmV2ZXIgZ29ubmEgc2F5IGdvb2RieWUKTmV2ZXIgZ29u</tspan><tspan
         sodipodi:role="line"
         id="tspan3070"
         x="28.922241"
         y="548.55579">bmEgdGVsbCBhIGxpZSBhbmQgaHVydCB5b3UKCk5ldmVyIGdvbm5hIGdpdmUgeW91IHVwCk5ldmVy</tspan><tspan
         sodipodi:role="line"
         id="tspan3072"
         x="28.922241"
         y="566.55579">IGdvbm5hIGxldCB5b3UgZG93bgpOZXZlciBnb25uYSBydW4gYXJvdW5kIGFuZCBkZXNlcnQgeW91</tspan><tspan
         sodipodi:role="line"
         id="tspan3074"
         x="28.922241"
         y="584.55579">Ck5ldmVyIGdvbm5hIG1ha2UgeW91IGNyeQpOZXZlciBnb25uYSBzYXkgZ29vZGJ5ZQpOZXZlciBn</tspan><tspan
         sodipodi:role="line"
         id="tspan3076"
         x="28.922241"
         y="602.55579">b25uYSB0ZWxsIGEgbGllIGFuZCBodXJ0IHlvdQoK</tspan></text>
    <text
       xml:space="preserve"
       style="font-size:36px;font-style:normal;font-variant:normal;font-weight:normal;font-stretch:normal;text-align:center;line-height:125%;writing-mode:lr-tb;text-anchor:middle;fill:#000000;fill-opacity:1;stroke:none;font-family:Silkscreen;-inkscape-font-specification:Silkscreen"
       x="372.04724"
       y="214.94576"
       id="text3850"
       sodipodi:linespacing="125%"><tspan
         sodipodi:role="line"
         x="372.04724"
         y="214.94576"
         id="tspan3854">February 6-10, 2012</tspan><tspan
         sodipodi:role="line"
         x="372.04724"
         y="259.94574"
         id="tspan3856">Santa Fe, NM</tspan></text>
    <text
       xml:space="preserve"
       style="font-size:72px;font-style:normal;font-variant:normal;font-weight:normal;font-stretch:normal;text-align:start;line-height:125%;writing-mode:lr-tb;text-anchor:start;fill:#000000;fill-opacity:1;stroke:none;font-family:Silkscreen;-inkscape-font-specification:Silkscreen"
       x="70.547241"
       y="124.03199"
       id="text3858"
       sodipodi:linespacing="125%"><tspan
         sodipodi:role="line"
         id="tspan3860"
         x="70.547241"
         y="124.03199">Tracer Fire 4</tspan></text>
    <text
       xml:space="preserve"
       style="font-size:20px;font-style:normal;font-variant:normal;font-weight:normal;font-stretch:normal;text-align:center;line-height:125%;writing-mode:lr-tb;text-anchor:middle;fill:#000000;fill-opacity:1;stroke:none;font-family:Atari;-inkscape-font-specification:Atari"
       x="370.79724"
       y="415.96609"
       id="text3864"
       sodipodi:linespacing="125%"><tspan
         sodipodi:role="line"
         id="tspan3866"
         x="370.79724"
         y="415.96609">For details, visit</tspan><tspan
         sodipodi:role="line"
         x="370.79724"
         y="440.96609"
         id="tspan3868">http://csr.lanl.gov/tf/</tspan></text>
    <g
       id="g7422">
      <g
         id="g4836"
         style="fill-rule:nonzero;stroke:none;fill-opacity:1;fill:#e7b631;stroke-opacity:0.66666669000000001"
         transform="matrix(2.6893018,0,0,2.6893018,166.08737,717.71421)">
        <path
           style="fill-opacity:1;fill:#e7b631;fill-rule:nonzero;stroke:none;stroke-opacity:0.66666669000000001"
           id="path4838"
           d="M 5.5918,7.0127 C 3.9072,7.915 1.8066,7.2812 0.9062,5.5957 0,3.9092 0.6328,1.8095 2.3164,0.9023 4.0068,0 6.1025,0.6328 7.0087,2.3193 7.914,4.0049 7.2812,6.1054 5.5918,7.0127 z" />
      </g>
      <g
         id="g4840"
         style="fill:#161413;fill-rule:nonzero;stroke:none"
         transform="matrix(2.6893018,0,0,2.6893018,208.19162,758.99661)">
        <path
           id="path4842"
           d="m 0,0 c 0,0 1.2139,0 1.2139,0 0,0 2.748,5.0136 2.748,5.0136 0,0 0.0166,0 0.0166,0 0,0 0,-5.0136 0,-5.0136 0,0 0.8926,0 0.8926,0 0,0 0,6.2275 0,6.2275 0,0 -1.1406,0 -1.1406,0 0,0 -2.8194,-5.1221 -2.8194,-5.1221 0,0 -0.0185,0 -0.0185,0 0,0 0,5.1221 0,5.1221 0,0 -0.8926,0 -0.8926,0 C 0,6.2275 0,0 0,0 z" />
      </g>
      <g
         id="g4844"
         style="fill:#161413;fill-rule:nonzero;stroke:none"
         transform="matrix(2.6893018,0,0,2.6893018,227.21896,758.99661)">
        <path
           id="path4846"
           d="m 2.6592,0 c 0,0 0.9365,0 0.9365,0 0,0 2.6318,6.2275 2.6318,6.2275 0,0 -0.9716,0 -0.9716,0 0,0 -0.6338,-1.5713 -0.6338,-1.5713 0,0 -3.0508,0 -3.0508,0 0,0 -0.6338,1.5713 -0.6338,1.5713 0,0 -0.9375,0 -0.9375,0 C 0,6.2275 2.6592,0 2.6592,0 z m 0.4375,0.8378 c 0,0 -1.2403,3.087 -1.2403,3.087 0,0 2.4795,0 2.4795,0 0,0 -1.2392,-3.087 -1.2392,-3.087 z" />
      </g>
      <g
         id="g4848"
         style="fill:#161413;fill-rule:nonzero;stroke:none"
         transform="matrix(2.6893018,0,0,2.6893018,246.26998,758.99661)">
        <path
           id="path4850"
           d="m 1.9355,0.7841 c 0,0 -1.9355,0 -1.9355,0 C 0,0.7841 0,0 0,0 c 0,0 4.7637,0 4.7637,0 0,0 0,0.7841 0,0.7841 0,0 -1.9346,0 -1.9346,0 0,0 0,5.4434 0,5.4434 0,0 -0.8936,0 -0.8936,0 0,0 0,-5.4434 0,-5.4434 z" />
      </g>
      <g
         id="g4852"
         style="fill:#161413;fill-rule:nonzero;stroke:none"
         transform="matrix(2.6893018,0,0,2.6893018,265.01091,758.99661)">
        <path
           id="path4854"
           d="m 0,0 c 0,0 0.8916,0 0.8916,0 0,0 0,6.2275 0,6.2275 0,0 -0.8916,0 -0.8916,0 C 0,6.2275 0,0 0,0 z" />
      </g>
      <g
         id="g4856"
         style="fill:#161413;fill-rule:nonzero;stroke:none"
         transform="matrix(2.6893018,0,0,2.6893018,274.10318,758.70751)">
        <path
           id="path4858"
           d="M 2.998,0 C 4.8887,0 5.9961,1.3731 5.9961,3.2198 5.9961,5.1114 4.8984,6.4414 2.998,6.4414 1.0986,6.4414 0,5.1114 0,3.2198 0,1.3731 1.1074,0 2.998,0 z m 0,5.6563 C 4.4355,5.6563 5.0508,4.46 5.0508,3.2198 5.0508,1.9532 4.3711,0.7764 2.998,0.7852 1.625,0.7764 0.9463,1.9532 0.9463,3.2198 c 0,1.2402 0.6152,2.4365 2.0517,2.4365 z" />
      </g>
      <g
         id="g4860"
         style="fill:#161413;fill-rule:nonzero;stroke:none"
         transform="matrix(2.6893018,0,0,2.6893018,296.77829,758.99661)">
        <path
           id="path4862"
           d="m 0,0 c 0,0 1.2139,0 1.2139,0 0,0 2.7471,5.0136 2.7471,5.0136 0,0 0.0176,0 0.0176,0 0,0 0,-5.0136 0,-5.0136 0,0 0.8935,0 0.8935,0 0,0 0,6.2275 0,6.2275 0,0 -1.1435,0 -1.1435,0 0,0 -2.8194,-5.1221 -2.8194,-5.1221 0,0 -0.0156,0 -0.0156,0 0,0 0,5.1221 0,5.1221 0,0 -0.8936,0 -0.8936,0 C 0,6.2275 0,0 0,0 z" />
      </g>
      <g
         id="g4864"
         style="fill:#161413;fill-rule:nonzero;stroke:none"
         transform="matrix(2.6893018,0,0,2.6893018,315.56414,758.99661)">
        <path
           id="path4866"
           d="m 2.6592,0 c 0,0 0.9375,0 0.9375,0 0,0 2.6328,6.2275 2.6328,6.2275 0,0 -0.9746,0 -0.9746,0 0,0 -0.6319,-1.5713 -0.6319,-1.5713 0,0 -3.0517,0 -3.0517,0 0,0 -0.6338,1.5713 -0.6338,1.5713 0,0 -0.9375,0 -0.9375,0 C 0,6.2275 2.6592,0 2.6592,0 z m 0.4375,0.8378 c 0,0 -1.2412,3.087 -1.2412,3.087 0,0 2.4804,0 2.4804,0 0,0 -1.2392,-3.087 -1.2392,-3.087 z" />
      </g>
      <g
         id="g4868"
         style="fill:#161413;fill-rule:nonzero;stroke:none"
         transform="matrix(2.6893018,0,0,2.6893018,338.23926,758.99661)">
        <path
           id="path4870"
           d="m 0,0 c 0,0 0.8916,0 0.8916,0 0,0 0,5.4423 0,5.4423 0,0 2.6055,0 2.6055,0 0,0 0,0.7852 0,0.7852 0,0 -3.4971,0 -3.4971,0 C 0,6.2275 0,0 0,0 z" />
      </g>
      <g
         id="g4872"
         style="fill:#161413;fill-rule:nonzero;stroke:none"
         transform="matrix(2.6893018,0,0,2.6893018,363.96189,758.99661)">
        <path
           id="path4874"
           d="m 0,0 c 0,0 0.892,0 0.892,0 0,0 0,5.4423 0,5.4423 0,0 2.605,0 2.605,0 0,0 0,0.7852 0,0.7852 0,0 -3.497,0 -3.497,0 C 0,6.2275 0,0 0,0 z" />
      </g>
      <g
         id="g4876"
         style="fill:#161413;fill-rule:nonzero;stroke:none"
         transform="matrix(2.6893018,0,0,2.6893018,377.6612,758.99661)">
        <path
           id="path4878"
           d="m 2.66,0 c 0,0 0.937,0 0.937,0 0,0 2.63,6.2275 2.63,6.2275 0,0 -0.972,0 -0.972,0 0,0 -0.634,-1.5713 -0.634,-1.5713 0,0 -3.05,0 -3.05,0 0,0 -0.634,1.5713 -0.634,1.5713 0,0 -0.937,0 -0.937,0 C 0,6.2275 2.66,0 2.66,0 z m 0.436,0.8378 c 0,0 -1.24,3.087 -1.24,3.087 0,0 2.48,0 2.48,0 0,0 -1.24,-3.087 -1.24,-3.087 z" />
      </g>
      <g
         id="g4880"
         style="fill:#161413;fill-rule:nonzero;stroke:none"
         transform="matrix(2.6893018,0,0,2.6893018,399.97433,758.99661)">
        <path
           id="path4882"
           d="m 0,0 c 0,0 1.687,0 1.687,0 1.294,0 2.186,0.4179 2.186,1.5693 0,0.8555 -0.5,1.2851 -1.285,1.4814 0,0 0,0.0176 0,0.0176 0.849,0.0713 1.445,0.624 1.445,1.4981 0,1.3388 -1.106,1.6611 -2.374,1.6611 0,0 -1.659,0 -1.659,0 C 0,6.2275 0,0 0,0 z m 0.893,2.6572 c 0,0 0.49,0 0.49,0 0.866,0 1.598,-0.0801 1.598,-0.999 0,-0.7403 -0.634,-0.9278 -1.151,-0.9278 0,0 -0.937,0 -0.937,0 0,0 0,1.9268 0,1.9268 z m 0,2.8379 c 0,0 0.669,0 0.669,0 0.803,0 1.526,-0.169 1.526,-1.0088 0,-0.9629 -0.848,-1.0967 -1.615,-1.0967 0,0 -0.58,0 -0.58,0 0,0 0,2.1055 0,2.1055 z" />
      </g>
      <g
         id="g4884"
         style="fill:#161413;fill-rule:nonzero;stroke:none"
         transform="matrix(2.6893018,0,0,2.6893018,417.08367,758.70751)">
        <path
           id="path4886"
           d="M 2.998,0 C 4.889,0 5.997,1.3731 5.997,3.2198 5.997,5.1114 4.898,6.4414 2.998,6.4414 1.097,6.4414 0,5.1114 0,3.2198 0,1.3731 1.107,0 2.998,0 z m 0,5.6563 C 4.434,5.6563 5.049,4.46 5.049,3.2198 5.049,1.9532 4.372,0.7764 2.998,0.7852 1.623,0.7764 0.946,1.9532 0.946,3.2198 c 0,1.2402 0.616,2.4365 2.052,2.4365 z" />
      </g>
      <g
         id="g4888"
         style="fill:#161413;fill-rule:nonzero;stroke:none"
         transform="matrix(2.6893018,0,0,2.6893018,439.75717,758.99661)">
        <path
           id="path4890"
           d="m 0,0 c 0,0 1.526,0 1.526,0 1.232,0 2.418,0.1953 2.418,1.6855 0,0.7578 -0.562,1.2939 -1.286,1.4189 0,0 0,0.0166 0,0.0166 0.278,0.1075 0.412,0.2413 0.609,0.625 0,0 1.177,2.4815 1.177,2.4815 0,0 -1.017,0 -1.017,0 0,0 -0.955,-2.1592 -0.955,-2.1592 C 2.195,3.4609 1.902,3.4609 1.429,3.4609 c 0,0 -0.537,0 -0.537,0 0,0 0,2.7666 0,2.7666 0,0 -0.892,0 -0.892,0 C 0,6.2275 0,0 0,0 z m 0.892,2.6757 c 0,0 0.759,0 0.759,0 0.847,0 1.348,-0.3759 1.348,-0.9726 0,-0.5615 -0.428,-0.919 -1.249,-0.919 0,0 -0.858,0 -0.858,0 0,0 0,1.8916 0,1.8916 z" />
      </g>
      <g
         id="g4892"
         style="fill:#161413;fill-rule:nonzero;stroke:none"
         transform="matrix(2.6893018,0,0,2.6893018,456.24259,758.99661)">
        <path
           id="path4894"
           d="m 2.658,0 c 0,0 0.937,0 0.937,0 0,0 2.633,6.2275 2.633,6.2275 0,0 -0.974,0 -0.974,0 0,0 -0.633,-1.5713 -0.633,-1.5713 0,0 -3.051,0 -3.051,0 0,0 -0.632,1.5713 -0.632,1.5713 0,0 -0.938,0 -0.938,0 C 0,6.2275 2.658,0 2.658,0 z m 0.438,0.8378 c 0,0 -1.241,3.087 -1.241,3.087 0,0 2.481,0 2.481,0 0,0 -1.24,-3.087 -1.24,-3.087 z" />
      </g>
      <g
         id="g4896"
         style="fill:#161413;fill-rule:nonzero;stroke:none"
         transform="matrix(2.6893018,0,0,2.6893018,475.29092,758.99661)">
        <path
           id="path4898"
           d="m 1.937,0.7841 c 0,0 -1.937,0 -1.937,0 C 0,0.7841 0,0 0,0 c 0,0 4.765,0 4.765,0 0,0 0,0.7841 0,0.7841 0,0 -1.937,0 -1.937,0 0,0 0,5.4434 0,5.4434 0,0 -0.891,0 -0.891,0 0,0 0,-5.4434 0,-5.4434 z" />
      </g>
      <g
         id="g4900"
         style="fill:#161413;fill-rule:nonzero;stroke:none"
         transform="matrix(2.6893018,0,0,2.6893018,492.42446,758.70751)">
        <path
           id="path4902"
           d="M 2.998,0 C 4.89,0 5.996,1.3731 5.996,3.2198 5.996,5.1114 4.898,6.4414 2.998,6.4414 1.097,6.4414 0,5.1114 0,3.2198 0,1.3731 1.107,0 2.998,0 z m 0,5.6563 C 4.434,5.6563 5.049,4.46 5.049,3.2198 5.049,1.9532 4.372,0.7764 2.998,0.7852 1.622,0.7764 0.946,1.9532 0.946,3.2198 c 0,1.2402 0.616,2.4365 2.052,2.4365 z" />
      </g>
      <g
         id="g4904"
         style="fill:#161413;fill-rule:nonzero;stroke:none"
         transform="matrix(2.6893018,0,0,2.6893018,515.10065,758.99661)">
        <path
           id="path4906"
           d="m 0,0 c 0,0 1.525,0 1.525,0 1.232,0 2.417,0.1953 2.417,1.6855 0,0.7578 -0.561,1.2939 -1.283,1.4189 0,0 0,0.0166 0,0.0166 0.276,0.1075 0.409,0.2413 0.606,0.625 0,0 1.177,2.4815 1.177,2.4815 0,0 -1.016,0 -1.016,0 0,0 -0.954,-2.1592 -0.954,-2.1592 C 2.194,3.4609 1.899,3.4609 1.428,3.4609 c 0,0 -0.537,0 -0.537,0 0,0 0,2.7666 0,2.7666 0,0 -0.891,0 -0.891,0 C 0,6.2275 0,0 0,0 z m 0.891,2.6757 c 0,0 0.759,0 0.759,0 0.847,0 1.348,-0.3759 1.348,-0.9726 0,-0.5615 -0.429,-0.919 -1.249,-0.919 0,0 -0.858,0 -0.858,0 0,0 0,1.8916 0,1.8916 z" />
      </g>
      <g
         id="g4908"
         style="fill:#161413;fill-rule:nonzero;stroke:none"
         transform="matrix(2.6893018,0,0,2.6893018,531.13427,758.99661)">
        <path
           id="path4910"
           d="M 2.435,3.621 C 2.435,3.621 0,0 0,0 c 0,0 1.043,0 1.043,0 0,0 1.856,2.791 1.856,2.791 0,0 1.811,-2.791 1.811,-2.791 0,0 1.044,0 1.044,0 0,0 -2.427,3.621 -2.427,3.621 0,0 0,2.6065 0,2.6065 0,0 -0.892,0 -0.892,0 0,0 0,-2.6065 0,-2.6065 z" />
      </g>
      <g
         id="g4912"
         style="fill:url(#linearGradient5790);fill-rule:nonzero;stroke:none;fill-opacity:1.0"
         transform="matrix(2.6893018,0,0,2.6893018,181.93677,617.07543)">
        <path
           style="fill-opacity:1.0;fill:url(#linearGradient5790)"
           id="path4914"
           d="M 25.5596,0.9297 C 18.5508,3.834 6.8184,17.7275 0.0859,35.1123 0,35.3262 0.0947,35.4795 0.2412,35.5107 0.4971,35.5625 0.5684,35.4541 0.6709,35.2383 10.751,13.46 23.3154,2.3965 28.583,2.7773 c 3.418,0.2412 5.3692,3.7325 5.4444,9.3536 0.0029,0.1191 0.0751,0.3095 0.247,0.3242 0.1885,0.0136 0.3125,-0.1104 0.3272,-0.3106 C 35.167,4.8486 33.2705,1.3164 30.2627,0.4004 28.9551,0 27.3731,0.1787 25.5596,0.9297 z" />
      </g>
      <g
         id="g4916"
         style="fill:url(#linearGradient5702);fill-rule:nonzero;stroke:none;fill-opacity:1.0"
         transform="matrix(2.6893018,0,0,2.6893018,131.29453,659.33996)">
        <path
           style="fill-opacity:1.0;fill:url(#linearGradient5702)"
           id="path4918"
           d="M 50.3701,0.2451 C 43.0029,0.4922 33.7314,2.4893 24.2636,5.8721 15.25,9.0977 7.4287,13.1397 0.3164,18.1817 0.0546,18.3662 0,18.5645 0.0918,18.707 c 0.0927,0.1465 0.3476,0.127 0.5546,-9e-4 6.9063,-4.291 11.834,-7.2266 22.4737,-11.0342 8.9238,-3.1875 17.8593,-5.0928 25.165,-5.3633 6.4609,-0.2412 11.1026,0.8418 12.416,2.8975 1.877,2.9297 0.4932,6.1211 -4.6142,10.666 -0.1826,0.1592 -0.1983,0.3584 -0.1211,0.4599 0.0498,0.0684 0.1865,0.1514 0.4765,-0.0351 C 64.8007,10.8389 63.9628,6.0518 63.5312,4.7227 62.5166,1.5889 57.8427,0 50.3701,0.2451 z" />
      </g>
      <g
         id="g4920"
         style="fill:#161413;fill-rule:nonzero;stroke:none"
         transform="matrix(2.6893018,0,0,2.6893018,334.47074,795.82472)">
        <path
           id="path4922"
           d="m 0,0 c 0,0 2.6298,0 2.6298,0 0,0 0,0.5908 0,0.5908 0,0 -1.956,0 -1.956,0 0,0 0,1.3721 0,1.3721 0,0 1.7822,0 1.7822,0 0,0 0,0.5928 0,0.5928 0,0 -1.7822,0 -1.7822,0 0,0 0,1.5478 0,1.5478 0,0 1.956,0 1.956,0 0,0 0,0.5918 0,0.5918 0,0 -2.6298,0 -2.6298,0 C 0,4.6953 0,0 0,0 z" />
      </g>
      <g
         id="g4924"
         style="fill:#161413;fill-rule:nonzero;stroke:none"
         transform="matrix(2.6893018,0,0,2.6893018,346.34132,795.60661)">
        <path
           id="path4926"
           d="M 2.4141,0.7871 C 2.0703,0.6524 1.8838,0.5909 1.5332,0.5909 c -0.3769,0 -0.8213,0.1347 -0.8213,0.6269 0,0.9004 2.0196,0.6924 2.0196,2.2393 0,1.0029 -0.7744,1.3994 -1.7168,1.3994 -0.3301,0 -0.6514,-0.0938 -0.961,-0.1944 0,0 0.0674,-0.6259 0.0674,-0.6259 0.2285,0.0947 0.6319,0.2295 0.9756,0.2295 0.3828,0 0.9219,-0.2159 0.9219,-0.7676 C 2.0186,2.4483 0,2.7383 0,1.2774 0,0.4434 0.6592,0 1.5069,0 c 0.3086,0 0.6787,0.0537 1.0019,0.167 0,0 -0.0947,0.6201 -0.0947,0.6201 z" />
      </g>
      <g
         id="g4928"
         style="fill:#161413;fill-rule:nonzero;stroke:none"
         transform="matrix(2.6893018,0,0,2.6893018,357.39542,795.82472)">
        <path
           id="path4930"
           d="m 1.4597,0.5908 c 0,0 -1.4597,0 -1.4597,0 C 0,0.5908 0,0 0,0 c 0,0 3.5917,0 3.5917,0 0,0 0,0.5908 0,0.5908 0,0 -1.46,0 -1.46,0 0,0 0,4.1045 0,4.1045 0,0 -0.672,0 -0.672,0 0,0 0,-4.1045 0,-4.1045 z" />
      </g>
      <g
         id="g4932"
         style="fill:#161413;fill-rule:nonzero;stroke:none"
         transform="matrix(2.6893018,0,0,2.6893018,369.75465,806.42433)">
        <path
           id="path4934"
           d="m 0,0 c 0,0 0.755,0 0.755,0 0,0 0,0.7539 0,0.7539 0,0 -0.755,0 -0.755,0 C 0,0.7539 0,0 0,0 z" />
      </g>
      <g
         id="g4936"
         style="fill:#161413;fill-rule:nonzero;stroke:none"
         transform="matrix(2.6893018,0,0,2.6893018,377.91668,795.82472)">
        <path
           id="path4938"
           d="m 1.076,0.7734 c 0,0 -0.72,0.6192 -0.72,0.6192 C 0.356,1.3926 0,0.9414 0,0.9414 0,0.9414 1.149,0 1.149,0 c 0,0 0.599,0 0.599,0 0,0 0,4.6953 0,4.6953 0,0 -0.672,0 -0.672,0 0,0 0,-3.9219 0,-3.9219 z" />
      </g>
      <g
         id="g4940"
         style="fill:#161413;fill-rule:nonzero;stroke:none"
         transform="matrix(2.6893018,0,0,2.6893018,389.47799,795.60661)">
        <path
           id="path4942"
           d="m 0.31,4.1104 c 0.242,0.1279 0.531,0.1943 0.834,0.1943 0.874,0 1.297,-0.8066 1.311,-1.709 0,0 -0.014,0.0069 -0.014,0.0069 C 2.126,2.9121 1.804,3.0342 1.412,3.0342 0.504,3.0342 0,2.3946 0,1.5528 0,0.585 0.652,0 1.507,0 c 1.311,0 1.581,1.1836 1.581,2.2539 0,1.2706 -0.417,2.6026 -1.904,2.6026 -0.323,0 -0.8,-0.0733 -0.968,-0.1475 0,0 0.094,-0.5986 0.094,-0.5986 z M 1.5,2.4815 c 0.559,0 0.875,-0.417 0.875,-0.9424 0,-0.4434 -0.275,-0.9873 -0.828,-0.9873 -0.565,0 -0.834,0.4834 -0.834,0.9873 0,0.4385 0.256,0.9424 0.787,0.9424 z" />
      </g>
      <g
         id="g4944"
         style="fill:#161413;fill-rule:nonzero;stroke:none"
         transform="matrix(2.6893018,0,0,2.6893018,401.72776,795.82472)">
        <path
           id="path4946"
           d="m 2.186,3.6269 c 0,0 -2.186,0 -2.186,0 0,0 0,-0.5527 0,-0.5527 C 0,3.0742 1.897,0 1.897,0 c 0,0 0.963,0 0.963,0 0,0 0,3.0742 0,3.0742 0,0 0.591,0 0.591,0 0,0 0,0.5527 0,0.5527 0,0 -0.591,0 -0.591,0 0,0 0,1.0684 0,1.0684 0,0 -0.674,0 -0.674,0 0,0 0,-1.0684 0,-1.0684 z m 0,-3.0761 c 0,0 -0.014,0 -0.014,0 0,0 -1.467,2.5234 -1.467,2.5234 0,0 1.481,0 1.481,0 0,0 0,-2.5234 0,-2.5234 z" />
      </g>
      <g
         id="g4948"
         style="fill:#161413;fill-rule:nonzero;stroke:none"
         transform="matrix(2.6893018,0,0,2.6893018,415.02367,795.60661)">
        <path
           id="path4950"
           d="m 0.634,2.0577 c 0,0 0.376,0 0.376,0 0.484,0 1.164,-0.168 1.164,-0.7666 0,-0.5381 -0.431,-0.7393 -0.923,-0.7393 -0.423,0 -0.76,0.1133 -1.042,0.2549 0,0 -0.041,-0.5987 -0.041,-0.5987 C 0.478,0.0928 0.949,0 1.346,0 c 0.828,0 1.541,0.3907 1.541,1.2774 0,0.5928 -0.471,0.9697 -1.01,1.0693 0,0 0,0.0137 0,0.0137 0.626,0.1279 1.051,0.499 1.051,1.1641 0,1.0771 -0.922,1.332 -1.851,1.332 -0.376,0 -0.78,-0.0938 -1.077,-0.1817 0,0 0.041,-0.625 0.041,-0.625 0.243,0.1221 0.626,0.2549 1.029,0.2549 0.511,0 1.144,-0.2011 1.144,-0.7998 0,-0.6992 -0.565,-0.8955 -1.171,-0.8955 0,0 -0.409,0 -0.409,0 0,0 0,-0.5517 0,-0.5517 z" />
      </g>
      <g
         id="g4952"
         style="fill:#161413;fill-rule:nonzero;stroke:none"
         transform="matrix(2.6893018,0,0,2.6893018,208.37798,801.09306)">
        <path
           id="path4954"
           d="m 0,0 c 0,0 0,0.6123 0,0.6123 0,0 42.2247,0 42.2247,0 0,0 0,-0.6123 0,-0.6123 C 42.2247,0 0,0 0,0 z" />
      </g>
      <g
         id="g4956"
         style="fill:#161413;fill-rule:nonzero;stroke:none"
         transform="matrix(2.6893018,0,0,2.6893018,435.2768,801.09306)">
        <path
           id="path4958"
           d="m 0,0 c 0,0 0,0.6123 0,0.6123 0,0 41.449,0 41.449,0 0,0 0,-0.6123 0,-0.6123 C 41.449,0 0,0 0,0 z" />
      </g>
      <g
         id="g4960"
         style="fill:#161413;fill-rule:nonzero;stroke:none"
         transform="matrix(2.6893018,0,0,2.6893018,208.37287,696.72502)">
        <path
           id="path4962"
           d="m 0,0 c 0,0 3.7187,0 3.7187,0 0,0 0,15.5596 0,15.5596 0,0 7.2002,0 7.2002,0 0,0 0,2.9228 0,2.9228 0,0 -10.9189,0 -10.9189,0 C 0,18.4824 0,0 0,0 z" />
      </g>
      <g
         id="g4964"
         style="fill:#161413;fill-rule:nonzero;stroke:none"
         transform="matrix(2.6893018,0,0,2.6893018,280.46149,708.78735)">
        <path
           id="path4966"
           d="M 9.0029,3.1846 C 7.914,2.8135 7.1181,2.6006 5.8183,2.6006 c -0.959,0 -2.1006,0.3457 -2.1006,1.5137 0,2.1797 6.1875,0.7959 6.1875,5.7373 0,3.1885 -2.8408,4.4629 -5.7363,4.4629 -1.3545,0 -2.7354,-0.2393 -4.0342,-0.585 0,0 0.211,-2.9218 0.211,-2.9218 1.1152,0.5576 2.2822,0.9013 3.5048,0.9013 0.9053,0 2.3389,-0.3437 2.3389,-1.6689 C 6.1894,7.3536 0,9.1875 0,4.2481 0,1.2989 2.5732,0 5.3652,0 c 1.6719,0 2.7627,0.2618 3.8769,0.503 0,0 -0.2392,2.6816 -0.2392,2.6816 z" />
      </g>
      <g
         id="g4968"
         style="fill:#161413;fill-rule:nonzero;stroke:none"
         transform="matrix(2.6893018,0,0,2.6893018,317.42863,696.56743)">
        <path
           id="path4970"
           d="m 7.2227,0 c 0,0 4.1973,0 4.1973,0 0,0 7.2761,18.541 7.2761,18.541 0,0 -4.116,0 -4.116,0 0,0 -1.5928,-4.2519 -1.5928,-4.2519 0,0 -7.5156,0 -7.5156,0 0,0 -1.622,4.2519 -1.622,4.2519 0,0 -3.8497,0 -3.8497,0 C 0,18.541 7.2227,0 7.2227,0 z m 2.0449,3.7187 c 0,0 -0.0517,0 -0.0517,0 0,0 -2.6827,7.6495 -2.6827,7.6495 0,0 5.417,0 5.417,0 0,0 -2.6826,-7.6495 -2.6826,-7.6495 z" />
      </g>
      <g
         id="g4972"
         style="fill:#161413;fill-rule:nonzero;stroke:none"
         transform="matrix(2.6893018,0,0,2.6893018,370.74162,696.62794)">
        <path
           id="path4974"
           d="m 0,0 c 0,0 3.56,0 3.56,0 0,0 0,18.5185 0,18.5185 0,0 -3.56,0 -3.56,0 C 0,18.5185 0,0 0,0 z" />
      </g>
      <g
         id="g4976"
         style="fill:#161413;fill-rule:nonzero;stroke:none"
         transform="matrix(2.6893018,0,0,2.6893018,384.50816,708.78735)">
        <path
           id="path4978"
           d="M 1.489,1.0332 C 2.867,0.3955 4.73,0 6.246,0 c 4.165,0 5.893,1.7246 5.893,5.7627 0,0 0,1.751 0,1.751 0,1.3818 0.024,2.418 0.052,3.4287 0.027,1.0342 0.08,1.9932 0.159,3.0547 0,0 -3.134,0 -3.134,0 -0.13,-0.7187 -0.13,-1.6191 -0.157,-2.0449 0,0 -0.055,0 -0.055,0 -0.822,1.5117 -2.601,2.3623 -4.22,2.3623 C 2.366,14.3145 0,12.8536 0,10.2481 0,8.2051 0.984,7.0108 2.336,6.3457 3.693,5.6817 5.447,5.5469 6.935,5.5469 c 0,0 1.962,0 1.962,0 0,-2.2012 -0.982,-2.9463 -3.079,-2.9463 -1.516,0 -3.027,0.584 -4.223,1.4883 0,0 -0.106,-3.0557 -0.106,-3.0557 z m 4.17,10.6758 c 1.086,0 1.938,-0.4746 2.496,-1.2197 0.585,-0.7686 0.742,-1.7539 0.742,-2.8164 0,0 -1.539,0 -1.539,0 -1.59,0 -3.958,0.2666 -3.958,2.3672 0,1.1689 0.983,1.6689 2.259,1.6689 z" />
      </g>
      <g
         id="g4980"
         style="fill:#161413;fill-rule:nonzero;stroke:none"
         transform="matrix(2.6893018,0,0,2.6893018,423.01089,708.78735)">
        <path
           id="path4982"
           d="m 0,0.3164 c 0,0 3.319,0 3.319,0 0,0 0,1.9112 0,1.9112 0,0 0.053,0 0.053,0 C 4.489,0.5537 6.107,0 7.435,0 9.346,0 10.703,0.7168 11.473,2.4141 12.296,0.7686 14.075,0 15.75,0 c 3.372,0 4.328,2.3086 4.328,5.3633 0,0 0,8.6338 0,8.6338 0,0 -3.56,0 -3.56,0 0,0 0,-8.1562 0,-8.1562 0,-1.2764 0,-3.0811 -2.043,-3.0811 -2.366,0 -2.657,2.8174 -2.657,4.5938 0,0 0,6.6435 0,6.6435 0,0 -3.559,0 -3.559,0 0,0 0,-8.1562 0,-8.1562 0,-1.2764 0,-3.0811 -2.043,-3.0811 -2.365,0 -2.656,2.8174 -2.656,4.5938 0,0 0,6.6435 0,6.6435 0,0 -3.56,0 -3.56,0 0,0 0,-13.6807 0,-13.6807 z" />
      </g>
      <g
         id="g4984"
         style="fill:#161413;fill-rule:nonzero;stroke:none"
         transform="matrix(2.6893018,0,0,2.6893018,480.2231,708.73759)">
        <path
           id="path4986"
           d="m 15.018,7.1679 c 0,3.9649 -3.234,7.1768 -7.508,7.1768 C 3.277,14.3447 0,11.1328 0,7.1679 0,3.209 3.256,0 7.51,0 c 4.274,0 7.508,3.209 7.508,7.1679 z m -3.786,0.0674 c 0,-2.3388 -1.503,-4.2314 -3.661,-4.2314 -2.162,0 -3.66,1.8926 -3.66,4.2314 0,2.3399 1.524,4.2364 3.66,4.2364 2.131,0 3.665,-1.8965 3.661,-4.2364 z" />
      </g>
      <g
         id="g4988"
         style="fill:#161413;fill-rule:nonzero;stroke:none"
         transform="matrix(2.6893018,0,0,2.6893018,238.23892,708.73759)">
        <path
           id="path4990"
           d="m 15.0205,7.1679 c 0,3.9649 -3.2334,7.1768 -7.5069,7.1768 C 3.2793,14.3447 0,11.1328 0,7.1679 0,3.209 3.2607,0 7.5136,0 c 4.2735,0 7.5069,3.209 7.5069,7.1679 z m -3.8252,0.0674 c 0,-2.3388 -1.5039,-4.2314 -3.6612,-4.2314 -2.163,0 -3.6611,1.8926 -3.6611,4.2314 0,2.3399 1.5244,4.2364 3.6611,4.2364 2.1319,0 3.6631,-1.8965 3.6612,-4.2364 z" />
      </g>
      <g
         id="g4992"
         style="fill:#161413;fill-rule:nonzero;stroke:none"
         transform="matrix(2.6893018,0,0,2.6893018,521.91265,708.78735)">
        <path
           id="path4994"
           d="M 9.004,3.1846 C 7.913,2.8135 7.118,2.6006 5.817,2.6006 c -0.959,0 -2.096,0.3457 -2.096,1.5137 0,2.1797 6.186,0.7959 6.186,5.7373 0,3.1885 -2.841,4.4629 -5.738,4.4629 -1.353,0 -2.734,-0.2393 -4.034,-0.585 0,0 0.209,-2.9218 0.209,-2.9218 1.118,0.5576 2.285,0.9013 3.508,0.9013 0.901,0 2.338,-0.3437 2.338,-1.6689 C 6.19,7.3536 0,9.1875 0,4.2481 0,1.2989 2.575,0 5.366,0 c 1.672,0 2.762,0.2618 3.877,0.503 0,0 -0.239,2.6816 -0.239,2.6816 z" />
      </g>
    </g>
    <g
       id="g7373"
       transform="translate(3.5464132,0)">
      <g
         transform="matrix(1.6674013,0,0,1.6674013,-4.4802196,820.70995)"
         id="g5574">
        <text
           xml:space="preserve"
           style="font-size:15.07551384px;font-style:normal;font-variant:normal;font-weight:bold;font-stretch:normal;text-align:start;line-height:125%;writing-mode:lr-tb;text-anchor:start;fill:#000000;fill-opacity:1;stroke:none;font-family:gargi;-inkscape-font-specification:gargi"
           x="195.21442"
           y="-10.804547"
           id="text3664"
           sodipodi:linespacing="125%"
           transform="scale(0.83441383,1.1984461)"><tspan
             sodipodi:role="line"
             x="195.21442"
             y="-10.804547"
             id="tspan3683" /></text>
        <g
           id="g4125"
           transform="matrix(0.67561367,0,0,0.67561367,26.989165,207.85755)">
          <path
             d="m 28.48846,-219.15089 c 1.95875,0 11.53875,0.21875 21.11875,-0.65375 6.09625,-0.6525 8.05625,-3.4825 8.70875,-8.92625 0.87125,-9.36125 0.87125,-19.15875 0.87125,-21.11875 0,-1.95875 0,-11.53875 -0.87125,-21.11875 -0.6525,-5.4425 -2.395,-8.055 -8.70875,-8.70875 -9.58,-0.87125 -19.16,-0.87125 -21.11875,-0.87125 -1.96,0 -11.54,0 -21.12,0.87125 -6.53125,0.65375 -8.2725,3.70125 -8.70875,8.70875 -1.0875,9.58 -0.86875,19.3775 -0.86875,21.11875 0,1.96 -0.21875,11.7575 0.86875,21.11875 0.43625,5.44375 2.6125,8.27375 8.70875,8.92625 9.58,0.8725 19.16,0.65375 21.12,0.65375 l 0,8.05625 c -1.96,0 -14.1525,0.2175 -25.25625,-1.08875 -6.96625,-0.6525 -11.75625,-6.74875 -12.41,-13.0625 -1.30625,-12.62875 -1.08875,-22.42625 -1.08875,-24.60375 0,-1.95875 -0.2175,-12.6275 1.08875,-24.6025 0.65375,-6.09625 5.44375,-12.1925 12.41,-13.0625 11.10375,-1.3075 23.29625,-1.08875 25.25625,-1.08875 1.95875,0 13.71625,-0.21875 25.03625,1.08875 7.185,0.87 11.97625,7.18375 12.62875,13.0625 1.09,12.1925 0.87125,22.64375 0.87125,24.6025 0,1.96 0.435,11.7575 -0.87125,24.60375 -0.6525,6.53125 -5.8775,12.41 -12.62875,13.0625 -11.1025,1.30625 -23.0775,1.08875 -25.03625,1.08875 l 0,-8.05625"
             style="fill:#00adef;fill-opacity:1;fill-rule:evenodd;stroke:none"
             id="path3806" />
          <path
             d="m 35.45596,-275.10589 0.435,10.67 15.67625,0 c 0.21625,0 0.6525,0.2175 1.30625,0 0.65125,16.76375 0,21.77125 -0.2175,32.6575 l -7.185,0.43625 c 0.21625,-4.79125 0.21625,-8.9275 0.21625,-11.3225 l -2.61125,0 c 0,0 -0.21875,0 -0.435,0 l -0.21875,-10.015 -6.09625,0 0.87125,28.73875 c -6.9675,0.21875 -11.10375,0.21875 -17.4175,0 l 0.87,-28.73875 -6.09625,0 -0.435,10.015 c -0.2175,0 -0.2175,0 -0.435,0 l -2.6125,0 c 0,2.395 0.2175,6.53125 0.435,11.3225 l -7.185,-0.43625 c -0.435,-10.88625 -0.87125,-15.89375 -0.2175,-32.6575 0.65375,0.2175 0.87125,0 1.0875,0 l 15.89375,0 0.21875,-5.88 -6.09625,0.21875 c 0.2175,-0.435 0.2175,-0.65375 0.2175,-0.87125 l 0.2175,-3.91875 c 0,-0.43625 0,-0.65375 -0.2175,-1.08875 7.185,-0.2175 11.975,-0.435 20.03125,0 0,0.435 0,0.87 0,0.87"
             style="fill:#00adef;fill-opacity:1;fill-rule:evenodd;stroke:none"
             id="path3808" />
          <path
             d="m 128.85721,-265.30714 3.04785,0 0,-15.02387 -3.04785,0 0,15.02387 z"
             style="fill:#231f20;fill-opacity:1;fill-rule:evenodd;stroke:none"
             id="path3814" />
          <path
             d="m 108.17471,-280.33089 -3.04875,0 c 0,0 0.21875,1.3075 0.21875,3.70125 0,2.1775 0,11.3225 0,11.3225 l 3.0475,0 c 0,0 0,-10.01625 0,-11.10375 0,-1.09 0.435,-2.1775 1.95875,-2.1775 1.3075,0 1.7425,1.0875 1.7425,2.1775 0,0.87 0,11.10375 0,11.10375 l 3.265,0 c 0,0 0,-9.3625 0,-10.88625 0,-3.26625 -1.52375,-4.355 -3.91875,-4.355 -1.96,0 -2.395,0.65375 -3.0475,1.08875 0,0 0,0 -0.2175,-0.87125"
             style="fill:#231f20;fill-opacity:1;fill-rule:evenodd;stroke:none"
             id="path3820" />
          <path
             d="m 123.85096,-273.14589 c 0,-1.08875 0,-1.96 0,-3.265 0,-2.1775 -1.96125,-2.1775 -1.96125,-2.1775 -1.74,0 -2.17625,1.30625 -2.17625,5.4425 0,3.26625 0,5.87875 2.17625,5.87875 2.1775,0 1.96125,-2.1775 1.96125,-3.70125 0,-0.87125 0,-1.74125 0,-2.1775 l 3.0475,0 c 0,0.87 0,1.74125 0,2.1775 0,3.0475 0.2175,5.66125 0.2175,5.66125 l -3.04875,0 c 0,-0.87125 -0.21625,-1.3075 -0.21625,-1.3075 -0.65375,0.65375 -1.30625,1.525 -2.83125,1.525 -3.91875,0 -3.91875,-3.48375 -4.1375,-4.79 0,-1.08875 0,-5.66125 0,-7.185 0.21875,-0.87125 0.8725,-3.48375 3.92,-3.48375 2.1775,0 2.6125,0.87125 3.04875,1.08875 l 0,-6.53125 3.0475,0 c 0,1.74125 0,8.92625 0,12.845 l -3.0475,0"
             style="fill:#231f20;fill-opacity:1;fill-rule:evenodd;stroke:none"
             id="path3822" />
          <path
             d="m 92.71596,-280.33089 c 0,-1.96 0,-6.31375 -5.66,-6.31375 -5.87875,0 -5.87875,4.35375 -5.87875,5.44375 0,1.30625 -0.21875,3.7 3.4825,5.66 1.3075,0.87125 2.6125,1.52375 3.04875,1.7425 0.2175,0.2175 2.1775,0.87125 2.1775,3.4825 0,2.83125 -2.395,3.04875 -2.83,3.04875 -1.3075,0 -2.61375,-0.43625 -3.04875,-2.6125 0,-0.43625 0,-0.87125 0,-1.96 l -3.4825,0 c 0,0 0,3.70125 1.5225,5.225 1.525,1.525 3.04875,1.7425 4.79125,1.7425 1.74125,0 3.7,-0.435 4.78875,-1.52375 1.08875,-1.3075 1.52375,-2.395 1.52375,-4.13625 0,-1.96 -0.435,-3.92 -3.4825,-5.87875 -1.08875,-0.65375 -2.1775,-1.09 -3.26625,-1.7425 -1.30625,-0.65375 -2.1775,-1.74125 -2.1775,-3.265 0,-1.525 1.08875,-2.61375 2.61375,-2.61375 1.74125,0 2.61125,0.87125 2.61125,2.61375 0,0.2175 0,1.0875 0,1.0875 l 3.26625,0"
             style="fill:#231f20;fill-opacity:1;fill-rule:evenodd;stroke:none"
             id="path3824" />
          <path
             d="m 128.85721,-282.94339 3.04785,0 0,-3.04834 -3.04785,0 0,3.04834 z"
             style="fill:#231f20;fill-opacity:1;fill-rule:evenodd;stroke:none"
             id="path3826" />
          <path
             sodipodi:nodetypes="cssccsccsscccccccscccc"
             d="m 150.41221,-246.14839 c 0,-1.30625 -0.2175,-2.83 -0.2175,-4.13625 0,-2.83 -1.30625,-4.5725 -4.5725,-4.5725 -3.48375,0 -5.0075,1.7425 -4.79,4.5725 l 3.04875,0 c 0,-1.30625 -0.2175,-2.6125 1.52375,-2.6125 1.96,0 1.74125,1.30625 1.96,2.6125 0,1.08875 0,1.30625 0,1.30625 0,0 -2.6125,0.21875 -4.13625,0.6525 -1.525,0.43625 -2.83125,1.525 -2.83125,4.355 0,2.1775 0.6525,4.5725 3.70125,4.78875 1.52375,0 2.6125,-1.0875 3.0475,-1.5225 0,0 0.21875,0 0.43625,1.0875 l 2.83,0 c 0,0 0,-3.56419 0,-6.61169 l -3.0475,0 c 0,0.435 0,1.60544 0,1.82294 -0.21875,1.0875 -0.65375,2.83 -2.395,2.83 -1.74125,0 -1.74125,-1.96 -1.525,-3.4825 0.21875,-1.3075 1.7425,-1.7425 3.92,-1.7425 0,0 0,0.2175 0,0.6525 l 3.0475,0"
             style="fill:#231f20;fill-opacity:1;fill-rule:nonzero;stroke:none"
             id="path3828" />
          <path
             sodipodi:nodetypes="cssccsccsscccccccscccc"
             d="m 104.69096,-246.14839 c 0,-1.30625 -0.2175,-2.83 -0.2175,-4.13625 0,-2.83 -1.30625,-4.5725 -4.57125,-4.5725 -3.485,0 -5.00875,1.7425 -4.79125,4.5725 l 3.04875,0 c 0,-1.30625 -0.2175,-2.6125 1.52375,-2.6125 1.96,0 1.74125,1.30625 1.96,2.6125 0,1.08875 0,1.30625 0,1.30625 0,0 -2.61375,0.21875 -4.1375,0.6525 -1.52375,0.43625 -2.83,1.525 -2.83,4.355 0,2.1775 0.6525,4.5725 3.7,4.78875 1.52625,0 2.61375,-1.0875 3.04875,-1.5225 0,0 0.21875,0 0.435,1.0875 l 2.83125,0 c 0,0 0,-3.49622 0,-6.54372 l -3.0475,0 c 0,0.435 0,1.53747 0,1.75497 -0.21875,1.0875 -0.65375,2.83 -2.395,2.83 -1.7425,0 -1.7425,-1.96 -1.525,-3.4825 0.21875,-1.3075 1.74125,-1.7425 3.92,-1.7425 0,0 0,0.2175 0,0.6525 l 3.0475,0"
             style="fill:#231f20;fill-opacity:1;fill-rule:nonzero;stroke:none"
             id="path3832" />
          <path
             d="m 124.93846,-248.10714 c 0,0.6525 0,1.08875 0,1.52375 0,1.0875 0,1.74125 0,2.83 0,1.30625 -0.435,2.395 -1.95875,2.395 -1.52375,0 -2.1775,-0.87125 -2.1775,-2.395 0,-1.95875 0,-3.91875 0,-6.31375 0,-2.39625 1.30625,-2.6125 1.95875,-2.6125 1.09,0 2.1775,0.21625 2.1775,2.6125 0,0.65375 0,1.3075 0,1.96 l 3.04875,0 c 0,-1.30625 0,-2.39625 -0.2175,-2.83125 -0.435,-2.83 -2.6125,-3.91875 -5.00875,-3.70125 -2.61125,0 -4.35375,0.87125 -4.79,3.70125 -0.21625,1.525 -0.21625,6.5325 0.21875,8.27375 0.2175,1.74125 1.74125,3.4825 4.79,3.4825 3.0475,0 4.5725,-1.5225 4.79,-3.7 0.2175,-1.08875 0.2175,-2.395 0.2175,-3.91875 0,-0.435 0,-0.87125 0,-1.30625 l -3.04875,0"
             style="fill:#231f20;fill-opacity:1;fill-rule:evenodd;stroke:none"
             id="path3836" />
          <path
             d="m 85.53096,-260.29964 -5.00625,0 0,20.90125 3.0475,0 0,-16.765 4.57125,16.765 5.0075,0 0,-20.90125 -3.0475,0 0,16.32875 -4.5725,-16.32875"
             style="fill:#231f20;fill-opacity:1;fill-rule:evenodd;stroke:none"
             id="path3838" />
          <path
             d="m 109.91596,-252.46339 2.1775,0 0,-2.17625 -2.1775,0 c 0,-2.1775 0,-3.91875 0,-3.91875 l -3.0475,1.30625 c 0,0 0,1.08875 0,2.6125 l -1.7425,0 0,2.17625 1.7425,0 c 0,3.92 0,9.145 0,9.79875 0,1.30625 0,3.26625 3.4825,3.26625 0.43625,0 1.7425,0 1.7425,0 l 0,-2.1775 c 0,0 -0.8725,0 -1.30625,0 -0.43625,0 -0.87125,-0.2175 -0.87125,-1.7425 0,-0.6525 0,-5.225 0,-9.145"
             style="fill:#231f20;fill-opacity:1;fill-rule:evenodd;stroke:none"
             id="path3840" />
          <path
             d="m 113.18221,-239.39839 3.04785,0 0,-15.24075 -3.04785,0 0,15.24075 z"
             style="fill:#231f20;fill-opacity:1;fill-rule:evenodd;stroke:none"
             id="path3842" />
          <path
             d="m 113.18221,-257.25214 3.04785,0 0,-3.04736 -3.04785,0 0,3.04736 z"
             style="fill:#231f20;fill-opacity:1;fill-rule:evenodd;stroke:none"
             id="path3844" />
          <path
             d="m 132.34221,-254.63964 -3.05,0 c 0,0 0.21875,1.30625 0.21875,3.70125 0,2.17875 0,11.54 0,11.54 l 3.0475,0 c 0,0 0,-10.23375 0,-11.32125 0,-1.08875 0.43625,-2.1775 1.7425,-2.1775 1.52375,0 1.96,1.08875 1.96,2.1775 0,0.87 0,11.32125 0,11.32125 l 3.0475,0 c 0,0 0,-9.58 0,-11.105 0,-3.265 -1.52375,-4.35375 -3.91875,-4.35375 -1.96,0 -2.395,0.65375 -3.0475,1.08875 0,0 0,0 0,-0.87125"
             style="fill:#231f20;fill-opacity:1;fill-rule:evenodd;stroke:none"
             id="path3846" />
          <path
             d="m 152.37221,-239.39839 3.04785,0 0,-20.90138 -3.04785,0 0,20.90138 z"
             style="fill:#231f20;fill-opacity:1;fill-rule:evenodd;stroke:none"
             id="path3848" />
          <path
             d="m 155.41971,-222.41589 c 0,0.6525 0,1.0875 0,1.52375 0,1.0875 0,1.74125 0,2.83 -0.2175,1.525 -0.65375,2.395 -2.1775,2.395 -1.5225,0 -1.95875,-0.87 -1.95875,-2.395 0,-1.95875 0,-3.91875 0,-6.31375 0,-2.1775 1.08875,-2.395 1.74125,-2.61375 1.30625,0 2.1775,0.21875 2.395,2.61375 0,0.65375 0,1.30625 0,1.96 l 3.0475,0 c 0,-1.08875 -0.2175,-2.1775 -0.2175,-2.83 -0.435,-2.83125 -2.6125,-3.7025 -5.225,-3.7025 -2.395,0 -4.13625,1.08875 -4.5725,3.91875 -0.2175,1.3075 -0.2175,6.315 0,8.05625 0.43625,1.95875 1.7425,3.48375 4.79,3.48375 3.04875,0 4.79,-1.525 5.0075,-3.70125 0,-1.08875 0.2175,-2.395 0.2175,-3.92 0,-0.435 0,-0.87 0,-1.305 l -3.0475,0"
             style="fill:#231f20;fill-opacity:1;fill-rule:evenodd;stroke:none"
             id="path3850" />
          <path
             d="m 119.06096,-222.41589 c 0,0.6525 0,1.0875 0,1.52375 0,1.0875 0,1.74125 0,2.83 0,1.525 -0.43625,2.395 -1.96,2.395 -1.7425,0 -2.1775,-0.87 -2.1775,-2.395 0,-1.95875 0,-3.91875 0,-6.31375 0,-2.1775 1.08875,-2.395 1.95875,-2.61375 1.08875,0 2.17875,0.21875 2.17875,2.61375 0,0.65375 0,1.30625 0,1.96 l 3.0475,0 c 0,-1.08875 0,-2.1775 -0.21875,-2.83 -0.43375,-2.83125 -2.61125,-3.7025 -5.0075,-3.7025 -2.61125,0 -4.35375,1.08875 -4.78875,3.91875 -0.21875,1.3075 -0.21875,6.315 0,8.05625 0.435,1.95875 1.95875,3.48375 5.0075,3.48375 3.04875,0 4.5725,-1.525 4.78875,-3.70125 0.21875,-1.08875 0.21875,-2.395 0.21875,-3.92 0,-0.435 0,-0.87 0,-1.305 l -3.0475,0"
             style="fill:#231f20;fill-opacity:1;fill-rule:evenodd;stroke:none"
             id="path3852" />
          <path
             sodipodi:nodetypes="cssccscccsccccccsscccc"
             d="m 139.74346,-220.45714 c 0,-1.30625 0,-2.83 0,-3.91875 0,-2.83 -1.52375,-4.79 -4.79,-4.79 -3.265,0 -4.78875,1.7425 -4.78875,4.5725 l 3.0475,0 c 0,-1.30625 0,-2.39625 1.74125,-2.39625 1.7425,0 1.7425,1.09 1.7425,2.39625 0.2175,1.30625 0,1.30625 0,1.30625 0,0 -2.395,0.2175 -3.92,0.6525 -1.52375,0.65375 -2.83,1.7425 -2.83,4.355 0,2.395 0.43625,4.5725 3.48375,4.79 1.7425,0 2.83125,-0.87125 3.26625,-1.525 0,0 0.2175,0 0.2175,1.3075 l 3.0475,0 c 0,0 -0.2175,-3.7914 -0.2175,-6.84015 l -3.0475,0 c 0,0.435 0,1.61515 0,2.05015 0,1.08875 -0.435,2.6125 -2.1775,2.6125 -1.96,0 -1.7425,-1.96 -1.52375,-3.26625 0.2175,-1.52375 1.74125,-1.74125 3.70125,-1.96 0,0 0,0.21875 0,0.65375 l 3.0475,0"
             style="fill:#231f20;fill-opacity:1;fill-rule:nonzero;stroke:none"
             id="path3854" />
          <path
             sodipodi:nodetypes="cssccscccsccccccsscccc"
             d="m 98.59471,-220.45714 c 0,-1.30625 0,-2.83 0,-3.91875 0,-2.83 -1.52375,-4.79 -4.79,-4.79 -3.26625,0 -4.79,1.7425 -4.79,4.5725 l 3.0475,0 c 0.21875,-1.30625 0,-2.39625 1.7425,-2.39625 1.74125,0 1.74125,1.09 1.74125,2.39625 0.2175,1.30625 0,1.30625 0,1.30625 0,0 -2.395,0.2175 -3.91875,0.6525 -1.52375,0.65375 -2.83,1.7425 -2.83,4.355 0,2.395 0.435,4.5725 3.48375,4.79 1.74125,0 2.83,-0.87125 3.265,-1.525 0,0 0.2175,0 0.2175,1.3075 l 3.04875,0 c 0,0 -0.2175,-3.72343 -0.2175,-6.77218 l -3.04875,0 c 0,0.435 0,1.54718 0,1.98218 0,1.08875 -0.435,2.6125 -2.1775,2.6125 -1.95875,0 -1.74125,-1.96 -1.52375,-3.26625 0.2175,-1.52375 1.7425,-1.74125 3.70125,-1.96 0,0 0,0.21875 0,0.65375 l 3.04875,0"
             style="fill:#231f20;fill-opacity:1;fill-rule:nonzero;stroke:none"
             id="path3858" />
          <path
             d="m 169.57221,-228.94839 -2.83125,0 0,15.24125 3.04875,0 -0.2175,-15.24125"
             style="fill:#231f20;fill-opacity:1;fill-rule:evenodd;stroke:none"
             id="path3862" />
          <path
             d="m 80.52471,-213.70714 7.40125,0 0,-2.61375 -4.13625,0 0,-18.07 -3.265,0 0,20.68375"
             style="fill:#231f20;fill-opacity:1;fill-rule:evenodd;stroke:none"
             id="path3864" />
          <path
             d="m 107.52096,-219.36839 c 0,-0.6525 0,-1.30625 0,-2.1775 0,-4.13625 -0.2175,-5.44375 -1.96,-5.44375 -0.21625,0 -2.17625,0 -2.17625,2.17875 l 0,5.87875 c 0,0.87 0,3.265 2.17625,3.265 1.7425,0 1.96,-1.52375 1.96,-3.70125 l 2.83,0 c 0,0.43625 0,0.87125 0,1.30625 -0.21625,1.30625 -0.21625,4.5725 -4.13625,4.5725 -1.30625,0 -2.17625,-0.87125 -2.83,-1.525 0,0 -0.2175,0.4375 -0.2175,1.3075 l -3.04875,0 c 0,0 0.2175,-1.3075 0.2175,-3.70125 l 0,-16.9825 3.04875,0 0,6.53125 c 0.65375,-0.2175 1.08875,-1.08875 3.0475,-1.08875 3.0475,0 3.7025,2.6125 3.91875,3.48375 0,1.08875 0.21875,4.13625 0,6.09625 l -2.83,0"
             style="fill:#231f20;fill-opacity:1;fill-rule:evenodd;stroke:none"
             id="path3866" />
          <path
             d="m 129.72846,-228.94839 c -2.6125,-0.2175 -2.83,1.95875 -3.26625,1.95875 0,0 0,-1.305 -0.2175,-1.95875 l -2.83,0 c 0,0 0.2175,1.3075 0.2175,3.48375 0,2.395 0,11.7575 0,11.7575 l 3.04875,0 c 0,0 0,-8.9275 0,-10.015 0,-1.08875 0.435,-2.61375 2.83,-2.83125 l 0.2175,-2.395"
             style="fill:#231f20;fill-opacity:1;fill-rule:evenodd;stroke:none"
             id="path3868" />
          <path
             d="m 145.18721,-226.77089 2.1775,0 0,-2.1775 -2.1775,0 c 0,-2.17625 0,-3.91875 0,-3.91875 l -2.83,1.30625 c 0,0 0,1.08875 0,2.6125 l -1.96,0 0,2.1775 1.96,0 c 0,4.13625 0,9.145 0,9.7975 0,1.30625 0,3.26625 3.265,3.26625 0.43625,0 1.96,0 1.96,0 l 0,-2.1775 c 0,0 -1.08875,0 -1.3075,0 -0.6525,0 -1.0875,0 -1.0875,-1.52375 0,-0.87125 0,-5.4425 0,-9.3625"
             style="fill:#231f20;fill-opacity:1;fill-rule:evenodd;stroke:none"
             id="path3870" />
          <path
             d="m 165.65221,-228.94839 c -2.17625,0 -2.61125,1.95875 -2.83,1.95875 0,0 -0.2175,-1.305 -0.2175,-1.95875 l -3.0475,0 c 0,0 0.21625,1.3075 0.21625,3.48375 0,2.395 0,11.7575 0,11.7575 l 3.2675,0 c 0,0 0,-8.9275 0,-10.015 0,-1.08875 0.435,-2.61375 2.61125,-2.83125 l 0,-2.395"
             style="fill:#231f20;fill-opacity:1;fill-rule:evenodd;stroke:none"
             id="path3872" />
          <path
             d="m 166.74096,-231.34214 2.83056,0 0,-3.04785 -2.83056,0 0,3.04785 z"
             style="fill:#231f20;fill-opacity:1;fill-rule:evenodd;stroke:none"
             id="path3874" />
          <path
             d="m 175.66846,-222.63464 -1.7425,0 c 0,-0.435 0,-1.0875 0,-1.74125 0.2175,-2.395 1.08875,-2.61375 1.96,-2.61375 1.30625,0 1.95875,0.65375 1.95875,2.83125 0,0.43625 0,1.3075 0,1.52375 l -2.17625,0 0,2.1775 5.225,0 c 0.2175,-1.74125 0,-3.91875 0,-4.78875 -0.435,-2.83125 -2.395,-3.7025 -5.0075,-3.7025 -2.395,0 -4.355,0.87125 -4.79,3.7025 -0.2175,1.52375 0,6.31375 0.2175,8.055 0.2175,1.96 1.7425,3.70125 4.5725,3.70125 3.0475,0 4.5725,-1.525 4.79,-3.70125 0.2175,-0.435 0.2175,-0.65375 0.2175,-1.30625 l -3.04875,0 c 0,1.08875 0,0.2175 0,0.6525 0,1.3075 -0.435,2.1775 -1.95875,2.1775 -1.52375,0 -1.7425,-1.08875 -1.7425,-2.6125 0,-0.6525 0,-1.525 0,-2.1775 l 1.525,0 0,-2.1775"
             style="fill:#231f20;fill-opacity:1;fill-rule:evenodd;stroke:none"
             id="path3876" />
          <path
             d="m 191.12596,-224.37589 c 0,-1.7425 0.21875,-4.5725 -4.355,-4.5725 -3.9175,0 -4.78875,2.395 -4.78875,3.7025 0,1.0875 0,1.74125 1.74125,3.265 0.65375,0.87 2.6125,1.96 3.48375,2.6125 0.21875,0.2175 1.30625,0.87125 1.30625,2.1775 0,1.52375 -1.52375,1.52375 -1.7425,1.52375 -1.0875,0 -1.74125,-0.435 -1.95875,-1.52375 0,-0.435 0,-0.87125 0,-1.30625 l -3.04875,0 c 0,0 -0.21625,1.96 0.65375,3.26625 0.87125,1.30625 2.83125,1.74125 4.35375,1.74125 1.3075,0 2.61375,-0.2175 3.48375,-1.0875 0.87125,-0.8725 1.09,-1.525 1.09,-3.04875 0,-1.30625 -0.21875,-2.17875 -1.96,-3.7025 -0.6525,-0.435 -1.95875,-1.5225 -2.83125,-1.95875 -0.87,-0.435 -1.52375,-1.08875 -1.52375,-2.1775 0,-1.08875 0.65375,-1.525 1.74125,-1.525 1.09,0 1.3075,0.87125 1.3075,1.96 0,0.21875 0.2175,0.65375 0.2175,0.65375 l 2.83,0"
             style="fill:#231f20;fill-opacity:1;fill-rule:evenodd;stroke:none"
             id="path3878" />
          <path
             id="path4100"
             style="fill:#231f20;fill-opacity:1;fill-rule:nonzero;stroke:none"
             d="m 103.79753,-271.84411 c 0,-1.30625 -0.2175,-2.83 -0.2175,-4.13625 0,-2.83 -1.30625,-4.5725 -4.571247,-4.5725 -3.484998,0 -5.008748,1.7425 -4.791248,4.5725 l 3.04875,0 c 0,-1.30625 -0.2175,-2.6125 1.523748,-2.6125 1.959997,0 1.741247,1.30625 1.959997,2.6125 0,1.08875 0,1.30625 0,1.30625 0,0 -2.613747,0.21875 -4.137495,0.6525 -1.52375,0.43625 -2.83,1.525 -2.83,4.355 0,2.1775 0.6525,4.5725 3.699998,4.78875 1.52625,0 2.613747,-1.0875 3.048747,-1.5225 0,0 0.21875,0 0.435,1.0875 l 2.83125,0 c 0,0 0,-3.49622 0,-6.54372 l -3.0475,0 c 0,0.435 0,1.53747 0,1.75497 -0.21875,1.0875 -0.65375,2.83 -2.394997,2.83 -1.742498,0 -1.742498,-1.96 -1.524998,-3.4825 0.21875,-1.3075 1.741248,-1.7425 3.919995,-1.7425 0,0 0,0.2175 0,0.6525 l 3.0475,0"
             sodipodi:nodetypes="cssccsccsscccccccscccc" />
          <path
             sodipodi:nodetypes="cssccsccsscccccccscccc"
             d="m 143.01112,-271.84411 c 0,-1.30625 -0.2175,-2.83 -0.2175,-4.13625 0,-2.83 -1.30625,-4.5725 -4.57125,-4.5725 -3.48499,0 -5.00874,1.7425 -4.79124,4.5725 l 3.04875,0 c 0,-1.30625 -0.2175,-2.6125 1.52374,-2.6125 1.96,0 1.74125,1.30625 1.96,2.6125 0,1.08875 0,1.30625 0,1.30625 0,0 -2.61375,0.21875 -4.13749,0.6525 -1.52375,0.43625 -2.83,1.525 -2.83,4.355 0,2.1775 0.6525,4.5725 3.69999,4.78875 1.52625,0 2.61375,-1.0875 3.04875,-1.5225 0,0 0.21875,0 0.435,1.0875 l 2.83125,0 c 0,0 0,-3.49622 0,-6.54372 l -3.0475,0 c 0,0.435 0,1.53747 0,1.75497 -0.21875,1.0875 -0.65375,2.83 -2.395,2.83 -1.74249,0 -1.74249,-1.96 -1.52499,-3.4825 0.21875,-1.3075 1.74124,-1.7425 3.91999,-1.7425 0,0 0,0.2175 0,0.6525 l 3.0475,0"
             style="fill:#231f20;fill-opacity:1;fill-rule:nonzero;stroke:none"
             id="path4123" />
        </g>
      </g>
      <text
         transform="scale(1.2804262,0.78098995)"
         sodipodi:linespacing="100%"
         id="text5610"
         y="1189.353"
         x="291.69754"
         style="font-size:53.9740448px;font-style:normal;font-variant:normal;font-weight:normal;font-stretch:normal;text-align:center;line-height:100%;writing-mode:lr-tb;text-anchor:middle;fill:#000000;fill-opacity:1;stroke:none;font-family:Nimbus Sans L Condensed;-inkscape-font-specification:'Nimbus Sans L Condensed,'"
         xml:space="preserve"><tspan
           y="1189.353"
           x="291.69754"
           id="tspan5612"
           sodipodi:role="line">Pantex</tspan></text>
      <g
         inkscape:label="Layer 1"
         id="layer1-9"
         transform="matrix(0.39031496,0,0,0.39031496,412.02447,664.92169)">
        <g
           id="g4433"
           clip-path="url(#clipPath4438)"
           transform="translate(-17.142857,-2.8571414)">
          <rect
             transform="translate(731.42857,645.79075)"
             clip-path="none"
             ry="0"
             y="-310.20306"
             x="-390.26068"
             height="253.9444"
             width="283.53024"
             id="rect4259"
             style="fill:none;stroke:#124a90;stroke-width:30.51860046;stroke-linecap:butt;stroke-linejoin:round;stroke-miterlimit:4;stroke-opacity:1;stroke-dasharray:none" />
          <rect
             transform="translate(731.42857,645.79075)"
             clip-path="none"
             ry="29.585764"
             y="-347.67834"
             x="-428.47552"
             height="329.38824"
             width="362.4256"
             id="rect4261"
             style="fill:none;stroke:#124a90;stroke-width:30.51860046;stroke-linecap:butt;stroke-linejoin:miter;stroke-miterlimit:4;stroke-opacity:1;stroke-dasharray:none" />
          <rect
             transform="translate(731.42857,645.79075)"
             clip-path="none"
             ry="66.074875"
             y="-391.56393"
             x="-466.69046"
             height="411.24243"
             width="443.7865"
             id="rect4263"
             style="fill:none;stroke:#124a90;stroke-width:30.51860046;stroke-linecap:butt;stroke-linejoin:miter;stroke-miterlimit:4;stroke-opacity:1;stroke-dasharray:none" />
        </g>
      </g>
      <text
         sodipodi:linespacing="100%"
         id="text7363"
         y="865.34491"
         x="599.67218"
         style="font-size:20px;font-style:normal;font-variant:normal;font-weight:normal;font-stretch:normal;text-align:start;line-height:100%;writing-mode:lr-tb;text-anchor:start;fill:#000000;fill-opacity:1;stroke:none;font-family:Sans;-inkscape-font-specification:Sans"
         xml:space="preserve"><tspan
           y="865.34491"
           x="599.67218"
           id="tspan7365"
           sodipodi:role="line">Lawrence</tspan><tspan
           id="tspan7367"
           y="885.34491"
           x="599.67218"
           sodipodi:role="line">Livermore</tspan><tspan
           id="tspan7369"
           y="905.34491"
           x="599.67218"
           sodipodi:role="line">National</tspan><tspan
           id="tspan7371"
           y="925.34491"
           x="599.67218"
           sodipodi:role="line">Laboratory</tspan></text>
    </g>
  </g>
</svg>
