<?xml version="1.0" encoding="UTF-8" standalone="no"?>
<!-- Created with Inkscape (http://www.inkscape.org/) -->

<svg
   xmlns:dc="http://purl.org/dc/elements/1.1/"
   xmlns:cc="http://creativecommons.org/ns#"
   xmlns:rdf="http://www.w3.org/1999/02/22-rdf-syntax-ns#"
   xmlns:svg="http://www.w3.org/2000/svg"
   xmlns="http://www.w3.org/2000/svg"
   xmlns:sodipodi="http://sodipodi.sourceforge.net/DTD/sodipodi-0.dtd"
   xmlns:inkscape="http://www.inkscape.org/namespaces/inkscape"
   width="283.42776"
   height="589.51678"
   id="svg3193"
   version="1.1"
   inkscape:version="0.47 r22583"
   sodipodi:docname="discoguy.svg">
  <defs
     id="defs3195">
    <inkscape:path-effect
       effect="curvestitching"
       id="path-effect3259"
       is_visible="true"
       count="5"
       startpoint_edge_variation="0;1"
       startpoint_spacing_variation="0;1"
       endpoint_edge_variation="0;1"
       endpoint_spacing_variation="0;1"
       strokepath="m 329.79848,503.79075 353.03756,0"
       prop_scale="1"
       scale_y_rel="false" />
    <inkscape:path-effect
       effect="vonkoch"
       id="path-effect3257"
       is_visible="true"
       ref_path="m 329.79848,503.79075 353.03756,0"
       generator="m 329.79848,700.48712 117.67919,0 m 117.67918,0 117.67919,0"
       similar_only="false"
       nbgenerations="1"
       drawall="true"
       maxComplexity="1000" />
    <inkscape:path-effect
       effect="ruler"
       id="path-effect3255"
       is_visible="true"
       unit="px"
       mark_distance="20"
       mark_length="14"
       minor_mark_length="7"
       major_mark_steps="5"
       shift="0"
       offset="0"
       mark_dir="left"
       border_marks="both" />
    <inkscape:path-effect
       effect="gears"
       id="path-effect3253"
       is_visible="true"
       teeth="10"
       phi="5" />
    <inkscape:path-effect
       effect="envelope"
       id="path-effect3251"
       is_visible="true"
       yy="true"
       xx="true"
       bendpath1="m 329.79848,307.09438 353.03756,0"
       bendpath2="m 682.83604,307.09438 0,393.39274"
       bendpath3="m 329.79848,700.48712 353.03756,0"
       bendpath4="m 329.79848,307.09438 0,393.39274" />
    <inkscape:path-effect
       effect="construct_grid"
       id="path-effect3249"
       is_visible="true"
       nr_x="5"
       nr_y="5" />
    <inkscape:path-effect
       effect="bend_path"
       id="path-effect3247"
       is_visible="true"
       bendpath="m 329.79848,503.79075 353.03756,0"
       prop_scale="1"
       scale_y_rel="false"
       vertical="false" />
    <inkscape:path-effect
       effect="bend_path"
       id="path-effect3245"
       is_visible="true"
       bendpath="m 329.79848,503.79075 353.03756,0"
       prop_scale="1"
       scale_y_rel="false"
       vertical="false" />
    <inkscape:path-effect
       effect="bend_path"
       id="path-effect3243"
       is_visible="true"
       bendpath="m 329.79848,503.79075 353.03756,0"
       prop_scale="1"
       scale_y_rel="false"
       vertical="false" />
    <inkscape:perspective
       sodipodi:type="inkscape:persp3d"
       inkscape:vp_x="0 : 526.18109 : 1"
       inkscape:vp_y="0 : 1000 : 0"
       inkscape:vp_z="744.09448 : 526.18109 : 1"
       inkscape:persp3d-origin="372.04724 : 350.78739 : 1"
       id="perspective3201" />
    <inkscape:perspective
       id="perspective3188"
       inkscape:persp3d-origin="0.5 : 0.33333333 : 1"
       inkscape:vp_z="1 : 0.5 : 1"
       inkscape:vp_y="0 : 1000 : 0"
       inkscape:vp_x="0 : 0.5 : 1"
       sodipodi:type="inkscape:persp3d" />
    <inkscape:perspective
       id="perspective3320"
       inkscape:persp3d-origin="0.5 : 0.33333333 : 1"
       inkscape:vp_z="1 : 0.5 : 1"
       inkscape:vp_y="0 : 1000 : 0"
       inkscape:vp_x="0 : 0.5 : 1"
       sodipodi:type="inkscape:persp3d" />
    <inkscape:perspective
       id="perspective3537"
       inkscape:persp3d-origin="0.5 : 0.33333333 : 1"
       inkscape:vp_z="1 : 0.5 : 1"
       inkscape:vp_y="0 : 1000 : 0"
       inkscape:vp_x="0 : 0.5 : 1"
       sodipodi:type="inkscape:persp3d" />
    <inkscape:perspective
       id="perspective3537-9"
       inkscape:persp3d-origin="0.5 : 0.33333333 : 1"
       inkscape:vp_z="1 : 0.5 : 1"
       inkscape:vp_y="0 : 1000 : 0"
       inkscape:vp_x="0 : 0.5 : 1"
       sodipodi:type="inkscape:persp3d" />
    <inkscape:perspective
       id="perspective4412"
       inkscape:persp3d-origin="0.5 : 0.33333333 : 1"
       inkscape:vp_z="1 : 0.5 : 1"
       inkscape:vp_y="0 : 1000 : 0"
       inkscape:vp_x="0 : 0.5 : 1"
       sodipodi:type="inkscape:persp3d" />
    <inkscape:perspective
       id="perspective4412-6"
       inkscape:persp3d-origin="0.5 : 0.33333333 : 1"
       inkscape:vp_z="1 : 0.5 : 1"
       inkscape:vp_y="0 : 1000 : 0"
       inkscape:vp_x="0 : 0.5 : 1"
       sodipodi:type="inkscape:persp3d" />
    <inkscape:perspective
       id="perspective4503"
       inkscape:persp3d-origin="0.5 : 0.33333333 : 1"
       inkscape:vp_z="1 : 0.5 : 1"
       inkscape:vp_y="0 : 1000 : 0"
       inkscape:vp_x="0 : 0.5 : 1"
       sodipodi:type="inkscape:persp3d" />
    <inkscape:perspective
       id="perspective4520"
       inkscape:persp3d-origin="0.5 : 0.33333333 : 1"
       inkscape:vp_z="1 : 0.5 : 1"
       inkscape:vp_y="0 : 1000 : 0"
       inkscape:vp_x="0 : 0.5 : 1"
       sodipodi:type="inkscape:persp3d" />
    <inkscape:perspective
       id="perspective4520-9"
       inkscape:persp3d-origin="0.5 : 0.33333333 : 1"
       inkscape:vp_z="1 : 0.5 : 1"
       inkscape:vp_y="0 : 1000 : 0"
       inkscape:vp_x="0 : 0.5 : 1"
       sodipodi:type="inkscape:persp3d" />
    <inkscape:perspective
       id="perspective3925"
       inkscape:persp3d-origin="0.5 : 0.33333333 : 1"
       inkscape:vp_z="1 : 0.5 : 1"
       inkscape:vp_y="0 : 1000 : 0"
       inkscape:vp_x="0 : 0.5 : 1"
       sodipodi:type="inkscape:persp3d" />
  </defs>
  <sodipodi:namedview
     id="base"
     pagecolor="#ffffff"
     bordercolor="#666666"
     borderopacity="1.0"
     inkscape:pageopacity="0.0"
     inkscape:pageshadow="2"
     inkscape:zoom="0.9899495"
     inkscape:cx="286.65329"
     inkscape:cy="287.98013"
     inkscape:document-units="px"
     inkscape:current-layer="layer2"
     showgrid="false"
     inkscape:window-width="788"
     inkscape:window-height="881"
     inkscape:window-x="0"
     inkscape:window-y="15"
     inkscape:window-maximized="0" />
  <metadata
     id="metadata3198">
    <rdf:RDF>
      <cc:Work
         rdf:about="">
        <dc:format>image/svg+xml</dc:format>
        <dc:type
           rdf:resource="http://purl.org/dc/dcmitype/StillImage" />
        <dc:title />
      </cc:Work>
    </rdf:RDF>
  </metadata>
  <g
     inkscape:label="Layer 1"
     inkscape:groupmode="layer"
     id="layer1"
     transform="translate(-40.879017,-121.0625)">
    <text
       xml:space="preserve"
       style="font-size:100px;font-style:normal;font-variant:normal;font-weight:normal;font-stretch:normal;text-align:start;line-height:125%;writing-mode:lr-tb;text-anchor:start;fill:#000000;fill-opacity:1;stroke:none;font-family:Keep on Truckin;-inkscape-font-specification:Keep on Truckin"
       x="287.89349"
       y="156.35687"
       id="text3637"
       sodipodi:linespacing="125%"><tspan
         sodipodi:role="line"
         id="tspan3639"
         x="287.89349"
         y="156.35687" /></text>
    <g
       transform="matrix(0.60239985,0,0,0.60239985,251.96028,-124.89257)"
       id="g2779"
       style="fill:#00427a;fill-opacity:1;display:inline" />
  </g>
  <g
     inkscape:groupmode="layer"
     id="layer2"
     inkscape:label="Dancers"
     transform="translate(-40.879017,-121.0625)">
    <path
       style="fill:#000000;fill-opacity:1;display:inline"
       d="m 286.40625,121.0625 c -1.50821,0 -12.84375,24.06964 -12.84375,27.28125 1.3e-4,1.60687 0.89859,5.70398 1.96875,9.125 1.07015,3.42103 1.96187,7.69452 1.96875,9.4375 0.0144,2.76856 -2.77833,18.88268 -3.40625,19.65625 -0.12872,0.15791 -1.83972,-0.43089 -3.75,-1.34375 l -3.46875,-1.6875 -17.5863,12.44353 c 5.49604,2.4243 10.59797,4.43801 15.80505,7.49397 0.45406,0.40567 0.16265,1.79055 -0.65625,3.0625 -1.89798,2.94794 -3.92115,8.30055 -6.46875,17.125 -1.12083,3.88181 -3.76423,9.57614 -5.9375,12.78125 -2.15141,3.1729 -4.81758,8.53914 -5.9375,11.90625 -1.12005,3.36709 -2.42429,6.35776 -2.90625,6.65625 -0.48194,0.29849 -1.36356,2.30161 -1.9375,4.4375 -0.57397,2.13595 -1.42236,3.875 -1.90625,3.875 -0.48391,-5e-5 -2.34075,1.51755 -4.125,3.375 -2.06446,2.14915 -4.60073,3.6132 -6.9375,4.03125 -4.20074,0.75151 -4.85501,-0.12194 -1.15625,-1.53125 2.739,-1.04346 5.66179,-6.81851 4.71875,-9.28125 -0.37751,-0.98564 1.47547,-3.80694 5.25,-8.09375 3.2088,-3.64445 6.96912,-8.49884 8.375,-10.75 6.21033,-9.94352 7.35416,-24.96752 5.90625,-37.03125 -0.82948,-6.91108 -0.74894,-5.78318 -5.75,-14.78125 -5.00106,-8.99807 -12.88711,-15.50798 -21.78125,-19.96875 -33.82309,-16.96355 -73.89453,4.4327 -77.09375,41.15625 -1.80927,20.76865 9.99528,41.1065 29.3125,50.40625 8.71395,4.19505 12.23558,7.5491 12.28125,11.625 0.0645,5.76539 -0.95346,6.33003 -8.9375,5 -3.93607,-0.65567 -9.77097,-1.49418 -12.96875,-1.875 l -5.8125,-0.71875 5.0625,5.59375 c 5.29842,5.80923 6.03817,7.40625 3.59375,7.40625 -0.8014,4e-5 -5.62946,1.34637 -10.78125,3 -7.96711,2.55731 -9.69458,3.46615 -11.3125,6.125 -1.06058,1.74298 -1.87297,4.89139 -1.875,7.125 -0.003,3.49186 -0.52333,4.40694 -3.9375,7.15625 -2.15427,1.73475 -3.90625,3.80699 -3.90625,4.625 -1e-5,0.82881 -0.76376,1.40986 -1.71875,1.3125 -3.1132,-0.31734 -4.01418,0.0453 -4.59375,1.78125 -0.31527,0.94439 -2.39769,2.54897 -4.59375,3.5625 -5.31096,2.45112 -16.81736,11.69875 -22.78125,18.3125 -6.081477,6.74421 -12.471409,16.66221 -14.78125,23 -1.680933,4.61206 -7.886198,18.99758 -12.34375,28.5 -1.09643,2.3373 -2.543067,4.39666 -3.1875,4.5625 -2.558182,0.65832 -20.087917,12.10081 -19.4375,12.6875 0.382309,0.34494 5.066654,2.23616 10.40625,4.21875 5.339551,1.98257 10.511364,4.0636 11.5,4.59375 2.433405,1.30493 2.382717,7.24306 -0.125,12.78125 -2.507755,5.53789 -2.598131,10.84825 -0.15625,13.0625 1.027915,0.93212 2.448044,2.96913 3.09375,4.53125 0.645694,1.56202 1.936795,3.06668 2.90625,3.375 0.969476,0.30834 2.036658,1.22933 2.34375,2.03125 0.851784,2.2242 4.728238,3.42006 6.46875,1.96875 0.807852,-0.67366 2.444445,-1.48578 3.65625,-1.78125 1.88563,-0.45969 2.25,-0.15054 2.25,2.1875 -1e-5,2.42993 2.315147,5.81285 3.3125,4.8125 1.10988,-1.11323 4.5,-11.14859 4.5,-13.34375 0,-4.15936 -2.07168,-9.6911 -4.6875,-12.6875 -1.346039,-1.54186 -3.030544,-4.2696 -3.78125,-6.03125 -1.243375,-2.91774 -1.177075,-3.42145 0.65625,-5.90625 1.855207,-2.51449 5.81339,-18.36806 5.84375,-23.40625 0.008,-1.17293 1.55459,-4.23726 3.46875,-6.75 3.48024,-4.56867 5.33237,-8.1554 6.96875,-13.6875 0.47891,-1.61898 1.31816,-2.99582 1.84375,-3.03125 2.56534,-0.17311 7.41624,-4.23416 8.84375,-7.40625 1.00739,-2.23862 3.66476,-5.06022 7.25,-7.59375 3.13237,-2.21351 8.72168,-7.41694 12.40625,-11.59375 9.02812,-10.23418 12.96103,-14.0625 14.46875,-14.0625 0.80658,4e-5 1.49544,1.93097 1.84375,5.3125 0.29972,2.91021 1.98598,8.52934 3.78125,12.5 l 3.28125,7.25 0,16.15625 0,16.1875 -3.46875,6.375 c -6.21657,11.60438 -18.31475,37.70102 -22.5625,48.625 -2.30011,5.91515 -4.81964,11.75334 -5.625,13 -1.30714,2.02328 -1.28765,2.42821 0.0937,3.8125 1.41062,1.41353 1.32908,1.78 -0.5625,4.34375 -1.51251,2.04995 -1.75586,3.14878 -0.96875,3.9375 0.69424,0.69566 0.7565,1.9908 0.21875,3.65625 -0.46008,1.42491 -1.31275,5.9212 -1.90625,9.96875 -0.59353,4.04751 -1.68536,9.12256 -2.40625,11.28125 -0.72093,2.15867 -2.02574,8.5834 -2.9375,14.25 -1.19846,7.44809 -2.44674,11.50906 -4.40625,14.75 -1.49077,2.46581 -2.94157,5.76195 -3.28125,7.34375 -0.9442,4.39665 -20.604147,43.51868 -21.71875,43.21875 l -35.375,55.65625 c -1.723419,4.76007 -14.971579,31.39445 -19.15625,44.15625 -4.184666,12.76184 0.691172,11.64042 15.96875,11.28125 2.561835,-0.054 2.633538,0.41148 2.125,6.03125 -0.463359,5.12041 -0.326461,5.84765 1.53125,6.84375 1.143168,0.61326 4.382197,1.19455 7.1875,1.3125 5.064688,0.21317 5.108944,0.21076 7.4375,-3.96875 l 2.34375,-4.21875 2.5625,2.5625 c 4.110283,4.11874 17.435313,10.0537 26.125,11.625 9.82061,1.77582 15.36866,1.86454 18.5625,0.40625 4.29068,-1.95898 3.19118,-5.28684 -3.34375,-10.09375 -3.57363,-2.62867 -4.65625,-4.03895 -4.65625,-6.0625 1e-5,-1.56528 -0.93662,-3.37181 -2.25,-4.4375 -2.87457,-2.33257 -2.13249,-2.98674 2.0625,-1.78125 6.08812,1.7496 5.78125,2.56482 5.78125,-17.1875 l 0,-18.15625 4.9375,-18.875 c 2.68694,-10.38182 6.39197,-24.60923 8.28125,-31.625 1.88925,-7.01576 3.40456,-14.75545 3.40625,-17.1875 9.9e-4,-2.43216 0.52384,-5.98971 1.09375,-7.875 0.56991,-1.8853 1.41593,-5.81306 1.875,-8.78125 0.60335,-3.90096 2.38875,-7.98072 6.46875,-14.71875 3.10443,-5.12691 7.50267,-13.29921 9.78125,-18.15625 3.794,-8.08736 5.25281,-12.28317 8.1875,-23.65625 0.56919,-2.20595 3.34124,-7.90767 6.21875,-12.6875 4.02848,-6.69169 6.5138,-9.5649 10.65625,-12.5 l 5.375,-3.8125 9.78125,10.125 c 34.78031,35.92184 42.65134,43.77159 48.46875,48.46875 l 6.46875,5.25 -1.78125,6.875 c -2.68054,10.23085 -4.19096,29.65979 -3.59375,46.03125 0.59206,16.2347 -0.62441,25.67219 -6.71875,52 -1.91612,8.27752 -3.23738,15.29328 -2.9375,15.59375 0.29972,0.30031 4.08139,0.16481 8.4375,-0.34375 4.35599,-0.50831 8.10424,-0.70162 8.28125,-0.40625 0.17722,0.29539 0.57839,4.85727 0.96875,10.125 0.64321,8.67987 0.92201,9.63496 2.8125,10.0625 6.30808,1.42711 10.89593,2.32379 11.03125,2.15625 0.0841,-0.10445 1.32965,-2.5105 2.75,-5.34375 3.86653,-7.71314 6.41888,-7.09068 11.34375,2.9375 3.16732,6.4497 5.6307,8.09358 15.15625,10.03125 23.46826,4.77396 33.31404,-7.59364 12.1875,-15.3125 -5.73377,-2.09503 -9.412,-5.43928 -12.5,-11.34375 -1.5692,-3.00022 -1.67717,-2.95999 3.5625,-3.65625 2.59813,-0.34557 5.45027,-1.14398 6.34375,-1.8125 1.46815,-1.09864 1.47231,-1.64343 0.1875,-5.34375 -0.78169,-2.25198 -1.88188,-7.09677 -2.46875,-10.78125 -0.58698,-3.68445 -3.6282,-18.8152 -6.78125,-33.65625 -7.52642,-35.42549 -8.45439,-40.1879 -10.84375,-56.4375 -2.62467,-17.84957 -4.10753,-22.97073 -9.3125,-31.5625 -2.36358,-3.90172 -6.34729,-11.59749 -8.8125,-17.09375 C 269.5973,503.035 265.52138,494.48074 263,489.5625 260.4786,484.6443 258.125,480 258.125,480 l -20.4375,-24.34375 c -12.55666,-13.27401 -12.12941,-12.25145 -7.5625,-19.75 22.38909,-36.76138 34.09275,-73.01935 32.34375,-100 -0.33241,-5.12685 -1.85236,-17.02448 -3.40625,-26.46875 -2.70949,-16.46862 -2.75925,-17.24108 -1.125,-19.59375 0.9372,-1.34921 2.58514,-4.27881 3.6875,-6.4375 1.10224,-2.15867 3.53257,-5.59526 5.40625,-7.625 2.52393,-2.73414 3.84107,-5.47157 5.09375,-10.59375 0.93003,-3.80253 3.11369,-9.85678 4.875,-13.46875 1.76133,-3.612 3.54635,-8.54022 3.9375,-10.96875 0.39112,-2.42852 1.31827,-5.60522 2.0625,-7.0625 0.74403,-1.4573 1.34375,-4.37733 1.34375,-6.46875 0,-2.70605 5.28125,-15.40625 5.28125,-15.40625 l 10.03125,5.46875 -0.46875,-17.09375 c 0,0 -5.68929,-4.25124 -7.8125,-5.0625 -3.43357,-1.70534 0.69504,-18.00523 2.71875,-24.0625 1.97922,-5.9239 2.10742,-8.87599 0.5625,-12.875 -0.41765,-1.08098 0.0387,-1.73544 1.40625,-2.09375 1.10495,-0.28938 2.29465,-1.30603 2.65625,-2.25 1.05022,-2.74244 -1.45351,-10.53021 -4.15625,-12.9375 -2.68294,-2.38987 -7.14147,-2.92482 -9,-1.0625 -2.38381,2.38869 -2.2807,-0.26001 0.28125,-7.96875 2.50894,-7.54897 2.65293,-10.8125 0.5625,-10.8125 z"
       id="path2497"
       sodipodi:nodetypes="cssssccccsssssssssssssszssssscccsssssssssssssssssssssssssssssssssssssscccccsssssssssssccscssscccsssssscccssssssssccccccssssssssssssssssssssssccsssssssssssccccsssssssc" />
    <path
       style="fill:#000000;fill-opacity:1;display:inline"
       d="m 830.17578,414.54492 c -1.14669,-0.0213 -1.75285,0.25883 -3.01847,1.11885 -1.74978,1.18902 -2.13487,1.2754 -4.75637,0.98458 -3.45142,-0.38289 -4.32569,-0.006 -7.0888,3.04326 -1.72103,1.89972 -2.45687,2.32992 -4.64204,2.77473 -4.53756,0.9237 -6.19897,3.29553 -4.25325,6.01939 1.16042,1.62453 0.50405,2.99548 -2.03518,4.34112 -2.95927,1.56821 -3.29226,2.6081 -1.80652,5.34807 1.37786,2.54102 1.45032,3.83429 0.36586,6.06415 -0.68715,1.41302 -0.70411,1.91938 -0.1829,3.62505 0.33275,1.0892 1.27797,2.60017 2.10375,3.35654 1.41977,1.30047 1.65008,1.35577 4.48196,1.09646 1.64705,-0.15082 2.9956,-0.16903 2.9956,-0.0224 0,0.1466 -0.52779,0.67119 -1.16621,1.1636 -3.26181,2.51588 -2.40894,9.33116 1.16621,9.33116 1.4398,10e-6 2.90684,-1.44358 2.83552,-2.79711 -0.0332,-0.62796 -0.0889,-0.61664 -0.32011,0 -0.14507,0.38679 -0.58239,1.07037 -0.9833,1.52163 -2.53369,2.85195 -5.57765,-2.42403 -3.59016,-6.22078 1.11036,-2.12117 2.14249,-2.09813 2.76694,0.0671 0.54611,1.8937 1.95968,3.69219 2.92697,3.69219 1.78597,-2e-5 2.10584,5.43863 0.52594,9.04026 l -0.77747,1.76778 -2.76694,-1.365 c -5.50007,-2.69826 -9.66509,-2.9167 -11.79944,-0.60417 -1.17805,1.27643 -1.61476,6.73145 -1.98943,24.7936 l -0.34298,16.06661 -6.1284,0 c -6.85193,2e-5 -12.59808,-0.65913 -15.36673,-1.7454 -1.0174,-0.39914 -1.95215,-0.64092 -2.08092,-0.51466 -0.12878,0.12626 0.53489,2.29558 1.46348,4.81103 0.9286,2.51544 1.66932,4.88937 1.66932,5.25857 0,0.544 -2.59076,2.0363 -3.54441,2.0363 -0.13318,-10e-6 -0.55507,-0.59495 -0.93755,-1.32024 -1.14499,-2.17111 -5.16627,-6.28396 -6.81442,-6.95922 -1.55271,-0.63616 -5.8997,-0.42576 -5.8997,0.29091 0,0.19285 1.17469,0.83067 2.6297,1.40974 4.85085,1.93057 6.77292,4.8102 4.52771,6.80257 -0.93803,0.83239 -1.01328,0.83286 -2.37816,-0.15663 -1.66629,-1.20797 -2.08083,-1.25902 -2.88127,-0.31328 -1.19851,1.416 1.67149,3.38767 7.82054,5.37046 3.13062,1.00948 4.43157,1.06132 7.36323,0.22376 0.96502,-0.27568 1.0774,-0.1404 1.07475,1.27549 -0.005,1.74354 -1.11055,4.16123 -2.17238,4.7439 -1.34537,0.73828 -0.66252,1.18949 1.09763,0.71606 8.49197,-2.28408 29.74409,-12.57954 31.4423,-15.23867 0.52887,-0.82813 1.07565,-1.51169 1.23483,-1.52162 0.61327,-0.0383 6.72277,5.79094 7.3861,7.04872 1.10038,2.0865 0.86907,2.87534 -1.98942,7.04872 -4.67832,6.83024 -6.22289,8.06027 -15.32103,11.94926 -13.93501,5.95654 -21.25197,9.79089 -26.68593,14.00794 -1.84085,1.42858 -4.78696,3.66688 -6.54001,4.96767 -2.23769,1.66042 -3.40901,2.9 -3.93314,4.18448 -0.92524,2.26744 -3.48531,14.41242 -5.78536,27.43408 -2.05388,11.62766 -3.99983,20.81266 -4.61917,21.79509 0,0 -9.49023,30.74021 -8.40203,31.32925 1.08816,0.58905 8.58494,-0.382 8.58494,-0.382 3.58434,0.0127 3.7618,0.81011 0.66314,3.15514 l -9.49312,4.44342 c -1.58747,2.81128 -1.45908,6.92796 -1.30667,11.17885 1.31098,-0.20546 11.07543,-0.38331 14.32133,-0.69688 l 3.36149,-0.33565 0,-1.63351 c 0,-6.77193 4.52492,-10.26423 7.0202,-5.41521 0.57567,1.11863 1.19424,3.16936 1.37204,4.56489 l 0.32015,2.55096 4.00173,0 c 3.98993,0 4.0246,-0.006 4.0246,-1.20835 4e-5,-1.18451 -0.79751,-10.94642 -1.16621,-14.36597 l -0.18295,-1.72302 5.69391,0.26852 5.69397,0.29091 0,-1.0741 c 0,-0.59089 -0.44098,-3.51756 -0.96043,-6.51168 -0.51945,-2.99409 -1.89716,-11.73037 -3.0871,-19.40076 l -2.17237,-13.94081 0,-13.58277 0,-13.60516 3.61303,-2.23769 c 7.07708,-4.38061 26.33087,-16.80938 30.23035,-19.51266 2.17948,-1.51094 4.06305,-2.64788 4.18467,-2.52859 0.12167,0.11931 -1.41598,3.15198 -3.43003,6.73545 -9.86827,17.55786 -13.2626,24.37214 -14.93224,29.96266 -1.01437,3.39633 -0.9789,2.56537 -2.76695,51.64588 l -0.2744,8.03331 3.59011,0.33565 c 1.97697,0.18167 4.57649,0.25088 5.78542,0.15664 1.20887,-0.0943 2.19525,-0.0541 2.19525,0.0895 0,0.14364 -1.5915,0.73446 -3.54441,1.29786 -1.95291,0.5634 -4.15408,1.52449 -4.89357,2.14818 -1.23185,1.039 -1.34797,1.44129 -1.50924,4.92292 -0.0968,2.09004 -0.0562,4.27778 0.0915,4.85578 l 0.25153,1.05172 9.83289,-0.13426 9.83287,-0.13426 0,-2.43908 c 0.0256,-5.95555 4.41641,-9.64498 6.76867,-5.68373 0.47265,0.7959 0.99405,2.47001 1.14333,3.73694 0.55681,4.72464 0.24343,4.43062 4.52771,4.43062 l 3.79594,0 0,-1.34261 c 0,-0.73668 -0.23339,-4.15856 -0.52594,-7.58577 -0.47697,-5.58764 -0.46266,-6.26657 0.22866,-6.64594 0.69426,-0.38102 0.71453,-0.54302 0.0686,-1.76777 -0.9106,-1.72657 -0.92439,-3.49563 -0.0227,-4.22923 0.38585,-0.31403 1.71332,-0.80953 2.94985,-1.11885 1.23654,-0.3093 2.48368,-0.91546 2.74407,-1.32024 0.71225,-1.10719 -0.53915,-4.30564 -5.71679,-14.79113 -8.38721,-16.98553 -10.39468,-22.64997 -10.31308,-29.02283 0.12527,-9.78304 4.08153,-19.55343 12.07385,-29.78365 11.67336,-14.9419 13.16465,-17.29187 14.5435,-23.02583 2.452,-10.19652 -1.47049,-18.56767 -11.79944,-25.10688 -1.49678,-0.94759 -2.9416,-2.17749 -3.20138,-2.72997 -0.67744,-1.44057 0.64055,-7.23608 2.42391,-10.69617 1.18217,-2.29366 1.39477,-3.17602 1.16621,-4.81103 -0.20271,-1.45003 -0.12106,-1.99154 0.32015,-1.99154 0.88413,-1e-5 3.85269,3.18316 9.16971,9.84583 2.57233,3.22334 5.58138,6.80578 6.70008,7.96618 1.11871,1.1604 4.99763,6.32202 8.62094,11.47935 3.62327,5.15733 7.02053,9.95221 7.54609,10.6514 0.93125,1.23883 1.45581,3.75561 3.72736,4.05022 2.2716,0.2946 2.65205,-5.21474 3.7502,-7.33963 1.55721,-3.01304 2.6061,0.56721 3.52153,2.03631 1.56285,2.508 2.25929,6.1837 3.56729,6.80257 1.24625,0.58964 1.49167,-1.86702 1.39491,-4.47538 -0.0777,-2.09352 13.15802,2.13359 12.3483,-2.43908 -0.33162,-1.87239 -11.71968,-4.14716 -13.49168,-5.37045 -1.68395,-1.16257 -3.97529,-1.65862 -2.1495,-4.38588 0.71434,-1.067 7.62452,-7.41252 3.31575,-8.79412 -1.38714,-0.44478 -8.94066,-1.13362 -15.93841,-4.31874 -5.99442,-2.72846 -9.60035,-5.24223 -13.2858,-9.26403 -6.4945,-7.08729 -9.13423,-11.36811 -11.0448,-17.81201 -0.59859,-2.01885 -1.6211,-4.43453 -2.241,-5.34808 -1.78848,-2.63572 -5.75198,-5.13337 -10.72469,-6.75783 -2.7426,-0.89596 -4.50484,-1.71447 -4.50484,-2.10342 0,-0.35099 0.91283,-1.34031 2.01235,-2.19294 1.09947,-0.85263 2.96339,-2.4346 4.13893,-3.53555 1.39708,-1.30843 2.41605,-1.91154 2.94985,-1.7454 0.44921,0.1398 1.18235,0.0988 1.62356,-0.0671 2.01595,-0.75853 2.94142,-5.9547 1.44066,-8.05568 -0.67688,-0.94758 -0.66333,-1.27572 0,-3.51318 0.81967,-2.76469 1.89357,-3.95734 5.05365,-5.50471 1.18335,-0.57948 2.30432,-1.30107 2.49249,-1.58876 0.027,-0.0414 0.059,-0.0599 0.11432,-0.0671 4.94089,-15.28619 1.90181,-4.49913 -0.93754,-20.20634 -2.68899,-4.36673 -3.25784,-4.8902 -5.03078,-4.54251 -1.16843,0.22917 -1.74215,0.0414 -2.76689,-0.91745 -1.88353,-1.76233 -8.13942,-4.52369 -10.9991,-4.85579 -0.54644,-0.0634 -0.98983,-0.1048 -1.37203,-0.11188 l 0,-7e-5 z m 12.80557,41.12874 c 0.42269,0.0241 0.9089,1.70378 0.91472,3.42367 0.005,1.48735 -0.30211,2.52976 -0.9833,3.37891 -0.97733,1.21835 -2.07818,1.60268 -2.53824,0.87269 -0.20379,-0.32325 1.92043,-6.95489 2.42391,-7.56339 0.0567,-0.0686 0.12253,-0.11532 0.18291,-0.11188 z"
       id="path2497-2"
       sodipodi:nodetypes="csssssssssssssssssssscccscccssssssssssssssssssssssssssczcccccccscccscccccscccccsssscccssssscccccsscccssssssssssssssssssssssssssssssssssssssssssccssscccssscc" />
  </g>
</svg>
