<?xml version="1.0" encoding="UTF-8" standalone="no"?>
<!-- Created with Inkscape (http://www.inkscape.org/) -->

<svg
   xmlns:dc="http://purl.org/dc/elements/1.1/"
   xmlns:cc="http://creativecommons.org/ns#"
   xmlns:rdf="http://www.w3.org/1999/02/22-rdf-syntax-ns#"
   xmlns:svg="http://www.w3.org/2000/svg"
   xmlns="http://www.w3.org/2000/svg"
   xmlns:sodipodi="http://sodipodi.sourceforge.net/DTD/sodipodi-0.dtd"
   xmlns:inkscape="http://www.inkscape.org/namespaces/inkscape"
   width="158.13965"
   height="248.67551"
   id="svg4011"
   version="1.1"
   inkscape:version="0.47 r22583"
   sodipodi:docname="New document 9">
  <defs
     id="defs4013">
    <inkscape:perspective
       sodipodi:type="inkscape:persp3d"
       inkscape:vp_x="0 : 526.18109 : 1"
       inkscape:vp_y="0 : 1000 : 0"
       inkscape:vp_z="744.09448 : 526.18109 : 1"
       inkscape:persp3d-origin="372.04724 : 350.78739 : 1"
       id="perspective4019" />
    <inkscape:perspective
       id="perspective4006"
       inkscape:persp3d-origin="0.5 : 0.33333333 : 1"
       inkscape:vp_z="1 : 0.5 : 1"
       inkscape:vp_y="0 : 1000 : 0"
       inkscape:vp_x="0 : 0.5 : 1"
       sodipodi:type="inkscape:persp3d" />
  </defs>
  <sodipodi:namedview
     id="base"
     pagecolor="#ffffff"
     bordercolor="#ffffff"
     borderopacity="0.0"
     inkscape:pageopacity="0.0"
     inkscape:pageshadow="0"
     inkscape:zoom="0.35"
     inkscape:cx="83.355532"
     inkscape:cy="84.337763"
     inkscape:document-units="px"
     inkscape:current-layer="layer1"
     showgrid="false"
     inkscape:window-width="788"
     inkscape:window-height="881"
     inkscape:window-x="0"
     inkscape:window-y="15"
     inkscape:window-maximized="0" />
  <metadata
     id="metadata4016">
    <rdf:RDF>
      <cc:Work
         rdf:about="">
        <dc:format>image/svg+xml</dc:format>
        <dc:type
           rdf:resource="http://purl.org/dc/dcmitype/StillImage" />
        <dc:title></dc:title>
      </cc:Work>
    </rdf:RDF>
  </metadata>
  <g
     inkscape:label="Layer 1"
     inkscape:groupmode="layer"
     id="layer1"
     transform="translate(621.92697,549.11843)">
    <path
       style="fill:#000000;fill-opacity:1;display:inline"
       d="m -535.16871,-549.11731 c -1.14669,-0.0213 -1.75285,0.25883 -3.01847,1.11885 -1.74978,1.18902 -2.13487,1.2754 -4.75637,0.98458 -3.45142,-0.38289 -4.32569,-0.006 -7.0888,3.04326 -1.72103,1.89972 -2.45687,2.32992 -4.64204,2.77473 -4.53756,0.9237 -6.19897,3.29553 -4.25325,6.01939 1.16042,1.62453 0.50405,2.99548 -2.03518,4.34112 -2.95927,1.56821 -3.29226,2.6081 -1.80652,5.34807 1.37786,2.54102 1.45032,3.83429 0.36586,6.06415 -0.68715,1.41302 -0.70411,1.91938 -0.1829,3.62505 0.33275,1.0892 1.27797,2.60017 2.10375,3.35654 1.41977,1.30047 1.65008,1.35577 4.48196,1.09646 1.64705,-0.15082 2.9956,-0.16903 2.9956,-0.0224 0,0.1466 -0.52779,0.67119 -1.16621,1.1636 -3.26181,2.51588 -2.40894,9.33116 1.16621,9.33116 1.4398,10e-6 2.90684,-1.44358 2.83552,-2.79711 -0.0332,-0.62796 -0.0889,-0.61664 -0.32011,0 -0.14507,0.38679 -0.58239,1.07037 -0.9833,1.52163 -2.53369,2.85195 -5.57765,-2.42403 -3.59016,-6.22078 1.11036,-2.12117 2.14249,-2.09813 2.76694,0.0671 0.54611,1.8937 1.95968,3.69219 2.92697,3.69219 1.78597,-2e-5 2.10584,5.43863 0.52594,9.04026 l -0.77747,1.76778 -2.76694,-1.365 c -5.50007,-2.69826 -9.66509,-2.9167 -11.79944,-0.60417 -1.17805,1.27643 -1.61476,6.73145 -1.98943,24.7936 l -0.34298,16.06661 -6.1284,0 c -6.85193,2e-5 -12.59808,-0.65913 -15.36673,-1.7454 -1.0174,-0.39914 -1.95215,-0.64092 -2.08092,-0.51466 -0.12878,0.12626 0.53489,2.29558 1.46348,4.81103 0.9286,2.51544 1.66932,4.88938 1.66932,5.25858 0,0.544 -2.59076,2.0363 -3.54441,2.0363 -0.13318,-10e-6 -0.55507,-0.59495 -0.93755,-1.32024 -1.14499,-2.17111 -5.16627,-6.28397 -6.81442,-6.95923 -1.55271,-0.63616 -5.8997,-0.42576 -5.8997,0.29091 0,0.19285 1.17469,0.83067 2.6297,1.40974 4.85085,1.93057 6.77292,4.81021 4.52771,6.80258 -0.93803,0.83239 -1.01328,0.83286 -2.37816,-0.15663 -1.66629,-1.20797 -2.08083,-1.25902 -2.88127,-0.31328 -1.19851,1.416 1.67149,3.38767 7.82054,5.37046 3.13062,1.00948 4.43157,1.06132 7.36323,0.22376 0.96502,-0.27568 1.0774,-0.1404 1.07475,1.27549 -0.005,1.74354 -1.11055,4.16123 -2.17238,4.7439 -1.34537,0.73828 -0.66252,1.18949 1.09763,0.71606 8.49197,-2.28408 29.74409,-12.57954 31.4423,-15.23867 0.52887,-0.82813 1.07565,-1.5117 1.23483,-1.52163 0.61327,-0.0383 6.72277,5.79095 7.3861,7.04873 1.10038,2.0865 0.86907,2.87534 -1.98942,7.04872 -4.67832,6.83024 -6.22289,8.06027 -15.32103,11.94926 -13.93501,5.95654 -21.25197,9.79089 -26.68593,14.00794 -1.84085,1.42858 -4.78696,3.66688 -6.54001,4.96767 -2.23769,1.66042 -3.40901,2.9 -3.93314,4.18448 -0.92524,2.26744 -3.48531,14.41242 -5.78536,27.43408 -2.05388,11.62766 -3.99983,20.81266 -4.61917,21.79509 0,0 -9.49022,30.74021 -8.40202,31.32925 1.08816,0.58905 8.58493,-0.382 8.58493,-0.382 3.58434,0.0127 3.7618,0.81011 0.66314,3.15514 l -9.49311,4.44342 c -1.58747,2.81128 -1.45908,6.92796 -1.30667,11.17885 1.31098,-0.20546 11.07542,-0.38331 14.32132,-0.69688 l 3.36149,-0.33565 0,-1.63351 c 0,-6.77193 4.52492,-10.26423 7.0202,-5.41521 0.57567,1.11863 1.19424,3.16936 1.37204,4.56489 l 0.32015,2.55096 4.00173,0 c 3.98993,0 4.0246,-0.006 4.0246,-1.20835 4e-5,-1.18451 -0.79751,-10.94642 -1.16621,-14.36597 l -0.18295,-1.72302 5.69391,0.26852 5.69397,0.29091 0,-1.0741 c 0,-0.59089 -0.44098,-3.51756 -0.96043,-6.51168 -0.51945,-2.99409 -1.89716,-11.73037 -3.0871,-19.40076 l -2.17237,-13.94081 0,-13.58277 0,-13.60516 3.61303,-2.23769 c 7.07708,-4.38061 26.33087,-16.80938 30.23035,-19.51266 2.17948,-1.51094 4.06305,-2.64788 4.18467,-2.52859 0.12167,0.11931 -1.41598,3.15198 -3.43003,6.73545 -9.86827,17.55786 -13.2626,24.37214 -14.93224,29.96266 -1.01437,3.39633 -0.9789,2.56537 -2.76695,51.64588 l -0.2744,8.03331 3.59011,0.33565 c 1.97697,0.18167 4.57649,0.25088 5.78542,0.15664 1.20887,-0.0943 2.19525,-0.0541 2.19525,0.0895 0,0.14364 -1.5915,0.73446 -3.54441,1.29786 -1.95291,0.5634 -4.15408,1.52449 -4.89357,2.14818 -1.23185,1.039 -1.34797,1.44129 -1.50924,4.92292 -0.0968,2.09004 -0.0562,4.27778 0.0915,4.85578 l 0.25153,1.05172 9.83289,-0.13426 9.83287,-0.13426 0,-2.43908 c 0.0256,-5.95555 4.41641,-9.64498 6.76867,-5.68373 0.47265,0.7959 0.99405,2.47001 1.14333,3.73694 0.55681,4.72464 0.24343,4.43062 4.52771,4.43062 l 3.79594,0 0,-1.34261 c 0,-0.73668 -0.23339,-4.15856 -0.52594,-7.58577 -0.47697,-5.58764 -0.46266,-6.26657 0.22866,-6.64594 0.69426,-0.38102 0.71453,-0.54302 0.0686,-1.76777 -0.9106,-1.72657 -0.92439,-3.49563 -0.0227,-4.22923 0.38585,-0.31403 1.71332,-0.80953 2.94985,-1.11885 1.23654,-0.3093 2.48368,-0.91546 2.74407,-1.32024 0.71225,-1.10719 -0.53915,-4.30564 -5.71679,-14.79113 -8.38721,-16.98553 -10.39468,-22.64997 -10.31308,-29.02283 0.12527,-9.78304 4.08153,-19.55343 12.07385,-29.78365 11.67337,-14.9419 13.16466,-17.29187 14.54351,-23.02583 2.452,-10.19652 -1.47049,-18.56767 -11.79945,-25.10688 -1.49678,-0.94759 -2.9416,-2.17749 -3.20138,-2.72998 -0.67744,-1.44057 0.64055,-7.23608 2.42391,-10.69617 1.18217,-2.29366 1.39477,-3.17602 1.16621,-4.81103 -0.20271,-1.45003 -0.12106,-1.99154 0.32015,-1.99154 0.88413,-10e-6 3.8527,3.18316 9.16972,9.84583 2.57233,3.22334 5.58138,6.80578 6.70008,7.96619 1.11871,1.1604 4.99763,6.32202 8.62094,11.47935 3.62327,5.15733 7.02053,9.95221 7.54609,10.6514 0.93125,1.23883 1.45581,3.75561 3.72736,4.05022 2.2716,0.2946 2.65205,-5.21474 3.75019,-7.33963 1.55721,-3.01304 2.6061,0.56721 3.52153,2.03631 1.56285,2.508 2.25929,6.1837 3.56729,6.80257 1.24625,0.58964 1.49167,-1.86702 1.39491,-4.47538 -0.0777,-2.09352 13.15802,2.13359 12.3483,-2.43908 -0.33162,-1.87239 -11.71968,-4.14716 -13.49168,-5.37045 -1.68395,-1.16257 -3.97529,-1.65862 -2.1495,-4.38588 0.71434,-1.067 7.62452,-7.41252 3.31575,-8.79412 -1.38714,-0.44478 -8.94066,-1.13362 -15.9384,-4.31875 -5.99442,-2.72846 -9.60035,-5.24223 -13.2858,-9.26403 -6.4945,-7.08729 -9.13423,-11.36811 -11.0448,-17.81201 -0.59859,-2.01885 -1.6211,-4.43453 -2.241,-5.34808 -1.78848,-2.63572 -5.75199,-5.13337 -10.7247,-6.75783 -2.7426,-0.89596 -4.50484,-1.71447 -4.50484,-2.10342 0,-0.35099 0.91283,-1.34031 2.01235,-2.19294 1.09947,-0.85263 2.96339,-2.4346 4.13893,-3.53555 1.39708,-1.30843 2.41605,-1.91154 2.94985,-1.7454 0.44921,0.1398 1.18235,0.0988 1.62356,-0.0671 2.01596,-0.75853 2.94143,-5.9547 1.44067,-8.05568 -0.67689,-0.94758 -0.66334,-1.27572 0,-3.51318 0.81967,-2.76469 1.89357,-3.95734 5.05365,-5.50471 1.18335,-0.57948 2.30432,-1.30107 2.49249,-1.58876 0.027,-0.0414 0.059,-0.0599 0.11432,-0.0671 4.94089,-15.28619 1.90181,-4.49913 -0.93754,-20.20634 -2.68899,-4.36673 -3.25784,-4.8902 -5.03078,-4.54251 -1.16843,0.22917 -1.74215,0.0414 -2.7669,-0.91745 -1.88353,-1.76233 -8.13942,-4.52369 -10.9991,-4.85579 -0.54644,-0.0634 -0.98983,-0.1048 -1.37203,-0.11188 l 0,-7e-5 z m 12.80557,41.12874 c 0.42269,0.0241 0.90891,1.70378 0.91473,3.42367 0.005,1.48735 -0.30211,2.52976 -0.98331,3.37891 -0.97733,1.21835 -2.07818,1.60268 -2.53824,0.87269 -0.20379,-0.32325 1.92043,-6.95489 2.42391,-7.56339 0.0567,-0.0686 0.12253,-0.11532 0.18291,-0.11188 z"
       id="path2497-2"
       sodipodi:nodetypes="csssssssssssssssssssscccscccssssssssssssssssssssssssssczcccccccscccscccccscccccsssscccssssscccccsscccssssssssssssssssssssssssssssssssssssssssssccssscccssscc" />
  </g>
</svg>
