<?xml version="1.0" encoding="UTF-8" standalone="no"?>
<!-- Created with Inkscape (http://www.inkscape.org/) -->
<svg
   xmlns:dc="http://purl.org/dc/elements/1.1/"
   xmlns:cc="http://creativecommons.org/ns#"
   xmlns:rdf="http://www.w3.org/1999/02/22-rdf-syntax-ns#"
   xmlns:svg="http://www.w3.org/2000/svg"
   xmlns="http://www.w3.org/2000/svg"
   xmlns:sodipodi="http://sodipodi.sourceforge.net/DTD/sodipodi-0.dtd"
   xmlns:inkscape="http://www.inkscape.org/namespaces/inkscape"
   width="765"
   height="990"
   id="svg2"
   sodipodi:version="0.32"
   inkscape:version="0.46"
   sodipodi:docname="pacman.svg"
   inkscape:output_extension="org.inkscape.output.svg.inkscape"
   inkscape:export-filename="/home/neale/src/gctf/games/hispaniola/pacman.png"
   inkscape:export-xdpi="74.982124"
   inkscape:export-ydpi="74.982124"
   version="1.0">
  <defs
     id="defs4">
    <inkscape:perspective
       sodipodi:type="inkscape:persp3d"
       inkscape:vp_x="0 : 526.18109 : 1"
       inkscape:vp_y="0 : 1000 : 0"
       inkscape:vp_z="744.09448 : 526.18109 : 1"
       inkscape:persp3d-origin="372.04724 : 350.78739 : 1"
       id="perspective3655" />
  </defs>
  <sodipodi:namedview
     id="base"
     pagecolor="#ffffff"
     bordercolor="#666666"
     borderopacity="1.0"
     gridtolerance="10000"
     guidetolerance="10"
     objecttolerance="10"
     inkscape:pageopacity="0.0"
     inkscape:pageshadow="2"
     inkscape:zoom="0.74901961"
     inkscape:cx="382.5"
     inkscape:cy="495"
     inkscape:document-units="in"
     inkscape:current-layer="layer1"
     showgrid="false"
     showguides="true"
     inkscape:window-width="700"
     inkscape:window-height="1006"
     inkscape:window-x="0"
     inkscape:window-y="14" />
  <metadata
     id="metadata7">
    <rdf:RDF>
      <cc:Work
         rdf:about="">
        <dc:format>image/svg+xml</dc:format>
        <dc:type
           rdf:resource="http://purl.org/dc/dcmitype/StillImage" />
      </cc:Work>
    </rdf:RDF>
  </metadata>
  <g
     inkscape:label="Layer 1"
     inkscape:groupmode="layer"
     id="layer1"
     style="display:inline">
    <path
       style="fill:#2b1100;fill-opacity:1;fill-rule:evenodd;stroke:none;stroke-width:0.91903061px;stroke-linecap:butt;stroke-linejoin:miter;stroke-opacity:1"
       d="M 36.101263,133.69085 C 128.29289,8.849106 222.73404,130.78353 299.28377,23.905996 C 299.97794,24.278287 351.96913,192.09065 351.80847,190.14914 C 272.96865,290.65564 183.27613,180.40736 87.052945,299.09033 C 86.662091,299.32161 36.880242,135.07692 36.101263,133.69085 z"
       id="path2387"
       sodipodi:nodetypes="ccccc" />
    <path
       style="fill:none;fill-rule:evenodd;stroke:#000000;stroke-width:12.45737553;stroke-linecap:round;stroke-linejoin:miter;stroke-miterlimit:4;stroke-dasharray:none;stroke-opacity:1"
       d="M 301.42559,27.451056 C 525.08881,685.51602 526.70618,686.11163 526.70618,686.11163"
       id="path3161" />
    <path
       style="fill:#c87137;fill-rule:evenodd;stroke:none;stroke-width:0.91903061px;stroke-linecap:butt;stroke-linejoin:miter;stroke-opacity:1"
       d="M 705.76164,132.3689 C 613.57002,7.527162 519.12887,129.46158 442.57913,22.584052 C 441.88496,22.956343 389.89378,190.76871 390.05444,188.8272 C 468.89425,289.3337 558.58677,179.08542 654.80995,297.76839 C 655.20081,297.99966 704.98266,133.75497 705.76164,132.3689 z"
       id="path3215"
       sodipodi:nodetypes="ccccc" />
    <path
       style="fill:none;fill-rule:evenodd;stroke:#000000;stroke-width:12.45737553;stroke-linecap:round;stroke-linejoin:miter;stroke-miterlimit:4;stroke-dasharray:none;stroke-opacity:1"
       d="M 440.43731,26.129112 C 216.77409,684.19407 215.15672,684.78968 215.15672,684.78968"
       id="path3217" />
    <text
       xml:space="preserve"
       style="font-size:22px;font-style:normal;font-variant:normal;font-weight:normal;font-stretch:normal;text-align:start;line-height:125%;writing-mode:lr-tb;text-anchor:start;fill:#000000;fill-opacity:1;stroke:none;stroke-width:1px;stroke-linecap:butt;stroke-linejoin:miter;stroke-opacity:1;font-family:LMTypewriter12;-inkscape-font-specification:LMTypewriter12"
       x="116.6003"
       y="734.72131"
       id="text3251"
       sodipodi:linespacing="125%"><tspan
         sodipodi:role="line"
         id="tspan3589"
         x="116.6003"
         y="734.72131">$ md5sum &lt;&lt;.</tspan><tspan
         sodipodi:role="line"
         id="tspan3591"
         x="116.6003"
         y="762.22131">     -= 2009 Capture The Flag Contest =-</tspan><tspan
         sodipodi:role="line"
         x="116.6003"
         y="789.72131"
         id="tspan4709">       A computer security competition</tspan><tspan
         sodipodi:role="line"
         id="tspan3593"
         x="116.6003"
         y="817.22131">    Presented by LANL, SNL, &amp; NMT CS dept.</tspan><tspan
         sodipodi:role="line"
         id="tspan3595"
         x="116.6003"
         y="844.72131">         Fri &amp; Sat, October 16 &amp; 17</tspan><tspan
         sodipodi:role="line"
         id="tspan3597"
         x="116.6003"
         y="872.22131"> </tspan><tspan
         sodipodi:role="line"
         id="tspan3599"
         x="116.6003"
         y="899.72131">Register your team by Oct 13!</tspan><tspan
         sodipodi:role="line"
         id="tspan3603"
         x="116.6003"
         y="927.22131">http://dirtbags.net/ctf</tspan><tspan
         sodipodi:role="line"
         id="tspan3605"
         x="116.6003"
         y="954.72131">.</tspan></text>
    <g
       transform="matrix(-3.6871841,-0.6400922,0,3.6871841,1165.952,-1401.6682)"
       id="g4401"
       style="fill:#b3b3b3">
      <path
         transform="matrix(1.8411585,0,0,1.8411585,-577.40066,-338.48152)"
         d="M 462.25,443.5 L 459.30604,440.10034 L 452,441.75 L 455.39966,438.80604 L 453.75,431.5 L 456.69396,434.89966 L 464,433.25 L 460.60034,436.19396 L 462.25,443.5 z"
         inkscape:randomized="0"
         inkscape:rounded="0"
         inkscape:flatsided="false"
         sodipodi:arg2="1.1053447"
         sodipodi:arg1="0.95449939"
         sodipodi:r2="2.9098985"
         sodipodi:r1="7.3527207"
         sodipodi:cy="437.5"
         sodipodi:cx="458"
         sodipodi:sides="4"
         id="path4403"
         style="opacity:1;fill:#b3b3b3;fill-opacity:1;stroke:none;stroke-width:4;stroke-linecap:round;stroke-miterlimit:4;stroke-dasharray:none;stroke-opacity:1"
         sodipodi:type="star" />
      <path
         sodipodi:type="star"
         style="opacity:1;fill:#b3b3b3;fill-opacity:1;stroke:none;stroke-width:4;stroke-linecap:round;stroke-miterlimit:4;stroke-dasharray:none;stroke-opacity:1"
         id="path4405"
         sodipodi:sides="4"
         sodipodi:cx="458"
         sodipodi:cy="437.5"
         sodipodi:r1="7.3527207"
         sodipodi:r2="2.9098985"
         sodipodi:arg1="0.95449939"
         sodipodi:arg2="1.1053447"
         inkscape:flatsided="false"
         inkscape:rounded="0"
         inkscape:randomized="0"
         d="M 462.25,443.5 L 459.30604,440.10034 L 452,441.75 L 455.39966,438.80604 L 453.75,431.5 L 456.69396,434.89966 L 464,433.25 L 460.60034,436.19396 L 462.25,443.5 z"
         transform="matrix(1.8411585,0,0,1.8411585,-577.40066,-338.48152)" />
    </g>
    <path
       id="path4624"
       d="M 600.30501,111.70043 C 594.69786,110.30285 589.93719,116.92568 588.75265,124.64463 C 589.3149,125.62028 590.32351,126.18413 591.26892,126.69384 C 587.84719,128.44586 587.30507,129.45277 582.94391,132.01962 C 586.57224,133.69727 588.16263,134.6866 590.32271,137.03449 C 592.86362,135.01501 593.00183,135.53563 595.01903,133.76872 C 595.07096,134.80396 595.40207,135.64197 595.91313,136.52896 C 603.15032,143.78938 612.54761,135.64528 611.08007,126.07465 C 609.74224,123.75247 607.30611,122.85305 604.43588,123.23606 C 605.1759,120.03574 604.47707,117.08643 604.31444,114.10107 C 602.96341,112.84364 601.59886,112.02299 600.30501,111.70043 z M 548.79992,110.87058 C 546.46929,110.23007 542.90774,110.81215 538.67453,112.67652 C 535.61228,115.04137 533.79117,117.91567 533.42011,120.54626 C 529.8568,121.31464 526.35071,123.15387 522.8449,124.79616 C 512.53722,135.06156 519.28546,140.78043 530.57184,135.17469 C 531.85857,134.18081 532.87513,133.06767 533.73191,131.91165 C 534.27101,133.21306 534.29909,133.13044 535.02092,134.58256 C 538.47612,131.9751 540.97703,130.13271 546.06641,128.9864 C 543.91835,126.86897 544.59998,126.41289 542.71961,124.92043 C 543.93062,124.39808 545.32791,123.79887 546.49751,122.89561 C 553.05008,116.26509 552.68398,111.93832 548.79992,110.87058 z M 571.37005,130.57063 C 554.98673,126.71484 536.88246,131.49381 530.98352,141.28176 C 526.70186,148.38625 530.04625,156.22593 538.44729,161.43322 C 537.84332,162.33699 537.23152,163.16763 536.6638,164.10968 C 528.08349,178.34676 527.18242,191.38286 534.67994,193.14741 C 542.17731,194.91204 555.26128,184.7431 563.84153,170.50596 C 564.53496,169.35532 565.11846,168.25027 565.7109,167.12131 C 576.63803,166.23316 586.40094,161.93168 590.41617,155.26927 C 596.31516,145.48131 587.75341,134.42641 571.37005,130.57063 z M 571.95632,146.00732 C 574.34677,146.56989 575.08107,149.02728 573.59524,151.49259 C 572.10955,153.95787 568.96357,155.5021 566.57318,154.93949 C 564.18273,154.37693 563.44849,151.91951 564.93424,149.45425 C 566.41995,146.98895 569.56585,145.44471 571.95632,146.00732 z M 554.37674,144.05545 C 556.76709,144.61802 557.50142,147.07545 556.01562,149.54075 C 554.52989,152.00602 551.38398,153.55023 548.99354,152.98767 C 546.60305,152.42505 545.86883,149.96768 547.35455,147.50238 C 548.84026,145.03707 551.9862,143.49289 554.37674,144.05545 z M 592.14574,168.24309 C 589.81516,167.60264 586.10421,168.14959 581.87104,170.01386 C 580.4795,171.08853 579.5004,172.17993 578.6148,173.43649 C 577.75212,171.08963 577.66025,170.31341 576.12282,167.38618 C 573.20236,168.23 571.03293,168.80065 567.77912,169.06505 C 567.0071,170.93878 565.58365,172.14212 564.50052,173.9393 C 568.13679,177.49912 569.56962,178.92494 572.358,180.70609 C 570.27287,181.06762 567.75309,182.03047 565.62422,183.67451 C 555.50148,193.89953 561.94919,199.78854 573.35118,194.05304 C 577.67672,190.71249 579.85575,185.99195 578.44787,183.04992 C 582.155,183.93505 585.40054,182.08498 589.69403,180.23296 C 596.24652,173.60244 596.02993,169.31084 592.14574,168.24309 z M 534.26429,162.99855 C 527.75465,165.90572 523.34812,172.5933 517.05623,178.2542 C 517.58808,176.31898 517.43561,174.27504 516.50556,172.6607 C 509.26509,165.54179 499.88915,173.84149 501.24246,183.27452 C 503.13218,186.55471 507.68779,187.04151 511.72811,184.83163 C 509.05909,188.78702 509.49032,191.56459 509.69362,195.28052 C 516.93097,202.54083 526.57351,194.27243 525.10604,184.70189 C 524.49807,183.6467 523.68127,182.8078 522.6327,182.29851 C 524.95921,181.16825 525.4303,180.14452 528.31093,178.53531 C 529.39568,174.28512 530.50937,172.34108 533.50367,167.37277 C 534.07134,166.43075 533.66035,163.90234 534.26429,162.99855 z M 539.05958,170.31948 L 555.18709,174.11513 L 552.88004,177.94317 L 536.75256,174.14757 L 539.05958,170.31948 z"
       style="fill:#ffffff;fill-opacity:1;stroke:none;stroke-width:4;stroke-linecap:round;stroke-miterlimit:4;stroke-dasharray:none;stroke-opacity:1" />
    <g
       id="g4860"
       transform="matrix(-1,0,0,1,885.95772,571.83703)">
      <path
         style="fill:#f1e06b;fill-opacity:1;stroke:none;stroke-width:4;stroke-linecap:round;stroke-miterlimit:4;stroke-opacity:1"
         d="M 348.09925,84.14952 C 348.09925,87.60122 347.72107,110.92182 347.0039,114.15878 C 345.24013,123.03894 339.53069,128.15164 330.95684,130.09757 C 326.97182,130.84083 322.43901,114.54285 317.51962,114.45202 C 312.60023,114.36118 307.29427,130.47752 301.76294,130.47752 C 296.20567,130.47752 290.8759,114.35206 285.93709,114.42692 C 280.99829,114.50179 276.45045,130.77697 272.45708,130.00631 C 263.41524,128.50604 258.6876,122.32213 256.45824,113.86666 C 255.78242,110.71959 255.42662,87.497509 255.42662,84.14952 C 255.42662,58.576464 276.18529,37.82152 301.76294,37.82152 C 327.34058,37.82152 348.09925,58.576464 348.09925,84.14952 z"
         id="path4877"
         sodipodi:nodetypes="cccsssccssc" />
      <path
         style="fill:#ececec;fill-opacity:1;stroke:none;stroke-width:4;stroke-linecap:round;stroke-miterlimit:4;stroke-opacity:1"
         d="M 255.23727,25.92184 L 262.30833,16.72945 L 262.30833,54.20611 L 255.23727,54.20611 L 255.23727,25.92184 z"
         id="path4879"
         sodipodi:nodetypes="ccccc" />
      <path
         style="fill:#00003f;fill-opacity:1;stroke:none;stroke-width:4;stroke-linecap:round;stroke-miterlimit:4;stroke-opacity:1"
         d="M 253.66433,51.800299 L 262.91433,51.800299 L 262.91433,109.5503 L 253.66433,106.05029 L 253.66433,51.800299 z"
         id="path4881"
         sodipodi:nodetypes="ccccc" />
      <path
         style="fill:#2b1100;fill-opacity:1;stroke:none;stroke-width:4;stroke-linecap:round;stroke-miterlimit:4;stroke-opacity:1"
         d="M 301.76996,37.82127 C 276.19231,37.82127 255.4262,58.58737 255.42621,84.16502 C 255.42621,87.51361 255.78164,110.73613 256.45746,113.88377 C 258.68681,122.34077 263.41562,128.50823 272.45746,130.00877 C 276.45084,130.77956 281.01865,114.52114 285.95746,114.44627 C 290.89627,114.3714 296.2127,130.47752 301.76996,130.47752 C 307.30129,130.47752 312.60058,114.35543 317.51996,114.44627 C 322.43934,114.53712 326.97244,130.84591 330.95746,130.10252 C 339.53131,128.15624 345.25619,123.04676 347.01996,114.16502 C 347.73712,110.92748 348.1137,87.61733 348.11371,84.16502 C 348.11371,58.58737 327.34761,37.82128 301.76996,37.82127 z M 328.26996,61.88377 C 336.6644,61.88376 346.32687,66.78192 346.44892,73.80139 C 346.58182,81.31976 336.91438,88.07127 328.51996,88.07127 C 322.58038,88.07128 317.21031,84.88357 314.70746,79.91502 C 312.47376,85.53641 307.2465,89.25877 300.83246,89.25877 C 292.43804,89.25876 269.98267,81.09987 270.25586,74.719 C 270.44413,70.3215 292.18804,63.10252 300.58246,63.10252 C 306.52851,63.10252 312.64515,67.03144 315.14496,72.00877 C 317.37762,66.38521 321.85436,61.88377 328.26996,61.88377 z"
         id="path4883"
         sodipodi:nodetypes="csccsssccsccsscssscc" />
      <path
         style="fill:#ff0000;fill-rule:evenodd;stroke:none;stroke-width:1px;stroke-linecap:butt;stroke-linejoin:miter;stroke-opacity:1"
         d="M 245.91433,71.30031 C 245.91433,71.30031 256.16433,55.300309 257.16433,61.80031 C 258.16433,68.300312 249.16433,69.300306 245.91433,71.30031 z"
         id="path4885" />
      <path
         id="path4887"
         d="M 241.75111,63.306804 C 241.75111,63.306804 260.71285,62.075919 255.50775,58.056343 C 250.30265,54.036767 245.07371,61.429883 241.75111,63.306804 z"
         style="fill:#ff0000;fill-rule:evenodd;stroke:none;stroke-width:1px;stroke-linecap:butt;stroke-linejoin:miter;stroke-opacity:1" />
      <path
         sodipodi:type="arc"
         style="fill:#ffffff;fill-opacity:1;stroke:none;stroke-width:4;stroke-linecap:round;stroke-miterlimit:4;stroke-dasharray:none;stroke-opacity:1"
         id="path4889"
         sodipodi:cx="239.5"
         sodipodi:cy="417.86218"
         sodipodi:rx="15.5"
         sodipodi:ry="15.5"
         d="M 255,417.86218 A 15.5,15.5 0 1 1 224,417.86218 A 15.5,15.5 0 1 1 255,417.86218 z"
         transform="matrix(0.7128664,0,0,0.7128664,159.18966,-222.38262)" />
      <path
         sodipodi:type="arc"
         style="fill:#000000;fill-opacity:1;stroke:none;stroke-width:4;stroke-linecap:round;stroke-miterlimit:4;stroke-dasharray:none;stroke-opacity:1"
         id="path4891"
         sodipodi:cx="239.5"
         sodipodi:cy="417.86218"
         sodipodi:rx="15.5"
         sodipodi:ry="15.5"
         d="M 255,417.86218 A 15.5,15.5 0 1 1 224,417.86218 A 15.5,15.5 0 1 1 255,417.86218 z"
         transform="matrix(0.4369181,0,0,0.4369181,228.8436,-106.3614)" />
      <path
         transform="matrix(0.7128664,0,0,0.7128664,130.67501,-222.38262)"
         d="M 255,417.86218 A 15.5,15.5 0 1 1 224,417.86218 A 15.5,15.5 0 1 1 255,417.86218 z"
         sodipodi:ry="15.5"
         sodipodi:rx="15.5"
         sodipodi:cy="417.86218"
         sodipodi:cx="239.5"
         id="path4893"
         style="fill:#ffffff;fill-opacity:1;stroke:none;stroke-width:4;stroke-linecap:round;stroke-miterlimit:4;stroke-dasharray:none;stroke-opacity:1"
         sodipodi:type="arc" />
      <path
         transform="matrix(0.4369181,0,0,0.4369181,200.32895,-106.3614)"
         d="M 255,417.86218 A 15.5,15.5 0 1 1 224,417.86218 A 15.5,15.5 0 1 1 255,417.86218 z"
         sodipodi:ry="15.5"
         sodipodi:rx="15.5"
         sodipodi:cy="417.86218"
         sodipodi:cx="239.5"
         id="path4895"
         style="fill:#000000;fill-opacity:1;stroke:none;stroke-width:4;stroke-linecap:round;stroke-miterlimit:4;stroke-dasharray:none;stroke-opacity:1"
         sodipodi:type="arc" />
      <path
         sodipodi:type="star"
         style="fill:#999999;fill-opacity:1;stroke:none;stroke-width:4;stroke-linecap:round;stroke-miterlimit:4;stroke-dasharray:none;stroke-opacity:1"
         id="path4897"
         sodipodi:sides="4"
         sodipodi:cx="458"
         sodipodi:cy="437.5"
         sodipodi:r1="7.3527207"
         sodipodi:r2="2.9098985"
         sodipodi:arg1="0.95449939"
         sodipodi:arg2="1.1053447"
         inkscape:flatsided="false"
         inkscape:rounded="0"
         inkscape:randomized="0"
         d="M 462.25,443.5 L 459.30604,440.10034 L 452,441.75 L 455.39966,438.80604 L 453.75,431.5 L 456.69396,434.89966 L 464,433.25 L 460.60034,436.19396 L 462.25,443.5 z"
         transform="matrix(1.3125,0,0,1.3125,-258.83567,-475.79344)" />
      <path
         transform="matrix(1.3125,0,0,1.3125,-273.08567,-472.04344)"
         d="M 462.25,443.5 L 459.30604,440.10034 L 452,441.75 L 455.39966,438.80604 L 453.75,431.5 L 456.69396,434.89966 L 464,433.25 L 460.60034,436.19396 L 462.25,443.5 z"
         inkscape:randomized="0"
         inkscape:rounded="0"
         inkscape:flatsided="false"
         sodipodi:arg2="1.1053447"
         sodipodi:arg1="0.95449939"
         sodipodi:r2="2.9098985"
         sodipodi:r1="7.3527207"
         sodipodi:cy="437.5"
         sodipodi:cx="458"
         sodipodi:sides="4"
         id="path4899"
         style="fill:#999999;fill-opacity:1;stroke:none;stroke-width:4;stroke-linecap:round;stroke-miterlimit:4;stroke-dasharray:none;stroke-opacity:1"
         sodipodi:type="star" />
      <path
         style="fill:#ff0000;fill-opacity:1;stroke:none;stroke-width:4;stroke-linecap:round;stroke-miterlimit:4;stroke-opacity:1"
         d="M 262.66433,54.800304 L 340.66433,54.800304 C 343.83479,55.732876 342.87092,57.492323 342.91433,59.050307 L 259.66433,59.050307 C 259.25868,56.93082 260.40497,55.587295 262.66433,54.800304 z"
         id="path4901"
         sodipodi:nodetypes="ccccc" />
      <path
         sodipodi:type="arc"
         style="fill:#ff0000;fill-opacity:1;stroke:none;stroke-width:4;stroke-linecap:round;stroke-miterlimit:4;stroke-dasharray:none;stroke-opacity:1"
         id="path4903"
         sodipodi:cx="393.125"
         sodipodi:cy="404.125"
         sodipodi:rx="3.625"
         sodipodi:ry="3.625"
         d="M 396.75,404.125 A 3.625,3.625 0 1 1 389.5,404.125 A 3.625,3.625 0 1 1 396.75,404.125 z"
         transform="translate(-135.08567,-344.69969)" />
    </g>
    <g
       id="g4943"
       transform="translate(0,-30.047624)">
      <path
         style="fill:#c87137;fill-opacity:1;stroke:none;stroke-width:4;stroke-linecap:round;stroke-miterlimit:4;stroke-opacity:1"
         d="M 201.92989,686.02586 C 201.92989,689.47818 201.55171,712.80297 200.83454,716.04051 C 199.07077,724.92226 193.36133,730.03588 184.78748,731.98216 C 180.80246,732.72556 176.26965,716.42465 171.35026,716.3338 C 166.43087,716.24295 161.12491,732.36218 155.59358,732.36218 C 150.03631,732.36218 144.70654,716.23383 139.76773,716.3087 C 134.82893,716.38358 130.28109,732.66168 126.28772,731.89089 C 117.24588,730.39035 112.51824,724.20533 110.28888,715.74834 C 109.61306,712.6007 109.25726,689.37445 109.25726,686.02586 C 109.25726,660.44822 130.01593,639.68955 155.59358,639.68955 C 181.17122,639.68955 201.92989,660.44822 201.92989,686.02586 z"
         id="path4984"
         sodipodi:nodetypes="cccsssccssc" />
      <path
         sodipodi:type="arc"
         style="fill:#ffffff;fill-opacity:1;stroke:none;stroke-width:4;stroke-linecap:round;stroke-miterlimit:4;stroke-dasharray:none;stroke-opacity:1"
         id="path4990"
         sodipodi:cx="239.5"
         sodipodi:cy="417.86218"
         sodipodi:rx="15.5"
         sodipodi:ry="15.5"
         d="M 255,417.86218 A 15.5,15.5 0 1 1 224,417.86218 A 15.5,15.5 0 1 1 255,417.86218 z"
         transform="matrix(0.7128664,0,0,0.7128664,13.0203,379.94798)" />
      <path
         sodipodi:type="arc"
         style="fill:#000000;fill-opacity:1;stroke:none;stroke-width:4;stroke-linecap:round;stroke-miterlimit:4;stroke-dasharray:none;stroke-opacity:1"
         id="path4994"
         sodipodi:cx="239.5"
         sodipodi:cy="417.86218"
         sodipodi:rx="15.5"
         sodipodi:ry="15.5"
         d="M 255,417.86218 A 15.5,15.5 0 1 1 224,417.86218 A 15.5,15.5 0 1 1 255,417.86218 z"
         transform="matrix(0.4369181,0,0,0.4369181,82.67424,495.9692)" />
      <path
         sodipodi:nodetypes="ccccc"
         id="path5016"
         d="M 108.94063,703.44381 C 145.67112,689.84386 166.04836,669.51582 186.72238,650.4108 C 188.06713,651.01059 189.31175,651.71051 189.72758,653.23922 C 172.34737,670.97196 155.85568,688.64916 109.11741,708.21678 C 108.23654,706.62579 107.94214,705.0348 108.94063,703.44381 z"
         style="fill:#000000;fill-rule:evenodd;stroke:none;stroke-width:1px;stroke-linecap:butt;stroke-linejoin:miter;stroke-opacity:1" />
      <path
         transform="matrix(0.7128664,0,0,0.7128664,-15.49436,379.94799)"
         d="M 255,417.86218 A 15.5,15.5 0 1 1 224,417.86218 A 15.5,15.5 0 1 1 255,417.86218 z"
         sodipodi:ry="15.5"
         sodipodi:rx="15.5"
         sodipodi:cy="417.86218"
         sodipodi:cx="239.5"
         id="path4998"
         style="fill:#000000;fill-opacity:1;stroke:none;stroke-width:4;stroke-linecap:round;stroke-miterlimit:4;stroke-dasharray:none;stroke-opacity:1"
         sodipodi:type="arc" />
      <path
         sodipodi:nodetypes="ccc"
         id="path5113"
         d="M 106.72549,679.42961 C 128.95012,680.69471 152.87301,663.20638 179.97549,644.17961 C 143.2718,619.46306 108.13153,647.90342 106.72549,679.42961 z"
         style="fill:#ff0000;fill-rule:evenodd;stroke:none;stroke-width:1px;stroke-linecap:butt;stroke-linejoin:miter;stroke-opacity:1" />
      <path
         style="fill:#ffffff;fill-opacity:1;stroke:none;stroke-width:4;stroke-linecap:round;stroke-miterlimit:4;stroke-dasharray:none;stroke-opacity:1"
         d="M 156.816,637.60365 C 155.93902,638.12796 156.43555,639.17063 157.52394,639.89456 C 157.74466,639.90591 157.95207,639.8355 158.14349,639.76807 C 158.0223,640.28733 158.11901,640.4254 158.0176,641.11276 C 158.70798,640.83265 159.05095,640.7293 159.67637,640.66576 C 159.65218,640.2252 159.75106,640.24947 159.70585,639.88719 C 159.87644,639.96055 160.04829,639.98739 160.24894,639.99772 C 162.24805,639.73847 162.05127,638.05743 160.35886,637.49039 C 159.83356,637.46333 159.4061,637.66877 159.13175,638.0212 C 158.70957,637.69303 158.15923,637.54605 157.66579,637.33595 C 157.30816,637.39184 157.01837,637.48267 156.816,637.60365 z M 150.66875,643.33852 C 150.29476,643.55188 149.97131,643.99737 149.7732,644.61658 C 149.79139,645.14226 150.0355,645.56719 150.41023,645.81023 C 150.11618,646.27017 149.999,646.8056 149.85055,647.32593 C 150.27813,649.27176 151.97514,648.94961 152.4024,647.25011 C 152.39473,647.02921 152.33655,646.8296 152.25289,646.6447 C 152.52268,646.68358 152.51283,646.6741 152.82791,646.70394 C 152.81706,646.11546 152.81634,645.69295 153.22856,645.03229 C 152.64117,645.11211 152.6483,645.00049 152.1915,645.09798 C 152.24992,644.92168 152.31788,644.71853 152.31093,644.51775 C 152.02246,643.27277 151.29207,642.98294 150.66875,643.33852 z M 156.43559,642.30486 C 153.90937,643.85426 152.55444,646.25805 153.42105,647.67102 C 154.05007,648.69661 155.68659,648.91992 157.49533,648.37256 C 157.56842,648.5097 157.62898,648.64213 157.71239,648.77812 C 158.97291,650.83336 160.93944,651.9322 162.09552,651.22315 C 163.25159,650.51412 163.16359,648.26312 161.90305,646.20788 C 161.80117,646.04178 161.6937,645.89154 161.58347,645.73847 C 162.71852,644.44036 163.17513,643.01216 162.58525,642.05039 C 161.71865,640.63741 158.96181,640.75546 156.43559,642.30486 z M 158.95734,643.41993 C 159.32593,643.19386 159.80223,643.29922 160.0205,643.6551 C 160.23878,644.01098 160.11677,644.4833 159.74818,644.70936 C 159.37959,644.93543 158.90329,644.83007 158.68502,644.47419 C 158.46674,644.1183 158.58874,643.646 158.95734,643.41993 z M 156.59399,645.24967 C 156.96257,645.02361 157.43888,645.12896 157.65715,645.48485 C 157.87542,645.84073 157.75342,646.31304 157.38483,646.53911 C 157.01623,646.76518 156.53994,646.65982 156.32166,646.30394 C 156.10338,645.94805 156.22539,645.47574 156.59399,645.24967 z M 164.84912,642.84831 C 164.47514,643.06168 164.12866,643.5213 163.93054,644.1405 C 163.93881,644.37938 163.99791,644.57311 164.09418,644.76895 C 163.62045,644.68651 163.48636,644.63746 162.84159,644.58658 C 162.63461,644.97992 162.47193,645.26781 162.13393,645.65435 C 162.34155,645.88462 162.36654,646.13694 162.52566,646.39638 C 163.51609,646.25938 163.91003,646.20716 164.51876,646.02953 C 164.33269,646.29193 164.19142,646.64927 164.20407,647.01472 C 164.64683,648.93664 166.33578,648.66134 166.75592,646.9389 C 166.73021,646.19635 166.23449,645.58987 165.6025,645.52327 C 166.17613,645.17365 166.26116,644.66672 166.46827,644.04166 C 166.17979,642.7967 165.47245,642.49274 164.84912,642.84831 z M 157.25556,648.96325 C 156.95731,649.91851 157.50549,650.92626 157.67031,652.06771 C 157.42487,651.85977 157.08223,651.72055 156.71705,651.70174 C 154.74005,651.97219 154.96405,653.66273 156.62125,654.2321 C 157.36326,654.27033 157.97268,653.79471 158.09335,653.17078 C 158.41024,653.77388 158.90203,653.93785 159.51633,654.19927 C 161.51544,653.93999 161.32755,652.22183 159.63516,651.65479 C 159.39646,651.6425 159.16774,651.67027 158.96434,651.74935 C 159.05643,651.40096 158.94875,651.2696 159.02944,650.82218 C 158.48067,650.37488 158.30178,650.10076 157.8619,649.38354 C 157.77849,649.24756 157.32866,649.10038 157.25556,648.96325 z M 158.97909,648.98352 L 161.46587,647.45832 L 161.8048,648.01093 L 159.31803,649.53613 L 158.97909,648.98352 z"
         id="path2901" />
      <path
         sodipodi:nodetypes="csc"
         id="path5119"
         d="M 83.78439,674.18891 C 83.78439,674.18891 107.26627,667.73374 103.7363,679.66244 C 101.59372,686.90281 85.96288,676.29774 83.78439,674.18891 z"
         style="fill:#ff0000;fill-rule:evenodd;stroke:none;stroke-width:1px;stroke-linecap:butt;stroke-linejoin:miter;stroke-opacity:1" />
      <path
         style="fill:#ff0000;fill-rule:evenodd;stroke:none;stroke-width:1px;stroke-linecap:butt;stroke-linejoin:miter;stroke-opacity:1"
         d="M 86.84178,697.26453 C 86.84178,697.26453 102.7929,673.60009 108.63014,686.63022 C 112.17318,694.53914 90.35646,697.40973 86.84178,697.26453 z"
         id="path5121"
         sodipodi:nodetypes="csc" />
      <path
         transform="matrix(1.4125247,0,0,1.4125247,-112.90968,268.08805)"
         d="M 158.5,292 A 4,4 0 1 1 150.5,292 A 4,4 0 1 1 158.5,292 z"
         sodipodi:ry="4"
         sodipodi:rx="4"
         sodipodi:cy="292"
         sodipodi:cx="154.5"
         id="path5123"
         style="fill:#ff0000;fill-opacity:1;stroke:none;stroke-width:4;stroke-linecap:round;stroke-miterlimit:4;stroke-dasharray:none;stroke-opacity:1"
         sodipodi:type="arc" />
    </g>
  </g>
  <g
     inkscape:groupmode="layer"
     id="layer3"
     inkscape:label="censor"
     style="display:inline">
    <rect
       style="opacity:1;fill:#000000;fill-opacity:1;fill-rule:nonzero;stroke:none;stroke-width:4;stroke-linejoin:miter;stroke-miterlimit:4;stroke-dasharray:none;stroke-opacity:1"
       id="rect3447"
       width="530.02618"
       height="259.00525"
       x="106.80628"
       y="716.3089" />
  </g>
</svg>
